<svg xmlns="http://www.w3.org/2000/svg" xmlns:xlink="http://www.w3.org/1999/xlink" width="524" height="650" viewBox="0 0 524 650">
  <defs>
    <polygon id="b1-p2-a" points="51.321 28 .639 28 .639 .522 51.321 .522"/>
    <polygon id="b1-p2-c" points="12.329 37.924 12.329 .035 .746 .035 .746 37.924 12.329 37.924"/>
    <polygon id="b1-p2-e" points="28.169 29.395 28.169 .646 .025 .646 .025 29.395 28.169 29.395"/>
    <polygon id="b1-p2-g" points="7.089 18.844 34 35 33.911 20.156 7 4"/>
    <polygon id="b1-p2-h" points="7.089 18.844 34 35 33.911 20.156 7 4"/>
    <polygon id="b1-p2-i" points="7.089 18.844 34 35 33.911 20.156 7 4"/>
    <linearGradient id="b1-p2-j" x1="40.907%" x2="20.011%" y1="79.405%" y2="16.576%">
      <stop offset="0%" stop-color="#E7F5F9" stop-opacity="0"/>
      <stop offset="100%" stop-color="#1A6780" stop-opacity=".521"/>
    </linearGradient>
  </defs>
  <g id="B1-P2" fill="none" fill-rule="evenodd" transform="translate(0 -279)" opacity="0">
    <g transform="translate(0 348)">
      <path fill="#940700" d="M8.13523924,9.03151632 C5.81925867,12.6920188 4.51807229,17.4009691 4.51807229,23.0004456 C4.51807229,42.499004 20.2959892,65.4121912 39.7590361,74.1784816 C59.2220831,82.9447721 75,74.2445498 75,54.7459914 C75,35.247433 59.2220831,12.3342457 39.7590361,3.56795532 C27.473922,-1.96534475 16.6570224,-0.539707276 10.3494431,6.16794834 L7.04818174,9.26046213 L8.13523924,9.03151632 Z"/>
      <path fill="#ED0000" d="M35.2409639,78.4280514 C54.7040108,87.1943419 70.4819277,78.4941196 70.4819277,58.9955612 C70.4819277,39.4970028 54.7040108,16.5838155 35.2409639,7.81752513 C15.7779169,-0.948765294 0,7.75145693 0,27.2500154 C0,46.7485738 15.7779169,69.661761 35.2409639,78.4280514 Z"/>
      <g fill="#FFF" transform="translate(21 21)">
        <path d="M19.8628037,12.0216252 C21.9029329,13.262895 23.9430622,14.5041648 25.9828914,15.745252 C26.3828756,15.9889791 26.3783746,15.9324601 26.3783746,16.4559967 C26.3780746,19.7627653 26.3783746,23.0695332 26.3777745,26.3757535 C26.3777745,26.7759974 26.3765743,26.7774622 26.0450045,26.5760921 C25.2648403,26.1032484 24.4846762,25.6267461 23.7048121,25.1529874 C23.3072284,24.9114527 23.3516378,24.9509115 23.3516378,24.5173749 C23.3507376,22.512315 23.3510376,20.5079854 23.3510376,18.5034732 C23.3510376,18.4006683 23.3456365,18.2945773 23.3516378,18.1965213 C23.3636403,18.006263 23.3123295,17.8598002 23.1301912,17.777153 C23.0830813,17.7558072 23.034471,17.7203777 22.9864609,17.6911671 C19.9984322,15.8731696 17.0101034,14.0707213 14.0220747,12.2315043 C12.0689637,11.0296422 10.6526657,11.9745136 10.2778869,13.4594148 C9.95291849,14.7477928 10.2400789,17.32507 11.9909473,19.7191261 C12.4317401,20.3217066 12.9079403,20.8415616 13.3982434,21.3403632 C14.5492856,22.5111762 15.6613196,23.7650848 16.6713321,25.2148476 C17.6513383,26.6214757 18.4708108,28.1107966 18.9455107,29.7499827 C19.5612402,31.8763165 19.5525384,33.6699245 19.0466319,35.125532 C18.1482429,37.7120986 16.3058552,38.5276035 13.7064083,37.8372492 C13.0813768,37.6713534 12.4368411,37.3542005 11.7854041,36.956751 C9.16915358,35.3598315 6.55320315,33.7715092 3.93695265,32.1793458 C3.86523756,32.1357124 3.79292235,32.0869578 3.72120726,32.0469829 C3.61408472,31.9869286 3.56997544,31.8978962 3.57297607,31.7727707 C3.57567663,31.6577065 3.57297607,31.5389902 3.57297607,31.4215512 C3.572676,26.7538076 3.57297607,22.0867951 3.57237594,17.418869 C3.57237594,16.8550885 3.62668737,16.9064257 3.12558193,16.6019055 C2.189685,16.0339439 1.25348801,15.4657997 0.31759109,14.895643 C0.00282485846,14.7041308 0.000124290221,14.6995608 0.000124290221,14.3212681 C-0.000175772916,9.66815875 0.000124290221,5.01578034 0.000424353358,0.363401929 C0.000424353358,0.275597051 -0.000175772917,0.18742704 0.00342498473,0.10181296 C0.00762586865,0.000466452717 0.0547357812,-0.0253827979 0.140553839,0.0250019602 C0.212568991,0.0673545117 0.284584144,0.110072917 0.356599297,0.153888883 C2.32471342,1.35097687 4.29252747,2.54824815 6.26064159,3.74570199 C6.29664916,3.76760997 6.33265674,3.7891521 6.36866432,3.8125235 C6.6390212,3.98799155 6.64412228,3.99109518 6.64502247,4.33078922 C6.64742297,5.34200585 6.64652278,6.35084839 6.64532253,7.35987423 C6.6447224,7.74292373 6.64292202,7.74585272 6.33595744,7.55981887 C5.38805798,6.98528634 4.44015853,6.40746112 3.49195902,5.8305509 C3.40794134,5.77943227 3.32392366,5.73124047 3.23990598,5.67646331 C3.13698433,5.6098186 3.08387315,5.62945555 3.08717385,5.76207353 C3.08957435,5.85133894 3.08657372,5.93731816 3.08657372,6.02512304 L3.08657372,12.3459767 C3.08747391,12.8389634 3.06166848,12.7841164 3.40704115,12.997909 C3.50306136,13.057062 3.59908156,13.1151174 3.69510176,13.1735387 C4.54698101,13.691845 5.39916032,14.2099681 6.25133963,14.7284571 C6.64382221,14.9672541 6.64532253,14.9685328 6.64532253,15.4393864 C6.64592266,20.0926784 6.64592266,24.7456052 6.64562259,29.3983495 C6.64562259,30.1176178 6.64532253,30.1174352 7.23224603,30.4745353 C8.48050868,31.2336462 9.72877133,32.0169035 10.9764339,32.7456492 C12.4653471,33.6145931 13.7964272,33.8387265 14.9204637,33.3065231 C15.4617776,33.0508731 15.858161,32.5841167 16.0423998,31.8353589 C16.3736695,30.4878879 15.886367,28.7020097 14.7419262,27.0365546 C14.2267178,26.2866245 13.662299,25.6223632 13.0789763,24.9952587 C12.5199586,24.3939178 11.9552398,23.806669 11.3989228,23.1989224 C9.86049905,21.5172941 8.62363879,19.5647548 7.89478543,17.2902032 C6.75394539,13.7296218 6.6594255,10.7800402 8.073323,8.85834247 C9.25497164,7.2526553 10.9917371,6.97544791 13.2410104,8.04360073 C13.5281708,8.17990226 13.814431,8.3409 14.1027917,8.51671228 M19.0395042,41.2905592 C19.153959,41.2334278 19.2708425,41.1807137 19.382565,41.1186129 C21.4148205,39.9869046 22.3969458,37.6827375 22.4106075,34.2859305 C22.4203225,31.7891687 21.5869581,29.1965055 20.2563073,26.5555523 C18.9086554,23.8803711 17.256499,21.5898295 15.2691754,19.7541931 C14.9877441,19.4944083 14.7120811,19.2124119 14.453723,18.888032 C13.7685122,18.0272569 13.4454886,16.8974085 13.6774341,16.172461 C13.9066473,15.4572418 14.5912509,15.3365675 15.3520564,15.9170448 C19.0558983,18.7437776 21.8693001,22.7256068 23.86391,27.7198302 C24.8250874,30.1264322 25.4219524,32.4910577 25.5579623,34.7351254 C25.7522622,37.9509099 25.3703414,40.6863978 24.0263326,42.5807831 C23.7382223,42.987523 23.3945543,43.3093852 23.0074725,43.5644141 C22.9030363,43.6335202 22.7973857,43.657794 22.6322308,43.5562069 C21.4442691,42.8260699 20.2563073,42.1065889 19.0683456,41.3838009"/>
      </g>
    </g>
    <polygon fill="#B6E3F1" points="0 .015 0 615.023 492 893 492 279" transform="translate(62)"/>
    <g transform="translate(62 188)">
      <polygon fill="#FFF" points="0 15 0 134.212 492 412.204 492 294"/>
      <polygon fill="#008CD6" points="0 124 0 134.314 492 412.306 492 403"/>
      <polygon fill="#00A040" points="0 0 0 50.671 492 328.663 492 279"/>
    </g>
    <g transform="translate(214 539)">
      <polygon fill="#FFF" points="74 42.743 0 0 0 65.261 74 108"/>
      <path fill="#FF989C" d="M55,82 L45.6631016,77.1783368 L43.3048128,69.2744418 L30.3582888,62.5887335 L28.0962567,68.1066508 L19,63.4092572 L32.1390374,36 L41.6684492,40.921079 L55,82 Z M32.5721925,57.1414773 L41.0909091,61.5406236 L36.855615,46.8410083 L36.7593583,46.7913004 L32.5721925,57.1414773 Z"/>
      <g transform="translate(12 238.585)">
        <mask id="b1-p2-b" fill="#fff">
          <use xlink:href="#b1-p2-a"/>
        </mask>
        <path fill="#D2ECF4" d="M18.3913,2.0688 C31.7413,-1.4262 45.9613,1.2008 50.1493,7.9308 C54.3423,14.6668 46.9223,22.9588 33.5693,26.4488 C20.2233,29.9488 5.9983,27.3278 1.8093,20.5888 C-2.3817,13.8528 5.0413,5.5668 18.3913,2.0688" mask="url(#b1-p2-b)"/>
      </g>
      <path fill="#FCD0A4" d="M14.4909,81.268 C14.4909,81.268 10.1159,83.268 10.1159,84.643 C10.1159,86.018 10.6159,108.393 12.2409,111.893 C13.8659,115.393 19.9909,137.143 22.7409,136.018 C25.4909,134.893 30.7409,129.518 30.3659,127.018 C29.9909,124.518 23.8659,115.143 22.3659,110.893 C20.8659,106.643 15.6159,91.268 15.4909,87.518 C15.3659,83.768 14.4909,81.268 14.4909,81.268"/>
      <path fill="#4D6E9B" d="M16.6882,124.7959 C16.6882,124.7959 18.5692,126.5529 22.0612,124.4959 C25.5512,122.4399 26.2842,118.5809 26.2842,118.5809 C26.2842,118.5809 31.0672,125.9129 32.4092,127.4559 C33.7502,128.9979 38.2132,131.2209 36.4092,133.7679 C34.3502,136.6719 27.0592,144.0809 24.0812,141.5119 C21.8662,139.6019 16.2862,125.9529 16.6882,124.7959"/>
      <path fill="#2F2A37" d="M46.6628,252.5688 C46.6628,252.5688 40.7758,257.1218 39.8758,258.2188 C38.9768,259.3148 41.4068,262.1528 44.0588,261.2368 C46.7138,260.3208 52.2718,257.2038 52.3718,255.7018 C52.4748,254.1998 51.6918,251.8558 51.6918,251.8558 L46.6628,252.5688 Z"/>
      <path fill="#9FA3A4" d="M54.0554,185.5219 C54.0554,185.5219 54.1764,251.8479 53.4574,252.5079 C53.1164,252.8209 49.8134,254.4609 48.2314,254.0959 C46.6514,253.7329 46.2354,252.8769 46.2354,252.8769 L38.6494,189.6629 L54.0554,185.5219 Z"/>
      <path fill="#2F2A37" d="M31.1608,244.0044 C31.1608,244.0044 24.9928,248.1644 24.0238,249.2034 C23.0558,250.2384 25.2978,253.2294 28.0048,252.4844 C30.7098,251.7424 36.7058,248.7644 36.9028,247.2724 C37.1038,245.7814 36.4728,243.3894 36.4728,243.3894 L31.1608,244.0044 Z"/>
      <path fill="#9FA3A4" d="M41.3737,183.3032 C41.3737,183.3032 38.6447,244.6392 37.8857,245.2502 C37.5237,245.5412 34.1827,246.0962 32.6277,245.6292 C31.0727,245.1642 30.7137,244.2832 30.7137,244.2832 L27.5627,182.9082 L41.3737,183.3032 Z"/>
      <path fill="#5F82B1" d="M41.7233,130.7651 C41.7233,130.7651 31.2433,129.7681 27.9093,132.7681 C24.5753,135.7681 23.3173,141.2581 23.7843,144.6431 C24.2843,148.2681 26.5393,184.3871 26.5393,185.1371 C26.5393,185.8871 31.2073,191.5531 40.9573,191.5531 C50.7073,191.5531 55.0393,186.3031 55.8733,184.3871 C56.7073,182.4691 54.9573,158.4701 55.2073,157.7201 C55.4573,156.9701 57.4093,138.0181 55.6593,135.0181 C53.9093,132.0181 45.4733,131.1821 41.7233,130.7651"/>
      <path fill="#FFD0A4" d="M27.5202,116.4848 C27.9572,126.2608 31.7072,131.8448 39.4582,130.1778 C47.2072,128.5108 48.2662,121.6578 48.1242,115.3448 C47.9812,109.0308 42.8112,104.7028 37.2802,104.8278 C31.7472,104.9528 27.2372,110.1748 27.5202,116.4848"/>
      <path fill="#FFD0A4" d="M35.6901,127.4536 L36.7351,132.0606 C36.7351,132.0606 32.9971,133.5386 32.3871,135.7126 C31.7781,137.8866 35.1761,140.5466 39.5591,137.6246 C43.9441,134.7026 45.6901,132.4086 45.6901,132.4086 L45.1671,124.4536 L35.6901,127.4536 Z"/>
      <path fill="#4A9EA1" d="M26.2429,111.3393 C26.9399,112.7303 28.2429,114.8183 32.1549,114.6433 C36.0689,114.4693 38.5029,113.3393 39.1099,113.9473 C39.7199,114.5563 39.1099,117.9463 40.3289,118.2073 C41.5459,118.4683 45.9789,121.2503 47.8909,119.6863 C49.8049,118.1203 49.7179,113.6883 49.0219,109.6883 C48.3269,105.6883 41.1979,100.5593 35.9809,102.3853 C30.7639,104.2103 29.8089,105.9483 28.6789,106.1223 C27.5479,106.2973 25.3739,107.0793 25.3739,108.2963 C25.3739,109.2683 25.5479,109.9483 26.2429,111.3393"/>
      <path fill="#FCD0A4" d="M10.1159,85.268 C10.1159,85.268 9.1159,77.268 12.9909,73.393 C16.8659,69.518 19.4909,73.018 19.6159,75.518 C19.7409,78.018 17.6159,78.893 16.4909,80.268 C15.3659,81.643 14.7409,82.893 13.4909,83.643 C12.2409,84.393 10.7409,86.893 10.1159,85.268"/>
      <g transform="translate(44 88)">
        <path fill="#4D6E9B" d="M12.9206,37.7431 C11.1066,36.6871 10.2776,36.6091 9.1666,37.8321 C8.0556,39.0541 5.9696,42.2111 5.3506,43.2811 C4.7356,44.3511 0.5276,48.3801 0.5496,50.2301 C0.5886,53.3921 7.8506,60.5171 11.6566,57.7981 C15.4636,55.0801 17.8036,46.1311 18.0336,44.0181 C18.2606,41.9051 15.6496,39.3321 12.9206,37.7431"/>
        <g transform="translate(7 8.585)">
          <mask id="b1-p2-d" fill="#fff">
            <use xlink:href="#b1-p2-c"/>
          </mask>
          <path fill="#FCD0A4" d="M3.2624,1.6625 C3.2624,1.6625 4.0164,20.5815 4.0694,22.9155 C4.1214,25.2495 2.5574,29.9495 1.0064,32.5465 C-0.5466,35.1435 5.2414,38.6035 7.7834,37.8075 C10.3264,37.0115 11.2834,31.3075 12.0924,28.3025 C12.9204,25.2235 11.3564,14.0955 10.7894,11.6485 C10.2214,9.2015 8.0184,0.0345 8.0184,0.0345 L3.2624,1.6625 Z" mask="url(#b1-p2-d)"/>
        </g>
        <path fill="#FCD0A4" d="M12.6315,2.8794 C12.6315,2.8794 8.1565,-1.3916 6.1585,1.6434 C4.1565,4.6764 5.1705,9.0344 7.2835,9.7684 C9.3955,10.5014 11.5435,12.6104 11.7585,12.9564 C11.9735,13.3024 15.1585,14.5254 15.5145,11.4544 C15.8695,8.3814 14.2525,3.4694 12.6315,2.8794"/>
      </g>
    </g>
    <g transform="translate(288 667)">
      <path fill="#D2ECF4" d="M57.5354,133.4597 C69.6564,130.2867 82.5664,132.6717 86.3694,138.7817 C90.1764,144.8977 83.4394,152.4257 71.3164,155.5947 C59.1994,158.7717 46.2854,156.3927 42.4804,150.2737 C38.6764,144.1587 45.4144,136.6357 57.5354,133.4597"/>
      <path fill="#FFE9D4" d="M51.3421,43.3356 L49.7331,54.6716 C49.7331,54.6716 53.0261,62.6756 55.3911,59.6126 C57.7541,56.5506 58.7741,43.1046 58.7741,43.1046 L51.3421,43.3356 Z"/>
      <path fill="#619AAF" d="M65.9573,29.1999 C65.9573,29.1999 59.6583,27.2609 56.3343,29.3689 C53.0083,31.4739 51.5143,34.7809 50.7953,38.0389 C50.0743,41.3009 50.4943,45.5169 50.4943,45.5169 C50.4943,45.5169 51.1253,46.3119 54.6723,46.0349 C58.2193,45.7569 65.9573,29.1999 65.9573,29.1999"/>
      <path fill="#4A9EA1" d="M58.0315,14.5729 C58.0315,14.5729 56.8865,26.4889 57.8555,27.7389 C58.8225,28.9889 66.8305,28.7389 68.0605,26.1559 C69.2935,23.5729 67.4455,15.3229 67.4455,15.3229 L58.0315,14.5729 Z"/>
      <path fill="#56575C" d="M69.6272,144.0007 C69.6272,144.0007 63.3422,147.9827 62.3442,148.9927 C61.3462,150.0007 62.3442,152.2097 65.0702,151.5437 C67.7972,150.8777 72.9022,148.6437 73.1432,147.1567 C73.3852,145.6727 72.9162,143.6297 72.9162,143.6297 L69.6272,144.0007 Z"/>
      <path fill="#FFE9D4" d="M77.8538,90.3522 L73.1178,144.2722 C73.1178,144.2722 71.1958,146.2862 69.6388,144.3772 C68.0748,142.4572 68.3498,91.1162 68.3498,91.1162 L77.8538,90.3522 Z"/>
      <path fill="#56575C" d="M58.7112,137.7097 C58.7112,137.7097 52.4242,141.6917 51.4262,142.7017 C50.4282,143.7097 51.4282,145.9187 54.1522,145.2527 C56.8792,144.5867 61.9842,142.3527 62.2272,140.8657 C62.4672,139.3817 61.9982,137.3387 61.9982,137.3387 L58.7112,137.7097 Z"/>
      <path fill="#FFE9D4" d="M66.9378,84.0612 L62.1998,137.9812 C62.1998,137.9812 60.2798,139.9952 58.7228,138.0862 C57.1588,136.1662 57.4338,84.8252 57.4338,84.8252 L66.9378,84.0612 Z"/>
      <path fill="#619AAF" d="M63.178,28.2097 C66.151,27.6547 77.51,30.9207 79.104,36.1337 C80.698,41.3477 77.828,59.6167 78.643,66.6517 C79.457,73.6867 83.858,96.0987 82.746,97.7647 C81.635,99.4307 73.852,103.4597 64.619,101.3717 C55.389,99.2817 51.924,94.7687 52.797,89.8267 C53.67,84.8877 57.44,64.6697 56.653,58.9447 C55.867,53.2227 53.711,52.1227 54.405,46.5307 C55.1,40.9387 58.688,29.0477 63.178,28.2097"/>
      <path fill="#FFE9D4" d="M56.4319,15.3708 C56.5769,21.8158 61.2719,26.9378 66.9199,26.8118 C72.5669,26.6848 77.0279,21.3548 76.8829,14.9108 C76.7389,8.4658 72.0409,3.3438 66.3949,3.4718 C60.7469,3.5978 56.2859,8.9258 56.4319,15.3708"/>
      <g fill="#3A4D57" transform="matrix(-1 0 0 1 73 14)">
        <path d="M16.7073864,2.596187 C16.7073864,3.01530874 16.342803,3.47696292 15.8939394,3.62494037 L14.4839015,4.0688727 C14.0075758,4.22571106 13.5975379,4.02722635 13.530303,3.60810461 L13.313447,2.25149703 C13.2964015,2.14250766 13.3314394,2.0202269 13.4119318,1.90680706 C13.4924242,1.79338722 13.6051136,1.70832234 13.7282197,1.66756209 L16.4176136,0.802735836 C16.5776515,0.75045638 16.7073864,0.82931861 16.7073864,0.978182146 L16.7073864,2.596187 Z M11.2642045,4.35330838 C11.1960227,4.81762084 10.7859848,5.28547766 10.3096591,5.44231603 L8.10606061,6.16802577 C7.65814394,6.31511712 7.29356061,6.093594 7.29356061,5.67447226 L7.29356061,4.0564674 C7.29356061,3.90760387 7.42329545,3.74279067 7.58333333,3.69051121 L11.0653409,2.54390755 C11.188447,2.50403339 11.3011364,2.5146665 11.3816288,2.57492078 C11.4630682,2.63517507 11.4971591,2.73441743 11.4801136,2.85403991 L11.2642045,4.35330838 Z M16.4176136,0.0610764352 L13.7282197,0.92590269 C13.3768939,1.04109471 13.0435606,1.29363107 12.813447,1.61705482 C12.6846591,1.79870378 12.6060606,1.99009975 12.561553,2.17972354 L12.2320076,2.28782682 C12.1875,2.12833018 12.1098485,1.98744147 11.9801136,1.89085739 C11.75,1.71895545 11.4166667,1.68617003 11.0653409,1.80224815 L7.58333333,2.94796572 C6.98579545,3.14467825 6.5,3.75874033 6.5,4.31786468 L6.5,5.93498345 C6.5,6.76347991 7.22064394,7.20120959 8.10606061,6.90968517 L10.3096591,6.18486153 C11.1780303,5.89865366 11.9261364,5.0453466 12.0482955,4.20001438 L12.2168561,3.03568887 L12.5767045,2.91695248 L12.7452652,3.97051643 C12.8674242,4.73521424 13.6155303,5.09673997 14.4839015,4.8105321 L15.8939394,4.36659977 C16.7793561,4.07507534 17.5,3.16328619 17.5,2.33478972 L17.5,0.717670959 C17.5,0.158546607 17.0142045,-0.135636094 16.4176136,0.0610764352 L16.4176136,0.0610764352 Z"/>
        <path d="M6.89158453,3.73224077 C6.89158453,3.73224077 2.06216831,2.5184009 1.60879454,2.50073434 C1.15617892,2.48306778 0.896777601,2.71257418 0.896777601,2.71257418 C0.896777601,2.71257418 2.00249952,2.79647206 2.47687448,3.35756399 L7,4.5 L6.89158453,3.73224077 Z"/>
      </g>
      <path fill="#FFE9D4" d="M65.6175,25.3854 L65.5805,29.2204 C65.5805,29.2204 61.2325,32.8444 61.4145,33.5784 C61.5945,34.3134 63.0415,36.7404 67.2445,33.9404 C71.4455,31.1394 71.3325,29.7464 71.3325,29.7464 L71.2055,24.0914 L65.6175,25.3854 Z"/>
      <path fill="#4A9EA1" d="M56.6936,11.5007 C56.6936,11.5007 59.5846,14.0727 63.2506,13.9887 C66.9186,13.9047 68.5486,14.1137 69.5846,16.0727 C72.4966,21.5847 69.7526,28.7997 69.9616,30.7627 C70.1686,32.7277 77.9946,30.5817 80.2346,28.0707 C82.4746,25.5617 81.7776,9.1727 79.0626,5.1347 C76.3456,1.0957 69.3306,-0.8803 64.6036,0.3747 C59.8736,1.6297 55.5936,6.4397 56.6936,11.5007"/>
      <g transform="translate(1 6)">
        <polygon fill="#FFF" points="73.229 42.414 .246 .138 .246 64.688 73.229 106.963"/>
        <polygon fill="#FF989C" points="30.265 71.051 38.69 75.428 38.69 48.654 48.773 53.893 48.773 46.917 20.182 32.063 20.182 39.039 30.265 44.277"/>
      </g>
      <path fill="#FFE9D4" d="M1.0433,0.6627 C1.0433,0.6627 5.7753,-0.9443 7.2033,1.7327 C8.6333,4.4127 8.2733,7.2677 6.6683,8.1607 C5.0613,9.0537 1.5783,8.9657 1.0433,8.1607 C0.5083,7.3577 -1.0097,1.9127 1.0433,0.6627" transform="translate(0 38.003)"/>
      <g transform="rotate(-13 197.763 -246.733)">
        <g transform="translate(0 15.003)">
          <mask id="b1-p2-f" fill="#fff">
            <use xlink:href="#b1-p2-e"/>
          </mask>
          <path fill="#FFE9D4" d="M17.7249,3.7096 C17.7249,3.7096 21.7229,13.3016 21.7229,14.4166 C21.7229,15.5296 14.6959,18.9536 12.9439,20.3876 C11.1919,21.8216 8.8949,22.2886 8.8949,22.2886 C8.8949,22.2886 3.3599,20.3796 0.9709,22.1306 C-1.4181,23.8826 1.1189,28.5776 4.1449,29.2146 C7.1699,29.8516 10.1679,28.6576 11.1249,27.8626 C12.0779,27.0656 21.3689,23.4746 25.3499,20.2096 C29.3299,16.9456 28.0789,12.0066 27.5999,10.3346 C27.1229,8.6626 25.7519,0.6456 25.7519,0.6456 L17.7249,3.7096 Z" mask="url(#b1-p2-f)"/>
        </g>
        <path fill="#619AAF" d="M15.5354,0.7556 C17.2734,-0.5824 19.3714,0.3706 20.9204,1.4976 C24.5214,4.1176 26.9634,18.0696 26.2114,18.7356 C25.4574,19.4006 20.2254,22.3376 18.1004,21.2126 C17.4374,20.8626 15.3054,15.5386 14.7254,13.4626 C14.0944,11.1986 13.4904,7.1126 13.3904,4.7376 C13.3184,3.0286 15.4864,0.7926 15.5354,0.7556"/>
      </g>
    </g>
    <g transform="translate(403 694)">
      <polygon fill="#FFF" points="72.983 42.277 0 0 0 64.55 72.983 106.826"/>
      <polygon fill="#FF989C" points="18.5 62.438 25.923 66.294 25.923 40.133 32.542 69.733 39.729 73.467 46.301 50.72 46.395 76.93 53.818 80.787 53.818 47.037 41.856 40.822 36.23 59.676 30.462 34.902 18.5 28.688"/>
      <g transform="translate(43 73)">
        <path fill="#FFCFA9" d="M38,43 C38,43 22.8812969,42.8905913 16.5460011,39.0102805 C9.64124057,35.0848755 3.96200345,26.6382318 2.02831825,21.2454203 C1.59828427,17.7657816 6.20830722,19.3684705 6.20830722,19.3684705 C6.20830722,19.3684705 11.4061411,28.6962973 19.7580467,32.8176029 C24.7951683,35.3029535 30.3621269,33.898383 35.2642207,32.8434766 L38,43 Z"/>
        <path fill="#FFCFA9" d="M5.97319469,17.6785383 C5.64856367,17.703117 5.63683002,18.0416007 5.74477961,18.4489047 C2.05180835,14.0760046 -0.949659714,16.2838732 0.280026967,19.4446927 C0.411443864,19.7894966 0.553029926,20.1925871 0.748590785,20.6553687 L0.721212265,20.6567732 C0.721212265,20.6567732 0.808823529,20.8393578 0.961360999,21.1321953 C1.17647794,21.5872522 1.45104539,22.0963822 1.82808673,22.6715235 C1.82808673,22.6715235 1.83356243,22.6659056 1.83356243,22.6652033 C2.27083651,23.3695583 2.8019798,24.1357112 3.36988854,24.743156 C3.74771212,25.15046 4.00507021,25.0366957 4.18185722,24.6581839 C5.68141789,24.3520037 7.91863412,22.0998934 7.91863412,22.0998934 C7.91863412,22.0998934 8.1595651,21.6167466 7.81224901,20.5689922 L7.85840137,20.5893574 C7.58226944,20.1651994 6.81958209,17.6139315 5.97319469,17.6785383"/>
        <path fill="#D2ECF4" d="M92.7870987,131.294347 C105.081207,138.335356 105.069355,149.732642 92.7611727,156.750923 C80.4522498,163.767006 60.5077501,163.747211 48.2129013,156.706202 C35.9187932,149.663727 35.9306451,138.266442 48.2388273,131.249626 C60.548491,124.232811 80.4922499,124.252605 92.7870987,131.294347"/>
        <path fill="#323843" d="M53.3298451,130.021168 C52.2091067,130.156067 52.0821338,130.798863 51.2043321,134.189022 C51.0986436,134.566443 49.6799224,135.885207 49.3569854,136.140261 C48.3698255,136.918693 44.0776985,139.24072 44.0776985,139.24072 C44.0776985,139.24072 40.9158511,142.122982 45.4237588,142.762092 C49.9309326,143.401202 53.6036077,142.938271 57.3731638,139.053484 C58.3823421,137.663216 59.2762906,134.002522 58.9203259,132.409538 C57.764358,131.215353 55.075907,129.810343 53.3298451,130.021168"/>
        <path fill="#414046" d="M83.2890352,79.8610974 C82.6959506,77.5506751 82.7025813,75.2011056 83.2183071,73 L57.6817776,76.9043773 C57.6817776,76.9043773 59.5649134,82.516458 59.2075891,85.6622663 C57.6250478,90.9670786 56.067556,96.4225706 55.6689736,98.6214604 C54.9138038,102.792482 52.003637,125.053932 51.1158519,131.15129 C50.9699752,132.149913 50.8653566,133.124899 51.4245506,133.962501 L51.8371312,134.580731 C53.5331322,136.281048 56.5935963,136.513715 58.4465253,134.951521 C58.4465253,134.951521 59.107391,134.423404 59.2436899,132.912913 C60.1020049,127.073336 65.6055356,106.710154 67.9086195,102.478566 C69.2030911,100.100928 72.0926289,93.5382359 76.1454966,92.129676 C78.6371888,91.3400848 79.1507043,91.317926 82.2177991,93.8034027 C84.5975051,91.4220723 80.6603073,83.067473 84,82.8288968 C83.7723439,81.8376607 83.5424776,80.8479018 83.2890352,79.8610974"/>
        <path fill="#414046" d="M119.760527,96.216788 C118.828969,93.4458796 117.087169,93.1892198 115.785046,93.49314 C111.10814,94.5721292 99.9382661,96.4879894 95.7517692,91.3795135 C94.239366,89.524001 88.3007753,79.9788726 86.3861919,75.9559296 C85.9465142,74.7925989 85.4546339,73.7594158 84.9333437,72.8432929 L85.0149561,72.5517331 C85.0149561,72.5517331 84.9267265,72.5444623 84.7649721,72.5371915 C81.4394496,66.8841313 77.1323722,66 77.1323722,66 C77.1323722,66 75.9670055,69.0013932 74.4928351,73.093409 C68.984364,73.9179196 63.9390985,75.8897652 66.853618,80.5314547 C67.9983977,82.3506131 69.1872922,83.9800031 70.3555998,85.4290769 C73.5201033,89.3509556 76.5324105,91.9277331 78.0896639,93.1361428 C78.6036016,93.5360378 78.9565202,93.7912434 79.110922,93.893762 C79.1550369,93.929389 79.1844468,93.9439306 79.1844468,93.9439306 C83.5113758,97.4390123 89.374236,101.726613 90.7109152,103.051356 C99.4552088,108.469569 118.608395,100.869384 118.608395,100.869384 C118.608395,100.869384 120.69135,98.9804255 119.760527,96.216788"/>
        <path fill="#619AAF" d="M87.9668218,73.1530847 C87.302454,75.3034914 83.7885883,80.0441105 77.4804048,83.1175934 C70.4210369,86.5579494 60.4658198,87.0272228 57.3786799,83.9367959 C52.8884951,79.4459158 47.1762562,60.168135 44.7645201,51.4508474 C44.4128392,50.1829989 43.8691318,48.9888196 43.1716559,47.8977774 C40.7694843,44.4625782 34.303118,43.4172109 31.6544756,43.119587 C31.2866085,43.0974862 30.9040268,43.0599148 30.5148236,43.0230802 L30.4927515,43.0230802 L30.4927515,43.0157133 C29.7349455,42.9413073 28.9329954,42.8374336 28.101616,42.7114591 C27.6167672,41.9445617 26.6323551,40.3452014 27.1429545,37.6489052 C27.2099063,36.7943414 28.3377866,34.688873 29.1331151,34.2107593 C29.3464779,34.0486868 29.3832646,33.9683873 29.4641954,33.9750175 C29.5892702,33.9536534 35.5273794,33.119717 39.3046379,30.4123705 C39.3119952,30.4050035 39.3119952,30.4050035 39.3193526,30.3976366 C42.3822133,28.2722775 46.1072347,25.9111766 47.3211958,26.0960865 C47.3211958,26.0960865 48.2953076,30.6569525 51.9901639,28.9301443 C54.7653526,27.6291445 56.0249293,26.0017898 56.2029769,24.8083473 L55.2634446,22.7522373 C55.2634446,22.7522373 57.3168782,21.9219843 60.0611661,22.0059673 C63.5036656,22.1120511 68.0357872,22.4413529 70.9338435,23.4020004 C71.6467697,23.6384789 72.2647863,23.9184222 72.7430134,24.2359369 C76.4783351,26.2139574 78.597249,33.4136575 79.6441986,38.4246429 C78.3272347,38.0253553 77.0404359,37.5892331 75.8124958,37.1236431 L73.211676,33.6000408 C73.3213004,34.3588345 73.5037624,35.2723338 73.7458189,36.2742362 C74.7493601,40.4527585 76.6644758,46.0530982 77.3840236,47.3872492 C79.3278329,52.944124 88.6238323,71.002678 87.9668218,73.1530847"/>
        <path fill="#FFCFA9" d="M56.083028,13.4526298 C56.3172311,14.095501 56.1572524,15.0214982 55.9756549,16.0343304 C55.9612424,16.0773831 55.950433,16.1306516 55.9489918,16.1853796 C55.8726055,16.567016 55.7983812,16.9581385 55.7508199,17.3536393 C55.7097443,17.5893344 55.6838018,17.8191918 55.6701099,18.0439413 C55.6701099,18.0439413 55.5180581,19.5150291 55.8221618,20.7562594 C55.8300887,20.8007714 55.8437805,20.8350676 55.8502662,20.8715529 C55.915843,21.0809786 55.9742137,21.2925934 56.0534824,21.4969112 L56.0628505,21.5020191 L56.0693362,21.4983706 C56.371278,22.0201105 57.2907955,22.2762374 57.5069829,22.754195 C58.000611,24.0545315 57.9998904,25.1323076 57.9998904,25.1323076 C58.0193473,28.3189346 55.4474368,32.8993005 50.7431971,33 C47.446338,32.5599872 47.0492736,29.0727211 46.9534305,27.5833907 C46.9534305,27.5833907 46.9570336,27.5717154 46.9555924,27.5498243 C46.9642399,27.4695566 46.9872999,27.2324021 47.0644067,26.9908693 C47.065848,26.9733563 47.0708924,26.9470869 47.0795399,26.929574 L47.0860255,26.9266551 C47.1588086,26.9529246 47.4845311,26.9959772 47.5674029,25.8109343 C47.5695648,25.7554767 47.5782123,25.6963705 47.5774917,25.6350751 C47.6200086,24.6441341 46.9419005,24.3748725 46.4482724,24.3179554 C46.247218,24.2975236 46.0922837,24.2960642 46.0403987,24.3011722 C45.7917831,24.3208742 45.5683893,24.3237931 45.3262593,24.316496 C40.7272309,24.2537413 37.1248267,20.2425462 36.3299774,17.0471627 C36.1822493,16.604231 36.0986568,16.167137 36.0446099,15.7482856 C35.7051956,12.890756 37.3756042,10.6053162 38.5804891,9.35970765 C38.5819304,9.34438382 38.6626404,9.31154704 38.669126,9.30935792 C47.3793198,-3.60571244 55.1202731,10.7614733 56.083028,13.4526298"/>
        <path fill="#717171" d="M23.0865,8.2472913 C22.68225,7.31598696 22.4865,6.81707391 22.19625,6.30707391 C19.065,1.20337826 8.81775,-4.3401 1.38975,8.42320435 C1.38975,8.42320435 0.86475,9.52524783 0.75375,10.9288565 C0.75375,10.9288565 0.756,10.9362478 0.75075,10.9443783 C0.735,11.1335957 0.60225,13.1706391 1.446,14.3547261 C1.57425,14.5247261 1.7115,14.6799435 1.881,14.8019 C3.252,15.8433348 6.55125,14.8728565 9.01125,13.2711609 C11.46825,11.6613348 13.42275,11.4632478 14.34675,12.4093348 C15.27375,13.3450739 15.77175,15.0591174 15.77175,15.0591174 C15.77175,15.0591174 16.97925,15.424987 16.79175,14.3251609 C16.63275,13.401987 16.33575,11.8475957 17.4375,11.0434217 C17.64075,10.8867261 17.89275,10.7610739 18.20325,10.6723783 C19.99425,10.1512913 20.84925,14.217987 20.99625,14.9896391 L20.99775,14.9970304 C21.01125,15.0709435 21.01575,15.1152913 21.01575,15.1152913 C21.01575,15.1152913 21.07875,15.6511609 21.312,16.1315957 C21.5655,16.6275522 22.00575,17.0651174 22.785,16.767987 C23.7495,16.2727696 24.729,11.9126391 23.0865,8.2472913" transform="translate(33)"/>
        <path fill="#EFC1A0" d="M55.4064168,17 C55.365608,17.231594 55.3386451,17.457452 55.3247993,17.6775738 C55.3247993,17.6775738 55.1710377,19.1230646 55.4785608,20.3434145 L55.4676299,20.3570377 C55.4734597,20.3921712 55.480747,20.4287386 55.4931354,20.4617211 C55.544875,20.6502945 55.6097318,20.8331319 55.6818758,21.0123842 L55.684062,21.0202713 L55.7059238,21.07333 L55.7132111,21.071179 L55.7219558,21.0761981 C55.7175835,21.0840852 55.7204984,21.0912553 55.7263282,21.0876702 C55.8990367,21.4225136 56.4463111,22.6973562 55.2358945,23.7649831 L55.2278785,23.7678511 C55.1032661,23.8467221 54.9837547,23.9384993 54.8708019,24.0288425 C54.4364802,24.373724 54.0655578,24.7379647 53.9161687,25.0512978 C53.4694586,25.9934481 51.7329006,28.749632 48.5090094,27.8060477 C47.6585842,27.5178099 47.4049869,26.8208769 46.6223334,26.4695423 C46.6245196,26.4523341 46.6296207,26.4265217 46.6383654,26.4093135 L46.6441953,26.4064455 C46.6740731,26.3024791 46.7221691,26.2056829 46.7826535,26.1217928 C46.7804673,26.1153397 46.7862972,26.1117546 46.7928557,26.1103206 C46.9327714,25.9332193 47.0741446,25.677247 47.1317141,25.3101382 C47.1331715,25.2556455 47.142645,25.1975677 47.1411875,25.1373389 C47.1849112,24.1636403 46.4991785,23.8990638 46,23.8424201 C46.414646,23.7843423 49.6341649,23.2609255 51.4100742,21.9201181 L51.415904,21.91725 C51.4231913,21.915099 51.4275637,21.9064949 51.4341222,21.9043439 C51.4975215,21.8477001 54.2703303,19.7482968 55.0303933,17.8833555 C55.0544413,17.84392 55.0704733,17.8073525 55.0894202,17.7765211 C55.2242348,17.5241338 55.3233418,17.2631424 55.4064168,17"/>
        <path fill="#FFCFA9" d="M71.9307406,24.0353077 C72.341085,23.5385969 62.7593229,28.3824337 69.2795649,32.2836077 C75.7990767,36.1833314 79.4812246,36.0042254 87.5136078,38.8285884 C92.5640573,40.5986192 99.2201073,48.0217266 101.405447,52.0628497 C101.755189,52.7053107 102.388229,53.8546343 102.388229,53.8546343 C102.388229,53.8546343 102.359023,55.7696901 103.200887,57.2271919 C104.046401,58.6825183 104.131828,56.2997567 104.131828,56.2997567 L104.133288,56.2954059 C108.240384,61.4793265 110.614833,58.7738841 107.724168,51.8938955 C104.38446,44.7847674 99.7377838,37.7082698 91.3249923,33.0210601 C79.4622407,25.3644623 71.5203961,24.5320185 71.9307406,24.0353077"/>
        <path fill="#619AAF" d="M81.6670111,38 C81.1357374,37.8567283 80.6123609,37.7070414 80.0882666,37.5495138 C78.8031585,37.1631791 77.5474858,36.7412047 76.3492481,36.2914313 C75.6600281,36.0269845 74.9851669,35.7554097 74.3325617,35.4695791 C70.090987,33.6262922 66.8559606,31.3774251 66.1832532,29.0387459 C65.4545466,25.0321273 66.8990369,23.7505226 70.5181598,23.0626758 C70.8347702,22.999237 71.193739,22.9856939 71.5878866,23.0142057 C74.3734841,23.1738717 79.095359,25.2388378 83.7310814,27.4527779 L83.7382608,27.4527779 C84.0950757,29.3780362 84.5430687,33.9470497 81.6670111,38"/>
      </g>
    </g>
    <g transform="translate(30 529)">
      <g transform="rotate(-19 57.298 9.354)">
        <g transform="rotate(-14 42.065 2.379)">
          <g transform="scale(1 -1) rotate(60 54.275 0)">
            <use fill="#B8E986" xlink:href="#b1-p2-g"/>
            <path stroke="#00B820" stroke-width=".928" d="M7.55109169,18.5802636 L33.5310779,34.1772884 L33.4489083,20.4197364 L7.46892207,4.82271162 L7.55109169,18.5802636 Z"/>
          </g>
          <path fill="#00B820" d="M18,3.51660535 L15,2 L15,4.58785877 C16.6568542,5.42545677 18,4.94584028 18,3.51660535 Z"/>
          <path fill="#00B820" d="M26,35.5166053 L23,34 L23,36.5878588 C24.6568542,37.4254568 26,36.9458403 26,35.5166053 Z" transform="rotate(180 24.5 35.5)"/>
          <path fill="#00B820" d="M18,33 L15,31.16122 L15,28 C16.6568542,29.0155302 18,31.2541064 18,33 Z"/>
          <path fill="#00B820" d="M26,11 L23,9.16121997 L23,6 C24.6568542,7.01553017 26,9.25410642 26,11 Z" transform="rotate(180 24.5 8.5)"/>
          <path fill="#00B820" d="M21,24.5240424 C23.209139,25.6352489 25,24.7344346 25,22.5120174 C25,20.2896002 23.209139,17.5871641 21,16.4759576 C18.790861,15.3647511 17,16.2655654 17,18.4879826 C17,20.7103998 18.790861,23.4128359 21,24.5240424 Z"/>
          <path fill="#B8E986" d="M24,22.3284004 L23.3870602,22.0105228 C23.3393871,22.3851531 23.2031782,23.333555 21.9160045,22.8794599 L21.8070375,21.7075112 C22.0862656,21.8041242 22.3586833,21.8490073 22.5289444,21.5654942 L21.2485812,20.9014833 C21.0987514,21.3608423 20.846765,22.1596902 19.7707151,21.6016385 C19.2531215,21.3332086 18.476731,20.6620325 18.3745743,19.4109908 L18,19.2167323 L18,18.7209824 L18.3745743,18.9152409 C18.415437,18.5921621 18.5107832,17.7602766 19.5527809,18.0665644 L19.7026107,19.1977362 C19.3484677,19.1173548 19.2667423,19.205794 19.185017,19.3355457 L20.3087401,19.9183212 C20.4790011,19.3593916 20.7582293,18.5471299 21.8342792,19.1051816 C22.5629966,19.4831027 23.3121453,20.4224529 23.3734393,21.507709 L24,21.8326505 L24,22.3284004 Z M20.1657208,20.3398997 L19.1713961,19.8242316 C19.2190692,19.9866637 19.3212259,20.3150599 19.661748,20.4916585 C20.0090806,20.6717892 20.1248581,20.4288745 20.1657208,20.3398997 Z M21.3916005,20.4799049 L22.569807,21.0909362 C22.4948922,20.6389597 22.1816118,20.3318952 21.9772985,20.225936 C21.5822928,20.0210816 21.4597049,20.3293185 21.3916005,20.4799049 Z"/>
        </g>
        <g transform="rotate(-4 92.308 -103.895)">
          <g transform="scale(1 -1) rotate(60 54.275 0)">
            <use fill="#B8E986" xlink:href="#b1-p2-h"/>
            <path stroke="#00B820" stroke-width=".928" d="M7.55109169,18.5802636 L33.5310779,34.1772884 L33.4489083,20.4197364 L7.46892207,4.82271162 L7.55109169,18.5802636 Z"/>
          </g>
          <path fill="#00B820" d="M18,3.51660535 L15,2 L15,4.58785877 C16.6568542,5.42545677 18,4.94584028 18,3.51660535 Z"/>
          <path fill="#00B820" d="M26,35.5166053 L23,34 L23,36.5878588 C24.6568542,37.4254568 26,36.9458403 26,35.5166053 Z" transform="rotate(180 24.5 35.5)"/>
          <path fill="#00B820" d="M18,33 L15,31.16122 L15,28 C16.6568542,29.0155302 18,31.2541064 18,33 Z"/>
          <path fill="#00B820" d="M26,11 L23,9.16121997 L23,6 C24.6568542,7.01553017 26,9.25410642 26,11 Z" transform="rotate(180 24.5 8.5)"/>
          <path fill="#00B820" d="M21,24.5240424 C23.209139,25.6352489 25,24.7344346 25,22.5120174 C25,20.2896002 23.209139,17.5871641 21,16.4759576 C18.790861,15.3647511 17,16.2655654 17,18.4879826 C17,20.7103998 18.790861,23.4128359 21,24.5240424 Z"/>
          <path fill="#B8E986" d="M24,22.3284004 L23.3870602,22.0105228 C23.3393871,22.3851531 23.2031782,23.333555 21.9160045,22.8794599 L21.8070375,21.7075112 C22.0862656,21.8041242 22.3586833,21.8490073 22.5289444,21.5654942 L21.2485812,20.9014833 C21.0987514,21.3608423 20.846765,22.1596902 19.7707151,21.6016385 C19.2531215,21.3332086 18.476731,20.6620325 18.3745743,19.4109908 L18,19.2167323 L18,18.7209824 L18.3745743,18.9152409 C18.415437,18.5921621 18.5107832,17.7602766 19.5527809,18.0665644 L19.7026107,19.1977362 C19.3484677,19.1173548 19.2667423,19.205794 19.185017,19.3355457 L20.3087401,19.9183212 C20.4790011,19.3593916 20.7582293,18.5471299 21.8342792,19.1051816 C22.5629966,19.4831027 23.3121453,20.4224529 23.3734393,21.507709 L24,21.8326505 L24,22.3284004 Z M20.1657208,20.3398997 L19.1713961,19.8242316 C19.2190692,19.9866637 19.3212259,20.3150599 19.661748,20.4916585 C20.0090806,20.6717892 20.1248581,20.4288745 20.1657208,20.3398997 Z M21.3916005,20.4799049 L22.569807,21.0909362 C22.4948922,20.6389597 22.1816118,20.3318952 21.9772985,20.225936 C21.5822928,20.0210816 21.4597049,20.3293185 21.3916005,20.4799049 Z"/>
        </g>
        <g transform="rotate(6 -18.03 143.807)">
          <g transform="scale(1 -1) rotate(60 54.275 0)">
            <use fill="#B8E986" xlink:href="#b1-p2-i"/>
            <path stroke="#00B820" stroke-width=".928" d="M7.55109169,18.5802636 L33.5310779,34.1772884 L33.4489083,20.4197364 L7.46892207,4.82271162 L7.55109169,18.5802636 Z"/>
          </g>
          <path fill="#00B820" d="M18,3.51660535 L15,2 L15,4.58785877 C16.6568542,5.42545677 18,4.94584028 18,3.51660535 Z"/>
          <path fill="#00B820" d="M26,35.5166053 L23,34 L23,36.5878588 C24.6568542,37.4254568 26,36.9458403 26,35.5166053 Z" transform="rotate(180 24.5 35.5)"/>
          <path fill="#00B820" d="M18,33 L15,31.16122 L15,28 C16.6568542,29.0155302 18,31.2541064 18,33 Z"/>
          <path fill="#00B820" d="M26,11 L23,9.16121997 L23,6 C24.6568542,7.01553017 26,9.25410642 26,11 Z" transform="rotate(180 24.5 8.5)"/>
          <path fill="#00B820" d="M21,24.5240424 C23.209139,25.6352489 25,24.7344346 25,22.5120174 C25,20.2896002 23.209139,17.5871641 21,16.4759576 C18.790861,15.3647511 17,16.2655654 17,18.4879826 C17,20.7103998 18.790861,23.4128359 21,24.5240424 Z"/>
          <path fill="#B8E986" d="M24,22.3284004 L23.3870602,22.0105228 C23.3393871,22.3851531 23.2031782,23.333555 21.9160045,22.8794599 L21.8070375,21.7075112 C22.0862656,21.8041242 22.3586833,21.8490073 22.5289444,21.5654942 L21.2485812,20.9014833 C21.0987514,21.3608423 20.846765,22.1596902 19.7707151,21.6016385 C19.2531215,21.3332086 18.476731,20.6620325 18.3745743,19.4109908 L18,19.2167323 L18,18.7209824 L18.3745743,18.9152409 C18.415437,18.5921621 18.5107832,17.7602766 19.5527809,18.0665644 L19.7026107,19.1977362 C19.3484677,19.1173548 19.2667423,19.205794 19.185017,19.3355457 L20.3087401,19.9183212 C20.4790011,19.3593916 20.7582293,18.5471299 21.8342792,19.1051816 C22.5629966,19.4831027 23.3121453,20.4224529 23.3734393,21.507709 L24,21.8326505 L24,22.3284004 Z M20.1657208,20.3398997 L19.1713961,19.8242316 C19.2190692,19.9866637 19.3212259,20.3150599 19.661748,20.4916585 C20.0090806,20.6717892 20.1248581,20.4288745 20.1657208,20.3398997 Z M21.3916005,20.4799049 L22.569807,21.0909362 C22.4948922,20.6389597 22.1816118,20.3318952 21.9772985,20.225936 C21.5822928,20.0210816 21.4597049,20.3293185 21.3916005,20.4799049 Z"/>
        </g>
      </g>
      <rect width="48" height="11" x="27.98" y="62.201" fill="#BEBEC0" transform="rotate(64 51.98 67.7)"/>
      <circle cx="41.5" cy="45.5" r="6.5" fill="#9B9B9B"/>
      <g transform="translate(13 15)">
        <polygon fill="url(#b1-p2-j)" points="50.666 147 92 167.635 41.334 194 0 173.365" transform="matrix(-1 0 0 1 92 0)"/>
        <g transform="translate(38)">
          <polygon fill="#31AB05" points=".161 147.686 48.894 176.076 48.734 107.986 0 79.596"/>
          <polygon fill="#CCC" points="0 79.58 48.767 107.937 62.778 48.859 14.012 20.502"/>
          <polygon fill="#E8E8E8" points="49.629 0 13.884 20.539 62.648 48.843 98.392 28.3"/>
          <polygon fill="#278704" points="63.003 48.931 48.894 108.035 49.056 176.076 98.294 147.885 98.132 79.842 98.995 28.341"/>
          <polygon fill="#C1C1C1" points=".161 147.858 48.894 176.248 48.734 108.158 0 79.768"/>
          <path fill="#ED0000" d="M27.6753357,106.696415 C28.8891557,107.436001 30.1029756,108.175587 31.316617,108.915065 C31.5545964,109.060289 31.5519185,109.025949 31.5519185,109.344358 C31.55174,111.355505 31.5519185,113.366646 31.5515614,115.377461 C31.5515614,115.620886 31.5508473,115.621785 31.3535726,115.501808 C30.8893967,115.220096 30.4252208,114.936158 29.9612234,114.653888 C29.7246723,114.509979 29.7510946,114.533643 29.7510946,114.26997 C29.750559,113.05052 29.7507375,111.831504 29.7507375,110.612379 C29.7507375,110.549854 29.747524,110.485371 29.7510946,110.42569 C29.7582357,110.309886 29.7277073,110.221195 29.61934,110.172299 C29.591311,110.159671 29.5623892,110.138489 29.5338246,110.121084 C27.7560309,109.037866 25.9780587,107.964107 24.2002651,106.867984 C23.0382186,106.151711 22.1955608,106.737023 21.9725778,107.642943 C21.7792307,108.428966 21.9500832,109.994281 22.991801,111.437156 C23.2540604,111.800325 23.5373862,112.112914 23.8291029,112.412593 C24.5139408,113.116014 25.17557,113.870267 25.7764993,114.744403 C26.3595756,115.59253 26.8471388,116.492158 27.129572,117.485525 C27.4959139,118.77411 27.4907365,119.86503 27.1897363,120.754121 C26.6552199,122.334001 25.5590507,122.843838 24.0124523,122.443519 C23.640576,122.347323 23.2570953,122.159281 22.8695085,121.922455 C21.3129125,120.970899 19.756495,120.024569 18.199899,119.075905 C18.1572306,119.049907 18.114205,119.020799 18.0715365,118.997026 C18.0078016,118.961307 17.9815578,118.90749 17.9833431,118.831367 C17.9849499,118.761366 17.9833431,118.689184 17.9833431,118.617759 C17.9831646,115.778886 17.9833431,112.940452 17.9829861,110.10147 C17.9829861,109.758585 18.0152998,109.789399 17.7171561,109.607961 C17.1603236,109.26957 16.6033125,108.931071 16.04648,108.591345 C15.8592028,108.477236 15.8575961,108.474477 15.8575961,108.244404 C15.8574175,105.414431 15.8575961,102.584898 15.8577746,99.7553647 C15.8577746,99.7019627 15.8574175,99.648343 15.8595599,99.5962463 C15.8620593,99.5345768 15.8900884,99.5185013 15.9411477,99.5484994 C15.9839947,99.5737163 16.0268417,99.5991556 16.0696887,99.6252625 C17.2406617,100.338519 18.4114561,101.05189 19.5824291,101.765369 C19.6038526,101.778422 19.6252761,101.791253 19.6466996,101.805197 C19.8075544,101.909882 19.8105894,101.911731 19.811125,102.118323 C19.8125532,102.733317 19.8120176,103.346892 19.8113035,103.96058 C19.8109464,104.193552 19.8098752,104.195347 19.6272399,104.084511 C19.0632662,103.742214 18.4992925,103.397915 17.9351402,103.054174 C17.8851521,103.023716 17.8351639,102.995038 17.7851757,102.962355 C17.7239402,102.922596 17.6923405,102.934939 17.6943044,103.015571 C17.6957326,103.069843 17.6939473,103.122158 17.6939473,103.17556 L17.6939473,107.01984 C17.6944829,107.319663 17.6791294,107.2865 17.8846165,107.413929 C17.9417458,107.449184 17.9988752,107.48377 18.0560045,107.518579 C18.5628489,107.827402 19.0698718,108.136111 19.5768947,108.445042 C19.8104108,108.587325 19.8113035,108.588091 19.8113035,108.87446 C19.8116605,111.704542 19.8116605,114.534406 19.811482,117.364161 C19.811482,117.801613 19.8113035,117.801504 20.1605066,118.014275 C20.903188,118.466572 21.6458694,118.933554 22.3881938,119.367388 C23.2740556,119.884674 24.0660111,120.01098 24.7347814,119.678847 C25.0568481,119.519292 25.2926852,119.232435 25.4023021,118.775662 C25.5993983,117.953652 25.3094669,116.871163 24.6285566,115.866856 C24.322022,115.41463 23.9862086,115.014878 23.6391478,114.637866 C23.3065479,114.27634 22.970556,113.923428 22.6395629,113.557986 C21.7242437,112.546805 20.9883464,111.368591 20.554699,109.990712 C19.875931,107.833781 19.8196944,106.040585 20.6609239,104.861195 C21.3639718,103.875746 22.3972988,103.694091 23.7355536,104.326816 C23.906406,104.407554 24.0767229,104.503318 24.2482894,104.608077 M27.1854955,124.503683 C27.2535929,124.468076 27.3231354,124.435136 27.3896071,124.396527 C28.5987424,123.692951 29.1830795,122.284193 29.1912078,120.218186 C29.196988,118.699607 28.7011594,117.129042 27.9094594,115.532847 C27.1076441,113.915962 26.1246572,112.535302 24.9422551,111.433831 C24.7748114,111.277949 24.6107996,111.108514 24.4570837,110.913172 C24.0494025,110.39481 23.8572124,109.710077 23.9952135,109.267427 C24.131589,108.830714 24.538909,108.752172 24.991567,109.099492 C27.1952495,110.79083 28.8691451,113.191382 30.0558823,116.21382 C30.6277559,117.670263 30.982874,119.103917 31.0637961,120.467714 C31.1793991,122.422061 30.9521669,124.08863 30.1525192,125.250883 C29.9811016,125.500425 29.7766287,125.698763 29.5463259,125.85678 C29.4841892,125.899595 29.4213301,125.915152 29.3230675,125.85461 C28.6162635,125.419482 27.9094594,124.990834 27.2026553,124.560175"/>
          <polygon fill="#D7D7D7" points="63.003 48.931 48.894 108.035 49.056 176.076 98.294 147.885 98.132 79.842 98.995 28.341"/>
          <g transform="translate(6 31)">
            <polygon fill="#393C41" points="0 34.754 8.342 0 52 25.442 43.628 60"/>
            <polygon fill="#FF9C9C" points="2 33.066 9.389 3 50 26.109 42.584 56"/>
          </g>
        </g>
        <g transform="translate(53 44)">
          <circle cx="6.5" cy="6.5" r="6.5" fill="#FFF"/>
          <circle cx="26.5" cy="16.5" r="6.5" fill="#FFF"/>
          <circle cx="4.5" cy="6.5" r="3.5" fill="#4A4A4A"/>
          <circle cx="24.5" cy="17.5" r="3.5" fill="#4A4A4A"/>
        </g>
      </g>
      <polygon fill="#BEBEC0" points="112.593 93.02 160.593 93.02 160.593 104.02 105.583 103.814" transform="rotate(-33 133.088 98.52)"/>
      <polygon fill="#B7B7B7" points="151.185 102.769 164.285 105.387 109.276 105.181" transform="rotate(147 136.78 104.078)"/>
      <circle cx="156.5" cy="82.5" r="6.5" fill="#9B9B9B"/>
      <path fill="#ED0000" d="M59.9,136.787508 C60.28,137.349468 60.62,137.938064 60.95,138.500818 L58.27,137.025417 C58.67,136.459059 59.09,135.924383 59.4,135.255455 L57.73,134 C57.39,134.741404 56.99,135.407762 56.55,136.050756 L55,135.115393 L55.49,137.141605 L61.89,140.259877 C62.09,140.646698 62.21,141.016791 62.39,141.381929 C62.84,141.324777 63.34,141.366829 63.85,141.484723 C63.15,139.935849 62.03,138.071652 61.19,136.951003 L59.9,136.787508 Z M62.46,145.672817 L61.1,144.878434 L61.1,144.468434 L57.58,142.412384 L57.58,142.812384 L56.22,142.008001 L56.22,137.838001 L62.46,141.482817 L62.46,145.672817 Z M57.58,141.142384 L61.1,143.198434 L61.1,141.938434 L57.58,139.882384 L57.58,141.142384 Z M69.915,143.30732 L69.505,143.877837 L70.325,144.356803 L70.325,145.546803 L68.635,144.559665 L68.635,144.939665 L70.195,145.840869 L70.195,147.010869 L68.885,146.245692 C69.255,146.841811 69.605,147.216247 70.065,147.674936 L70.185,147.795028 C70.335,147.482644 70.425,147.105213 70.445,146.676896 L70.505,145.201942 L70.505,142.361942 C71.525,142.817729 72.505,143.180152 73.415,143.311687 L74.415,144.975793 C73.605,144.842667 72.725,144.538655 71.815,144.127119 L71.815,145.247119 L74.445,146.783316 L74.435,148.097475 L73.695,147.665237 L73.705,152.321078 L72.365,151.538377 L72.355,146.882536 L71.795,146.555437 C71.765,148.377914 71.505,149.446047 70.585,150.10867 L70.175,150.289187 C69.855,149.722274 69.465,149.194473 69.005,148.825784 C69.555,148.727042 69.925,148.363161 70.145,147.921664 C69.795,147.967227 69.615,148.242088 69.515,148.563678 L69.355,148.380221 C69.085,148.072513 68.865,147.81401 68.635,147.449665 L68.635,149.319665 L67.325,148.554488 L67.325,146.834488 C66.965,147.01421 66.635,147.071455 66.255,147.169495 L66.135,147.179403 C66.045,146.696833 65.815,146.162489 65.445,145.66637 C66.025,145.665151 66.565,145.440568 67.015,145.153415 L65.665,144.364873 L65.665,143.204873 L67.325,144.174488 L67.325,143.794488 L65.575,142.772304 L65.575,141.582304 L66.505,142.125522 C66.455,141.786316 66.365,141.483747 66.205,141.06029 L66.555,141.224727 L65.655,140.679032 L65.655,139.519032 L67.415,140.547057 C67.345,140.27617 67.215,140.000236 67.085,139.714303 C67.525,139.911309 67.995,140.125838 68.455,140.334527 C68.605,140.692142 68.705,141.010553 68.825,141.370645 L70.205,142.17671 L70.205,143.33671 L69.385,142.857744 L69.915,143.30732 Z M68.565,142.378778 L67.495,141.753786 C67.595,142.122196 67.705,142.506448 67.785,142.873176 L68.205,143.1185 C68.345,142.900275 68.475,142.646209 68.565,142.378778 Z M83.23,152.384678 L83.23,151.914678 L81.74,151.044362 L81.74,151.514362 L83.23,152.384678 Z M79.36,152.134192 L80.41,153.007502 C80.29,153.43741 80.09,153.790589 79.83,154.068721 C79.57,153.846854 79.39,153.641715 79.1,153.482325 L79.1,153.842325 C79.54,154.039331 79.92,154.191291 80.35,154.372456 L80.35,154.782456 L80.47,154.832549 L80.47,149.122549 C80.3,149.203251 80.01,149.34386 79.88,149.647927 C79.21,148.956576 78.83,148.324616 78.51,147.917703 C78.2,148.14663 78,148.219809 77.59,148.360326 L80.09,149.820589 L80.09,150.980589 L79.1,150.402325 L79.1,150.792325 L80.41,151.547502 L80.4,152.681661 L79.1,151.922325 L79.1,152.852325 C79.25,152.63994 79.29,152.453305 79.36,152.134192 Z M84.1,154.07285 L84.92,155.321816 C84.54,155.479856 84.12,155.564532 83.72,155.65089 C84.05,156.433645 84.6,157.314902 85.23,158.002888 C84.85,158.060929 84.49,158.290651 84.28,158.587989 C84.01,158.23028 83.76,157.874254 83.53,157.49991 C83.29,157.099725 83.1,156.738745 82.92,156.353606 L82.9,156.991924 L80.56,156.355118 L80.24,155.448204 L76.7,154.070473 L76.26,152.453466 C76.79,152.723042 77.34,152.9943 77.87,153.233875 L77.87,152.983875 C77.51,152.783598 77.13,152.621638 76.74,152.553837 C76.7,151.910473 76.6,151.312062 76.43,150.622764 L77.47,151.050233 C77.64,151.689531 77.75,152.203783 77.85,152.912193 L77.87,151.203875 L76.34,150.310195 L76.34,149.180195 L77.87,150.063875 L77.87,149.683875 L76.99,149.169863 L76.99,148.519863 C76.93,148.544817 76.88,148.555611 76.81,148.554724 C76.68,148.06879 76.45,147.524446 76.16,147.015056 C76.92,146.948976 77.6,146.586167 77.98,145.968127 L79.29,146.973305 L79.12,147.254007 C79.55,147.885172 80.02,148.359701 80.47,148.762549 L80.46,147.636707 L84.5,149.986492 L84.49,154.300651 L84.1,154.07285 Z M83.23,150.834678 L83.23,150.364678 L81.74,149.494362 L81.74,149.964362 L83.23,150.834678 Z M81.75,152.700203 L81.75,155.380203 C82.04,155.479593 82.34,155.574825 82.59,155.620851 C82.25,154.722255 82.01,153.72207 81.87,152.770296 L81.75,152.700203 Z M83.96,153.991075 L83.06,153.465381 L83.21,154.172996 C83.47,154.134864 83.72,154.08089 83.96,153.991075 Z M90.315,153.653063 C89.545,154.153302 88.655,154.443448 87.655,154.439343 C87.375,153.885794 87.155,153.357291 86.765,152.87949 C87.695,152.952707 88.365,152.764058 89.145,152.37966 C89.535,152.787461 89.925,153.225262 90.315,153.653063 Z M95.215,157.495177 L95.215,156.225177 L90.815,153.655115 L90.825,154.930956 L95.215,157.495177 Z M93.005,158.624305 L90.305,157.057222 L90.305,155.947222 L89.515,156.425779 L89.515,161.525779 L88.225,160.772283 L88.215,156.866442 C88.035,156.931303 87.735,156.976072 87.535,157.029251 C87.395,156.537476 87.105,155.898085 86.765,155.38949 C87.365,155.409953 88.525,155.037515 89.325,154.484799 C89.675,154.879235 90.085,155.428718 90.435,155.823155 L95.755,158.920594 L95.755,160.230594 L94.305,159.383642 L94.295,163.397801 C94.265,163.630277 94.055,163.867615 93.805,163.821589 C93.375,163.730424 92.705,163.379074 92.205,163.107021 C92.125,162.510293 91.985,161.938518 91.675,161.347445 C92.085,161.636928 93.005,162.164305 93.005,161.964305 L93.005,158.624305 Z"/>
      <path fill="#FFF" d="M69.5908175,81.418562 C69.5485059,81.6478422 69.5267098,81.8814276 69.5267098,82.1184529 C69.5267098,85.2107656 73.2365501,87.7175803 77.8128699,87.7175803 C82.3891898,87.7175803 86.09903,85.2107656 86.09903,82.1184529 C86.09903,81.8814276 86.077234,81.6478422 86.0349223,81.418562 L69.5908175,81.418562 Z" transform="rotate(27 77.813 84.568)"/>
    </g>
    <g transform="translate(257 375)">
      <polygon fill="#009F41" points="0 11.672 35.007 31.989 35.007 20.317 0 0"/>
      <polygon fill="#008CD5" points="0 26.124 35.007 46.441 35.007 34.769 0 14.452"/>
      <polygon fill="#008CD5" points="47.818 29.189 47.818 53.306 52.724 56.153 52.724 45.609 62.928 51.531 62.928 46.871 52.724 40.949 52.724 36.689 63.101 42.712 63.101 38.059"/>
      <g fill="#008CD5" transform="translate(64.058 44.49)">
        <path d="M4.59869607 12.1549503C4.59869607 13.316106 5.45631613 14.6723997 6.97399271 15.5532161 8.14123692 16.2306515 8.94055954 16.2037211 9.40208091 16.0559046L9.40208091 13.1760182C8.88064274 12.5924969 8.21216547 12.0201852 7.38077926 11.5376723 5.74618393 10.5889996 4.59869607 10.8185198 4.59869607 12.1549503zM13.9784296 19.9203445C13.9784296 21.9112211 14.4153365 23.1448386 15.0209821 23.9849047L9.9782539 21.0582485C9.82344182 20.7581349 9.69518746 20.2686773 9.60612194 19.7177281 8.71546667 19.9184398 7.34256205 19.6348343 5.74618393 18.7083418 3.18984137 17.2247133 0 13.8983246 0 9.99659528 0 6.03298518 2.84426712 5.66076609 6.70226188 7.89983662 7.69526154 8.4761454 8.65263499 9.21061645 9.40208091 9.91059181L9.40208091 9.79687371C9.40208091 7.99779517 7.87760296 6.59174257 6.34988627 5.70509921 4.65666963 4.72240439 3.10692946 4.28983898 1.70843875 4.35165333L1.70843875.0747515105C2.93333265.29448664 4.74638291.846823459 6.97528821 2.14041676 12.6408274 5.42853469 13.9784296 9.4858186 13.9784296 12.076388L13.9784296 19.9203445zM106.617451 69.1712408C107.451752 69.6554454 108.119905 70.2275691 108.639724 70.8101505L108.639724 73.6900369C108.172373 73.83447 107.386329 73.8691071 106.208397 73.1854688 104.700437 72.3102914 103.844112 70.9547496 103.844112 69.7935939 103.844112 68.4571633 104.984799 68.2236959 106.617451 69.1712408zM113.218016 69.7116482C113.218016 67.1210788 111.887539 63.0679301 106.215522 59.7760529 103.985645 58.4818957 102.173567 57.9301227 100.942843 57.7070042L100.942843 61.983906C102.352993 61.9288585 103.90241 62.3612359 105.594978 63.3435548 107.116865 64.2268148 108.639724 65.6319275 108.639724 67.4310061L108.639724 67.5447242C107.884772 66.8415534 106.930314 66.108774 105.944115 65.5364125 102.084177 63.2962142 99.2444444 63.6710649 99.2444444 67.634675 99.2444444 71.5364043 102.432343 74.8616651 104.984799 76.3430381 106.580205 77.2689667 107.951814 77.5518203 108.841174 77.3503567 108.936393 77.9048773 109.068534 78.3965905 109.209743 78.6888095L114.260568 81.6201648C113.655894 80.7806626 113.218016 79.5464813 113.218016 77.5556047L113.218016 69.7116482zM29.0275426 17.1265264C28.0640155 15.3527098 26.5440718 13.751335 24.7119129 12.6880021 23.205572 11.8137646 21.7996321 11.4329065 20.5219467 11.8133279L20.5219467 10.4214962 16.24 7.93637599 16.24 24.7750773 20.8467929 27.448729 20.8467929 16.1015424C21.4006186 15.7351508 22.1834236 15.6111587 23.2729379 16.2434818 24.6597691 17.0483592 25.4467845 18.4524474 25.4467845 20.1718261L25.4467845 30.1184334 30.1429668 32.8439641 30.1429668 21.3769038C30.6734735 21.0105858 31.4478578 20.987973 32.5354288 21.6191683 34.0352923 22.4896465 34.7112187 23.9420079 34.7112187 25.5486404L34.7112187 35.4952477 39.4057817 38.2198386 39.4057817 26.5538527C39.4057817 23.3953408 37.3857755 20.0435518 33.8409675 17.986246 31.853025 16.8325006 30.3923503 16.4626417 29.0275426 17.1265264z"/>
        <polygon points="50.524 44.392 55.124 47.061 55.124 22.945 50.524 20.275"/>
        <polygon points="86.018 48.841 79.925 37.815 74.884 34.889 74.884 59.006 79.925 61.931 79.925 45.305 86.018 56.91 92.105 52.374 92.105 69 97.147 71.926 97.147 47.81 92.105 44.883"/>
        <polygon points="42.404 39.469 47.011 42.142 47.011 25.303 42.404 22.63"/>
        <path d="M41.5022222 17.6524141C41.5022222 19.3008404 42.8433871 21.4195328 44.4922329 22.3764761 46.145613 23.3360509 47.481272 22.770911 47.481272 21.1224847 47.481272 19.4653107 46.145613 17.3579134 44.4922329 16.3983386 42.8433871 15.4413953 41.5022222 15.9952401 41.5022222 17.6524141zM119.893674 68.1280594L115.484444 65.569068 115.484444 82.4080932 120.095124 85.0840005 120.095124 74.5049781C120.759715 74.0353721 121.841132 73.8915921 123.40156 74.7972202 124.607993 75.4973997 125.486989 76.4782914 125.988671 77.140738L125.988671 72.0707254C125.42351 71.3374189 124.507592 70.5978492 123.753612 70.1602606 122.444511 69.4004954 121.006183 69.0653131 119.893674 69.8966835M134.237527 86.1210012L134.237527 80.3719199 138.162887 82.6500877 138.162887 78.2393808 134.237527 75.961213 134.237527 69.6049872 129.696156 68.9005686 129.696156 73.3255308 127.213333 71.8845708 127.213333 76.2952777 129.696156 77.7362376 129.696156 84.1572601C129.696156 87.6527145 131.091408 91.1625548 135.201701 93.5480521 136.424328 94.25763 137.508337 94.6981995 138.2241 94.8278548L138.2241 90.1705967C137.884355 90.3599306 137.248265 90.2457369 136.252027 89.6675485 134.790381 88.8192505 134.237527 87.3683364 134.237527 86.1210012z"/>
        <polygon points="60.873 54.932 66.049 57.936 73.816 41.242 68.769 38.313 65.571 45.552 62.096 34.441 56.84 31.39 63.181 50.34"/>
      </g>
    </g>
  </g>
</svg>
