<?xml version="1.0" encoding="UTF-8" standalone="no"?>
<svg width="440px" height="469px" viewBox="0 0 440 469" version="1.1" xmlns="http://www.w3.org/2000/svg" xmlns:xlink="http://www.w3.org/1999/xlink">
    <title>B1-P3</title>
    <desc>Created with Sketch.</desc>
    <defs>
        <polygon id="path-1" points="56.369686 0.594071666 56.369686 33.1624242 6.62790698e-05 33.1624242 6.62790698e-05 0.594071666 56.369686 0.594071666"></polygon>
        <polygon id="path-3" points="31.5262439 0.0484542085 31.5262439 59.2777212 0.423631275 59.2777212 0.423631275 0.0484542085 31.5262439 0.0484542085"></polygon>
    </defs>
    <g id="Page-1" stroke="none" stroke-width="1" fill="none" fill-rule="evenodd">
        <g id="台新atm-1440" transform="translate(-41.000000, -556.000000)">
            <g id="B1-P3" transform="translate(41.000000, 556.000000)" opacity="0">
                <g id="P3-5" transform="translate(0.000000, 286.000000)">
                    <g id="Group-69">
                        <path d="M95.9954448,173.313034 L95.999954,173.310468 L70.4295552,158.613697 C70.4005675,158.59574 70.3754448,158.576501 70.3451687,158.559827 C70.3148926,158.541871 70.2813957,158.527762 70.2504755,158.510447 L70.1821933,158.470686 L70.1783282,158.47261 C66.3017025,156.342838 60.1595245,156.36849 56.3479601,158.559827 C52.5363957,160.749882 52.4913037,164.280262 56.1965798,166.508153 L56.1772546,166.519055 L81.9963037,181.358838 L82.0021012,181.355632 C85.8703528,183.554664 92.1065798,183.548251 95.9580828,181.334468 C99.8102301,179.120686 99.8205368,175.536436 95.9954448,173.313034" id="Fill-1" fill="#D2ECF4"></path>
                        <path d="M50.8826135,74.6460511 L50.8826135,74.6524641 C50.8375215,75.0051815 50.5534417,76.7367033 49.4583497,77.0701815 C49.2013252,77.147138 48.8914785,77.147138 48.5249448,77.0317033 C48.4083497,76.993225 48.3123681,76.9675728 48.240865,76.9483337 C47.9509877,76.7559424 47.7004049,76.5186598 47.5258344,76.2813772 C46.1279816,74.6524641 44.9684724,69.9709424 44.9684724,69.9709424 C44.9684724,69.9709424 44.3120613,67.6430076 43.4231043,64.6160511 C43.4160184,64.609638 43.4160184,64.609638 43.4160184,64.603225 C42.2185031,60.5309424 40.594546,55.1952902 39.5509877,52.5531163 C35.892092,42.2986598 33.2323067,37.8544207 33.0577362,36.5653989 C32.0985644,32.2173554 39.7893313,26.7277902 43.3580429,38.8484424 C43.4037791,39.6885511 43.4875215,40.5350728 43.590589,41.3880076 C44.0479509,45.126812 45.000681,49.0067033 45.9482577,53.4509424 C46.8372147,58.1965946 47.5451595,61.1850728 48.6144847,65.7960511 C48.6789018,66.071812 48.7375215,66.3411598 48.8019387,66.6105076 C49.1240245,68.0726815 49.6451595,69.4065946 50.1353742,70.5930076 C50.2571227,70.6699641 50.483227,71.2086598 50.7022454,71.8435511 C50.7022454,71.8435511 50.9148221,73.2415946 50.8826135,74.6460511" id="Fill-3" fill="#FCC7A7"></path>
                        <path d="M46.7641012,121.453124 C57.4612178,127.60195 57.4612178,137.571667 46.7641012,143.720493 C36.0663405,149.869961 18.7220153,149.869961 8.02296626,143.720493 C-2.67415031,137.571667 -2.67415031,127.60195 8.02296626,121.453124 C18.7220153,115.303657 36.0663405,115.303657 46.7641012,121.453124" id="Fill-5" fill="#D2ECF4"></path>
                        <path d="M43.9791534,122.900484 C45.2610552,123.063375 44.4848282,122.683082 44.8243067,125.711321 C44.8996748,127.017658 46.4160552,128.406723 46.6647055,128.667092 C47.4254724,129.461668 50.8634172,131.996745 50.8634172,131.996745 C50.8634172,131.996745 53.2494294,134.873636 49.2536319,134.860168 C45.2584785,134.84606 42.1265153,133.989277 39.3372515,130.172875 C38.6344601,128.850505 38.3162393,125.585625 38.8244908,124.260049 C39.9775583,123.37569 42.4885399,122.500951 43.9791534,122.900484" id="Fill-7" fill="#323843"></path>
                        <path d="M11.7737209,123.379859 C12.4262669,124.025011 11.9379847,124.901674 12.3979233,126.025239 C12.3992117,126.395272 13.5052546,127.639402 13.739089,127.953 C14.4508988,128.913674 17.8141196,132.118272 17.8141196,132.118272 C17.8141196,132.118272 19.9952853,135.548609 15.6838436,134.990033 C11.3736902,134.432739 8.25783129,133.084717 5.56519325,129.036163 C4.98737117,127.511783 5.14905828,123.49337 5.87954908,122.130598 C7.2464816,121.333457 10.2206227,122.744967 11.7737209,123.379859" id="Fill-9" fill="#323843"></path>
                        <path d="M24.1230736,91.5820652 C24.0399755,84.6142935 19.2428282,78.7130109 17.5312638,72.014587 L41.3024908,66.5384891 C42.1031963,68.4143043 42.3969387,72.0100978 42.3853436,76.0297935 C42.4839018,79.1067717 42.6629816,87.4014022 42.9225828,92.1695 C42.927092,96.3251522 44.9150061,125.147293 44.9150061,125.147293 L44.5864785,126.159272 C43.4308344,127.802293 41.2161718,127.666337 39.4801288,126.755685 C39.4801288,126.755685 38.2864785,125.84888 38.2175521,125.055587 C37.9373374,123.391402 31.1542086,98.3273043 29.6900061,92.0765109 C26.8717546,82.6974348 24.1269387,91.9110543 24.1230736,91.5820652" id="Fill-11" fill="#617688"></path>
                        <path d="M21.8552669,64.1090359 L27.3938558,63.5857315 C27.0923834,69.9045033 26.4694693,76.1803076 24.679316,82.3118185 C24.3649601,83.3904924 24.4686718,88.1310141 25.193365,88.6139163 L12.1791626,124.711014 C12.1791626,124.711014 11.1259417,125.726199 9.15670859,125.704395 C7.41873313,125.526753 6.99229141,125.656297 6.09689264,124.795666 C6.09689264,124.795666 5.43597239,123.54384 5.6047454,122.702449 C5.76578834,121.699449 12.0851135,81.9283185 14.5690399,70.4868076 C17.0536104,59.0529924 21.8552669,64.1090359 21.8552669,64.1090359" id="Fill-13" fill="#617688"></path>
                        <path d="M43.5362853,66.4991772 C42.9565307,56.8469054 41.6746288,44.201025 41.4362853,43.2326554 C41.5522362,42.9120033 42.8309172,42.188612 43.1472055,41.8166554 C44.105089,41.1702207 43.9034632,40.047938 43.9034632,40.047938 C43.8519294,39.605438 41.8807638,29.5529924 36.1418374,27.9817967 C34.8915,27.4950467 33.1844448,27.1551554 32.0120521,27.1679815 C31.9411933,27.1679815 31.8832178,27.1679815 31.8194448,27.1743946 C31.6899663,27.3283076 31.5933405,27.5463511 31.5611319,27.7643946 L31.5611319,27.7701663 C31.5546902,27.8413511 31.5546902,27.9118946 31.5611319,27.9817967 C31.6062239,28.3537533 31.5160399,28.5403728 32.1730951,29.1040793 C32.8301503,29.6754815 30.6141994,30.041025 30.6141994,30.041025 L29.7574509,28.123525 L29.7832178,27.9176663 C27.7154264,28.8475576 25.8151196,29.3926663 24.4945675,29.6940793 L23.4703344,28.1812424 L23.1418067,28.4056989 L21.9565307,29.2265685 L15.5238313,33.6701663 C15.5373589,33.720188 15.5431564,33.7746989 15.5270521,33.8369054 C15.4922669,33.9690141 15.443954,34.0953511 15.3937086,34.2210467 C15.3924202,34.2268185 15.3937086,34.2319489 15.3924202,34.2377207 C14.7591994,36.4701011 13.1693834,38.427362 12.0047209,40.4064272 C11.8456104,40.6776989 11.4880951,40.5564924 11.4159479,40.3262641 C11.247819,40.4769707 11.0912853,40.6366554 10.9347515,40.8194272 C10.8445675,40.9246011 10.7047822,40.9355033 10.5894755,40.8867641 C10.4580644,41.4254598 10.3453344,41.9994272 10.2583712,42.622775 C10.2197209,42.8863511 10.1875123,43.1614707 10.1553037,43.4442859 C10.0908865,44.0208185 10.0264693,44.5729815 9.97493558,45.0988511 C9.92340184,45.5798293 7.87944479,48.9229489 7.65462883,52.2384924 L13.8199969,53.3787315 C13.7362546,56.2710141 12.5065307,81.6852641 12.5065307,81.6852641 C12.5065307,81.6852641 11.881684,85.0008076 21.4869294,85.7447207 C21.7246288,85.7767859 21.9565307,85.8082098 22.1691074,85.8274489 C24.9326043,86.0711446 27.2322975,85.9749489 29.2169908,85.6741772 C29.4804571,85.6350576 29.7381258,85.5901663 29.9893528,85.551688 C29.9957945,85.545275 30.0022362,85.545275 30.0022362,85.545275 C31.6770828,85.2509163 33.0169601,84.7949489 34.2924202,84.2504815 C34.4276963,84.1921228 34.5571748,84.1350467 34.6924509,84.0773293 C35.7868988,83.5963511 36.8562239,83.0512424 38.0801503,82.4926663 C41.8549969,80.7803837 42.6022362,79.0687424 43.1433405,77.6642859 C43.2915,77.3500467 43.4145368,77.0415793 43.5169601,76.7465793 C43.5362853,76.7023293 43.5498129,76.651025 43.5684939,76.5862533 C43.6457945,76.362438 43.7108558,76.1373402 43.7681871,75.9257098 C43.8261626,75.0605902 43.8326043,73.8741772 43.8003957,72.4697207 C43.7681871,70.0962533 43.6007025,67.4931989 43.5362853,66.4991772" id="Fill-15" fill="#4A4A4A"></path>
                        <path d="M8.18426687,45.8988783 L16.4689601,48.7347261 C13.8774571,52.3510413 9.89261043,58.1567696 10.7693282,65.4708457 C11.1835307,68.9390196 13.8723037,77.1566935 16.6235613,80.1496609 C17.0590215,80.6274326 17.8378252,81.489987 17.8378252,81.489987 C17.8378252,81.489987 19.4521196,82.0248348 20.4280399,83.1490413 C21.4020276,84.2745304 19.378684,83.6499 19.378684,83.6499 L19.3754632,83.6486174 C22.520954,88.5693457 19.5609847,89.7474217 14.6375798,85.337813 C9.65104601,80.4895522 5.07420552,74.5690304 3.60034049,66.2243783 C2.39509509,55.5242152 8.18426687,45.8988783 8.18426687,45.8988783" id="Fill-21" fill="#FFCFA9"></path>
                        <path d="M14.7127546,85.9837989 C15.940546,85.2020489 19.3495031,84.374125 21.4430613,85.9100489 C22.1986748,87.7217337 20.391773,93.158712 19.4229387,93.1837228 C15.0348405,93.0785489 13.4849632,86.7655489 14.7127546,85.9837989" id="Fill-23" fill="#617688"></path>
                        <path d="M28.9984233,42.6368837 L27.6643436,35.344612 C27.6643436,35.344612 23.4160307,33.3033402 22.449773,29.221438 C21.531184,29.7517967 20.9765521,31.0889163 20.6467362,32.6806337 L16.1349571,33.2475467 C16.1349571,33.2475467 12.0489755,35.5421337 9.40207362,41.4947207 C6.05431288,48.5663837 5.68713497,49.8983728 5.68713497,49.8983728 C5.68713497,49.8983728 4.67642945,51.9877424 7.76330061,53.080525 C10.6079632,54.121362 12.7459693,55.3180359 14.4981166,54.2553946 L22.172135,41.3786446 L28.9984233,42.6368837 Z" id="Fill-25" fill="#4A4A4A"></path>
                        <g id="Group-53" transform="translate(12.000000, 0.000000)">
                            <g id="Group-65" transform="translate(14.413367, 18.369503) rotate(-12.000000) translate(-14.413367, -18.369503) translate(3.913367, 2.369503)">
                                <path d="M14.5473589,22.7191967 C14.7599356,22.6537837 14.9467454,22.5845228 15.1457945,22.5011533 C18.9528497,20.9556098 18.4130717,18.9165576 19.540792,15.3877679 C19.9712397,13.9714214 20.0637159,10.4280765 19.9735319,10.0695874 C19.3358018,7.61916345 17.348862,8.69964239 15.9445675,8.07180543 C15.9381258,8.05833804 15.8614693,8.05833804 15.8543834,8.05833804 C4.44610123,0.317794565 2.63018098,14.5868163 2.69395399,17.1007293 C2.7074816,17.7041967 3.13907669,18.4096315 3.61511963,19.1785554 C3.6408865,19.211262 3.66665337,19.2490989 3.68597853,19.2946315 C3.87278834,19.5832185 4.05959816,19.8775772 4.22708282,20.1854033 C4.32370859,20.3457293 4.41389264,20.5124685 4.49119325,20.6727946 C4.72373926,21.4494141 4.91634663,22.5268054 4.77527301,23.8985554 C4.72631595,24.3878707 4.62840184,24.9188707 4.4763773,25.4838598 C5.22467314,27.9885584 6.7710583,29.9239096 9.1155328,31.2899133 C10.5422336,31.9020874 12.1503957,31.7545337 13.4322975,31.363338 C16.0347515,29.9338707 15.2430644,26.9518054 14.8430337,25.6999793 C14.7979417,25.610838 14.701316,25.4248598 14.5595982,25.2523489 C14.5209479,25.2068163 14.2278497,24.9599141 13.7608252,24.4507185 C13.7421442,24.4051859 13.7157331,24.3602946 13.696408,24.3089902 C13.3421135,23.5137728 13.8194448,23.0712728 14.2117454,22.8660554 C14.3727883,22.7833272 14.5016227,22.7320228 14.5473589,22.7191967 Z" id="Fill-17" fill="#FCC7A7"></path>
                                <ellipse id="Oval-2" fill="#FF8080" transform="translate(15.419325, 18.334342) rotate(2.000000) translate(-15.419325, -18.334342) " cx="15.4193247" cy="18.3343416" rx="1.49992741" ry="2.24989112"></ellipse>
                                <path d="M14.5595982,25.2521565 C14.0313773,25.7966239 14.0507025,26.4578087 13.4458252,26.9708522 C11.1003957,28.7915152 8.76849387,27.054863 8.0921135,26.4129174 C7.86665337,26.201287 7.4415,26.0146674 6.9712546,25.8678087 C6.84886196,25.8293304 6.72002761,25.7908522 6.59119325,25.7652 L6.58475153,25.7652 C5.69579448,25.4374935 5.07738957,24.5531348 4.77527301,23.8990043 C4.91634663,22.526613 4.72309509,21.4492217 4.5105184,20.7431457 L4.51696012,20.7239065 C4.5105184,20.7053087 4.50407669,20.6924826 4.49119325,20.6726022 C4.41389264,20.5122761 4.32370859,20.345537 4.22708282,20.1852109 C4.38168405,20.3782435 4.54916871,20.5635804 4.74242025,20.7303196 C4.76818712,20.7502 4.79395399,20.7752109 4.82616258,20.8015043 C6.06361656,22.1091239 9.03260429,22.9684717 9.10346319,22.9947652 C9.10990491,22.9947652 9.11634663,23.0011783 9.12343252,23.0011783 L9.12923006,23.0011783 C11.030181,23.546287 13.8510092,22.9498739 14.2117454,22.865863 C13.8194448,23.0710804 13.3421135,23.5135804 13.696408,24.3087978 C13.7157331,24.3601022 13.7415,24.4056348 13.7608252,24.4505261 C13.928954,24.7384717 14.1280031,24.9058522 14.3025736,25.0078196 C14.3083712,25.0078196 14.3148129,25.0078196 14.3148129,25.0148739 C14.3921135,25.0661783 14.4636166,25.1303087 14.5209479,25.2072652 L14.5273896,25.2072652 C14.540273,25.21945 14.5531564,25.2393304 14.5595982,25.2521565" id="Fill-19" fill="#E8BC9E"></path>
                                <path d="M0.677862897,9.25482246 C0.836329155,8.37046376 0.904611364,7.89205072 1.04375247,7.39055072 C2.68381382,2.32552898 10.3501022,-4.55438407 19.3685071,5.02477898 C19.3685071,5.02477898 20.0429549,5.87835506 20.4320347,7.07182246 C20.4320347,7.07182246 20.4313905,7.07759419 20.4378322,7.08464854 C20.4880776,7.24753985 21.0175868,8.98675724 20.5415439,10.1840725 C20.4623108,10.3610725 20.3772801,10.5239638 20.260685,10.6586377 C19.5971881,11.4756594 17.9442433,11.647529 16.1837218,11.3794638 C16.1837218,11.3794638 14.7536604,11.2274746 13.1638445,10.9921159 L13.1625561,10.9927572 C9.50945799,10.6182355 8.32933529,14.4949203 8.00016351,12.0887464 C7.41010216,9.23494202 4.93841504,10.3623551 4.68461136,11.8732681 C4.47783222,13.2078225 4.15123713,16.2341377 3.47292425,16.4040833 L3.46583836,16.403442 C3.43234143,16.4342246 3.39240277,16.4643659 3.35246412,16.4880942 C3.33958069,16.4945072 3.3324948,16.4996377 3.32540891,16.506692 C3.2867586,16.5233659 3.24037823,16.5470942 3.19399787,16.5586377 C3.14181995,16.5746703 3.08964204,16.5913442 3.02522486,16.5945507 C2.92731075,16.6093007 2.81780155,16.6112246 2.69605308,16.5919855 C2.58783222,16.5676159 2.47510216,16.491942 2.35721873,16.3906159 C1.41028621,15.5620507 0.0910224067,12.3798985 0.677862897,9.25482246" id="Fill-27" fill="#9B9B9B"></path>
                                <path d="M12.6504396,10.9676822 C8.88589971,11.0010301 9.26853774,14.0869866 8.69135983,14.3845518 C7.95313897,14.6391496 8.36927394,13.7188779 8.00016351,12.0893235 C7.63105308,10.4597692 8.11418192,9.20409528 8.11418192,9.20409528 L12.6504396,10.9676822 Z" id="Fill-29" fill="#9B9B9B"></path>
                            </g>
                        </g>
                        <path d="M99.0099755,148.426449 C99.0099755,148.426449 97.9915399,150.550449 96.7231656,150.258655 C95.0438098,149.421753 93.9506503,150.345873 93.8533804,150.978199 C93.7387178,153.047047 94.107184,153.311264 95.8174601,153.880742 C98.4624294,154.420079 102.58835,156.488927 104.113748,155.245438 L99.0099755,148.426449 Z" id="Fill-31" fill="#EC851C"></path>
                        <path d="M88.8026227,165.048993 C88.8026227,165.048993 88.3858436,163.822178 87.2269785,164.028678 C86.0674693,164.235178 86.167316,165.742243 86.1615184,165.984657 C86.156365,166.228352 85.0554755,163.081472 85.0670706,162.923711 C85.079954,162.76595 88.6544632,160.798428 88.6544632,160.798428 L88.8026227,165.048993 Z" id="Fill-33" fill="#717171"></path>
                        <path d="M52.5622914,140.565468 C52.8463712,141.288218 53.2154816,141.968001 53.689592,142.56249 C54.090911,142.731153 55.0719847,143.087077 55.9087638,142.932523 C55.3528436,143.177501 55.0745613,143.311534 54.3337638,143.247403 C55.7135798,144.512055 57.7916779,145.16811 60.8978742,144.608251 L62.2570767,139.542588 C62.2570767,139.542588 57.8535184,142.713838 53.9092546,136.198827 C52.7735798,134.097914 52.0965552,132.823642 51.7164939,132.082936 C51.7248681,133.057077 51.3241933,136.802295 52.3548681,139.979316 C52.3548681,139.979316 53.2734571,140.60074 54.6178436,140.795697 C55.707138,140.952816 53.7984571,140.903436 52.5622914,140.565468" id="Fill-35" fill="#717171"></path>
                        <path d="M68.5520521,142.307443 C70.2378497,143.177052 71.960365,144.017161 73.5398742,145.071465 C74.2168988,145.523585 74.8249969,146.068693 75.4421135,146.599693 C74.1106104,148.239509 71.6015613,150.636063 67.6360399,151.862878 L67.0073282,158.745357 C67.0073282,158.745357 68.5623589,160.818693 68.514046,161.733835 C68.2557331,163.294128 65.8954877,162.307161 65.5083405,161.873639 C64.3468988,161.253498 63.961684,158.09315 63.961684,158.09315 L63.961684,149.119378 C63.961684,149.119378 66.0436472,145.367107 66.3058252,141.118465 C67.0517761,141.534672 67.8106104,141.925226 68.5520521,142.307443" id="Fill-37" fill="#717171"></path>
                        <path d="M93.2828374,156.525738 C93.2828374,156.525738 92.7288497,171.105792 93.2828374,172.99764 C93.836181,174.888847 95.3403221,175.165249 95.2224387,176.583814 C95.1032669,178.003021 93.4406595,177.490618 92.2528067,177.293097 C91.0662423,177.096216 90.9470706,175.323651 90.9071319,174.692608 C90.8678374,174.061564 87.978727,160.466553 85.919954,154.121488 C83.8618252,147.777064 94.470046,149.196271 94.470046,149.196271 L93.2828374,156.525738 Z" id="Fill-39" fill="#9B9B9B"></path>
                        <path d="M86.3278436,160.459371 C86.3278436,160.459371 85.7738558,175.039425 86.3278436,176.931273 C86.8818313,178.823121 88.3859724,179.098882 88.2674448,180.517447 C88.148273,181.936653 86.4856656,181.424251 85.2984571,181.226729 C84.1112485,181.029849 83.9927209,179.257284 83.9527822,178.62624 C83.9134877,177.995197 81.0237331,164.400827 78.9649601,158.055121 C76.9068313,151.710697 87.5156963,153.129903 87.5156963,153.129903 L86.3278436,160.459371 Z" id="Fill-41" fill="#9B9B9B"></path>
                        <path d="M69.3447055,148.883955 C69.3447055,148.883955 66.7338773,153.888695 60.3527117,155.862629 L59.724,162.745108 C59.724,162.745108 61.2790307,164.818445 61.2307178,165.733586 C60.9730491,167.293879 58.6128037,166.306271 58.2256564,165.87339 C57.0642147,165.253249 56.6783558,162.092901 56.6783558,162.092901 L56.6783558,153.119129 C56.6783558,153.119129 59.0733865,149.111618 58.9600123,144.339673 C59.0559939,139.863368 65.2355337,139.979445 65.2355337,139.979445 C65.2355337,139.979445 72.1494294,144.119705 69.3447055,148.883955" id="Fill-43" fill="#9B9B9B"></path>
                        <path d="M59.1090736,143.486417 C60.7433374,136.68282 67.919411,139.778396 70.6539202,141.244417 C70.6635828,141.247624 70.6687362,141.253396 70.6745337,141.255961 L71.6498098,141.81582 C71.6845951,141.839548 71.7084294,141.853657 71.7168037,141.856222 L71.7200245,141.856222 L71.7200245,141.86007 L80.2488589,146.760276 C84.3135828,149.090135 87.460362,148.451396 89.3084908,147.05207 L95.5092883,142.305776 C95.5092883,142.305776 101.690117,149.523015 99.0812209,152.921287 C98.8357914,153.239374 97.5223252,151.747059 97.2182761,152.114526 L96.8427239,152.315896 C96.8427239,152.315896 93.9484601,159.729374 91.6062515,161.187059 C91.3460061,161.367907 91.0045951,161.793733 90.7263129,161.966243 C89.9719877,162.440809 89.1545337,162.886515 88.2700859,163.288613 C87.9692577,163.425852 87.6600552,163.557961 87.3431227,163.683657 C87.3064049,163.699689 87.2696871,163.713157 87.2323252,163.727907 C87.1730613,163.752276 87.1144417,163.776646 87.0545337,163.799733 C80.9258834,166.145624 66.7425092,155.212026 63.7967117,152.807135 C62.1920798,154.312917 60.4373558,154.68295 59.4485521,150.866548 C58.6587975,147.815222 58.7174172,145.363515 59.1090736,143.486417" id="Fill-45" fill="#9B9B9B"></path>
                        <polygon id="Fill-47" fill="#F9D5E7" points="71.7169325 141.856542 71.7201534 141.859749 71.7201534 141.856542"></polygon>
                        <path d="M88.7981779,147.163272 L88.8729018,147.254337 C88.8651718,147.260109 88.1127791,147.88025 87.6683006,149.030109 C87.0666442,150.58463 87.3198037,152.29563 88.431,154.132967 C89.3399264,155.81062 91.0012454,156.395489 91.910816,156.594293 C93.2803252,156.893141 94.4939448,156.679587 94.9848037,156.314043 C94.9848037,156.314043 95.0736994,156.099848 95.2804785,156.122293 C95.4859693,156.144739 95.4956319,156.296087 95.4312147,156.395489 C94.7992822,157.406826 93.8594356,157.524185 92.9144356,157.524185 C92.4377485,157.524185 92.1581779,157.469674 91.6608773,157.361293 C90.6050798,157.129783 88.7324724,156.532728 87.6676564,154.565848 C84.6754785,149.618826 88.7614601,147.193413 88.7981779,147.163272" id="Fill-49" fill="#4A4A4A"></path>
                        <path d="M95.8412945,141.625737 C96.5254049,141.395509 101.24654,141.212737 100.954086,145.075313 C100.660344,148.937248 96.9460491,145.075313 96.9460491,145.075313 L95.8412945,141.625737 Z" id="Fill-51" fill="#717171"></path>
                        <path d="M88.9127117,147.771677 C88.9127117,151.01796 91.8739693,153.212503 95.1341227,153.212503 C98.3955644,153.212503 101.165503,150.842242 101.165503,147.59596 C100.295227,146.131862 100.22308,144.637623 99.4391227,143.640395 C98.3582025,142.264155 96.391546,141.48946 94.5021902,141.48946 C91.2407485,141.48946 88.9127117,144.525395 88.9127117,147.771677" id="Fill-53" fill="#9B9B9B"></path>
                        <path d="M99.0099755,148.426449 C99.0099755,148.426449 97.9915399,150.550449 96.7231656,150.258655 C95.0438098,149.421753 93.9506503,150.345873 93.8533804,150.978199 C93.7387178,153.047047 94.107184,153.311264 95.8174601,153.880742 C98.4624294,154.420079 102.58835,156.488927 104.113748,155.245438 L99.0099755,148.426449 Z" id="Fill-55" fill="#FFFFFF"></path>
                        <polygon id="Fill-57" fill="#9B9B9B" points="97.0862209 148.391049 100.90938 147.334179 104.96573 151.463538 103.824902 152.362647 102.260853 153.01806 94.4013129 149.102255"></polygon>
                        <path d="M104.942733,151.529015 L102.244298,152.902689 C102.244298,152.902689 103.356782,155.318483 104.113684,155.245374 C104.869942,155.172907 105.089604,153.350961 104.942733,151.529015" id="Fill-59" fill="#4A4A4A"></path>
                        <path d="M95.1147331,146.013092 L92.7905613,143.630005 C92.7905613,143.630005 91.019089,142.346114 89.7958067,142.866212 C88.5731687,143.38631 88.7973405,145.662299 88.5673712,148.326918 C88.3374018,150.990897 87.329273,151.464821 88.6665736,151.680299 C90.0038742,151.895136 92.0877699,151.771364 92.7261442,148.404516 C93.3651626,145.037027 93.5970644,146.10544 94.2624939,146.274745 C94.9279233,146.44469 95.3440583,146.24781 95.1147331,146.013092" id="Fill-61" fill="#717171"></path>
                        <path d="M87.5022975,148.96694 C65.0277883,137.908929 55.340089,118.200364 51.170365,103.615179 C46.6585859,87.833962 47.4625123,74.4749511 47.4708865,74.3415598 L48.4352117,74.4037663 C48.4268374,74.535875 47.6351503,87.7550815 52.1082791,103.381745 C56.2264693,117.770049 65.7846902,137.208625 87.9300276,148.103745 L87.5022975,148.96694 Z" id="Fill-63" fill="#4A4A4A"></path>
                        <path d="M49.4584141,77.0700533 C49.4584141,77.0700533 48.1919724,78.780412 47.3352239,76.0144663 C46.5300092,72.1865207 50.2217577,70.6435424 50.2217577,70.6435424 C50.2217577,70.6435424 50.6101933,70.4729554 50.8923405,70.9706076 C51.0939663,71.5118685 50.616635,71.6010098 50.616635,71.6010098 C50.616635,71.6010098 49.1781994,71.7292707 48.6081074,73.8737924 C48.0715123,76.3453793 48.4773405,76.7025859 49.4584141,77.0700533" id="Fill-65" fill="#4A4A4A"></path>
                        <path d="M50.5989202,74.4663576 C49.8323558,75.107662 49.4329693,76.0888576 49.458092,77.0700533 C49.2010675,77.1470098 48.2760368,77.0136185 47.9900245,76.4608141 C46.6437055,74.6972272 49.413,72.303238 49.413,72.303238 L50.5989202,74.4663576 Z" id="Fill-67" fill="#FCC7A7"></path>
                    </g>
                    <path d="M48,71.1256056 L48.4785754,72.1361806 C49.1127301,73.812239 49.5349362,74.4953651 49.9047188,73.6132291 L49.9047188,73.6132291 C50.2745015,72.7310931 49.4486911,70.8419106 49.4486911,70.8419106 L49.4486911,70.8419106 L49.2034847,70 L48,71.1256056 Z" id="Fill-70"></path>
                </g>
                <g id="P2Group" transform="translate(52.000000, 0.000000)">
                    <g id="Group-121" transform="translate(268.000000, 248.000000)">
                        <g id="P3-4" transform="translate(66.000000, 0.000000)">
                            <path d="M33.5552925,143.576371 C19.9513411,140.015168 5.46185894,142.691963 1.1935785,149.549494 C-3.07919134,156.41376 4.4820512,164.862778 18.0882473,168.419492 C31.6877094,171.985184 46.1816809,169.315123 50.4522061,162.44749 C54.7216089,155.584347 47.159244,147.140941 33.5552925,143.576371" id="Fill-1-Copy-3" fill="#D2ECF4"></path>
                            <g id="Page-1" transform="translate(9.000000, 0.000000)">
                                <path d="M10.0594242,145.813562 C10.0594242,145.813562 19.192371,143.256243 21.1513023,144.215134 C23.1102336,145.174025 21.608499,148.882179 17.3644295,151.246727 C13.12036,153.612101 10.8259258,155.082291 8.57797184,155.658122 C6.32917278,156.233126 2.80343446,156.296831 2.28116546,154.1234 C1.75889645,151.949968 2.02003095,149.328944 2.60737231,148.370053 C3.19555876,147.411162 10.0594242,145.813562 10.0594242,145.813562" id="Fill-1" fill="#4A9EA1"></path>
                                <path d="M11,145 L11,147.072389 C11,147.072389 10.2094017,150.019826 6.87606838,149.999899 C3.08717949,149.977373 3,147.971696 3,147.971696 L3.11196581,145.088371" id="Fill-3" fill="#E8C8A1"></path>
                                <path d="M1.73617089,79.0055668 C0.763300345,83.6044557 3.50993141,88.9235823 3.65662073,90.9389191 C3.80246701,92.9550866 2.29847995,107.934704 1.42255924,118.582926 C0.545795491,129.230317 1.3053764,146.298376 1.3053764,146.298376 C1.3053764,146.298376 2.86416118,148.530531 6.33075017,147.881736 C9.79733917,147.233771 11.7658424,145.578968 11.7658424,145.578968 C11.7658424,145.578968 14.1769427,109.655965 14.9070172,105.480745 C15.6379346,101.305526 16.8999686,84.6038168 16.9994476,82.0127882 C17.0989265,79.4209289 3.73249451,69.5702021 1.73617089,79.0055668" id="Fill-9" fill="#3A4D57"></path>
                                <g id="Group-46" transform="translate(26.033250, 119.035923) rotate(-3.000000) translate(-26.033250, -119.035923) translate(13.033250, 75.035923)">
                                    <g id="Group-64">
                                        <path d="M12.8652546,76.1152506 C12.8652546,76.1152506 22.9114136,73.1322355 25.0663525,74.2510814 C27.2212913,75.3690665 25.5694478,79.6955573 20.90069,82.4548032 C16.2319321,85.2140492 13.7081672,86.9293259 11.2349605,87.6006334 C8.7625826,88.2719409 4.88369271,88.3468175 4.30931863,85.8113407 C3.73494455,83.2750033 4.02171718,80.2171116 4.66819882,79.0982658 C5.31468047,77.9802806 12.8652546,76.1152506 12.8652546,76.1152506" id="Fill-5" fill="#4A9EA1"></path>
                                        <path d="M12,75 L12,78.4805822 C12,78.4805822 11.5704752,80.77767 8.13589484,80.9865692 C4.70131446,81.1954684 4,78.8983806 4,78.8983806 L4,76.1995635 L9.18746208,75.416995 L12,75 Z" id="Fill-7" fill="#E8C8A1"></path>
                                        <path d="M19.981156,6.69318973 C20.2396455,22.3142669 17.7583145,38.8442791 17.4669875,40.7127378 C17.1748186,42.5811964 14.3129101,76.5020553 14.3129101,76.5020553 C14.3129101,76.5020553 11.3381757,83.1150554 1.9980314,78.15572 C1.9980314,78.15572 2.96547265,47.0885522 3.13892164,41.8165631 C3.31152865,36.5445739 4.17793165,25.6199376 3.81756189,20.1580341 C3.45719213,14.6961306 0.335952182,13.2589185 0,6.07285814 C0,6.07285814 1.21919489,-0.539312612 9.99941884,0.0354063557 C18.7804848,0.610954644 19.981156,6.69318973 19.981156,6.69318973" id="Fill-11" fill="#3A4D57"></path>
                                    </g>
                                </g>
                                <path d="M32.8200373,41.7071541 C33.8468699,35.4677326 30.4707435,32.0256075 22.9168987,27.5938611 C19.7958243,25.76215 8.17025677,17.7896479 2.46553887,24.9001682 C-3.24000713,32.0106886 2.7884943,47.9556928 2.46553887,57.005672 C2.14258343,66.0556513 0.743109887,77.9070711 0.743109887,77.9070711 C0.743109887,77.9070711 3.64970879,83.8323666 14.1979301,84.802096 C24.7469795,85.7718255 31.4205637,82.8626372 31.4205637,82.8626372 C31.4205637,82.8626372 29.8057866,60.0226081 32.8200373,41.7071541" id="Fill-13" fill="#73ADAA"></path>
                                <path d="M11.5453544,20.9121449 C11.5453544,20.9121449 11.4714019,23.5918327 11.5453544,24.1719024 C11.6193068,24.7511362 14.491552,26.634273 17.3646472,26.9243079 C20.2377425,27.2135069 21.7431424,26.5807796 21.7431424,26.5807796 L21.7431424,22.9398812 C21.7431424,22.9398812 26.0570353,23.1229292 26.6461049,22.017955 C27.2351744,20.9121449 28.340211,15.407334 27.8981964,14.2480305 C27.4561817,13.0895628 27.0141671,12.0756946 27.0141671,11.4237432 C27.0141671,10.7717917 27.4561817,8.67133767 27.3091268,7.80206901 C27.162072,6.93280035 25.9830829,4.6150292 25.9830829,4.6150292 C25.9830829,4.6150292 27.9449479,2.22454039 22.5447189,0.6314384 C17.1436399,-0.962499423 9.99830308,0.776037898 9.11427378,2.36997572 C8.23024448,3.96307771 8.3092971,5.1223812 8.3092971,5.1223812 C8.3092971,5.1223812 5.39625056,7.58475185 6.11367433,10.0471225 C6.83109811,12.510329 10.5882226,19.3190429 10.5882226,19.3190429 L11.5453544,20.9121449 Z" id="Fill-25" fill="#EED7BA"></path>
                                <path d="M22.2755375,0.633736681 C16.9623245,-0.966086015 9.93406597,0.778946191 9.06441828,2.37960825 C8.19477058,3.97943094 8.27253715,5.14362511 8.27253715,5.14362511 C8.27253715,5.14362511 5.40604456,7.61638359 6.11179711,10.0899814 C6.81754966,12.5627399 10.5135524,19.4001773 10.5135524,19.4001773 L11.4551132,21 C11.4551132,21 17.3252352,20.0548791 17.977471,19.2541284 C18.6297067,18.4542171 19.8614289,15.1085228 20.5696901,15.3997812 C21.2787874,15.6902002 21.3833124,18.0907736 21.3833124,18.0907736 L22.2663393,18.0907736 C22.2663393,18.0907736 22.3976226,15.2537323 22.2755375,14.5990305 C22.1534523,13.9443287 23.3391835,12.7809739 23.4846822,11.8350136 C23.6293448,10.8898928 23.0498584,8.27108543 23.0205914,7.68940802 C22.9921606,7.10773062 25.6579653,4.63413278 25.6579653,4.63413278 C25.6579653,4.63413278 27.5887504,2.23439874 22.2755375,0.633736681" id="Fill-27" fill="#3A4D57"></path>
                                <path d="M44.9379282,85.1321195 C44.7335877,84.4347695 42.5654445,78.2114232 42.5654445,78.2114232 L35.5505738,60.1867686 C35.055725,58.9152781 34.4418828,57.9396586 33.7426936,57.2071058 C34.148092,50.3660348 32.4189937,38.3007056 32.4189937,38.3007056 C32.4189937,38.3007056 26.0442259,33.8064858 24,41.5259496 C24,41.5259496 24.7221673,53.5359601 24.9412794,58.6185691 C24.9396382,58.6244362 24.9363556,58.6294652 24.9347143,58.6353323 L24.9658988,59.1893568 C24.9905181,59.819654 25.0052897,60.3124927 25.0052897,60.5924385 C25.0052897,60.7575563 25.0307297,60.9092634 25.0701207,61.0542653 L25.0709413,61.0760575 C25.0816097,61.0970115 25.09474,61.1263472 25.1054084,61.1481393 C25.14562,61.2671582 25.1981412,61.3794718 25.2637928,61.4842419 C25.2744612,61.5068723 25.281847,61.5236355 25.293336,61.5462659 L25.293336,61.5638673 C27.8020468,66.7411884 37.1721677,80.8784519 37.2919818,81.5405992 C37.2919818,81.5405992 36.8307795,83.9469597 37.6161364,84.8186473 C38.4006727,85.6894967 39.2541432,85.8294696 39.3911909,86.4916168 C39.5446514,87.1370009 39.4593044,89.681658 39.6127649,90.3446435 C39.7498126,90.9891894 42.446451,93.604252 43.453382,92.8716992 C43.453382,92.8716992 44.3060318,90.4837782 44.511193,89.8207928 C44.7335877,89.1762469 45.1595023,85.8294696 44.9379282,85.1321195" id="Fill-29" fill="#EED7BA"></path>
                                <path d="M35,49.0986823 C34.9446319,44.5469668 34.7546767,38.2779096 34.1405168,36.2253738 C33.1387801,32.8768108 26.0388865,30.3708765 23.77135,38.0617643 C22.6111754,41.9962838 22.8863123,47.7291994 23.76198,52.7039179 C23.8071263,52.7132054 32.6302455,54.5192005 35,49.0986823" id="Fill-31" fill="#69A6A5"></path>
                            </g>
                        </g>
                        <g id="P3-3" transform="translate(40.500000, 95.500000) scale(-1, 1) translate(-40.500000, -95.500000) translate(0.000000, 21.000000)">
                            <polygon id="Fill-1" fill="#58ACC6" points="39.3431373 68.8309043 44.5678733 32.7851035 45 27 38 69"></polygon>
                            <g id="Group-54">
                                <g id="Group-4" transform="translate(24.000000, 114.741988)">
                                    <mask id="mask-2" fill="white">
                                        <use xlink:href="#path-1"></use>
                                    </mask>
                                    <g id="Clip-3"></g>
                                    <path d="M44.0833126,7.27064873 C53.93861,12.964847 53.93861,22.1974302 44.0833126,27.8916285 C34.2274217,33.5864207 18.2480237,33.5864207 8.39153935,27.8916285 C-1.46375808,22.1974302 -1.46375808,12.964847 8.39153935,7.27064873 C18.2480237,1.57645042 34.2274217,1.57645042 44.0833126,7.27064873" id="Fill-2" fill="#D2ECF4" mask="url(#mask-2)"></path>
                                </g>
                                <path d="M48.7879081,132.076318 C48.7879081,132.076318 49.0344663,136.094278 47.8016756,138.444167 C46.0611872,140.623602 40.3386523,138.78773 36.9478151,137.382306 C31.7641291,135.284451 34.6161174,133.28542 37.0213849,133.649544 C42.8930477,133.990453 42.7028267,130.751811 42.7028267,130.751811 C42.7028267,130.751811 42.458257,130.016932 46.0625128,130.652987 C48.8077919,131.108639 48.7879081,132.076318 48.7879081,132.076318" id="Fill-5" fill="#9B9B9B"></path>
                                <path d="M62.9420686,123.343989 C62.9420686,123.343989 63.1886267,127.362611 61.955836,129.712501 C60.2153477,131.891935 54.4928128,130.0554 51.1019756,128.649977 C45.9182895,126.552785 48.7702779,124.553091 51.1755453,124.917214 C57.0472081,125.258124 57.3699872,122.020145 57.3699872,122.020145 L62.9420686,123.343989 Z" id="Fill-7" fill="#9B9B9B"></path>
                                <path d="M60.3781291,78.0525407 C59.973164,76.8573669 59.5847686,75.6575504 59.2281872,74.4471219 C56.1694081,72.3419712 55.393943,67.9300423 56.9183616,64.6628803 L45.7377453,58.257403 L43.8176407,70.886804 C43.8176407,70.886804 41.2029314,86.4598784 41.6827919,101.909589 C42.0672105,114.268561 42.4953733,126.548607 42.7896523,130.717786 C42.7896523,130.717786 42.8168267,133.250069 45.7377453,133.401953 C48.088664,133.744189 48.6374547,131.841329 48.6480593,131.743832 C49.2386058,126.384784 50.1240942,112.942727 50.5283965,102.323456 C50.8359314,94.2411096 52.1025244,87.7949976 52.1025244,87.7949976 C52.1025244,87.7949976 50.5403267,81.9948896 51.8546407,81.8774947 C53.1762453,81.7660689 53.9371291,82.0804487 54.3096174,86.1846303 C54.5899779,89.3065409 55.1321407,94.5826826 55.0572453,98.7041087 C55.0313965,100.135399 56.5955826,116.182696 57.294164,121.7248 C57.294164,121.7248 57.3239895,121.977498 57.3432105,122.140657 C57.591757,124.186115 59.5045709,124.49121 61.2231872,124.365192 C62.8258151,124.267032 62.9444547,123.630313 62.9444547,123.630313 C63.0677337,120.497791 63.3421291,106.470085 63.2181872,95.1663413 C63.3553849,89.4975565 63.9605128,85.3044996 63.9499081,83.9428504 C63.0365826,82.0486128 60.8460593,80.084734 60.3781291,78.0525407 Z" id="Fill-9" fill="#FFCFA9"></path>
                                <path d="M61.0177884,21.9232807 C61.0177884,21.9232807 65.9595558,22.9539688 66.5819163,29.7164503 C67.2042767,36.4795951 64.980614,48.8491793 64.8036488,49.2053438 C64.6253581,49.560845 63.8545326,62.9093839 63.8545326,62.9093839 L57.3333349,55.1672844 L58.0451721,35.0562639 L61.0177884,21.9232807 Z" id="Fill-11" fill="#4D6570"></path>
                                <path d="M60.2527291,42.9930932 C59.4189384,43.0561018 58.5884616,43.1549258 57.7553337,43.2265566 L57.3337988,55.1670191 L63.8549965,62.9091186 C63.8549965,62.9091186 64.6258221,49.5605797 64.80345,49.2050785 C64.8955779,49.0213586 65.5338453,45.6222102 66.0428686,41.449714 C64.486636,42.7078963 62.5744849,43.1250796 60.4972988,43.1038557 C60.3886012,43.1025292 60.3077407,43.0580915 60.2527291,42.9930932" id="Fill-13" fill="#FFCFA9"></path>
                                <path d="M52.0015296,25.1950854 L51.9232008,25.3575813 C51.9232008,25.3575813 49.1560112,25.5413011 46.932415,25.514108 C45.6170904,25.5068122 44.4862452,25.4252327 44.2448384,25.1877897 C44.3017659,25.0723845 44.3586933,24.9636117 44.4199011,24.854839 C44.8496394,24.6644866 45.2049012,24.3719941 45.4814061,24.0257784 C45.5995414,23.8898124 45.7001275,23.7405815 45.7883009,23.5774224 C46.1611118,22.9181534 46.3100649,22.1706723 46.2265998,21.5525248 C46.2749667,21.131362 46.2351603,20.7234642 46.1041843,20.3905134 C46.0382682,20.2207218 45.9500948,20.0781234 45.8366679,19.9554224 C45.7925812,19.9083318 45.739934,19.8612411 45.6872867,19.8201197 C42.4201626,18.8617257 41.6605877,15.9012403 42.9440337,11.6654197 C43.1105359,6.70498433 42.9440337,4.22081154 45.0559481,3.59374558 C52.6332963,1.43288202 51.9360416,12.923662 51.5281326,18.6508126 C51.5105835,18.9021838 51.4934625,19.1336575 51.4759134,19.3651313 C51.4622165,19.5342596 51.4493758,19.7040512 51.4408152,19.8672104 C51.4361069,19.9149643 51.4361069,19.9627181 51.4318267,20.0098088 C51.4185579,20.1868961 51.4142776,20.3566877 51.4142776,20.5331118 C51.4142776,20.7300966 51.4185579,20.9343772 51.4271184,21.131362 C51.4446675,21.5458923 51.4844739,21.9604226 51.5414014,22.3683204 C51.6466958,23.0952407 51.8042095,23.8214978 52.0015296,24.5152557 C52.041336,24.6578542 52.0849947,24.8004526 52.1290814,24.9364185 L52.0015296,25.1950854 Z" id="Fill-15" fill="#FFCFA9"></path>
                                <path d="M61.4041953,77.349232 C61.715707,78.3620124 62.057707,79.3628544 62.4626721,80.3378296 C62.3102302,79.8516685 62.171707,79.3615279 62.0411372,78.8693975 C61.8316953,78.3613491 61.6229163,77.8526376 61.4041953,77.349232" id="Fill-17" fill="#FFCFA9"></path>
                                <path d="M41.0693791,72.0678506 C41.0229837,72.1209105 40.8367395,72.319885 40.6319372,72.6714067 C40.6511581,72.552022 40.6650767,72.4392698 40.6849605,72.3265175 L41.0693791,72.0678506 Z" id="Fill-19" fill="#FFFFFF"></path>
                                <path d="M53.9802105,25.4416149 L53.9802105,25.4747773 C53.9802105,25.4615123 53.9802105,25.4548799 53.9735826,25.4416149 L53.9802105,25.4416149 Z" id="Fill-21" fill="#FFCFA9"></path>
                                <path d="M58.8042,23.9188627 L58.1288163,24.8241969 L57.933293,25.0815373 L57.8113395,25.2433699 C57.8113395,25.2433699 53.5489326,25.4257633 50.124293,25.3985701 C48.0981419,25.3926008 46.3550023,25.3116845 45.9831767,25.0742416 C46.0713279,24.9594996 46.1588163,24.8513901 46.2535953,24.7432806 C46.9157233,24.5542547 47.4631884,24.2637519 47.8880372,23.9188627 C48.0709674,23.78356 48.2260605,23.6349924 48.3612698,23.4724965 L48.3612698,23.465864 C48.9352465,22.817207 48.6721186,23.5653513 48.5435372,22.9498567 C48.9027698,22.4524203 49.0499093,20.633793 48.8477581,20.3021687 L50.7459907,19.1739831 C50.7459907,19.1739831 54.940793,19.6939699 57.0272581,20.4447671 C57.0411767,20.4507364 57.0544326,20.4507364 57.0683512,20.4573689 C57.8855721,20.7551674 58.3654326,21.0934242 58.1155605,21.4449459 C58.0612116,21.5258622 58.0141535,21.6074417 57.9803512,21.6883581 C57.4262581,22.8510326 58.8042,23.9188627 58.8042,23.9188627" id="Fill-23" fill="#EFC1A0"></path>
                                <path d="M35.8311015,93.8761958 L40.4274663,69.6919488 C40.5268849,68.7067392 44.5042639,57.7008624 43.2148297,47.6038766 C43.0359586,46.2032169 41.5011872,41.6522004 41.5011872,39.3095168 C41.5011872,33.4364132 44.5632802,28.3997695 42.1706058,29.0225598 L40.4274663,29.1558727 C40.7787453,28.6047132 41.1432802,28.1212051 41.5011872,27.6900936 C43.0454895,25.8197329 44.4903733,25.0172022 44.6163035,24.9442449 C46.5251407,24.0886543 48.7189779,23.5580555 50.9525826,23.9228422 C57.2557221,24.7253729 62.0013035,28.1212051 63.3335128,30.0777881 C65.7321523,32.6578247 63.8438616,39.5091815 63.4196756,43.5881597 C63.4196756,43.5881597 62.0013035,53.3644424 63.4196756,60.6535432 C64.8446756,67.942644 67.1511872,79.1382784 67.6880477,85.7177034 C67.7808384,86.8909899 69.1693849,92.4284515 68.4237453,93.2575121 C56.2449663,100.912726 37.2693573,95.726659 35.8311015,93.8761958 Z" id="Fill-25" fill="#4D6570"></path>
                                <path d="M42.9619116,26.167673 C42.9619116,26.167673 48.2251326,21.6648791 54.4805512,21.0984649 C60.4735047,20.490266 57.2145628,28.7908208 57.2145628,28.7908208 L42.9619116,26.167673 Z" id="Fill-27" fill="#4D6570"></path>
                                <g id="Group-33" transform="translate(41.232558, 0.000000)"></g>
                                <g id="Group-25" transform="translate(41.000000, 0.000000)" fill="#9B9B9B">
                                    <path d="M2.50692442,6.9956797 C2.50692442,6.9956797 4.6815407,7.91295235 4.97184302,9.4881675 C5.26148256,11.0633826 6.87736628,10.5036009 8.2440407,11.0428219 C9.61137791,11.5813797 9.44568023,6.79338891 9.38337791,6.75226751 C9.32107558,6.71048285 5.86197093,4.78308276 5.86197093,4.78308276 L2.50692442,6.9956797 Z" id="Fill-29"></path>
                                    <g id="Group-80">
                                        <path d="M22.3246314,31.6466361 C22.0005267,26.5528877 21.6618407,16.9702736 20.6517477,9.08159618 C20.4913523,7.93152331 19.4792709,0.600637826 10.4116314,0.174169052 C6.76628256,-0.00689778423 4.59498023,1.40117875 3.08978256,2.97971014 C2.12939884,3.78953653 1.61043372,4.63385185 1.28699186,5.2692439 L1.28566628,5.26990715 C1.28566628,5.26990715 1.27638721,5.28914135 1.2631314,5.31567129 C1.25849186,5.32363028 1.25385233,5.33291575 1.24987558,5.34220123 C1.16702674,5.50933985 0.95427093,5.96764455 0.864131395,6.39212358 C0.836956977,6.46043818 0.821712791,6.50155958 0.821712791,6.50155958 L0.843584884,6.50421258 C0.758747674,7.0407806 0.919143023,7.47056562 1.88549186,7.08389175 C3.62531744,6.64150501 5.28295698,7.93749255 5.86289884,8.57354784 C7.14738721,9.80254728 8.11373605,15.8546897 8.61082907,19.1709321 C9.61098023,26.0488189 7.48806163,38.7367624 7.54307326,41.8871927 C7.59808488,45.037623 12.5875733,45.8666836 17.9455733,45.3758797 C23.3029105,44.8844126 23.1464919,42.2758563 23.1464919,42.2758563 C23.1464919,42.2758563 23.0908174,41.4494487 22.3246314,31.6466361" id="Fill-31"></path>
                                        <path d="M4.76584767,8.89535601 C4.76584767,8.89535601 9.0892314,16.6487308 4.98324302,23.8058452 C1.54866163,26.5530204 9.0892314,21.6230944 8.65908023,29.7512046 C7.99827791,35.1049463 18.2854523,19.1737178 18.2854523,19.1737178 L11.9843012,7.28034595 L5.48563837,7.93430896 L4.76584767,8.89535601 Z" id="Fill-36"></path>
                                    </g>
                                </g>
                                <path d="M36.9152163,66.5865054 L34.6332279,71.2909269 C33.9372977,72.7242069 33.5217279,74.3193195 33.5038326,75.9502475 C33.4779837,78.3008001 34.2302512,81.0983822 37.8053442,81.6084203 C41.992193,81.8438735 42.0829953,77.7098457 41.8026349,74.638342 C41.6349488,72.7958377 41.178286,71.6298469 40.4797047,69.9511649 L39.1117047,66.6621157 C38.6855302,65.6367336 37.3983907,65.5922959 36.9152163,66.5865054" id="Fill-38" fill="#58ACC6"></path>
                                <polygon id="Fill-40" fill="#58ACC6" points="35.7676605 80.8897242 46.0627884 86.9286017 48.2765093 79.5817982 48.3434512 71.8940851 38.609707 65.9918368 37.0541372 68.221015 35.2361023 73.0156382"></polygon>
                                <path d="M46.5916953,72.2992636 L44.4886605,77.003685 C43.8470791,78.436965 43.4646488,80.0320776 43.4480791,81.6636689 C43.4248814,84.0142215 44.2036605,87.1699578 47.4877884,87.1699578 C51.3969279,86.6559402 51.3531837,82.9981248 51.0946953,79.9266211 C50.6797884,77.7717268 50.5187302,77.342605 49.8758233,75.6645864 L48.6158581,72.3755371 C48.2228233,71.3494917 47.0357651,71.3057173 46.5916953,72.2992636" id="Fill-42" fill="#488B9F"></path>
                                <g id="Group-13" transform="translate(0.000000, 3.000000)">
                                    <g id="Group-72" transform="translate(26.206626, 16.667766) rotate(115.000000) translate(-26.206626, -16.667766) translate(19.706626, -8.832234)">
                                        <path d="M10.4357593,12.4781471 C8.17299186,13.2388931 6.27542209,14.2854992 3.87943372,14.599879 C4.18431744,18.8632402 4.5011314,22.9780338 4.58265465,24.2906025 C4.60850349,24.7681415 4.56277093,25.5839371 4.46268953,26.6252372 C3.97951512,31.5598059 2.35567791,41.4282801 2.66652674,42.8018677 C3.03835233,44.4599889 6.19920116,44.6987584 6.79637558,43.7702105 C7.96885233,41.2432338 9.59931744,27.812452 10.0838174,25.185988 C10.3727942,23.6339865 10.8155384,17.2435874 11.1323523,12.2758563 C10.9017012,12.3368751 10.6697244,12.3998837 10.4357593,12.4781471" id="Fill-44" fill="#FFCFA9"></path>
                                        <path d="M3.03503837,37.8571513 C2.92435233,39.2745133 2.71491047,40.9744192 2.52203837,42.015056 C1.65245698,44.3994343 1.64251512,46.6790194 1.66637558,47.3681345 C1.7359686,49.3970117 3.98879419,52.7848849 5.56623605,48.5513698 C6.7022593,46.7586092 7.48103837,42.6776413 7.96620116,38.1483174 C6.30723605,38.9760515 4.68207326,37.6740947 3.03503837,37.8571513" id="Fill-46" fill="#FFCFA9"></path>
                                        <path d="M1.55602093,46.2896262 C1.55602093,46.2896262 0.257613953,46.7492574 0.765974419,45.9075951 C1.27367209,45.0659327 2.3778814,42.9985872 2.3778814,42.9985872 C2.3778814,42.9985872 4.43385814,42.0163162 3.6458,43.9118804 C2.85906744,45.8067813 1.55602093,46.2896262 1.55602093,46.2896262" id="Fill-48" fill="#FFCFA9"></path>
                                        <path d="M12.9267853,4.54558634 C12.9267853,6.12345448 12.3595809,8.95927432 12.1600809,10.6770879 C12.1600809,10.6896896 11.6530745,14.1610103 11.5410628,15.7919383 C11.1957489,15.8655589 10.2056384,16.0084861 9.86032442,16.0622092 C7.83881279,16.387201 5.79741744,16.3341411 3.92901047,15.3127384 C3.84284767,14.1454211 3.76331279,12.9509106 3.68377791,11.7902257 C3.6698593,11.6383418 3.6632314,11.4725297 3.65063837,11.2861569 C3.33846395,5.62931057 2.47438352,3.92384938 4.12473236,1.35044526 C4.47667422,0.799949019 7.24281356,0.889414764 7.33160508,0.322388046 C7.94800043,0.422538567 8.55523792,0.072164597 9.46326117,0.676383965 C10.2895402,1.4187801 11.4440483,2.70851422 12.9267853,4.54558634 Z" id="Fill-50" fill="#4D6570"></path>
                                    </g>
                                </g>
                                <path d="M46.8752372,71.1767818 C46.8752372,71.1767818 49.6231674,30.2371059 46.7413535,25.7309957 C46.7413535,25.7309957 45.8843651,24.2579209 44.5011209,24.6896956 C44.5011209,24.6896956 43.7747023,24.4588852 44.1896093,24.210167 C44.6045163,23.9614488 45.4058302,23.5747749 46.3721791,24.210167 C47.3385279,24.845559 48.3983302,26.4486306 48.5176326,28.7149507 C49.7139698,38.1105287 48.9729698,66.4697073 48.2087721,71.8586013 L46.8752372,71.1767818 Z" id="Fill-52" fill="#58ACC6"></path>
                            </g>
                        </g>
                    </g>
                    <g id="P3-2" transform="translate(92.000000, 131.000000)">
                        <path d="M29.8974678,141.404533 C17.7764678,138.231533 4.86646785,140.616533 1.06346785,146.726533 C-2.74353215,152.842533 3.99346785,160.370533 16.1164678,163.539533 C28.2334678,166.716533 41.1474678,164.337533 44.9524678,158.218533 C48.7564678,152.103533 42.0184678,144.580533 29.8974678,141.404533" id="Fill-1-Copy-4" fill="#D2ECF4"></path>
                        <g id="Page-1" transform="translate(42.000000, 81.500000) scale(-1, 1) translate(-42.000000, -81.500000) translate(8.000000, 0.000000)">
                            <g id="Group-57" transform="translate(48.000000, 77.000000)">
                                <path d="M10.7465182,65.6622156 C10.7465182,65.6622156 2.52686609,63.318711 0.763827911,64.1969564 C-0.999210269,65.0759602 0.352350925,68.4751796 4.17201345,70.6427317 C7.99167598,72.8110423 10.0566668,74.1587471 12.0805859,74.6866045 C14.1037445,75.2137034 17.276909,75.2721014 17.7469511,73.2797433 C18.2169932,71.2873851 17.9819721,68.8847241 17.4533649,68.0064786 C16.9239971,67.1274748 10.7465182,65.6622156 10.7465182,65.6622156" id="Fill-1" fill="#384C5B"></path>
                                <path d="M10,65 L10,66.6579115 C10,66.6579115 10.6917735,69.015861 13.6084402,68.9999195 C16.9237179,68.9825919 17,67.3773564 17,67.3773564 L16.9020299,65.0706969" id="Fill-3" fill="#E8C8A1"></path>
                                <path d="M18.3098398,3.73123501 C19.2219059,8.01435615 16.6469393,12.9699312 16.5094181,14.8472305 C16.3726872,16.7245299 17.782675,30.6789154 18.6038507,40.5978037 C19.4258167,50.5159182 18.7137096,66.4149258 18.7137096,66.4149258 C18.7137096,66.4149258 17.2523489,68.4941934 14.0024217,67.8898361 C10.7524945,67.2862527 8.90702275,65.7440195 8.90702275,65.7440195 C8.90702275,65.7440195 6.6466162,32.2822807 5.96217142,28.3930364 C5.27693629,24.5037922 4.09377943,8.9460414 4.0005179,6.53170753 C3.90725638,4.11814749 16.4382864,-5.05786887 18.3098398,3.73123501" id="Fill-9" fill="#53697A"></path>
                            </g>
                            <g id="Group-63" transform="translate(33.417625, 119.701521) rotate(18.000000) translate(-33.417625, -119.701521) translate(21.417625, 78.701521)">
                                <path d="M12.5377115,70.9645665 C12.5377115,70.9645665 2.94819606,68.1947256 0.891208999,69.2328166 C-1.16577806,70.2717067 0.410981634,74.2890149 4.86752322,76.8510778 C9.32406481,79.4131406 11.7331131,81.0058391 14.0939013,81.6291732 C16.4538984,82.2525073 20.1564751,82.322033 20.7047413,79.9677481 C21.2530075,77.6126641 20.97927,74.7732975 20.3621739,73.7344074 C19.7450777,72.6955173 12.5377115,70.9645665 12.5377115,70.9645665" id="Fill-5" fill="#384C5B"></path>
                                <path d="M13,70 L13,73.4805822 C13,73.4805822 13.4295248,75.77767 16.8641052,75.9865692 C20.2986855,76.1954684 21,73.8983806 21,73.8983806 L21,71.1995635 L15.8125379,70.416995 L13,70 Z" id="Fill-7" fill="#E8C8A1"></path>
                                <path d="M6.01696488,6.27486897 C5.78432438,20.9196281 8.01676386,36.4165137 8.27971583,38.1681936 C8.5426678,39.9198735 11.1183846,71.720677 11.1183846,71.720677 C11.1183846,71.720677 13.7956449,77.9203643 22.2017723,73.2709876 C22.2017723,73.2709876 21.3310754,44.1455193 21.1749713,39.2030298 C21.0196251,34.2597627 20.2398626,24.0186942 20.5641953,18.8981599 C20.8877702,13.7776257 23.6976431,12.4302394 24,5.69253066 C24,5.69253066 22.9027249,-0.505601613 14.9997679,0.0331973909 C7.09756865,0.571996395 6.01696488,6.27486897 6.01696488,6.27486897" id="Fill-11" fill="#617688"></path>
                            </g>
                            <g id="Group-15" transform="translate(36.000000, 29.000000)">
                                <mask id="mask-4" fill="white">
                                    <use xlink:href="#path-3"></use>
                                </mask>
                                <g id="Clip-14"></g>
                                <path d="M0.59324878,18.5760779 C-0.374556098,12.7101039 2.80749268,9.474 9.92710244,5.30750649 C12.868761,3.58542857 23.8260293,-3.9098961 29.2028098,2.77503896 C34.5803707,9.45997403 28.8984195,24.4506234 29.2028098,32.9589351 C29.5072,41.4672468 30.8262244,52.6093247 30.8262244,52.6093247 C30.8262244,52.6093247 28.0867122,58.179974 18.1448585,59.0916623 C8.20222439,60.0033506 1.91227317,57.2682857 1.91227317,57.2682857 C1.91227317,57.2682857 3.43422439,35.7952987 0.59324878,18.5760779" id="Fill-13" fill="#73ADAA"></path>
                            </g>
                            <path d="M42.9932799,14 C42.9932799,14 41.9368151,18.0123626 41.7395372,18.8284895 C41.5414977,19.6446165 41.6732701,20.8005348 41.7395372,21.3443578 C41.8050426,21.8881809 40.881112,23.3846752 41.0128844,24.0642578 C41.1454186,24.7446252 41.7395372,28.8244752 42.9932799,29.9811782 C44.2470225,31.1370965 46.5579917,30.729033 46.5579917,30.729033 C46.5579917,30.729033 46.3591905,34.3333322 46.5579917,34.808883 C46.7552695,35.2852187 52.1678427,34.8771552 54.4125447,33.5172052 C56.6564851,32.1572552 55.8643269,28.4846839 55.8643269,28.4846839 L50.1219418,14 L42.9932799,14 Z" id="Fill-16" fill="#EED7BA"></path>
                            <path d="M43.2624952,14.5052799 C43.2624952,14.5052799 42.671881,11.664579 43.2624952,9.63628731 C43.8531095,7.6072152 49.1678807,7.81012241 51.0381592,8.41884405 C52.9084377,9.02756568 59.5028732,11.2587646 59.896616,12.8820223 C60.2903589,14.5052799 59.896616,15.9256304 59.896616,15.9256304 C59.896616,15.9256304 61.1762803,18.1568293 60.9794089,19.4757262 C60.7825374,20.7946231 56.0576233,28.9101311 56.0576233,28.9101311 C56.0576233,28.9101311 53.0598773,29.3159455 51.9998004,28.402863 C50.9397235,27.4897806 49.9553664,23.9396848 48.5772664,23.5338704 C47.1991665,23.128056 46.7069879,25.7650693 46.7069879,25.7650693 L45.8218237,25.0556745 C45.8218237,25.0556745 46.3140023,22.1135199 45.723388,21.0989839 C45.1327737,20.0844478 44.2468523,19.272819 44.2468523,19.272819 L45.034338,16.1285376 L43.2624952,14.5052799 Z" id="Fill-18" fill="#231F20"></path>
                            <g id="Group" transform="translate(28.404262, 26.742079) rotate(132.000000) translate(-28.404262, -26.742079) translate(17.904262, -1.257921)">
                                <path d="M0.0590435609,48.6940671 C0.25443586,48.0465239 2.3185601,42.2676677 2.3185601,42.2676677 L8.99941358,25.5303879 C9.47069981,24.3497111 10.0553136,23.4437732 10.7212105,22.7635415 C10.3351153,16.4110803 11.9826632,5.20749312 11.9826632,5.20749312 C11.9826632,5.20749312 18.0531111,1.03504219 20,8.20238049 C20,8.20238049 19.3122191,19.3546001 19.1035401,24.0741939 C19.1051033,24.079642 19.1082295,24.0843118 19.1097927,24.0897599 L19.0808746,24.6042143 C19.056646,25.1894937 19.0425777,25.6471324 19.0425777,25.9070837 C19.0425777,26.0604082 19.0183491,26.20128 18.9808338,26.3359254 L18.9800522,26.3561611 C18.9698918,26.3756185 18.9573867,26.4028589 18.9472263,26.4230947 C18.9089294,26.5336129 18.8596905,26.6379047 18.797165,26.7351918 C18.786223,26.7562058 18.7791889,26.7717718 18.7682469,26.7927858 L18.7682469,26.80913 C16.3789899,31.6166714 7.45503285,44.7442092 7.34092375,45.3590639 C7.34092375,45.3590639 7.78016564,47.593555 7.03220392,48.402984 C6.28502377,49.212413 5.4721918,49.3416103 5.34166975,49.9564651 C5.19551631,50.5557539 5.27679951,52.918664 5.13064607,53.534297 C5.00090558,54.1328075 2.43266921,56.5610945 1.47290223,55.8808629 C1.47290223,55.8808629 0.660851841,53.6634943 0.465459542,53.0478613 C0.25443586,52.4493508 -0.151980122,49.3416103 0.0590435609,48.6940671" id="Fill-20" fill="#EED7BA"></path>
                                <path d="M20.3086773,4.70367845 C18.2618691,-2.44326665 11.8530989,-0.114566131 10.9488741,2.99795239 C10.4621613,4.67150974 10.2714744,9.3626487 10.1976602,13.3460761 C10.1938157,13.4088443 10.1976602,13.4849508 10.1938157,13.5485036 C10.1868956,13.9619892 10.1807444,14.3621365 10.176131,14.7544378 C10.1776688,14.8281904 10.1707487,14.8886048 10.1730554,14.9647113 C10.1730554,14.9702035 10.1730554,14.9741265 10.1730554,14.9796187 C10.160753,16.0105866 10.1553707,16.9364176 10.1546018,17.6951283 C9.85780697,24.5886468 7.56495123,26.1319601 7.2973745,28.2244953 C6.99750403,30.570457 3,41.2465447 3,41.2465447 C5.39819486,44.6807502 9.09659732,43.9306702 9.09659732,43.9306702 C9.09659732,43.9306702 11.6954747,43.1146834 12.4436131,41.9260105 C13.1925204,40.736553 19.5912949,28.2244953 19.9911221,27.1025135 C20.3917183,25.9813164 20.3901805,22.6153713 20.8853513,13.7501465 L20.8792001,13.7415158 C21.1267854,10.4548155 21.0206774,7.1908687 20.3086773,4.70367845" id="Fill-24" fill="#69A6A5"></path>
                            </g>
                            <path d="M55.8176645,29 C55.8176645,29 55.2688067,32.5186468 50.9370985,33.2652005 C46.606139,34.0117541 46.1194302,33.371851 46.1194302,33.371851 L45,36.9446435 C45,36.9446435 49.2336177,37.4245708 52.8352628,35.5581867 C56.4361591,33.6918026 56.7281843,32.0928651 56.9715387,31.3996367 C57.2148931,30.7064083 55.8176645,29 55.8176645,29" id="Fill-26" fill="#69A6A5"></path>
                        </g>
                    </g>
                    <g id="P3-text-bubble" transform="translate(84.000000, 0.000000)">
                        <path d="M75.896026,98 L199,98 C226.061953,98 248,76.0619527 248,49 L248,49 C248,21.9380473 226.061953,-4.97120007e-15 199,0 L49,0 L49,0 C21.9380473,4.97120007e-15 -3.31413338e-15,21.9380473 0,49 L0,49 L0,49 C3.31413338e-15,76.0619527 21.9380473,98 49,98 L56.2748869,98 C55.0175725,100.783401 53.344055,103.084935 51.2543344,104.904604 C47.4344541,108.230846 43.0163426,110.345336 38,111.248072 C49.3769072,112.588294 57.6064359,112.136926 62.6885861,109.893967 C68.0984914,107.506357 73.3318449,103.66921 75.896026,98 Z" id="Combined-Shape" fill="#FFFFFF"></path>
                        
                        <text fill="#FFA626" font-family="MicrosoftJhengHeiBold, Microsoft JhengHei" font-size="22" font-weight="bold" letter-spacing="1.077">
                          <tspan x="24.653" y="37">跨行存款、無卡提款</tspan> <tspan x="44.742" y="71">台新ATM萬事通</tspan>
                        </text>
                    </g>
                    <g id="P3-1" transform="translate(0.000000, 36.000000)">
                        <path d="M33.5552925,147.576371 C19.9513411,144.015168 5.46185894,146.691963 1.1935785,153.549494 C-3.07919134,160.41376 4.4820512,168.862778 18.0882473,172.419492 C31.6877094,175.985184 46.1816809,173.315123 50.4522061,166.44749 C54.7216089,159.584347 47.159244,151.140941 33.5552925,147.576371" id="Fill-1-Copy-3" fill="#D2ECF4"></path>
                        <g id="Page-1" transform="translate(4.000000, 4.000000)">
                            <path d="M27.8652546,153.115251 C27.8652546,153.115251 37.9114136,150.132236 40.0663525,151.251081 C42.2212913,152.369067 40.5694478,156.695557 35.90069,159.454803 C31.2319321,162.214049 28.7081672,163.929326 26.2349605,164.600633 C23.7625826,165.271941 19.8836927,165.346817 19.3093186,162.811341 C18.7349445,160.275003 19.0217172,157.217112 19.6681988,156.098266 C20.3146805,154.980281 27.8652546,153.115251 27.8652546,153.115251" id="Fill-5" fill="#4A9EA1"></path>
                            <path d="M27,152 L27,155.480582 C27,155.480582 26.5704752,157.77767 23.1358948,157.986569 C19.7013145,158.195468 19,155.898381 19,155.898381 L19,153.199564 L24.1874621,152.416995 L27,152 Z" id="Fill-7" fill="#E8C8A1"></path>
                            <g id="Group-47" transform="translate(14.504293, 115.932667) rotate(5.000000) translate(-14.504293, -115.932667) translate(4.004293, 75.432667)">
                                <path d="M9.05942421,70.813562 C9.05942421,70.813562 18.192371,68.2562433 20.1513023,69.2151344 C22.1102336,70.1740255 20.608499,73.8821789 16.3644295,76.2467265 C12.12036,78.6121015 9.82592581,80.0822908 7.57797184,80.6581219 C5.32917278,81.2331256 1.80343446,81.296831 1.28116546,79.1233997 C0.758896453,76.9499685 1.02003095,74.3289444 1.60737231,73.3700533 C2.19555876,72.4111622 9.05942421,70.813562 9.05942421,70.813562" id="Fill-1" fill="#4A9EA1"></path>
                                <path d="M10,70 L10,72.0723894 C10,72.0723894 9.20940171,75.0198262 5.87606838,74.9998994 C2.08717949,74.9773734 2,72.9716955 2,72.9716955 L2.11196581,70.0883711" id="Fill-3" fill="#E8C8A1"></path>
                                <path d="M0.736170893,4.00556684 C-0.236699655,8.60445566 2.50993141,13.9235823 2.65662073,15.9389191 C2.80246701,17.9550866 1.29847995,32.9347042 0.422559243,43.5829262 C-0.454204509,54.2303175 0.305376396,71.2983756 0.305376396,71.2983756 C0.305376396,71.2983756 1.86416118,73.5305314 5.33075017,72.8817358 C8.79733917,72.233771 10.7658424,70.5789685 10.7658424,70.5789685 C10.7658424,70.5789685 13.1769427,34.6559646 13.9070172,30.4807451 C14.6379346,26.3055256 15.8999686,9.6038168 15.9994476,7.01278821 C16.0989265,4.42092891 2.73249451,-5.42979792 0.736170893,4.00556684" id="Fill-9" fill="#3A4D57"></path>
                            </g>
                            <path d="M34.981156,83.6931897 C35.2396455,99.3142669 32.7583145,115.844279 32.4669875,117.712738 C32.1748186,119.581196 29.3129101,153.502055 29.3129101,153.502055 C29.3129101,153.502055 26.3381757,160.115055 16.9980314,155.15572 C16.9980314,155.15572 17.9654726,124.088552 18.1389216,118.816563 C18.3115287,113.544574 19.1779316,102.619938 18.8175619,97.1580341 C18.4571921,91.6961306 15.3359522,90.2589185 15,83.0728581 C15,83.0728581 16.2191949,76.4606874 24.9994188,77.0354064 C33.7804848,77.6109546 34.981156,83.6931897 34.981156,83.6931897" id="Fill-11" fill="#3A4D57"></path>
                            <path d="M37.8200373,41.7071541 C38.8468699,35.4677326 35.4707435,32.0256075 27.9168987,27.5938611 C24.7958243,25.76215 13.1702568,17.7896479 7.46553887,24.9001682 C1.75999287,32.0106886 7.7884943,47.9556928 7.46553887,57.005672 C7.14258343,66.0556513 5.74310989,77.9070711 5.74310989,77.9070711 C5.74310989,77.9070711 8.64970879,83.8323666 19.1979301,84.802096 C29.7469795,85.7718255 36.4205637,82.8626372 36.4205637,82.8626372 C36.4205637,82.8626372 34.8057866,60.0226081 37.8200373,41.7071541" id="Fill-13" fill="#73ADAA"></path>
                            <path d="M37.3382925,59 C37.3382925,59 33.879473,62.8884786 26,63.7517541 L26,68 C26,68 31.7005198,67.4433161 37.1706808,65.4076809 C37.1706808,65.4076809 37.7869764,63.8281942 37.9726387,61.5939808 C38.158301,59.3597674 37.3382925,59 37.3382925,59" id="Fill-15" fill="#3A4D57"></path>
                            <path d="M24.3307269,35.0830345 C24.5950474,35.6091284 24.8059955,36.3725762 25,37.3391208 C20.595505,33.6409663 18.164095,49.4001288 15.732685,49.9433513 C13.3182186,50.4694452 3.9627968,47.280256 1.56612123,42.4964721 C-0.230750066,36.0455008 2.69371939,31.38488 4.17374492,28.8400538 C5.81219333,26.024432 22.2339534,30.8424731 24.3307269,35.0830345" id="Fill-17" fill="#5EB2B9"></path>
                            <path d="M25.9777847,65.3999981 C26.048331,70.4604291 26.278669,77.8950835 20.5329687,77.9985265 C14.7881184,78.1019695 2.62610281,72.7320371 1.97163695,70.3569861 C1.52966001,68.7904455 0.558160686,54.4880041 1.22962566,42.801429 C3.63330027,47.654974 13.0202106,50.8906707 15.4417343,50.3577324 C17.881957,49.8065882 20.3213298,33.8176123 24.7402492,37.5696964 C26.1010283,44.4714126 25.9072384,60.9767759 25.9777847,65.3999981" id="Fill-19" fill="#619AAF"></path>
                            <path d="M24.9457651,39 C24.9457651,39 27.1036054,33.2369903 30.1853898,32.7071521 C33.2680188,32.1773139 35.9655303,33.1228713 35.9655303,33.1228713 C35.9655303,33.1228713 36.2864615,32.2302977 34.9697989,31.2236051 C33.6522917,30.2169124 30.4725388,29.09121 30.4725388,29.09121 C30.4725388,29.09121 25.8029893,28.0502816 21,33.0014161 C21,33.0014161 23.0978768,33.8564935 23.7616977,35.2324426 C24.4255187,36.6083917 24.9457651,39 24.9457651,39" id="Fill-21" fill="#3A4D57"></path>
                            <path d="M11.9208043,29 C11.9208043,29 12.5995076,22.8177453 15,21.5116228 C15,21.5116228 14.374641,21 13.4604021,21 C12.5461633,21 10.2064013,22.3218378 10.2064013,22.3218378 C10.2064013,22.3218378 8.0677062,23.7336025 7,28.0693004 C7,28.0693004 10.9466557,28.7049001 11.9208043,29" id="Fill-23" fill="#3A4D57"></path>
                            <path d="M16.5453544,20.9121449 C16.5453544,20.9121449 16.4714019,23.5918327 16.5453544,24.1719024 C16.6193068,24.7511362 19.491552,26.634273 22.3646472,26.9243079 C25.2377425,27.2135069 26.7431424,26.5807796 26.7431424,26.5807796 L26.7431424,22.9398812 C26.7431424,22.9398812 31.0570353,23.1229292 31.6461049,22.017955 C32.2351744,20.9121449 33.340211,15.407334 32.8981964,14.2480305 C32.4561817,13.0895628 32.0141671,12.0756946 32.0141671,11.4237432 C32.0141671,10.7717917 32.4561817,8.67133767 32.3091268,7.80206901 C32.162072,6.93280035 30.9830829,4.6150292 30.9830829,4.6150292 C30.9830829,4.6150292 32.9449479,2.22454039 27.5447189,0.6314384 C22.1436399,-0.962499423 14.9983031,0.776037898 14.1142738,2.36997572 C13.2302445,3.96307771 13.3092971,5.1223812 13.3092971,5.1223812 C13.3092971,5.1223812 10.3962506,7.58475185 11.1136743,10.0471225 C11.8310981,12.510329 15.5882226,19.3190429 15.5882226,19.3190429 L16.5453544,20.9121449 Z" id="Fill-25" fill="#EED7BA"></path>
                            <path d="M27.2755375,0.633736681 C21.9623245,-0.966086015 14.934066,0.778946191 14.0644183,2.37960825 C13.1947706,3.97943094 13.2725372,5.14362511 13.2725372,5.14362511 C13.2725372,5.14362511 10.4060446,7.61638359 11.1117971,10.0899814 C11.8175497,12.5627399 15.5135524,19.4001773 15.5135524,19.4001773 L16.4551132,21 C16.4551132,21 22.3252352,20.0548791 22.977471,19.2541284 C23.6297067,18.4542171 24.8614289,15.1085228 25.5696901,15.3997812 C26.2787874,15.6902002 26.3833124,18.0907736 26.3833124,18.0907736 L27.2663393,18.0907736 C27.2663393,18.0907736 27.3976226,15.2537323 27.2755375,14.5990305 C27.1534523,13.9443287 28.3391835,12.7809739 28.4846822,11.8350136 C28.6293448,10.8898928 28.0498584,8.27108543 28.0205914,7.68940802 C27.9921606,7.10773062 30.6579653,4.63413278 30.6579653,4.63413278 C30.6579653,4.63413278 32.5887504,2.23439874 27.2755375,0.633736681" id="Fill-27" fill="#3A4D57"></path>
                            <path d="M49.9379282,85.1321195 C49.7335877,84.4347695 47.5654445,78.2114232 47.5654445,78.2114232 L40.5505738,60.1867686 C40.055725,58.9152781 39.4418828,57.9396586 38.7426936,57.2071058 C39.148092,50.3660348 37.4189937,38.3007056 37.4189937,38.3007056 C37.4189937,38.3007056 31.0442259,33.8064858 29,41.5259496 C29,41.5259496 29.7221673,53.5359601 29.9412794,58.6185691 C29.9396382,58.6244362 29.9363556,58.6294652 29.9347143,58.6353323 L29.9658988,59.1893568 C29.9905181,59.819654 30.0052897,60.3124927 30.0052897,60.5924385 C30.0052897,60.7575563 30.0307297,60.9092634 30.0701207,61.0542653 L30.0709413,61.0760575 C30.0816097,61.0970115 30.09474,61.1263472 30.1054084,61.1481393 C30.14562,61.2671582 30.1981412,61.3794718 30.2637928,61.4842419 C30.2744612,61.5068723 30.281847,61.5236355 30.293336,61.5462659 L30.293336,61.5638673 C32.8020468,66.7411884 42.1721677,80.8784519 42.2919818,81.5405992 C42.2919818,81.5405992 41.8307795,83.9469597 42.6161364,84.8186473 C43.4006727,85.6894967 44.2541432,85.8294696 44.3911909,86.4916168 C44.5446514,87.1370009 44.4593044,89.681658 44.6127649,90.3446435 C44.7498126,90.9891894 47.446451,93.604252 48.453382,92.8716992 C48.453382,92.8716992 49.3060318,90.4837782 49.511193,89.8207928 C49.7335877,89.1762469 50.1595023,85.8294696 49.9379282,85.1321195" id="Fill-29" fill="#EED7BA"></path>
                            <path d="M40,49.0986823 C39.9446319,44.5469668 39.7546767,38.2779096 39.1405168,36.2253738 C38.1387801,32.8768108 31.0388865,30.3708765 28.77135,38.0617643 C27.6111754,41.9962838 27.8863123,47.7291994 28.76198,52.7039179 C28.8071263,52.7132054 37.6302455,54.5192005 40,49.0986823" id="Fill-31" fill="#69A6A5"></path>
                        </g>
                        <g id="Page-1" transform="translate(27.000000, 8.500000) scale(-1, 1) translate(-27.000000, -8.500000) translate(15.000000, 0.000000)">
                            <g id="Group-3" fill="#2A6F87">
                                <path d="M19.5698805,8.0135 L11.9088935,2.2685 C9.22362078,0.045375 4.77668571,-0.60275 2.13419221,0.719125 L1.80668571,0.9135 C-0.272664935,2.621 -0.559496104,5.216 0.958114286,7.342875 C0.958114286,7.342875 1.68185455,8.276625 3.03676364,9.56225 L19.5698805,8.0135 Z" id="Fill-1"></path>
                            </g>
                            <path d="M23.3925127,16.4038159 C23.3925127,16.4038159 27.0354205,7.95043565 16.4796418,3.69661745 C7.14984165,0.540494753 3.27272727,9.1321621 3.27272727,9.1321621 C3.27272727,9.1321621 12.3923596,19.5639085 23.3925127,16.4038159" id="Fill-4" fill="#327FA8"></path>
                        </g>
                    </g>
                </g>
            </g>
        </g>
    </g>
</svg>