<svg xmlns="http://www.w3.org/2000/svg" xmlns:xlink="http://www.w3.org/1999/xlink" width="813" height="279" viewBox="0 0 813 279">
  <defs>
    <polygon id="b1-p4-a" points="0 .221 0 14 26.464 14 26.464 .221 0 .221"/>
    <polygon id="b1-p4-c" points=".646 .224 18.507 .224 18.507 8.466 .646 8.466 .646 .224"/>
    <polygon id="b1-p4-e" points="0 98 0 .064 34.948 .064 34.948 98 0 98 34.948 98 34.948 77.897 0 77.897 0 98"/>
    <polygon id="b1-p4-g" points="50.683 161 0 161 0 .253 50.683 .253 50.683 161 50.683 133.522 0 133.522 0 161 50.683 161"/>
  </defs>
  <g id="B1-P4"  opacity="0" fill="none" fill-rule="evenodd" transform="translate(0 -2)">
    <g transform="translate(706 22)">
      <path fill="#D2ECF4" d="M82.4818553,144.55671 C64.0426493,141.039924 44.4031683,143.683332 38.6178123,150.455335 C32.8263712,157.233987 43.0751074,165.577626 61.5173559,169.089979 C79.9504768,172.611199 99.5960429,169.974441 105.384441,163.192463 C111.171319,156.414919 100.921061,148.076821 82.4818553,144.55671"/>
      <g transform="matrix(-1 0 0 1 107 0)">
        <path fill="#4A4A4A" d="M48.8652546,153.115251 C48.8652546,153.115251 58.9114136,150.132236 61.0663525,151.251081 C63.2212913,152.369067 61.5694478,156.695557 56.90069,159.454803 C52.2319321,162.214049 49.7081672,163.929326 47.2349605,164.600633 C44.7625826,165.271941 40.8836927,165.346817 40.3093186,162.811341 C39.7349445,160.275003 40.0217172,157.217112 40.6681988,156.098266 C41.3146805,154.980281 48.8652546,153.115251 48.8652546,153.115251"/>
        <path fill="#E8C8A1" d="M48,152 L48,155.480582 C48,155.480582 47.5704752,157.77767 44.1358948,157.986569 C40.7013145,158.195468 40,155.898381 40,155.898381 L40,153.199564 L45.1874621,152.416995 L48,152 Z"/>
        <g transform="rotate(20 -204.211 118.654)">
          <path fill="#4A4A4A" d="M9.05942421,70.813562 C9.05942421,70.813562 18.192371,68.2562433 20.1513023,69.2151344 C22.1102336,70.1740255 20.608499,73.8821789 16.3644295,76.2467265 C12.12036,78.6121015 9.82592581,80.0822908 7.57797184,80.6581219 C5.32917278,81.2331256 1.80343446,81.296831 1.28116546,79.1233997 C0.758896453,76.9499685 1.02003095,74.3289444 1.60737231,73.3700533 C2.19555876,72.4111622 9.05942421,70.813562 9.05942421,70.813562"/>
          <path fill="#E8C8A1" d="M10,70 L10,72.0723894 C10,72.0723894 9.20940171,75.0198262 5.87606838,74.9998994 C2.08717949,74.9773734 2,72.9716955 2,72.9716955 L2.11196581,70.0883711"/>
          <path fill="#4A869D" d="M0.736170893,4.00556684 C-0.236699655,8.60445566 2.50993141,13.9235823 2.65662073,15.9389191 C2.80246701,17.9550866 1.29847995,32.9347042 0.422559243,43.5829262 C-0.454204509,54.2303175 0.305376396,71.2983756 0.305376396,71.2983756 C0.305376396,71.2983756 1.86416118,73.5305314 5.33075017,72.8817358 C8.79733917,72.233771 10.7658424,70.5789685 10.7658424,70.5789685 C10.7658424,70.5789685 13.1769427,34.6559646 13.9070172,30.4807451 C14.6379346,26.3055256 15.8999686,9.6038168 15.9994476,7.01278821 C16.0989265,4.42092891 2.73249451,-5.42979792 0.736170893,4.00556684"/>
        </g>
        <path fill="#619AAF" d="M55.981156,83.6931897 C56.2396455,99.3142669 53.7583145,115.844279 53.4669875,117.712738 C53.1748186,119.581196 50.3129101,153.502055 50.3129101,153.502055 C50.3129101,153.502055 47.3381757,160.115055 37.9980314,155.15572 C37.9980314,155.15572 38.9654726,124.088552 39.1389216,118.816563 C39.3115287,113.544574 40.1779316,102.619938 39.8175619,97.1580341 C39.4571921,91.6961306 36.3359522,90.2589185 36,83.0728581 C36,83.0728581 37.2191949,76.4606874 45.9994188,77.0354064 C54.7804848,77.6109546 55.981156,83.6931897 55.981156,83.6931897"/>
        <path fill="#BEBEC0" d="M58.8200373,41.7071541 C59.8468699,35.4677326 56.4707435,32.0256075 48.9168987,27.5938611 C45.7958243,25.76215 34.1702568,17.7896479 28.4655389,24.9001682 C22.7599929,32.0106886 28.7884943,47.9556928 28.4655389,57.005672 C28.1425834,66.0556513 26.7431099,77.9070711 26.7431099,77.9070711 C26.7431099,77.9070711 29.6497088,83.8323666 40.1979301,84.802096 C50.7469795,85.7718255 57.4205637,82.8626372 57.4205637,82.8626372 C57.4205637,82.8626372 55.8057866,60.0226081 58.8200373,41.7071541"/>
        <path fill="#619AAF" d="M58.3382925,59 C58.3382925,59 54.879473,62.8884786 47,63.7517541 L47,68 C47,68 52.7005198,67.4433161 58.1706808,65.4076809 C58.1706808,65.4076809 58.7869764,63.8281942 58.9726387,61.5939808 C59.158301,59.3597674 58.3382925,59 58.3382925,59"/>
        <path fill="#4A4A4A" d="M45.3307269,35.0830345 C45.5950474,35.6091284 45.8059955,36.3725762 46,37.3391208 C41.595505,33.6409663 39.164095,49.4001288 36.732685,49.9433513 C34.3182186,50.4694452 24.9627968,47.280256 22.5661212,42.4964721 C20.7692499,36.0455008 23.6937194,31.38488 25.1737449,28.8400538 C26.8121933,26.024432 43.2339534,30.8424731 45.3307269,35.0830345"/>
        <path fill="#717171" d="M46.9777847,65.3999981 C47.048331,70.4604291 47.278669,77.8950835 41.5329687,77.9985265 C35.7881184,78.1019695 23.6261028,72.7320371 22.971637,70.3569861 C22.52966,68.7904455 21.5581607,54.4880041 22.2296257,42.801429 C24.6333003,47.654974 34.0202106,50.8906707 36.4417343,50.3577324 C38.881957,49.8065882 41.3213298,33.8176123 45.7402492,37.5696964 C47.1010283,44.4714126 46.9072384,60.9767759 46.9777847,65.3999981"/>
        <path fill="#619AAF" d="M45.9457651,39 C45.9457651,39 48.1036054,33.2369903 51.1853898,32.7071521 C54.2680188,32.1773139 56.9655303,33.1228713 56.9655303,33.1228713 C56.9655303,33.1228713 57.2864615,32.2302977 55.9697989,31.2236051 C54.6522917,30.2169124 51.4725388,29.09121 51.4725388,29.09121 C51.4725388,29.09121 46.8029893,28.0502816 42,33.0014161 C42,33.0014161 44.0978768,33.8564935 44.7616977,35.2324426 C45.4255187,36.6083917 45.9457651,39 45.9457651,39"/>
        <path fill="#BEBEC0" d="M32.9208043,29 C32.9208043,29 33.5995076,22.8177453 36,21.5116228 C36,21.5116228 35.374641,21 34.4604021,21 C33.5461633,21 31.2064013,22.3218378 31.2064013,22.3218378 C31.2064013,22.3218378 29.0677062,23.7336025 28,28.0693004 C28,28.0693004 31.9466557,28.7049001 32.9208043,29"/>
        <path fill="#EED7BA" d="M37.5453544,20.9121449 C37.5453544,20.9121449 37.4714019,23.5918327 37.5453544,24.1719024 C37.6193068,24.7511362 40.491552,26.634273 43.3646472,26.9243079 C46.2377425,27.2135069 47.7431424,26.5807796 47.7431424,26.5807796 L47.7431424,22.9398812 C47.7431424,22.9398812 52.0570353,23.1229292 52.6461049,22.017955 C53.2351744,20.9121449 54.340211,15.407334 53.8981964,14.2480305 C53.4561817,13.0895628 53.0141671,12.0756946 53.0141671,11.4237432 C53.0141671,10.7717917 53.4561817,8.67133767 53.3091268,7.80206901 C53.162072,6.93280035 51.9830829,4.6150292 51.9830829,4.6150292 C51.9830829,4.6150292 53.9449479,2.22454039 48.5447189,0.6314384 C43.1436399,-0.962499423 35.9983031,0.776037898 35.1142738,2.36997572 C34.2302445,3.96307771 34.3092971,5.1223812 34.3092971,5.1223812 C34.3092971,5.1223812 31.3962506,7.58475185 32.1136743,10.0471225 C32.8310981,12.510329 36.5882226,19.3190429 36.5882226,19.3190429 L37.5453544,20.9121449 Z"/>
        <path fill="#393939" d="M48.2755375,0.633736681 C42.9623245,-0.966086015 35.934066,0.778946191 35.0644183,2.37960825 C34.1947706,3.97943094 34.2725372,5.14362511 34.2725372,5.14362511 C34.2725372,5.14362511 31.4060446,7.61638359 32.1117971,10.0899814 C32.8175497,12.5627399 36.5135524,19.4001773 36.5135524,19.4001773 L37.4551132,21 C37.4551132,21 43.3252352,20.0548791 43.977471,19.2541284 C44.6297067,18.4542171 45.8614289,15.1085228 46.5696901,15.3997812 C47.2787874,15.6902002 47.3833124,18.0907736 47.3833124,18.0907736 L48.2663393,18.0907736 C48.2663393,18.0907736 48.3976226,15.2537323 48.2755375,14.5990305 C48.1534523,13.9443287 49.3391835,12.7809739 49.4846822,11.8350136 C49.6293448,10.8898928 49.0498584,8.27108543 49.0205914,7.68940802 C48.9921606,7.10773062 51.6579653,4.63413278 51.6579653,4.63413278 C51.6579653,4.63413278 53.5887504,2.23439874 48.2755375,0.633736681"/>
        <g transform="rotate(-115 40.327 6.149)">
          <path fill="#EED7BA" d="M21.9379282,52.1321195 C21.7335877,51.4347695 19.5654445,45.2114232 19.5654445,45.2114232 L12.5505738,27.1867686 C12.055725,25.9152781 11.4418828,24.9396586 10.7426936,24.2071058 C11.148092,17.3660348 9.41899371,5.30070563 9.41899371,5.30070563 C9.41899371,5.30070563 3.04422588,0.806485751 1,8.52594958 C1,8.52594958 1.72216731,20.5359601 1.94127944,25.6185691 C1.93963815,25.6244362 1.93635557,25.6294652 1.93471428,25.6353323 L1.96589878,26.1893568 C1.99051812,26.819654 2.00528973,27.3124927 2.00528973,27.5924385 C2.00528973,27.7575563 2.03072971,27.9092634 2.07012065,28.0542653 L2.0709413,28.0760575 C2.08160968,28.0970115 2.09473999,28.1263472 2.10540838,28.1481393 C2.14561996,28.2671582 2.19814122,28.3794718 2.2637928,28.4842419 C2.27446118,28.5068723 2.28184698,28.5236355 2.29333601,28.5462659 L2.29333601,28.5638673 C4.80204677,33.7411884 14.1721677,47.8784519 14.2919818,48.5405992 C14.2919818,48.5405992 13.8307795,50.9469597 14.6161364,51.8186473 C15.4006727,52.6894967 16.2541432,52.8294696 16.3911909,53.4916168 C16.5446514,54.1370009 16.4593044,56.681658 16.6127649,57.3446435 C16.7498126,57.9891894 19.446451,60.604252 20.453382,59.8716992 C20.453382,59.8716992 21.3060318,57.4837782 21.511193,56.8207928 C21.7335877,56.1762469 22.1595023,52.8294696 21.9379282,52.1321195"/>
          <path fill="#BEBEC0" d="M12,16.0986823 C11.9446319,11.5469668 11.7546767,5.27790962 11.1405168,3.22537385 C10.1387801,-0.123189245 3.03888651,-2.6291235 0.77135,5.06176435 C-0.388824579,8.99628376 -0.11368773,14.7291994 0.761980014,19.7039179 C0.807126308,19.7132054 9.63024546,21.5192005 12,16.0986823"/>
        </g>
      </g>
    </g>
    <g transform="translate(638 110)">
      <path fill="#D2ECF4" d="M45.8880764,147.407474 C33.7708838,144.227829 20.8649392,146.617824 17.0631338,152.74062 C13.2573297,158.869429 19.9922134,166.413195 32.1114053,169.588832 C44.2245991,172.772485 57.1345425,170.388503 60.9383472,164.256688 C64.7411523,158.128881 58.0052689,150.590126 45.8880764,147.407474" transform="rotate(-3 39 158.5)"/>
      <g transform="matrix(-1 0 0 1 54 0)">
        <path fill="#E1C8A6" d="M3.214903,138.153721 C4.69218976,124.656404 13.4875583,104.559002 15.6373412,98.846013 C18.7947661,90.4478755 3.73967053,86.821407 8.97632138,66.7912418 C9.85607872,63.4272152 23.4559366,71.7451019 23.6587879,73.8988597 C24.8362075,86.313875 27.4357912,96.1630336 24.9795264,103.522249 C20.5101827,116.904611 9.55621155,129.39337 7.05364368,139.554857 C6.93457877,140.047206 6.81771878,140.515697 6.71408821,140.929965 C5.91811728,144.120476 16.0496586,150.195678 13.6463115,154 C9.1813776,151.852749 3.22151771,147.369549 2,144.641022 C2.49830867,143.443767 2.88857696,141.14469 3.214903,138.153721"/>
        <path fill="#5F82B1" d="M12.0595965,6.86315808 C8.27226367,8.49806479 6.03319635,-0.932300375 2.20480185,0.388648433 C1.47535381,0.639814755 -0.00045,6.7515286 -0.00045,6.7515286 L1.17101456,7.68409986 L2.72894166,4.8049896 C5.21437885,7.62363389 10.2408072,11.1260087 14.1996328,12.9865 C15.3227896,11.2469407 13.941186,9.0608634 12.0595965,6.86315808" transform="translate(0 142)"/>
        <path fill="#EFD2AB" d="M6.33862001,75.5423123 C6.40252987,75.3709416 6.40914123,75.1800477 6.44660563,75 C13.4744864,78.2148272 20.4979596,80.4534923 27.499395,77.3883433 C27.4619306,78.5337068 27.5280442,79.5228844 27.6580677,80.6921097 C27.8343708,82.28 30.1152916,85.1607628 32.5152171,88.9265793 C34.441328,93.8204052 39.8053487,98.3888439 38.8973879,105.460596 C37.4164422,117.048725 23.9667224,141.392038 21.4654227,151.55497 C21.3464181,152.04739 21.2318211,152.513778 21.1260393,152.930274 C20.3326755,156.12124 30.4590826,162.197306 28.0547496,166 C23.5942822,163.854613 17.6352387,159.368605 16.41434,156.63969 C16.9123961,155.444434 17.3046704,153.142861 17.6308311,150.153635 C19.1051655,136.652229 25.9435204,114.08553 27.6161957,108.219881 C28.1583277,106.319619 21.3464181,98.4365673 14.3670207,92.2238379 C8.52037039,88.2345888 2.17786776,86.6358522 6.33862001,75.5423123"/>
        <path fill="#5F82B1" d="M26.5622283,160.744609 C22.9289144,162.414773 20.7845877,152.778667 17.1119071,154.130478 C16.4148851,154.384685 15,160.630573 15,160.630573 L16.1207928,161.583255 L17.616727,158.642057 C19.9972539,161.521485 24.8185155,165.099388 28.6116118,167 C29.6907222,165.222927 28.3638332,162.989708 26.5622283,160.744609"/>
        <path fill="#EFD2AB" d="M14.9167505,35.0906873 C13.3880642,31.2445529 9.62185959,18.3734402 9.70726105,18.0496247 C9.90581946,17.2830413 14.9359658,6.20943456 14.9359658,6.20943456 L14.9402359,4 C10.8409655,5.01109717 3.9469322,17.3359091 4.00030811,17.8800071 C4.45507092,22.6403143 9.995491,36.5731892 11.3768597,40.7651673 C11.8444327,42.1793816 15.6020972,36.8155001 14.9167505,35.0906873"/>
        <path fill="#EFD2AB" d="M13.3864982 8.75678353C11.8465083 7.95246646 11.5430066 5.39662799 12.7098019 3.04359726 13.8788454.692871162 16.0730501-.560849422 17.6130401.243467644 19.1530301 1.04548008 19.4565317 3.60362318 18.2919846 5.95434928 17.1229411 8.30507537 14.9287364 9.56110059 13.3864982 8.75678353M30 15L30 26.1705003C30 29.8165754 21.1210762 35.9643994 18 31.3487368L18 20.8303107 30 15z"/>
        <path fill="#EFD2AB" d="M21.1454716,37.7909028 L21.1454716,37.7909028 C22.2845368,37.322989 23.2970392,36.1430324 22.9196519,34.9879408 C22.2799345,33.0077837 22.5376624,29 22.5376624,29 L18.3081637,29.3300262 C18.3081637,29.3300262 17.8525377,33.4553534 17.1345814,35.1642561 C16.3406875,37.0426928 19.237825,38.5730197 21.1454716,37.7909028"/>
        <path fill="#4A4A4A" d="M30.5877317,37.2477913 C27.6332366,33.644317 14.5158861,30.5923948 13.2035003,32.6818043 C10.8390366,36.4583147 8.98000415,45.4821412 10.6741749,54.4929901 C13.0321309,67.033773 3.33566051,58.1505382 4.03632269,81.1405316 C4.07103041,82.2955468 5.29664692,87.1729986 5.95826291,89.6755315 C6.65675586,92.3273079 15.7501796,92.2753971 17.6938121,92.4203148 C23.0995402,92.8226234 30.3968392,93.9235649 35.4142746,91.3410028 C36.5943372,90.7353769 37.6377381,89.7425829 38,88.4686055 C32.0454561,87.6142403 28.7048376,80.5716758 27.3035133,75.4000628 C26.1755122,71.2234068 26.7264973,66.4259841 28.4922528,58.933526 C29.379469,55.1635045 34.9500587,48.8671576 34.2559043,45.6075923 C33.0216108,39.7957462 31.1430552,37.9247946 30.5877317,37.2477913"/>
        <path fill="#5EB2B9" d="M23.9168417,8.38057274 C20.052915,7.00667399 13.417041,9.51876397 12.1269116,13.2497378 C8.76051393,22.9880681 13.826264,27.2286798 15.7388431,28.4857865 C17.4812715,29.6303482 21.424889,30.9490362 22.7473255,31 C26.7835566,20.5290654 31.3517776,23.6527208 31.922536,19.187019 C32.51914,14.5068446 29.6524252,10.4233712 23.9168417,8.38057274"/>
        <path fill="#EFD2AB" d="M26.0780084 24.276467C26.3425835 25.370411 27.1932943 26.1337976 27.9788789 25.9803897 28.7624283 25.8288082 29.1857485 24.817047 28.9211734 23.7249293 28.6606686 22.6309854 27.8099579 21.8675988 27.0243733 22.0191803 26.2367535 22.1725882 25.8154685 23.1825231 26.0780084 24.276467M26.4341403 42.6128416C25.487697 41.0420258 26.1516828 38.9629405 27.8148091 38.2925505 31.52259 36.8006041 43.0211374 30.7955747 43.1876608 30.5107685 43.5839444 29.8359968 47.8566402 18.5138546 47.8566402 18.5138546L49.3890772 17C51.4716739 20.7441063 47.5952616 34.311836 47.1821149 34.6448402 43.5691891 37.5630084 33.8728889 41.889872 30.0238793 43.7301583 28.7275261 44.3501595 27.1908733 43.8703706 26.4341403 42.6128416"/>
        <path fill="#EFD2AB" d="M49.5982611,19.8764611 C51.0632853,20.4523153 52.8778946,18.9600238 53.6518316,16.5445731 C54.4257685,14.1268818 53.8660282,11.7002277 52.4030247,11.1243735 C50.9380005,10.5462786 49.1233912,12.0385701 48.3494543,14.4562614 C47.5734966,16.8739528 48.1332369,19.3006069 49.5982611,19.8764611"/>
        <path fill="#5EB2B9" d="M16,11 C16,14.314087 13.314087,17 10,17 C6.68591304,17 4,14.314087 4,11 C4,7.68591304 6.68591304,5 10,5 C13.314087,5 16,7.68591304 16,11"/>
      </g>
    </g>
    <g transform="translate(345 82)">
      <g transform="translate(120 5)">
        <path fill="#D2ECF4" d="M45.8880764,139.407474 C33.7708838,136.227829 20.8649392,138.617824 17.0631338,144.74062 C13.2573297,150.869429 19.9922134,158.413195 32.1114053,161.588832 C44.2245991,164.772485 57.1345425,162.388503 60.9383472,156.256688 C64.7411523,150.128881 58.0052689,142.590126 45.8880764,139.407474"/>
        <path fill="#FFE3D3" d="M45.3407451,88.650468 C46.0837257,77.9225457 56,75.7189089 56,84.1645254 C56,92.6092377 51.9439478,105.094102 53.1464811,111.336081 C54.3475343,117.578965 52.5448444,122.536018 52.094172,128.961559 C51.6434995,135.388004 53.6726356,134.613069 53.1464811,137.956954 C52.6188465,141.303552 49.6454442,139.901073 47.8834555,141.727641 C46.1214667,143.555114 44.8819324,144.382495 41.576261,143.831812 C38.2705895,143.282033 38.7701034,140.745635 39.6714483,140.324258 C40.5735332,139.901978 41.9862323,140.204899 44.5600235,136.317564 C47.3750614,132.068533 46.3812139,120.110842 46.1214667,113.755832 C45.8609795,107.399918 45.3407451,94.6889934 45.3407451,88.650468 Z"/>
        <path fill="#36393B" d="M53.9885922,140.023798 C52.837339,142.132332 52.3492672,143.327645 52.0064993,145.621851 C51.9155912,146.232258 50.3634485,146.048179 50.4431794,145.464866 C50.6562916,143.906177 51.3850461,142.62002 50.1376688,141.003159 C49.1004232,139.658829 54.2739838,137.821234 53.9885922,140.023798" transform="rotate(-3 52 142.5)"/>
        <path fill="#36393B" d="M40.731402,140.841811 C39.445391,141.386172 38.9887512,141.522262 37.8422936,141.79366 C36.6967192,142.064276 36.1402722,144.378592 40.0857468,144.854908 C44.0312214,145.330441 45.510664,144.614795 47.6136806,143.034897 C49.7166972,141.454217 53.2655929,142.667297 53.8953496,139.773425 C54.1947712,138.392187 53.7999587,137.822798 53.3627503,137 C52.3187496,139.113309 47.5995486,140.586055 45.4302883,141.652877 C43.2769265,142.71266 41.3814735,142.004053 40.731402,140.841811"/>
        <path fill="#FFE3D3" d="M34.3405645,98.7997465 C34.3405645,104.930227 34.8607716,117.836647 35.1205051,124.290316 C35.3802387,130.743066 36.374774,142.884668 33.5598838,147.19905 C30.9854877,151.146172 29.5728628,150.838592 28.6708251,151.268286 C27.7702675,151.695225 27.2707799,154.270633 30.5762779,154.828867 C33.8817759,155.388938 35.1205051,154.547914 36.8824014,152.692335 C38.6450377,150.837674 41.6175439,152.261723 42.1451508,148.864572 C42.6720178,145.467421 40.6422481,146.254274 41.0936369,139.729908 C41.5435458,133.20646 43.346881,128.171331 42.1451508,121.834267 C40.9426807,115.495367 45,102.819403 45,94.2438915 C45,85.6683804 35.083506,87.9059093 34.3405645,98.7997465"/>
        <path fill="#36393B" d="M4.82284339,1.16651111 C3.71927196,3.22451111 3.25212911,4.39117778 2.92284339,6.6304 C2.83570054,7.22695556 1.34784339,7.04728889 1.42427196,6.47717778 C1.62855768,4.95584444 2.32712911,3.70051111 1.13212911,2.1224 C0.137129107,0.810288889 5.09712911,-0.983266667 4.82284339,1.16651111" transform="rotate(-4 2155.318 -466.005)"/>
        <path fill="#36393B" d="M30.0775509,150.841665 C28.8444392,151.385223 28.4065829,151.52209 27.3072841,151.793478 C26.2096792,152.064084 25.6752743,154.378311 29.4584543,154.854609 C33.2416342,155.330907 34.6602209,154.614505 36.6767312,153.034667 C38.6940884,151.454047 42.0953086,152.667081 42.6991607,149.774101 C42.9871127,148.392134 42.6085406,147.821985 42.1901634,147 C41.1882601,149.113228 36.6631805,150.585919 34.5831514,151.653482 C32.5183668,152.712443 30.7008821,152.003862 30.0775509,150.841665"/>
        <path fill="#9B9B9B" d="M55.0020501,23.0062127 C58.6609111,22.6302179 62.614191,39.4180297 62.9457147,46.8894367 C63.2788518,54.3600487 62.0648778,63.2106334 59.684521,69 L53.9969927,68.2146239 C53.9969927,68.2146239 55.4255294,59.2296986 55.95871,53.3664049 C56.4918906,47.5015213 56.1764993,43.4625577 54.1115337,37.7177064 C52.0465681,31.9712651 50.2768281,23.490316 55.0020501,23.0062127"/>
        <polygon fill="#FFE3D3" points="40 31 49 31 49 19 40 19"/>
        <path fill="#FFE3D3" d="M42.4474287,1 C48.2149405,1 52.4726038,6.37286648 51.9578292,13.0003901 C51.4438382,19.6271335 44.341987,25 38.5744751,25 C32.8069633,25 30.5559021,19.6271335 31.0714601,13.0003901 C31.5862347,6.37286648 36.6799168,1 42.4474287,1"/>
        <path fill="#717171" d="M33.0203035,75.3410352 C31.4261562,81.4968805 31.7460675,90.8940501 33.6585806,97.6987887 C39.7137132,99.3186652 46.4063501,100.939327 56.2880544,92.5131411 C55.3314114,89.2733879 55.9689158,85.0610803 57.8814289,80.5251116 C59.5088038,76.6647462 59.3758938,67.2762181 57.381471,62.0944984 C57.0337413,61.1871475 36.1259158,66.9046363 33.0203035,75.3410352"/>
        <path fill="#8C8C8C" d="M38.8118218,28.7876513 C34.4861332,31.7444586 30.8924964,36.2708503 29.4958082,39.3104768 C28.0983268,42.3508996 29.7289861,50.0682222 33.4558674,55.6800242 C37.1811625,61.2918261 36.0168591,63.3973468 34.6185846,67.6059992 C33.2218964,71.8146516 32.0583861,75.7899766 34.3869929,76.7256751 C36.7155998,77.6621699 45.7968492,76.2056656 52.3194864,72.282899 C59.2513746,68.1156563 61.8686779,65.7911423 58.6081525,59.9444203 C55.3484201,54.0984947 56.2795456,50.3015496 57.443849,43.2858018 C58.6081525,36.2708503 60.7043745,25.0448573 56.0471608,23.4099731 C53.9779049,22.6829154 51.1773904,22.9473 48.0310745,24.0096165 C46.859633,28.2341956 42.7885366,29.1706904 39.1639681,28.5487496 L38.8118218,28.7876513 Z"/>
        <path fill="#9B9B9B" d="M35,32.1387872 C42.4526974,34.5046789 50.3174355,32.1662686 52,23 C51.0766224,23.0807784 50.089914,23.2731476 49.0555121,23.5696128 C47.1368256,29.3473516 42.9898358,30.179286 37.9796716,29.4697684 C36.9288507,30.2825492 35.9280688,31.1885999 35,32.1387872"/>
        <path fill="#FFF" d="M39.1200419,28.4368693 C38.7406729,28.7056896 38.3668019,28.9867661 38,29.2776476 C43.0394031,31.2231219 48.633329,29.2743793 50,23 C49.4297683,23.1462578 48.8446132,23.325199 48.246891,23.5343722 L48.2500327,23.5343722 C47.0899332,27.8689968 43.0582537,28.8298862 39.4687786,28.1917445 L39.1200419,28.4368693 Z"/>
        <path fill="#3A4D57" d="M30.01025,9.63204402 C29.8021631,13.2851708 32.8130215,15.4325591 34.4344992,16.516753 C38.0768215,18.9503561 44.8052337,19.6223385 45.9008917,23.0926923 C49.0974277,33.2089836 46.6948235,50.4262004 57.0551537,46.4013055 C69.4499342,41.5862091 48.3579186,28.061007 51.8585817,21.4718458 C57.2816484,11.2606681 54.4772762,3.77941916 47.3767085,0.93749341 C39.793539,-2.09498291 30.412018,2.60578315 30.01025,9.63204402"/>
        <g transform="rotate(32 -41.67 70.562)">
          <path fill="#FFE3D3" d="M1.00771867,49.1314787 C0.91498685,52.0175744 1.65614937,54.3689712 3.32116994,56.3998682 C4.98688254,58.4323637 5.17165415,55.0099705 4.89415072,50.5213764 C4.6166473,46.031983 1.37795392,46.1390826 1.00771867,49.1314787"/>
          <path fill="#FFF" d="M0,49.1265038 C0.0205409543,49.7155217 0.0544781832,50.3208108 0.100025517,50.9439983 C2.08088798,51.1970156 4.91911202,51.5525416 6.5838224,52 C6.68742026,51.6461011 6.77047716,51.2930158 6.82942077,50.9529474 C6.87854044,50.6730826 6.93569788,50.3671838 7,50.0393188 C5.00484818,48.9833171 2.12107681,48.8458254 0,49.1265038"/>
          <path fill="#9B9B9B" d="M6.6096871,0.00132265175 C10.6661804,0.100362363 12.566622,18.5498228 11.8525364,26.5650209 C11.1376393,34.5802189 6.86124,50 6.86124,50 L0.000337562776,48.6009666 C-0.0288750319,44.5457973 1.84397687,38.7016746 3.27377108,32.5191011 C4.70275384,26.3365277 4.94132336,21.9842393 3.51234061,15.5731726 C2.08254639,9.16054631 1.37008367,-0.127350988 6.6096871,0.00132265175"/>
        </g>
        <path fill="#619AAF" d="M47.2954883,25.8448983 C47.1323282,26.0356316 46.5320387,26.2517959 46.0957817,25.1495166 C45.9526895,24.7879181 45.9465819,23.6951754 46.2397465,23.1301281 C47.6305337,20.4614518 51.8447758,20.5607921 53.4135557,22.0000335 C53.933574,22.4768667 54.1621727,22.9687996 53.8742431,23.6562341 C53.6124889,24.282475 53.0959607,24.3905571 52.7443376,24.2673752 C51.0682384,23.6761021 49.0666915,23.7579585 47.2954883,25.8448983"/>
      </g>
      <g transform="translate(61)">
        <path fill="#D2ECF4" d="M34.1367803,154.853686 C20.7025017,151.3369 6.39373691,153.980309 2.17869181,160.752311 C-2.04078669,167.530964 5.42614965,175.874603 18.862645,179.386956 C32.2924903,182.908175 46.6056884,180.271417 50.8229502,173.489439 C55.0391036,166.711895 47.571059,158.373798 34.1367803,154.853686"/>
        <g transform="matrix(-1 0 0 1 69 10)">
          <g transform="scale(-1 1) rotate(-14 89.189 159.76)">
            <path fill="#EED7BA" d="M21.9379282,52.1321195 C21.7335877,51.4347695 19.5654445,45.2114232 19.5654445,45.2114232 L12.5505738,27.1867686 C12.055725,25.9152781 11.4418828,24.9396586 10.7426936,24.2071058 C11.148092,17.3660348 9.41899371,5.30070563 9.41899371,5.30070563 C9.41899371,5.30070563 3.04422588,0.806485751 1,8.52594958 C1,8.52594958 1.72216731,20.5359601 1.94127944,25.6185691 C1.93963815,25.6244362 1.93635557,25.6294652 1.93471428,25.6353323 L1.96589878,26.1893568 C1.99051812,26.819654 2.00528973,27.3124927 2.00528973,27.5924385 C2.00528973,27.7575563 2.03072971,27.9092634 2.07012065,28.0542653 L2.0709413,28.0760575 C2.08160968,28.0970115 2.09473999,28.1263472 2.10540838,28.1481393 C2.14561996,28.2671582 2.19814122,28.3794718 2.2637928,28.4842419 C2.27446118,28.5068723 2.28184698,28.5236355 2.29333601,28.5462659 L2.29333601,28.5638673 C4.80204677,33.7411884 14.1721677,47.8784519 14.2919818,48.5405992 C14.2919818,48.5405992 13.8307795,50.9469597 14.6161364,51.8186473 C15.4006727,52.6894967 16.2541432,52.8294696 16.3911909,53.4916168 C16.5446514,54.1370009 16.4593044,56.681658 16.6127649,57.3446435 C16.7498126,57.9891894 19.446451,60.604252 20.453382,59.8716992 C20.453382,59.8716992 21.3060318,57.4837782 21.511193,56.8207928 C21.7335877,56.1762469 22.1595023,52.8294696 21.9379282,52.1321195"/>
            <path fill="#619AAF" d="M12,16.0986823 C11.9446319,11.5469668 11.7546767,5.27790962 11.1405168,3.22537385 C10.1387801,-0.123189245 3.03888651,-2.6291235 0.77135,5.06176435 C-0.388824579,8.99628376 -0.11368773,14.7291994 0.761980014,19.7039179 C0.807126308,19.7132054 9.63024546,21.5192005 12,16.0986823"/>
          </g>
          <path fill="#4A9EA1" d="M34.0594242,145.813562 C34.0594242,145.813562 43.192371,143.256243 45.1513023,144.215134 C47.1102336,145.174025 45.608499,148.882179 41.3644295,151.246727 C37.12036,153.612101 34.8259258,155.082291 32.5779718,155.658122 C30.3291728,156.233126 26.8034345,156.296831 26.2811655,154.1234 C25.7588965,151.949968 26.020031,149.328944 26.6073723,148.370053 C27.1955588,147.411162 34.0594242,145.813562 34.0594242,145.813562"/>
          <path fill="#E8C8A1" d="M35,145 L35,147.072389 C35,147.072389 34.2094017,150.019826 30.8760684,149.999899 C27.0871795,149.977373 27,147.971696 27,147.971696 L27.1119658,145.088371"/>
          <path fill="#4A9EA1" d="M46.8652546,153.115251 C46.8652546,153.115251 56.9114136,150.132236 59.0663525,151.251081 C61.2212913,152.369067 59.5694478,156.695557 54.90069,159.454803 C50.2319321,162.214049 47.7081672,163.929326 45.2349605,164.600633 C42.7625826,165.271941 38.8836927,165.346817 38.3093186,162.811341 C37.7349445,160.275003 38.0217172,157.217112 38.6681988,156.098266 C39.3146805,154.980281 46.8652546,153.115251 46.8652546,153.115251"/>
          <path fill="#E8C8A1" d="M46,152 L46,155.480582 C46,155.480582 45.5704752,157.77767 42.1358948,157.986569 C38.7013145,158.195468 38,155.898381 38,155.898381 L38,153.199564 L43.1874621,152.416995 L46,152 Z"/>
          <path fill="#53697A" d="M25.7361709,79.0055668 C24.7633003,83.6044557 27.5099314,88.9235823 27.6566207,90.9389191 C27.802467,92.9550866 26.29848,107.934704 25.4225592,118.582926 C24.5457955,129.230317 25.3053764,146.298376 25.3053764,146.298376 C25.3053764,146.298376 26.8641612,148.530531 30.3307502,147.881736 C33.7973392,147.233771 35.7658424,145.578968 35.7658424,145.578968 C35.7658424,145.578968 38.1769427,109.655965 38.9070172,105.480745 C39.6379346,101.305526 40.8999686,84.6038168 40.9994476,82.0127882 C41.0989265,79.4209289 27.7324945,69.5702021 25.7361709,79.0055668"/>
          <path fill="#617688" d="M53.981156,83.6931897 C54.2396455,99.3142669 51.7583145,115.844279 51.4669875,117.712738 C51.1748186,119.581196 48.3129101,153.502055 48.3129101,153.502055 C48.3129101,153.502055 45.3381757,160.115055 35.9980314,155.15572 C35.9980314,155.15572 36.9654726,124.088552 37.1389216,118.816563 C37.3115287,113.544574 38.1779316,102.619938 37.8175619,97.1580341 C37.4571921,91.6961306 34.3359522,90.2589185 34,83.0728581 C34,83.0728581 35.2191949,76.4606874 43.9994188,77.0354064 C52.7804848,77.6109546 53.981156,83.6931897 53.981156,83.6931897"/>
          <path fill="#619AAF" d="M56.8200373,41.7071541 C57.8468699,35.4677326 54.4707435,32.0256075 46.9168987,27.5938611 C43.7958243,25.76215 32.1702568,17.7896479 26.4655389,24.9001682 C20.7599929,32.0106886 26.7884943,47.9556928 26.4655389,57.005672 C26.1425834,66.0556513 24.7431099,77.9070711 24.7431099,77.9070711 C24.7431099,77.9070711 27.6497088,83.8323666 38.1979301,84.802096 C48.7469795,85.7718255 55.4205637,82.8626372 55.4205637,82.8626372 C55.4205637,82.8626372 53.8057866,60.0226081 56.8200373,41.7071541"/>
          <path fill="#EED7BA" d="M35.5453544,20.9121449 C35.5453544,20.9121449 35.4714019,23.5918327 35.5453544,24.1719024 C35.6193068,24.7511362 38.491552,26.634273 41.3646472,26.9243079 C44.2377425,27.2135069 45.7431424,26.5807796 45.7431424,26.5807796 L45.7431424,22.9398812 C45.7431424,22.9398812 50.0570353,23.1229292 50.6461049,22.017955 C51.2351744,20.9121449 52.340211,15.407334 51.8981964,14.2480305 C51.4561817,13.0895628 51.0141671,12.0756946 51.0141671,11.4237432 C51.0141671,10.7717917 51.4561817,8.67133767 51.3091268,7.80206901 C51.162072,6.93280035 49.9830829,4.6150292 49.9830829,4.6150292 C49.9830829,4.6150292 51.9449479,2.22454039 46.5447189,0.6314384 C41.1436399,-0.962499423 33.9983031,0.776037898 33.1142738,2.36997572 C32.2302445,3.96307771 32.3092971,5.1223812 32.3092971,5.1223812 C32.3092971,5.1223812 29.3962506,7.58475185 30.1136743,10.0471225 C30.8310981,12.510329 34.5882226,19.3190429 34.5882226,19.3190429 L35.5453544,20.9121449 Z"/>
          <path fill="#3A4D57" d="M46.2755375,0.633736681 C40.9623245,-0.966086015 33.934066,0.778946191 33.0644183,2.37960825 C32.1947706,3.97943094 32.2725372,5.14362511 32.2725372,5.14362511 C32.2725372,5.14362511 29.4060446,7.61638359 30.1117971,10.0899814 C30.8175497,12.5627399 34.5135524,19.4001773 34.5135524,19.4001773 L35.4551132,21 C35.4551132,21 41.3252352,20.0548791 41.977471,19.2541284 C42.6297067,18.4542171 43.8614289,15.1085228 44.5696901,15.3997812 C45.2787874,15.6902002 45.3833124,18.0907736 45.3833124,18.0907736 L46.2663393,18.0907736 C46.2663393,18.0907736 46.3976226,15.2537323 46.2755375,14.5990305 C46.1534523,13.9443287 47.3391835,12.7809739 47.4846822,11.8350136 C47.6293448,10.8898928 47.0498584,8.27108543 47.0205914,7.68940802 C46.9921606,7.10773062 49.6579653,4.63413278 49.6579653,4.63413278 C49.6579653,4.63413278 51.5887504,2.23439874 46.2755375,0.633736681"/>
          <path fill="#EED7BA" d="M68.9379282,85.1321195 C68.7335877,84.4347695 66.5654445,78.2114232 66.5654445,78.2114232 L59.5505738,60.1867686 C59.055725,58.9152781 58.4418828,57.9396586 57.7426936,57.2071058 C58.148092,50.3660348 56.4189937,38.3007056 56.4189937,38.3007056 C56.4189937,38.3007056 50.0442259,33.8064858 48,41.5259496 C48,41.5259496 48.7221673,53.5359601 48.9412794,58.6185691 C48.9396382,58.6244362 48.9363556,58.6294652 48.9347143,58.6353323 L48.9658988,59.1893568 C48.9905181,59.819654 49.0052897,60.3124927 49.0052897,60.5924385 C49.0052897,60.7575563 49.0307297,60.9092634 49.0701207,61.0542653 L49.0709413,61.0760575 C49.0816097,61.0970115 49.09474,61.1263472 49.1054084,61.1481393 C49.14562,61.2671582 49.1981412,61.3794718 49.2637928,61.4842419 C49.2744612,61.5068723 49.281847,61.5236355 49.293336,61.5462659 L49.293336,61.5638673 C51.8020468,66.7411884 61.1721677,80.8784519 61.2919818,81.5405992 C61.2919818,81.5405992 60.8307795,83.9469597 61.6161364,84.8186473 C62.4006727,85.6894967 63.2541432,85.8294696 63.3911909,86.4916168 C63.5446514,87.1370009 63.4593044,89.681658 63.6127649,90.3446435 C63.7498126,90.9891894 66.446451,93.604252 67.453382,92.8716992 C67.453382,92.8716992 68.3060318,90.4837782 68.511193,89.8207928 C68.7335877,89.1762469 69.1595023,85.8294696 68.9379282,85.1321195"/>
          <path fill="#619AAF" d="M59,49.0986823 C58.9446319,44.5469668 58.7546767,38.2779096 58.1405168,36.2253738 C57.1387801,32.8768108 50.0388865,30.3708765 47.77135,38.0617643 C46.6111754,41.9962838 46.8863123,47.7291994 47.76198,52.7039179 C47.8071263,52.7132054 56.6302455,54.5192005 59,49.0986823"/>
        </g>
        <g transform="rotate(17 8.618 67.375)">
          <g transform="translate(0 3)">
            <mask id="b1-p4-b" fill="#fff">
              <use xlink:href="#b1-p4-a"/>
            </mask>
            <path fill="#2B6372" d="M22.59117,2.24413913 C27.756945,4.93761739 27.754245,9.29953043 22.585095,11.9869217 C17.415945,14.6749217 9.037845,14.6706609 3.872745,11.9771826 C-1.293705,9.28431304 -1.29033,4.9217913 3.878145,2.2344 C9.04797,-0.4536 17.42607,-0.448730435 22.59117,2.24413913" mask="url(#b1-p4-b)"/>
          </g>
          <path fill="#327FA8" d="M22.1958654,5.05522453 C27.2704754,7.79139564 27.2678227,12.2240671 22.1892337,14.9546718 C17.1106446,17.6852766 8.87998794,17.6815657 3.80471475,14.9447761 C-1.27055844,12.2079865 -1.26790575,7.77593355 3.81068332,5.04532879 C8.88993555,2.31410555 17.1205922,2.31905342 22.1958654,5.05522453"/>
          <path fill="#2B6372" d="M20.2197533,7.32126302 C23.9285692,9.08051634 23.9265205,11.9300585 20.214973,13.6853899 C16.5041084,15.4407214 10.4891479,15.43792 6.78033198,13.6786667 C3.07151607,11.9199736 3.07356476,9.07043145 6.78442936,7.31510003 C10.4959769,5.55920834 16.5109374,5.5620097 20.2197533,7.32126302"/>
          <polygon fill="#2B6372" points="4 10.991 4.866 5 22.17 5.008 23 11"/>
          <g transform="translate(4)">
            <mask id="b1-p4-d" fill="#fff">
              <use xlink:href="#b1-p4-c"/>
            </mask>
            <path fill="#327FA8" d="M15.8928667,1.43386875 C19.3797185,3.04486875 19.3776074,5.65430625 15.8886444,7.26249375 C12.4003852,8.87011875 6.74612593,8.86730625 3.25997778,7.25630625 C-0.22617037,5.64530625 -0.224762963,3.03586875 3.2642,1.42768125 C6.75245926,-0.17994375 12.4067185,-0.17713125 15.8928667,1.43386875" mask="url(#b1-p4-d)"/>
          </g>
        </g>
      </g>
      <g transform="translate(0 92)">
        <path fill="#D2ECF4" d="M44.6121686,82.4062361 C35.039348,79.9002911 24.8433977,81.7838962 21.8398966,86.6094002 C18.8332364,91.4396428 24.1539272,97.3850428 33.7283273,99.8878287 C43.2979888,102.396933 53.4970982,100.518066 56.5021789,95.6854545 C59.5064697,90.8560016 54.1849892,84.9145505 44.6121686,82.4062361"/>
        <g transform="translate(26 2)">
          <mask id="b1-p4-f" fill="#fff">
            <use xlink:href="#b1-p4-e"/>
          </mask>
          <path fill="#414046" d="M29.8301983,80.840681 C36.6539914,84.766092 36.6539914,91.130681 29.8301983,95.056092 C23.0058017,98.9815031 11.942181,98.9815031 5.11838793,95.056092 C-1.70600862,91.130681 -1.70600862,84.766092 5.11838793,80.840681 C11.942181,76.9152699 23.0058017,76.9152699 29.8301983,80.840681" mask="url(#b1-p4-f)"/>
        </g>
        <path fill="#58ACC6" d="M45.9920394,81.3388801 C45.9920394,82.3314967 47.2994037,83.4492133 47.4837287,83.6561546 C48.0458587,84.2904237 50.6355631,86.3592518 50.6355631,86.3592518 C50.6355631,86.3592518 52.382988,88.6402823 49.2390881,88.4567243 C46.0964088,88.2737508 43.7333465,85.7980098 40.742489,83.9829195 C40.2493282,82.9505515 40.9005206,81.7749767 41.361333,80.7928825 C42.3092026,80.1738125 42.0601808,80.5625581 43.2149583,80.9296742 C44.2171489,81.1079711 45.7936765,80.5882796 45.9920394,81.3388801 Z" transform="scale(-1 1) rotate(-39 0 213.924)"/>
        <path fill="#FFCFA9" d="M52,57 C49.1276467,57.7671786 46.0888502,58.3994355 43,58.7799997 C43.3190163,60.9738402 44.5987001,65.7354301 45.0268695,68.7049196 C46.1105602,76.2254485 46.434401,82.6581325 46.4989279,83.5547877 C46.4729965,84.1737339 47.0471053,84.5603484 47.0471053,84.5603484 C49.0588984,85.4200967 51.2305012,84.8955353 51.2305012,84.0442574 C51.2335165,83.442252 51.5085098,71.5201265 51.3553337,67.0828329 C51.2841731,65.04025 51.814862,59.2059411 52,57"/>
        <g transform="rotate(-25 167.654 -16.067)">
          <path fill="#58ACC6" d="M7.15904803,21.9206955 C7.17098281,22.1811132 8.2003574,23.2656157 8.3799758,23.4792039 C8.92957232,24.1342457 10.813764,26.3502297 11.0261142,27.0933457 C11.2384644,27.8364616 12.7882051,30.5345542 9.76097493,29.5815037 C6.73374475,28.6284531 5.26948924,25.9627904 2.29133011,23.5429875 C1.5101989,21.7914503 1.86239363,21.4912348 2.55938466,20.6882803 C3.53385927,20.0886344 4.86816743,20.5140974 6.02345392,20.9155747 C6.76460363,21.1731369 7.01702418,21.6351498 7.15904803,21.9206955 Z" transform="scale(-1 1) rotate(-51 0 39.194)"/>
          <path fill="#FFCFA9" d="M13.5389798,0.42501604 C13.3426372,0.943608054 13.1899262,1.46461493 13.1219121,1.9813958 C12.6547963,5.49864501 10.9159448,4.8593098 7,5.1919573 C7.34712865,11.241795 7.20917549,20.6350117 7.34841193,22.9689776 C7.35354508,22.9840705 7.35162015,23.1241326 7.35739493,23.1989934 C7.45364132,24.8248005 8.4231633,24.859816 10.1459737,24.9847852 C11.4991979,25.1514108 12.1863972,23.8944742 12.1863972,23.8944742 L12.1863972,23.9041336 L13.8995829,4.58160046 L15,0 C14.5136349,0.167229322 14.0266282,0.31272487 13.5389798,0.42501604"/>
        </g>
        <path fill="#73ADAA" d="M31.3266062,55.7677233 C30.6849195,59.9857588 31.1553289,67.4464429 31.3374618,73.7141168 C31.7035368,76.1706689 34.0393003,75.885528 36.7158092,75.9988609 C38.3381185,76.038648 39.7801042,75.0337223 40.2589568,73.363267 C40.2589568,73.363267 41.6532985,63.5105341 42.5959266,62.8118485 C43.8021045,63.339329 44.2152204,71.6289111 44.5559657,71.7410384 C46.7041686,73.7382302 49.1575345,73.333728 50.360697,73.0974168 C52.1542836,72.4945819 52.353906,70.5407942 52.3967253,70.5100496 C52.740486,64.3816305 52.875578,55.4807739 52.9998143,54.0327646 C53.072185,53.184576 31.9676898,51.549085 31.3266062,55.7677233"/>
        <path fill="#5F82B1" d="M51.8015466,31.0715305 C51.9268969,31.5705312 50.1301592,42.7121833 53.8778518,52.8973125 C53.9952692,53.2164185 53.7008867,53.6073365 53.4299089,53.8568369 C50.2949231,56.7372136 46.1331711,57.6877199 43.1745359,57.9209877 C36.1500047,58.4752994 31.4303211,55.9724799 29.2754024,54.7947178 C30.6825207,48.1634185 31.9053003,37.8647641 31.6226477,36.8306902 C32.4433424,31.8849678 29.2754024,20.6463663 36.0629803,20.5535781 C36.0691249,20.547566 38.8112125,19.694012 39.1184436,19.8070387 C39.4256746,19.9194642 42.6498377,20.5575529 44.7758767,19.4633584 C45.5623882,19.1627555 47.9195157,18.4494755 49.326634,18.9905607 C53.8778518,23.6296772 51.8992461,30.8009879 51.8015466,31.0715305 Z"/>
        <path fill="#745341" d="M46.027,20 C46,20.027 46.027,20.027 46.027,20.053 C46,20.027 46,20 46,20 L46.027,20 Z"/>
        <g transform="rotate(94 10.527 26.494)">
          <g fill="#FCC7A7" transform="translate(0 1)">
            <path d="M2.20628786,28.8403351 C2.20628786,28.8403351 1.42677564,31.7776992 1.50003572,33.45459 C1.57047807,35.0669841 2.72763986,36.2483305 5.23030904,32.945362 C5.63136803,31.7640278 5.6216601,28.839711 4.95181271,27 L2.20628786,28.8403351 Z"/>
            <path d="M0.767660583,28.8213655 C0.767660583,28.8213655 2.54783143,31.1061233 1.9642272,31.6612981 C1.37973332,32.2172638 0.581725696,31.1464565 0.581725696,31.1464565 L0.767660583,28.8213655 Z" transform="scale(-1 1) rotate(-15 0 40.437)"/>
            <path d="M3.82534726,18.3249799 C3.6029083,22.2241105 2.99119869,25.5818932 2.02568579,29.7712567 C1.87519474,30.9559179 2.40401189,30.8825211 3.14027885,30.9783616 C3.87714537,31.0742021 5.06548504,30.8600774 5.41982851,30.167357 C5.42762286,28.5095592 5.70715238,27.7235655 5.91520175,26.7069284 C6.59990604,23.3646432 7.50776314,21.3203332 8.34535674,17.9440792 C9.60504476,13.9181722 9.41773412,9.04241551 9.80985024,6.34917655 C11.1217005,-2.66043567 5.23995873,-0.351771828 4.56604663,2.78609419 C4.29504283,3.68202076 4.51904504,10.5097342 3.82534726,18.3249799 Z"/>
          </g>
          <path fill="#5F82B1" d="M6.97161317,12.975117 C6.2340629,12.991969 5.35427518,12.8671396 5.35427518,12.8671396 C4.8049443,12.792242 3.19496341,11.8816116 3,11.2680752 C3.55362252,8.77585659 3.02037068,5.04195326 3.55253496,2.68579866 C3.87563471,1.13729018 5.50816139,0.804876377 6.24203311,0.389194534 C6.97590482,-0.0264873096 7.83423431,0.000351007586 7.83423431,0.000351007586 C13.1969544,0.781158795 10.2700508,12.8084698 9.6072978,12.9314267 C8.95128883,13.0537595 6.97161317,12.975117 6.97161317,12.975117 Z"/>
        </g>
        <path fill="#FFCFA9" d="M46.0001709,18.3608151 C45.965956,18.3790855 45.8509228,18.4320696 45.7358897,18.5331659 C45.5984399,18.6397432 45.4946151,18.7286592 45.420286,18.8474168 C45.276937,19.0550903 45.2250246,19.3334094 45.3624745,19.6659307 C45.4143869,19.7901694 45.5524266,20.1226907 45.6556615,20.5556992 C45.8456136,21.3498526 41.5854405,22.5703229 39.5514858,22.3193155 C37.1440489,21.518463 36.222355,20.8522887 37.1591376,19.6598406 C37.5095462,19.2152608 37.6298885,18.8766494 37.646996,18.6336531 C37.5844652,18.4320696 37.5154453,18.2487566 37.4228289,18.0940672 C37.3715064,17.99358 37.3431906,17.946077 37.320184,17.9101452 C37.2912782,17.8748224 37.2735808,17.8510709 37.2623724,17.8273194 L36.9691854,17.4180624 C36.7739241,17.1214729 36.5727636,16.8900478 36.3834013,16.6586228 C36.3657039,16.6233 36.331489,16.5879772 36.3031731,16.5642257 C36.2571599,16.486881 36.1934492,16.4156264 36.1309184,16.3328006 C35.7167991,15.804786 35.3203773,15.2000358 35.1593309,14.7493659 C34.4301978,13.2365767 33.3671737,10.3541165 34.4874194,7.6080753 C35.6943824,4.66654079 39.9335007,2.49540818 45.3972794,5.30722284 C45.3972794,5.30722284 45.4604001,5.30113271 45.4721984,5.31270396 C46.7298939,5.68663816 48.6889966,6.60563931 49.5160553,8.68176584 C49.5508602,8.74084014 49.5738668,8.80661358 49.5968734,8.87177801 C49.6830008,9.13243572 49.7579198,9.39370245 49.8039331,9.68420182 C50.4528379,12.1628862 49.5278536,16.2731173 46.4774109,18.1001574 C46.3169545,18.1951635 46.1724257,18.2779893 46.0001709,18.3608151 Z"/>
        <path fill="#717171" d="M49.9659959,8.90629958 C48.7289873,9.55170716 47.1502025,8.407029 45.6844521,10.8601362 C44.2174972,12.1791978 45.9705126,14.4961746 44.7937982,15.3583846 C43.6170837,16.2205947 42.5631402,19.3099048 38.8924107,18.6734065 C36.2334083,17.2484492 34.1403122,14.1461144 34,10.3338289 C34,7.29633486 34.4947331,2.87721894 39.8007016,0.794143509 C46.038873,-0.872197085 49.8323934,2.72799817 50.7405083,5.26193758 C51.3455168,6.95083135 51.087346,8.16561869 49.9659959,8.90629958 Z" transform="matrix(-1 0 0 1 85.059 0)"/>
      </g>
    </g>
    <g transform="translate(231)">
      <g transform="matrix(-1 0 0 1 93 0)">
        <path fill="#D2ECF4" d="M39.0953942,149.460831 C24.8670563,146.160646 9.71254422,148.641245 5.24836068,154.996157 C0.779481699,161.35731 8.68776583,169.18706 22.9184514,172.483086 C37.1420938,175.787432 52.3013013,173.313073 56.7678326,166.9488 C61.23319,160.588688 53.323732,152.764138 39.0953942,149.460831"/>
        <g transform="translate(12 12.747)">
          <mask id="b1-p4-h" fill="#fff">
            <use xlink:href="#b1-p4-g"/>
          </mask>
          <path fill="#A0CFCD" d="M17.7522,135.0687 C31.1042,131.5737 45.3222,134.2007 49.5122,140.9307 C53.7032,147.6667 46.2832,155.9587 32.9322,159.4487 C19.5842,162.9487 5.3612,160.3277 1.1702,153.5887 C-3.0208,146.8527 4.4022,138.5667 17.7522,135.0687" mask="url(#b1-p4-h)"/>
        </g>
        <g transform="rotate(-129 37.999 22.794)">
          <path fill="#FFD0A4" d="M15.5471,16.0481 C15.5471,16.0481 14.8581,49.6551 15.1311,50.8801 C15.4041,52.1051 17.8071,59.6691 14.9631,60.7981 C12.1171,61.9271 8.7231,60.6521 8.7971,56.6301 C8.8691,52.6111 10.1311,50.2981 10.1311,50.2981 C10.1311,50.2981 7.4791,36.6791 7.7291,33.5961 C7.9791,30.5131 8.9851,16.0301 8.9851,16.0301 L15.5471,16.0481 Z"/>
          <path fill="#9FA3A4" d="M21.5699509,6.14507568 C21.5699509,6.14507568 18.936025,1.06710942 14.3569585,3.99005712 C9.7752784,6.91300481 7.85295911,11.3031576 7.02052037,15.5935863 C6.18938844,19.8851613 3.69861521,23.0609632 3.69861521,23.0609632 C3.69861521,23.0609632 7.95750401,26.3683739 12.9547501,25.8216108 C17.9533029,25.2725551 22.6708939,10.7402214 22.6708939,10.7402214 L21.5699509,6.14507568 Z" transform="rotate(-18 13.185 14.483)"/>
        </g>
        <path fill="#4A4A4A" d="M37.8948,161.013 C37.8948,161.013 36.6448,164.388 37.5198,166.263 C38.3948,168.138 39.8108,167.695 41.1448,167.513 C42.9788,167.264 49.4788,163.93 50.8108,162.764 C53.1348,160.732 52.9358,159.347 50.8108,158.347 C48.6858,157.347 45.3948,158.513 43.1448,159.263 L37.8948,161.013 Z"/>
        <path fill="#3E5A63" d="M45.6448,82.4526737 C45.6448,82.4526737 46.4498,101.720505 46.3948,121.371585 C46.3358,141.621491 45.4128,162.277401 45.0468,162.678615 C44.7058,163.05348 41.4028,165.01763 39.8208,164.580487 C38.2408,164.145739 37.8248,163.120548 37.8248,163.120548 L30.2388,87.4121521 L45.6448,82.4526737 Z"/>
        <g transform="rotate(10 -437.215 147.645)">
          <path fill="#4A4A4A" d="M4.00153632,73.6254886 C4.00153632,73.6254886 2.75153632,77.0004886 3.62653632,78.8754886 C4.50153632,80.7504886 5.91753632,80.3074886 7.25153632,80.1254886 C9.08553632,79.8764886 15.5855363,76.5424886 16.9175363,75.3764886 C19.2415363,73.3444886 19.0425363,71.9594886 16.9175363,70.9594886 C14.7925363,69.9594886 11.5015363,71.1254886 9.25153632,71.8754886 L4.00153632,73.6254886 Z"/>
          <path fill="#3E5A63" d="M14.5005901,0.910584858 C14.5005901,0.910584858 14.6315901,21.1904323 13.8075901,40.5409015 C13.0635901,58.0266259 11.3735901,74.7542365 11.0125901,75.1015557 C10.6505901,75.4500725 7.30959007,76.1147695 5.75459007,75.5554659 C4.19959007,74.9985575 3.84059007,73.9446235 3.84059007,73.9446235 L0.689590065,0.437512176 L14.5005901,0.910584858 Z"/>
        </g>
        <path fill="#9FA3A4" d="M33.3127,41.2060397 C33.3127,41.2060397 23.8967,39.921881 20.5627,42.4901984 C17.2287,45.0585159 16.3787,53.0819396 16.3787,56.0072531 C16.3787,58.9325667 18.1287,87.1121457 18.1287,87.7542251 C18.1287,88.3963044 22.7967,93.247 32.5467,93.247 C42.2967,93.247 46.6287,88.7524445 47.4627,87.1121457 C48.2967,85.4701348 46.5467,64.9244513 46.7967,64.2823719 C47.0467,63.6402926 47.3787,47.1611117 45.6287,44.5927943 C43.8787,42.0244768 37.0627,41.5630358 33.3127,41.2060397"/>
        <g transform="rotate(165 11.088 31.605)">
          <path fill="#FFD0A4" d="M11.2815,19.6077 C11.2815,19.6077 11.6015,47.0467 11.8885,48.2667 C12.1765,49.4887 14.0995,54.5717 12.2285,57.8457 C10.2285,61.3457 5.0625,61.4087 5.0905,57.3887 C5.1175,53.3687 6.9725,48.3227 6.9725,48.3227 C6.9725,48.3227 4.9005,32.9257 5.0275,29.6407 C5.1565,26.3057 4.7195,19.6647 4.7195,19.6647 L11.2815,19.6077 Z"/>
          <path fill="#9FA3A4" d="M4.4631,0.6321 C5.6291,0.1321 10.7971,1.7151 12.0471,6.4651 C13.2971,11.2151 14.0471,23.5481 13.7971,24.2151 C13.5471,24.8821 12.2971,26.2161 9.9631,26.7991 C7.6311,27.3821 2.5471,28.0491 1.5471,25.0491 C0.5471,22.0491 0.2971,7.7991 0.7131,5.1321 C1.1291,2.4651 3.2971,1.1321 4.4631,0.6321"/>
        </g>
        <path fill="#FFD0A4" d="M42.4944,25.7434 C42.4674,30.7974 42.2194,35.2364 40.2264,37.7074 C38.3614,40.0204 35.7324,40.0514 31.1014,39.8924 C28.4654,39.8034 26.6684,37.7034 25.3104,36.2634 C22.5904,33.3754 21.9324,29.6224 21.8634,25.4094 C21.7584,19.0954 26.7564,14.5674 32.2874,14.4764 C37.8204,14.3854 42.5314,19.4284 42.4944,25.7434"/>
        <path fill="#FFD0A4" d="M27.2795 37.9485L28.3245 42.5555C28.3245 42.5555 29.1445 44.0965 32.9785 43.9305 36.8105 43.7625 37.2795 42.9035 37.2795 42.9035L36.7565 34.9485 27.2795 37.9485zM38.2288 29.263C38.2288 29.263 37.3948 25.429 35.3108 26.596 33.2288 27.763 33.8108 31.846 36.2288 32.346 38.6448 32.846 38.3948 30.763 38.2288 29.263"/>
        <path fill="#FF8080" d="M36.5308183,38 C38.4467944,38 40,36.4467944 40,34.5308183 C40,32.6148421 38.4467944,33.040221 36.5308183,33.040221 C34.6148421,33.040221 33.0616365,32.6148421 33.0616365,34.5308183 C33.0616365,36.4467944 34.6148421,38 36.5308183,38 Z"/>
      </g>
      <path fill="#58ACC6" d="M72.8447432,22.4694684 C72.6753408,21.4424563 72.6023463,20.8880187 72.4536027,20.3067893 C70.7292793,14.5264974 62.7763193,6.72343806 53.3469419,17.0315138 L53.3359238,17.0307696 C53.3359238,17.0307696 50.7480614,20.0798048 49.110505,19.8572855 C48.4996923,20.4169327 50.50291,24.1007804 53.1011018,24.8598763 C53.1128085,24.8635974 53.1245152,24.86583 53.1362218,24.8688068 C53.256043,24.9022964 53.3751756,24.9380185 53.496374,24.9588564 C53.509458,24.9610891 53.5218533,24.9596007 53.5349372,24.9618333 C54.3241044,25.1158851 55.2778536,25.098024 56.2687887,24.9342975 C56.2687887,24.9342975 57.7975419,24.7586635 59.4970748,24.4855378 L59.498452,24.4855378 C63.4036591,24.0509182 64.6652248,28.5496777 65.0171135,25.7581398 C65.6478963,22.4463979 68.2901604,23.754722 68.5614796,25.5080847 C68.7825291,27.0567891 69.1316633,30.568724 69.8567881,30.7651958 L69.864363,30.7651958 C69.9001717,30.800918 69.9428666,30.835896 69.9855615,30.8634318 C69.999334,30.8701297 70.0069089,30.8768276 70.0144838,30.8842697 C70.0558015,30.9043634 70.1053827,30.9318993 70.1549639,30.9438066 C70.2107427,30.9639004 70.2665215,30.9832499 70.3353843,30.9869709 C70.4400557,31.0040878 70.5571224,31.0055762 70.687273,30.9839941 C70.8029624,30.955714 70.9234722,30.8678971 71.0494911,30.7495674 C72.0617736,29.7887901 73.4720829,26.0960119 72.8447432,22.4694684"/>
    </g>
    <g transform="translate(0 35)">
      <path fill="#FFF" d="M75.896026,98 L199,98 C226.061953,98 248,76.0619527 248,49 L248,49 C248,21.9380473 226.061953,-4.97120007e-15 199,0 L49,0 L49,0 C21.9380473,4.97120007e-15 -3.31413338e-15,21.9380473 0,49 L0,49 L0,49 C3.31413338e-15,76.0619527 21.9380473,98 49,98 L56.2748869,98 C55.0175725,100.783401 53.344055,103.084935 51.2543344,104.904604 C47.4344541,108.230846 43.0163426,110.345336 38,111.248072 C49.3769072,112.588294 57.6064359,112.136926 62.6885861,109.893967 C68.0984914,107.506357 73.3318449,103.66921 75.896026,98 Z" transform="rotate(180 124 56)"/>
      <text fill="#FFA626" font-family="MicrosoftJhengHeiBold, Microsoft JhengHei" font-size="22" font-weight="bold" letter-spacing="1.077">
        <tspan x="63.163" y="49">24</tspan> <tspan x="54.269" y="83"></tspan>
      </text>
    </g>
  </g>
</svg>
