<?xml version="1.0" encoding="UTF-8" standalone="no"?>
<svg width="20px" height="30px" viewBox="0 0 20 30" version="1.1" xmlns="http://www.w3.org/2000/svg" xmlns:xlink="http://www.w3.org/1999/xlink">
    <!-- Generator: Sketch 47.1 (45422) - http://www.bohemiancoding.com/sketch -->
    <title>Combined Shape Copy 13</title>
    <desc>Created with Sketch.</desc>
    <defs></defs>
    <g id="Page-1" stroke="none" stroke-width="1" fill="none" fill-rule="evenodd">
        <g id="台新atm-1440" transform="translate(-1236.000000, -5630.000000)" fill="#58ACC6">
            <g id="Group-99" transform="translate(0.000000, 4907.000000)">
                <g id="Group-98" transform="translate(154.000000, 713.000000)">
                    <path d="M1101.99872,19.7097458 C1102.12927,25.2006292 1092.23713,40 1092.23713,40 C1092.23713,40 1082.13341,25.6706795 1082.00285,20.179796 C1081.8723,14.6889126 1086.24262,10.1326582 1091.76444,10.0028348 C1097.28725,9.87301144 1101.86816,14.218365 1101.99872,19.7097458 Z M1086.20276,19.3915541 C1086.20276,22.5754607 1088.79834,25.1565091 1092.00018,25.1565091 C1095.20202,25.1565091 1097.79711,22.5754607 1097.79711,19.3915541 C1097.79711,16.2076475 1095.20202,13.626599 1092.00018,13.626599 C1088.79834,13.626599 1086.20276,16.2076475 1086.20276,19.3915541 Z" id="Combined-Shape-Copy-13"></path>
                </g>
            </g>
        </g>
    </g>
</svg>