<?xml version="1.0" encoding="UTF-8" standalone="no"?>
<svg width="997px" height="1126px" viewBox="0 0 997 1126" version="1.1" xmlns="http://www.w3.org/2000/svg" xmlns:xlink="http://www.w3.org/1999/xlink">
    <!-- Generator: Sketch 47.1 (45422) - http://www.bohemiancoding.com/sketch -->
    <title>L2</title>
    <desc>Created with Sketch.</desc>
    <defs>
        <linearGradient x1="65.120106%" y1="53.5034893%" x2="51.9830136%" y2="14.9416665%" id="linearGradient-1">
            <stop stop-color="#006A7C" stop-opacity="0" offset="0%"></stop>
            <stop stop-color="#2B97A0" stop-opacity="0.220901268" offset="55.4529517%"></stop>
            <stop stop-color="#247F8C" stop-opacity="0.703776042" offset="100%"></stop>
        </linearGradient>
        <polygon id="path-2" points="2.71050543e-20 23.246797 2.71050543e-20 0.800680335 579.765618 0.800680335 579.765618 367.113555 2.71050543e-20 367.113555 2.71050543e-20 23.246797 -8.30939476e-05 367.113943 579.765576 367.113943 579.765576 23.246797 4.06575815e-20 23.246797"></polygon>
        <path d="M9.19220736,2.43971662 C9.19220447,1.83400244 8.73239563,1.23754117 7.87154593,0.739899946 L2.00936039,0.739899946 C0.149710702,1.81449724 0.151329196,3.0552276 2.00936039,4.12901448 C3.86739159,5.20361178 6.03860139,5.18902448 7.87154593,4.12901448 C8.76926261,3.61008513 9.19220295,3.02065314 9.19220736,2.43973142 L9.19220736,2.43971662 L9.19220736,2.43971662 Z" id="path-4"></path>
        <linearGradient x1="40.9067954%" y1="79.4046932%" x2="20.0109187%" y2="16.5758934%" id="linearGradient-6">
            <stop stop-color="#E7F5F9" stop-opacity="0" offset="0%"></stop>
            <stop stop-color="#1A6780" stop-opacity="0.520578578" offset="100%"></stop>
        </linearGradient>
        <linearGradient x1="68.4475723%" y1="67.1267565%" x2="5.16300265%" y2="8.08130367%" id="linearGradient-7">
            <stop stop-color="#7EC6DD" stop-opacity="0" offset="0%"></stop>
            <stop stop-color="#006B8C" stop-opacity="0.558027627" offset="100%"></stop>
        </linearGradient>
    </defs>
    <g id="Page-1" stroke="none" stroke-width="1" fill="none" fill-rule="evenodd">
        <g id="台新atm-01" transform="translate(0.000000, -2981.000000)">
            <g id="L2" transform="translate(-305.000000, 2981.000000)">
                <g id="Group-34-Copy-2" transform="translate(1048.500000, 827.000000) scale(-1, 1) translate(-1048.500000, -827.000000) translate(795.000000, 528.000000)" fill="#C5E9F4" opacity="0.567255435">
                    <polygon id="Rectangle-7-Copy-2" points="314.5 0 506.12572 110.7401 422.62572 158.943589 231 48.2034894"></polygon>
                    <path d="M314.522004,111 L414.167519,168.584933 L384.645515,185.627611 L285,128.042678 L314.522004,111 Z" id="L2Step2-1"></path>
                    <path d="M286.022004,152.2 L385.667519,209.784933 L356.145515,226.827611 L256.5,169.242678 L286.022004,152.2 Z" id="L2Step2-2"></path>
                    <path d="M257.522004,193.4 L357.167519,250.984933 L327.645515,268.027611 L228,210.442678 L257.522004,193.4 Z" id="L2Step2-3"></path>
                    <path d="M229.022004,234.6 L328.667519,292.184933 L299.145515,309.227611 L199.5,251.642678 L229.022004,234.6 Z" id="L2Step2-4"></path>
                    <path d="M200.522004,275.8 L300.167519,333.384933 L270.645515,350.427611 L171,292.842678 L200.522004,275.8 Z" id="L2Step2-5"></path>
                    <path d="M172.022004,317 L271.667519,374.584933 L242.145515,391.627611 L142.5,334.042678 L172.022004,317 Z" id="L2Step2-6"></path>
                    <path d="M143.522004,358.2 L243.167519,415.784933 L213.645515,432.827611 L114,375.242678 L143.522004,358.2 Z" id="L2Step2-7"></path>
                    <path d="M115.022004,399.4 L214.667519,456.984933 L185.145515,474.027611 L85.5,416.442678 L115.022004,399.4 Z" id="L2Step2-8"></path>
                    <path d="M86.5220041,440.6 L186.167519,498.184933 L156.645515,515.227611 L57,457.642678 L86.5220041,440.6 Z" id="L2Step2-9"></path>
                    <path d="M58.0220041,481.8 L157.667519,539.384933 L128.145515,556.427611 L28.5,498.842678 L58.0220041,481.8 Z" id="L2Step2-10"></path>
                    <path d="M29.5220041,523 L129.167519,580.584933 L99.6455149,597.627611 L0,540.042678 L29.5220041,523 Z" id="L2Step2-11"></path>
                </g>
                <polygon id="Rectangle-7-Copy-11" fill="#C5E9F4" opacity="0.567255435" points="634 0 1268 366 634 732 0 366"></polygon>
                <polygon id="Rectangle-12-Copy" fill="url(#linearGradient-1)" opacity="0.443670743" points="864.080908 272 1207 459.838423 821.919092 680 479 492.161577"></polygon>
                <g id="Group-116" transform="translate(347.000000, 80.000000)">
                    <g id="Group-4-Copy-2" transform="translate(0.000000, 77.000000)">
                        <polygon id="Fill-6" fill="#D8D8D8" points="563.511891 144.223761 579.765618 144.223761 579.765618 120.274667 563.511891 120.274667"></polygon>
                        <path d="M223.401548,361.253515 C216.76815,365.118337 209.068165,367.354245 200.84055,367.368022 C192.613745,367.382609 184.905667,365.172634 178.258512,361.330503 L9.00449395,263.490284 C3.61652718,260.375897 -0.0032348189,254.54179 2.16924389e-06,247.864051 C0.00323915739,241.186312 3.62947513,235.355447 9.02067889,232.246732 L362.647068,28.3131267 C367.940352,25.2603303 374.073636,23.5009406 380.621254,23.501751 C387.168871,23.5025614 393.302155,25.2627615 398.59463,28.3155579 L570.747371,127.627473 C576.128054,130.731325 579.751053,136.547603 579.76562,143.213996 C579.779377,149.879579 576.181465,155.711255 570.813729,158.838609 L223.401548,361.253515 Z" id="Fill-7-Copy" fill="#D8D8D8"></path>
                        <g id="Group-3" transform="translate(0.000000, 0.009725)">
                            <mask id="mask-3" fill="white">
                                <use xlink:href="#path-2"></use>
                            </mask>
                            <g id="Clip-2"></g>
                            <path d="M223.401465,360.998561 C216.768067,364.863384 209.068082,367.099291 200.840467,367.113879 C192.613662,367.127656 184.905584,364.917681 178.258429,361.07555 L9.00441086,263.23533 C3.61644408,260.120943 -0.00331791285,254.286836 -8.09247037e-05,247.609097 C0.00315606344,240.931358 3.62939204,235.100493 9.0205958,231.991779 L362.646985,28.0581729 C367.940269,25.0053765 374.073553,23.2459869 380.62117,23.2467973 C387.168788,23.2476077 393.302072,25.0078078 398.594547,28.0614145 L570.747288,127.37252 C576.127971,130.476371 579.75097,136.29265 579.765537,142.959043 C579.779294,149.624625 576.181382,155.456301 570.813646,158.583655 L223.401465,360.998561 Z" id="Fill-1" fill="#232323" mask="url(#mask-3)"></path>
                        </g>
                        <polygon id="Fill-4" fill="#D8D8D8" points="0.0372253637 247.819478 16.2909521 247.819478 16.2909521 226.327532 0.0372253637 226.327532"></polygon>
                        <path d="M223.401548,338.562169 C216.76815,342.426992 209.068165,344.6629 200.84055,344.676677 C192.613745,344.691264 184.905667,342.481289 178.258512,338.639158 L9.00449395,240.798938 C3.61652718,237.684551 -0.0032348189,231.850444 2.16924389e-06,225.172705 C0.00323915739,218.494966 3.62947513,212.664101 9.02067889,209.555387 L362.647068,5.62178114 C367.940352,2.56898476 374.073636,0.809595073 380.621254,0.810405478 C387.168871,0.811215883 393.302155,2.57141597 398.59463,5.62421235 L570.747371,104.936128 C576.128054,108.03998 579.751053,113.856258 579.76562,120.522651 C579.779377,127.188234 576.181465,133.019909 570.813729,136.147263 L223.401548,338.562169 Z" id="Fill-7" fill="#FFFFFF"></path>
                        <polygon id="Fill-8" fill="#95D2E4" points="44.1605299 204.375033 344.189678 30.4418177 535.604926 141.113993 235.575778 315.046398"></polygon>
                        <path d="M93.6773482,260.415252 C103.438486,254.771591 115.598232,255.297544 124.449776,260.415252 C133.300511,265.532961 134.072533,272.642646 124.449776,278.206888 C114.82621,283.77113 103.429584,283.845688 93.6773482,278.206888 C83.9251122,272.568089 83.9162104,266.058914 93.6773482,260.415252" id="Fill-9" fill="#F5F5F5"></path>
                        <path d="M100.300454,264.906595 C105.696513,261.786535 112.418119,262.07747 117.311636,264.906595 C122.204344,267.73572 122.630817,271.666185 117.311636,274.741672 C111.991646,277.817971 105.691658,277.859301 100.300454,274.741672 C94.9092502,271.624854 94.9043947,268.026655 100.300454,264.906595 Z" id="Stroke-10" stroke="#EAEAEA" stroke-width="1.62"></path>
                        <path d="M416.702906,39.1292804 C417.235391,38.8132224 417.854465,38.62845 418.518047,38.6235876 C419.18163,38.6195355 419.803941,38.7962039 420.340472,39.1057787 L488.61017,78.5222667 C489.148319,78.8326519 489.510862,79.4153332 489.511671,80.0822967 C489.511671,80.7492602 489.150747,81.3327519 488.613407,81.6447579 L483.651104,84.5241276 C482.84995,84.9884897 481.920125,85.2559235 480.927179,85.2526818 C479.935042,85.2502506 479.006026,84.9779545 478.208109,84.5079195 L411.540719,45.30862 C411.009853,44.996614 410.653785,44.4187951 410.652166,43.7583149 C410.650548,43.0970243 411.004189,42.5175845 411.533436,42.2031473 L416.702906,39.1292804 Z" id="Fill-14" fill="#D8D8D8"></path>
                        <path d="M393.205933,30.0180569 C397.025579,27.8097027 401.783952,28.0155456 405.24672,30.0180569 C408.710297,32.0205681 409.012955,34.8026891 405.24672,36.9802479 C401.481293,39.1569963 397.022342,39.1861709 393.205933,36.9802479 C389.389524,34.7735146 389.386287,32.226411 393.205933,30.0180569" id="Fill-18" fill="#9B9B9B"></path>
                        <path d="M396.259869,31.8226671 C398.117091,30.7488803 400.431538,30.8485601 402.115581,31.8226671 C403.799624,32.7967742 403.946907,34.1493405 402.115581,35.2085401 C400.284255,36.2669293 398.115473,36.2815165 396.259869,35.2085401 C394.404266,34.1355636 394.402647,32.896454 396.259869,31.8226671" id="Fill-19" fill="#717171"></path>
                        <path d="M397.444283,32.5225331 C398.540813,31.8887962 399.906822,31.9479558 400.900578,32.5225331 C401.895142,33.0971104 401.981732,33.8961699 400.900578,34.5209923 C399.820233,35.1458147 398.540004,35.1547292 397.444283,34.5209923 C396.348563,33.8872554 396.347754,33.1562699 397.444283,32.5225331" id="Fill-20" fill="#0F7B9D"></path>
                        <path d="M383.164634,24.2510514 C385.024284,23.1756437 387.341158,23.2761339 389.027629,24.2510514 C390.71329,25.2259688 390.860573,26.5809663 389.027629,27.6409763 C387.193875,28.7009863 385.022665,28.7147632 383.164634,27.6409763 C381.306603,26.566379 381.304984,25.3264591 383.164634,24.2510514" id="Fill-24" fill="#939393"></path>
                        <path d="M384.651544,25.1296927 C385.555473,24.6069813 386.682754,24.6556057 387.502522,25.1296927 C388.322289,25.6037797 388.394312,26.2626392 387.502522,26.7780569 C386.610731,27.2934746 385.555473,27.3007682 384.651544,26.7780569 C383.748425,26.2553455 383.747615,25.6524041 384.651544,25.1296927" id="Fill-25" fill="#AAAAAA"></path>
                        <path d="M385.228214,25.4704681 C385.762317,25.1617037 386.427518,25.1908783 386.911448,25.4704681 C387.395377,25.7500579 387.437458,26.1390524 386.911448,26.4437647 C386.384628,26.7476667 385.761508,26.7517187 385.228214,26.4437647 C384.69492,26.1350003 384.694111,25.7792325 385.228214,25.4704681" id="Fill-26" fill="#F2F2F2"></path>
                        <g id="Group-29" transform="translate(381.155354, 23.511476)">
                            <mask id="mask-5" fill="white">
                                <use xlink:href="#path-4"></use>
                            </mask>
                            <g id="Clip-28"></g>
                            <path d="M7.87154593,0.739899946 C6.18588435,-0.235017507 3.86901008,-0.335507752 2.00936039,0.739899946 C0.149710702,1.81449724 0.151329196,3.0552276 2.00936039,4.12901448 C3.86739159,5.20361178 6.03860139,5.18902448 7.87154593,4.12901448 C9.70529971,3.06900448 9.55801675,1.7148174 7.87154593,0.739899946" id="Fill-27" mask="url(#mask-5)"></path>
                        </g>
                        <path d="M503.080316,90.3944597 C503.047947,90.2453451 502.988062,90.097041 502.901473,89.9511681 C502.858583,89.879042 502.808409,89.8069159 502.751762,89.7356003 C502.58263,89.5216533 502.355231,89.3158104 502.071185,89.1213131 C501.975694,89.0564807 501.875348,88.9932691 501.768527,88.9316783 C501.340435,88.6836943 500.872691,88.4924387 500.381478,88.3603427 C499.891074,88.229057 499.377202,88.1577414 498.858475,88.1512581 C498.599516,88.1480165 498.338129,88.160983 498.078361,88.190968 C497.558015,88.250938 497.040906,88.3781716 496.544837,88.5775312 C496.296399,88.6772111 496.052815,88.7947198 495.817324,88.9316783 C494.637442,89.6132291 494.195593,90.3612331 494.490159,91.0922186 C494.667384,91.5306478 495.110042,91.9634042 495.817324,92.3726588 C496.288306,92.6449549 496.780328,92.8483666 497.281252,92.9837043 C497.53131,93.0509679 497.784604,93.1020235 498.037898,93.1352501 C499.307607,93.303004 500.60483,93.0444847 501.768527,92.3726588 C502.699161,91.8345497 503.126444,91.2218834 503.107831,90.6197523 C503.105403,90.5443847 503.096501,90.469017 503.080316,90.3944597" id="Fill-30" fill="#9B9B9B"></path>
                    </g>
                    <g id="Group-17" transform="translate(185.000000, 0.000000)">
                        <g id="Page-1-Copy-8" transform="translate(74.000000, 131.500000) scale(-1, 1) translate(-74.000000, -131.500000) ">
                            <polygon id="Fill-1" fill="#31AB05" points="0.239264431 220.321723 72.8661088 262.674319 72.6268444 161.09578 0 118.743185"></polygon>
                            <polygon id="Fill-2" fill="#CCCCCC" points="0 118.719731 72.6770502 161.022956 93.5564854 72.88859 20.8823199 30.5853659"></polygon>
                            <polygon id="Fill-3" fill="#E8E8E8" points="73.961859 0 20.6903766 30.640443 93.3632013 72.8651363 146.631799 42.2189257"></polygon>
                            <polygon id="Fill-4" fill="#278704" points="93.8924024 72.9957936 72.8661088 161.169222 73.1071894 262.674319 146.48573 220.618284 146.244649 119.110297 147.531381 42.2797704"></polygon>
                            <polygon id="Fill-5" fill="#C1C1C1" points="0.239264431 220.321723 72.8661088 262.674319 72.6268444 161.09578 0 118.743185"></polygon>
                            <polygon id="Fill-6" fill="#D7D7D7" points="93.8924024 72.9957936 72.8661088 161.169222 73.1071894 262.674319 146.48573 220.618284 146.244649 119.110297 147.531381 42.2797704"></polygon>
                            <polygon id="Fill-7" fill="#C8C8C8" points="20.1108255 45.8780488 4.49790795 113.345768 23.6340186 103.298375 35.083682 55.0493508"></polygon>
                            <polygon id="Fill-8" fill="#707070" points="24.004877 102.550933 4.49790795 112.624069 61.4925121 145.730273 65.6694561 126.599779"></polygon>
                            <polygon id="Fill-9" fill="#808080" points="23.3891213 102.946488 34.9966305 54.8737446 76.4644351 78.8564669 64.8250611 126.839311"></polygon>
                            <polygon id="Fill-10" fill="#393C41" points="30.5857741 88.3152636 37.946203 57.5724534 76.4644351 80.0781497 69.0780486 110.647059"></polygon>
                            <polygon id="Fill-11" fill="#FF9C9C" points="33.2845188 87.1969013 39.6546079 61.1707317 74.665272 81.1747436 68.2718171 107.04878"></polygon>
                            <g id="Group-16" transform="translate(35.083682, 115.144907)" fill="#BFBFBF">
                                <path d="M7.54766946,0.320336729 L7.54474582,1.00850746 C7.54474582,1.1137571 7.46873117,1.21900674 7.31962552,1.30266671 L7.32254916,0.611797274 C7.47165481,0.530836011 7.54766946,0.42558637 7.54766946,0.320336729" id="Fill-12"></path>
                                <path d="M0.435037657,0.631767719 L0.432114017,1.31993845 C0.277161088,1.23627848 0.198222803,1.13102884 0.198222803,1.02308049 L0.201146444,0.334909756 C0.201146444,0.440159397 0.280084728,0.548107747 0.435037657,0.631767719" id="Fill-14"></path>
                            </g>
                            <polygon id="Fill-17" fill="#B9B9B9" points="35.083682 116.735346 37.7392469 118.268212 37.7419456 117.577343 35.0863808 116.044476"></polygon>
                            <polygon id="Fill-18" fill="#979797" points="38.6820084 117.598933 38.6820084 118.287103 41.3564644 116.732647 41.3591632 116.044476"></polygon>
                            <g id="Group-27" transform="translate(35.083682, 113.345768)">
                                <path d="M4.30976046,4.37168329 L4.30691179,5.11720158 C4.00780091,5.29554125 3.52637483,5.29261765 3.22441527,5.11427798 L3.22726395,4.36875968 C3.52637483,4.54709935 4.01064958,4.55002296 4.30976046,4.37168329" id="Fill-19" fill="#BFBFBF"></path>
                                <path d="M7.12368166,2.04332733 C7.42564121,2.221667 7.43418724,2.50817991 7.13222768,2.68944319 L4.30919073,4.37051385 C4.01007985,4.55177712 3.52865377,4.54885352 3.22669421,4.36759024 L0.423597978,2.70990839 C0.121638424,2.52864512 0.121638424,2.24505581 0.420749303,2.06671614 L3.24378626,0.382721879 C3.54289714,0.204382209 4.02147455,0.204382209 4.32058543,0.382721879 L7.12368166,2.04332733 Z" id="Fill-21" fill="#E6E6E6"></path>
                                <path d="M12.2544303,5.27156772 L12.2515816,6.01708601 C12.2515816,6.13403006 12.177516,6.2480505 12.0293849,6.33575854 L12.0293849,5.59024024 C12.1803647,5.50253221 12.2544303,5.38558816 12.2544303,5.27156772" id="Fill-23" fill="#BFBFBF"></path>
                                <path d="M5.32702232,5.61362905 L5.32417364,6.35914735 C5.17319386,6.26851571 5.09627964,6.15449527 5.09912831,6.03755122 L5.09912831,5.29203293 C5.09912831,5.40605337 5.17604254,5.52299742 5.32702232,5.61362905" id="Fill-25" fill="#BFBFBF"></path>
                            </g>
                            <polygon id="Fill-28" fill="#979797" points="44.0821967 120.294943 44.0794979 120.985812 46.753954 119.431356 46.7566527 118.743185"></polygon>
                            <polygon id="Fill-29" fill="#B9B9B9" points="40.4811715 119.431356 43.1367364 120.964222 43.1394351 120.273353 40.4838703 118.743185"></polygon>
                            <g id="Group-38" transform="translate(39.581590, 116.044476)">
                                <path d="M4.55964923,4.35004864 L4.55680056,5.09556693 C4.25768968,5.2739066 3.78196095,5.2739066 3.48000139,5.09556693 L3.48000139,4.35004864 C3.78196095,4.52838831 4.26053835,4.52838831 4.55964923,4.35004864" id="Fill-30" fill="#BFBFBF"></path>
                                <path d="M7.37926778,2.025201 C7.68122734,2.20354067 7.68407601,2.48712999 7.38211646,2.66546966 L4.5590795,4.34946392 C4.25996862,4.52780359 3.78423989,4.52780359 3.48228033,4.34946392 L0.6791841,2.68885846 C0.377224547,2.51051879 0.377224547,2.22692948 0.676335425,2.04858981 L3.49937238,0.364595552 C3.79848326,0.186255882 4.27706067,0.186255882 4.57617155,0.364595552 L7.37926778,2.025201 Z" id="Fill-32" fill="#E6E6E6"></path>
                                <path d="M12.5097315,5.25314903 L12.5068828,5.99866732 C12.5068828,6.11268777 12.4328173,6.22963181 12.2846862,6.31733985 L12.2846862,5.57182156 C12.435666,5.48411352 12.5097315,5.36716948 12.5097315,5.25314903" id="Fill-34" fill="#BFBFBF"></path>
                                <path d="M5.58260844,5.59521037 L5.57975976,6.34072866 C5.42877999,6.25009702 5.35186576,6.13607658 5.35186576,6.01913253 L5.35471444,5.27361424 C5.35471444,5.38763468 5.43162866,5.50457873 5.58260844,5.59521037" id="Fill-36" fill="#BFBFBF"></path>
                            </g>
                            <polygon id="Fill-39" fill="#979797" points="49.4796862 123.89592 49.4769874 124.58409 52.1514435 123.029634 52.1541423 122.341463"></polygon>
                            <polygon id="Fill-40" fill="#B9B9B9" points="44.9790795 123.029634 47.6346444 124.562501 47.6346444 123.87433 44.9817782 122.341463"></polygon>
                            <g id="Group-49" transform="translate(44.079498, 119.642755)">
                                <path d="M4.81145711,4.25143782 L4.80853347,4.9854866 C4.50155126,5.16108258 4.01330335,5.16108258 3.70339749,4.9854866 L3.70339749,4.25143782 C4.01330335,4.4270338 4.5044749,4.4270338 4.81145711,4.25143782" id="Fill-41" fill="#BFBFBF"></path>
                                <path d="M7.70527615,1.96178135 C8.01518201,2.13737733 8.01518201,2.41660373 7.70819979,2.59219971 L4.81087238,4.25028637 C4.50389017,4.42588235 4.01271862,4.42588235 3.7057364,4.25028637 L0.828874477,2.61522869 C0.518968619,2.43963271 0.516044979,2.16040631 0.825950837,1.98481033 L3.72327824,0.326723673 C4.03026046,0.15112769 4.51850837,0.15112769 4.82841423,0.326723673 L7.70527615,1.96178135 Z" id="Fill-43" fill="#E6E6E6"></path>
                                <path d="M6.96559519,6.10527082 L6.96267155,6.8393196 C6.80771862,6.7500823 6.72878033,6.63781601 6.72878033,6.5226711 L6.73170397,5.78862232 C6.73170397,5.90088861 6.81064226,6.01603352 6.96559519,6.10527082" id="Fill-45" fill="#BFBFBF"></path>
                                <path d="M17.7514885,7.85806416 L17.7485649,8.59211294 C17.7485649,8.70437923 17.6725502,8.81952413 17.5205209,8.90588281 L17.5205209,8.17183403 C17.6754738,8.08547535 17.7514885,7.97033044 17.7514885,7.85806416" id="Fill-47" fill="#BFBFBF"></path>
                            </g>
                            <polygon id="Fill-50" fill="#979797" points="58.4728033 129.293337 58.4728033 129.981508 61.1472594 128.427052 61.1499582 127.738881"></polygon>
                            <polygon id="Fill-51" fill="#B9B9B9" points="57.5732218 128.797574 57.5704131 129.53802 51.2761506 125.780618 51.2789593 125.040172"></polygon>
                            <g id="Group-60" transform="translate(29.686192, 118.743185)">
                                <path d="M29.2422714,10.7292024 L29.2393478,11.4632512 C28.9323656,11.6388472 28.4441177,11.6388472 28.1342118,11.4632512 L28.1342118,10.7292024 C28.4441177,10.9047984 28.9352892,10.9047984 29.2422714,10.7292024" id="Fill-52" fill="#BFBFBF"></path>
                                <path d="M32.1363828,8.4398338 C32.4462887,8.61542978 32.4462887,8.89465618 32.1393065,9.07025217 L29.2419791,10.7283388 C28.9349969,10.9039348 28.446749,10.9039348 28.1368431,10.7283388 L21.5849655,7.00340109 C21.2750596,6.82780511 21.272136,6.54857871 21.5791182,6.37298273 L24.4764456,4.71489607 C24.7863515,4.53930009 25.2745994,4.53930009 25.5845052,4.71489607 L32.1363828,8.4398338 Z" id="Fill-54" fill="#E6E6E6"></path>
                                <path d="M7.44156381,0.353207001 L7.43864017,1.08725578 C7.43864017,1.20240069 7.36554916,1.31466697 7.21644351,1.40102565 L7.21644351,0.666976872 C7.36554916,0.580618192 7.44156381,0.468351908 7.44156381,0.353207001" id="Fill-56" fill="#BFBFBF"></path>
                                <path d="M0.32542364,0.688854405 L0.3225,1.42290319 C0.167547071,1.33366588 0.0886087866,1.21852098 0.0886087866,1.10625469 L0.0915324268,0.372205911 C0.0915324268,0.484472195 0.170470711,0.599617102 0.32542364,0.688854405" id="Fill-58" fill="#BFBFBF"></path>
                            </g>
                            <polygon id="Fill-61" fill="#B9B9B9" points="30.5857741 119.434055 33.2413389 120.966921 33.2413389 120.276052 30.5884728 118.743185"></polygon>
                            <polygon id="Fill-62" fill="#979797" points="34.1867992 120.303039 34.1841004 120.991209 36.8666527 119.434055 36.8693515 118.743185"></polygon>
                            <g id="Group-71" transform="translate(29.686192, 116.044476)">
                                <path d="M4.17989086,4.38717837 L4.17704219,5.13269666 C3.87793131,5.31103633 3.39650523,5.30811273 3.09454568,5.12977306 L3.09454568,4.38425477 C3.39650523,4.56259444 3.88077999,4.56551804 4.17989086,4.38717837" id="Fill-63" fill="#BFBFBF"></path>
                                <path d="M6.99950941,2.05560646 C7.30146897,2.23394613 7.30431764,2.52338264 7.00805544,2.69879871 L4.17932113,4.38864017 C3.88021025,4.56697984 3.39878417,4.56113264 3.09682462,4.38279297 L0.293728382,2.72511112 C-0.00823117155,2.54384785 -0.00823117155,2.26025854 0.290879707,2.08191887 L3.11961402,0.395001004 C3.41302755,0.219584935 3.8973023,0.216661334 4.19926185,0.395001004 L6.99950941,2.05560646 Z" id="Fill-65" fill="#E6E6E6"></path>
                                <path d="M12.1276942,5.28326212 L12.1248455,6.02878042 C12.1248455,6.14572446 12.05078,6.25974491 11.9026489,6.34745294 L11.9054976,5.60193465 C12.0536287,5.51422661 12.1276942,5.40020617 12.1276942,5.28326212" id="Fill-67" fill="#BFBFBF"></path>
                                <path d="M5.19715272,5.62912414 L5.19430404,6.37464243 C5.04332427,6.2840108 4.96641004,6.16999035 4.96641004,6.05304631 L4.96925872,5.30752801 C4.96925872,5.42154846 5.04617294,5.5384925 5.19715272,5.62912414" id="Fill-69" fill="#BFBFBF"></path>
                            </g>
                            <polygon id="Fill-72" fill="#979797" points="38.6847071 123.901317 38.6820084 124.589488 41.3618619 123.032333 41.3645607 122.341463"></polygon>
                            <polygon id="Fill-73" fill="#B9B9B9" points="35.083682 123.029634 37.7392469 124.562501 37.7419456 123.87433 35.0863808 122.341463"></polygon>
                            <g id="Group-82" transform="translate(35.083682, 119.642755)">
                                <path d="M4.2795645,4.36583608 L4.27671583,5.11135438 C3.97760495,5.28969405 3.50187622,5.28969405 3.19991667,5.11135438 L3.19991667,4.36583608 C3.50187622,4.54417575 3.98045363,4.54417575 4.2795645,4.36583608" id="Fill-74" fill="#BFBFBF"></path>
                                <path d="M7.1048804,2.03718777 C7.40683996,2.21552744 7.40399128,2.50204035 7.10772908,2.67745642 L4.27899477,4.36437428 C3.97988389,4.54563755 3.50415516,4.54563755 3.20219561,4.36437428 L0.399099372,2.70669243 C0.0971398187,2.52542916 0.0971398187,2.24183985 0.396250697,2.06350018 L3.22498501,0.376582317 C3.51839854,0.201166248 3.99982462,0.198242647 4.30463285,0.376582317 L7.1048804,2.03718777 Z" id="Fill-76" fill="#E6E6E6"></path>
                                <path d="M12.2330652,5.26484344 L12.2302165,6.01036173 C12.2302165,6.12730577 12.156151,6.24132622 12.0108685,6.32903425 L12.0108685,5.58351596 C12.1589997,5.49580793 12.2330652,5.38178748 12.2330652,5.26484344" id="Fill-78" fill="#BFBFBF"></path>
                                <path d="M5.30223884,5.61070545 L5.29939017,6.35622374 C5.14841039,6.26559211 5.07149616,6.15157166 5.07434484,6.03462762 L5.07434484,5.28910933 C5.07434484,5.40312977 5.15125907,5.52007382 5.30223884,5.61070545" id="Fill-80" fill="#BFBFBF"></path>
                            </g>
                            <polygon id="Fill-83" fill="#979797" points="44.0821967 126.600026 44.0794979 127.288197 46.7620502 125.731042 46.7620502 125.040172"></polygon>
                            <polygon id="Fill-84" fill="#B9B9B9" points="40.4811715 125.728343 43.1367364 127.261209 43.1367364 126.573039 40.4811715 125.040172"></polygon>
                            <g id="Group-93" transform="translate(39.581590, 122.341463)">
                                <path d="M4.70155073,4.26640666 L4.69862709,5.00045544 C4.39164487,5.17605142 3.90339697,5.17605142 3.59349111,5.00045544 L3.59349111,4.26640666 C3.90339697,4.44200264 4.39456851,4.44200264 4.70155073,4.26640666" id="Fill-85" fill="#BFBFBF"></path>
                                <path d="M7.60121705,1.97415943 C7.91112291,2.14975541 7.90527563,2.43186043 7.60414069,2.60457779 L4.700966,4.26554307 C4.39398379,4.44401768 3.90573588,4.44401768 3.59583002,4.26554307 L0.718968096,2.63336402 C0.409062238,2.45488941 0.409062238,2.17566301 0.716044456,2.00006703 L3.61921914,0.33910175 C3.92035408,0.16638439 4.41737291,0.163505768 4.72435513,0.33910175 L7.60121705,1.97415943 Z" id="Fill-87" fill="#E6E6E6"></path>
                                <path d="M6.85568881,6.12023966 L6.85276517,6.85428844 C6.69781224,6.76792976 6.61887395,6.65278485 6.62179759,6.53763994 L6.62179759,5.80359116 C6.62179759,5.91585745 6.70073588,6.03100235 6.85568881,6.12023966" id="Fill-89" fill="#BFBFBF"></path>
                                <path d="M17.6445058,7.8684272 L17.6415821,8.60247598 C17.6415821,8.71762089 17.5655675,8.8327658 17.4106145,8.9220031 L17.4135382,8.18795432 C17.5655675,8.09871702 17.6445058,7.98357211 17.6445058,7.8684272" id="Fill-91" fill="#BFBFBF"></path>
                            </g>
                            <polygon id="Fill-94" fill="#979797" points="53.9748954 131.992046 53.9748954 132.680217 56.6493515 131.12576 56.6520502 130.43759"></polygon>
                            <polygon id="Fill-95" fill="#B9B9B9" points="52.1757322 132.395852 52.1729235 133.136298 45.8786611 129.378897 45.8814698 128.638451"></polygon>
                            <g id="Group-104" transform="translate(24.288703, 121.441894)">
                                <path d="M30.032239,10.7444591 L30.0293154,11.4785079 C29.7223332,11.6541039 29.2340853,11.6541039 28.9241794,11.4785079 L28.9241794,10.7444591 C29.2340853,10.9200551 29.7252568,10.9200551 30.032239,10.7444591" id="Fill-96" fill="#BFBFBF"></path>
                                <path d="M32.9319053,8.45163615 C33.2418112,8.62723214 33.2388876,8.90933716 32.9289817,9.08493314 L30.0316543,10.7430198 C29.7246721,10.9214944 29.2364242,10.9214944 28.9265183,10.7430198 L22.3746407,7.02096069 C22.0647348,6.84248608 22.0618112,6.56325968 22.3687934,6.3876637 L25.2661208,4.72957704 C25.5760267,4.55398106 26.0701219,4.55110244 26.3800277,4.72669842 L32.9319053,8.45163615 Z" id="Fill-98" fill="#E6E6E6"></path>
                                <path d="M8.23036192,0.367312253 L8.22743828,1.10136103 C8.22743828,1.21650594 8.15142364,1.33165085 7.99939435,1.41800953 L7.99939435,0.683960746 C8.15434728,0.597602066 8.23036192,0.482457159 8.23036192,0.367312253" id="Fill-100" fill="#BFBFBF"></path>
                                <path d="M1.11509885,0.704111105 L1.11217521,1.43815989 C0.95722228,1.35180121 0.881207636,1.2366563 0.881207636,1.12151139 L0.884131276,0.387462611 C0.884131276,0.502607518 0.960145921,0.614873802 1.11509885,0.704111105" id="Fill-102" fill="#BFBFBF"></path>
                            </g>
                            <polygon id="Fill-105" fill="#B9B9B9" points="25.1882845 123.032333 27.8438494 124.565199 27.8438494 123.87433 25.1909833 122.341463"></polygon>
                            <polygon id="Fill-106" fill="#979797" points="28.7893096 123.893221 28.7866109 124.58409 31.4637657 123.029634 31.4637657 122.341463"></polygon>
                            <g id="Group-115" transform="translate(24.288703, 119.642755)">
                                <path d="M4.94960286,4.4023811 L4.94675418,5.14789939 C4.65334066,5.32331546 4.16621722,5.32331546 3.86425767,5.14497579 L3.86425767,4.3994575 C4.16621722,4.57779717 4.65618933,4.57779717 4.94960286,4.4023811" id="Fill-107" fill="#BFBFBF"></path>
                                <path d="M7.76893654,2.07110154 C8.07089609,2.24944121 8.07374477,2.53887773 7.77178522,2.720141 L4.94874826,4.40121166 C4.65533473,4.57662773 4.1682113,4.57662773 3.86625174,4.39828806 L1.06315551,2.74060621 C0.761195955,2.55934293 0.766893305,2.27283002 1.06030683,2.09741395 L3.88334379,0.413419692 C4.18245467,0.235080022 4.66672943,0.23215642 4.96584031,0.41049609 L7.76893654,2.07110154 Z" id="Fill-109" fill="#E6E6E6"></path>
                                <path d="M12.8965516,5.29758777 L12.8937029,6.04310606 C12.8937029,6.16005011 12.8196374,6.27699415 12.6686576,6.36762579 L12.6715063,5.6221075 C12.8196374,5.53147586 12.8965516,5.41453181 12.8965516,5.29758777" id="Fill-111" fill="#BFBFBF"></path>
                                <path d="M5.96657985,5.64432687 L5.96373117,6.38984516 C5.81275139,6.30213712 5.73868584,6.18519308 5.73868584,6.06824903 L5.74153452,5.32273074 C5.74153452,5.43967478 5.81560007,5.55369523 5.96657985,5.64432687" id="Fill-113" fill="#BFBFBF"></path>
                            </g>
                            <polygon id="Fill-116" fill="#979797" points="34.1841004 126.59193 34.1841004 127.282799 36.8585565 125.728343 36.8612552 125.040172"></polygon>
                            <polygon id="Fill-117" fill="#B9B9B9" points="29.6861925 125.731042 32.3417573 127.263908 32.3444561 126.573039 29.6888912 125.040172"></polygon>
                            <g id="Group-126" transform="translate(29.686192, 122.341463)">
                                <path d="M4.14912517,4.38103881 L4.1462765,5.1265571 C3.85286297,5.30197317 3.37143689,5.30489677 3.06947734,5.1265571 L3.07232601,4.38103881 C3.37143689,4.55937848 3.85571165,4.55645488 4.14912517,4.38103881" id="Fill-118" fill="#BFBFBF"></path>
                                <path d="M6.97444107,2.05268286 C7.27640063,2.23102253 7.27355195,2.51753544 6.9715924,2.69879871 L4.14855544,4.37986937 C3.85514191,4.55528544 3.37371583,4.55820904 3.07175628,4.37986937 L0.268660042,2.72218752 C-0.0332995119,2.54092425 -0.0276021618,2.25441133 0.265811367,2.07899527 L3.08884833,0.395001004 C3.38795921,0.216661334 3.87223396,0.213737733 4.17134484,0.392077403 L6.97444107,2.05268286 Z" id="Fill-120" fill="#E6E6E6"></path>
                                <path d="M12.102341,5.27916908 L12.0994923,6.02468737 C12.0994923,6.14163142 12.0254268,6.25857547 11.874447,6.3492071 L11.874447,5.60368881 C12.0254268,5.51305717 12.102341,5.39611313 12.102341,5.27916908" id="Fill-122" fill="#BFBFBF"></path>
                                <path d="M5.17208438,5.62590818 L5.1692357,6.37142647 C5.01825593,6.28371844 4.94419038,6.16677439 4.94419038,6.04983034 L4.94703905,5.30431205 C4.94703905,5.4212561 5.0211046,5.53527654 5.17208438,5.62590818" id="Fill-124" fill="#BFBFBF"></path>
                            </g>
                            <polygon id="Fill-127" fill="#979797" points="38.6847071 129.293337 38.6820084 129.981508 41.3564644 128.427052 41.3591632 127.738881"></polygon>
                            <polygon id="Fill-128" fill="#B9B9B9" points="35.083682 128.427052 37.7365481 129.959918 37.7392469 129.271747 35.083682 127.738881"></polygon>
                            <g id="Group-137" transform="translate(35.083682, 125.040172)">
                                <path d="M4.41503078,4.28195122 L4.41207501,5.016 C4.1076309,5.18871736 3.6081061,5.19159598 3.29479468,5.016 L3.29479468,4.28195122 C3.6081061,4.4575472 4.11058667,4.45466858 4.41503078,4.28195122" id="Fill-129" fill="#BFBFBF"></path>
                                <path d="M7.34656157,1.98912826 C7.65987298,2.16472425 7.65396145,2.44682927 7.3436058,2.62530387 L4.41443963,4.28339053 C4.10999552,4.45322927 3.60751494,4.45610789 3.29715929,4.28339053 L0.388683503,2.64833286 C0.0753720861,2.47273687 0.0812836222,2.18775323 0.385727735,2.01503587 L3.3148939,0.356949211 C3.62524955,0.181353228 4.12477436,0.178474605 4.43808577,0.354070588 L7.34656157,1.98912826 Z" id="Fill-131" fill="#E6E6E6"></path>
                                <path d="M6.59313628,6.13578422 L6.59018051,6.869833 C6.43352481,6.78347432 6.35667484,6.66832941 6.35667484,6.55318451 L6.3596306,5.81913572 C6.3596306,5.93140201 6.43648057,6.04654692 6.59313628,6.13578422" id="Fill-133" fill="#BFBFBF"></path>
                                <path d="M17.5002161,7.8836839 L17.4972603,8.61773268 C17.4972603,8.73287759 17.4174546,8.8480225 17.2637546,8.9372598 L17.2637546,8.20321102 C17.4204103,8.11397372 17.5002161,7.99882881 17.5002161,7.8836839" id="Fill-135" fill="#BFBFBF"></path>
                            </g>
                            <polygon id="Fill-138" fill="#979797" points="48.5801046 134.690755 48.5774059 135.378925 51.2545607 133.824469 51.2545607 133.136298"></polygon>
                            <polygon id="Fill-139" fill="#B9B9B9" points="47.6778243 135.094561 47.6750156 135.835007 41.3807531 132.077605 41.3835618 131.337159"></polygon>
                            <g id="Group-144" transform="translate(40.481172, 127.738881)">
                                <path d="M8.33237448,7.10437328 L8.32945084,7.84989157 C8.0283159,8.02530764 7.53422071,8.02823124 7.22431485,7.84989157 L7.22431485,7.10437328 C7.53422071,7.28271295 8.03123954,7.27978935 8.33237448,7.10437328" id="Fill-140" fill="#BFBFBF"></path>
                                <path d="M11.2320408,4.77630968 C11.5419467,4.95464935 11.539023,5.24116227 11.2291172,5.41950194 L8.33178975,7.1034962 C8.03065481,7.27891227 7.53655962,7.28475947 7.22665377,7.1034962 L0.674776151,3.32327991 C0.364870293,3.14201664 0.367793933,2.85550373 0.66892887,2.68008766 L3.56917992,0.9960934 C3.87616213,0.81775373 4.37025732,0.814830129 4.68016318,0.993169799 L11.2320408,4.77630968 Z" id="Fill-142" fill="#E6E6E6"></path>
                            </g>
                            <polygon id="Fill-145" fill="#081C01" points="51.4720365 113.345768 34.1841004 103.130067 34.8906683 99.8522238 52.1757322 110.067924"></polygon>
                            <polygon id="Fill-146" fill="#444444" points="81.1225426 116.044476 71.0669456 110.361264 71.8063277 107.04878 81.8619247 112.731993"></polygon>
                            <polygon id="Fill-147" fill="#444444" points="76.1454142 132.236729 66.5690377 126.778826 69.5868034 114.245337 79.1631799 119.70324"></polygon>
                        </g>
                        <path d="M121.318901,172.14256 C123.097744,171.141787 124.876586,170.141014 126.655167,169.140388 C127.003924,168.944508 126.999999,168.898223 126.999999,169.370292 C126.999737,172.35229 126.999999,175.333665 126.999476,178.315481 C126.999476,178.676378 126.998429,178.678946 126.709325,178.841925 C126.029079,179.226279 125.348834,179.607335 124.668849,179.990552 C124.322186,180.185914 124.360908,180.175346 124.360908,179.784429 C124.360123,177.977418 124.360384,176.169818 124.360384,174.362365 C124.360384,174.269667 124.355675,174.179618 124.360908,174.084966 C124.371373,173.900939 124.326634,173.822195 124.167822,173.936943 C124.126746,173.96665 124.084361,173.985217 124.0425,174.008768 C121.437159,175.474527 118.831557,176.954619 116.226216,178.401245 C114.523247,179.347126 113.28834,181.670865 112.96156,183.399243 C112.678212,184.898657 112.928594,186.924162 114.455223,187.263435 C114.839561,187.348724 115.254773,187.322626 115.682281,187.262889 C116.685905,187.122488 117.655517,187.097548 118.536173,187.355226 C119.390666,187.60519 120.105186,188.096538 120.519089,189.081291 C121.05596,190.358749 121.048373,191.985074 120.60726,193.8233 C119.823931,197.089154 118.217504,199.73902 115.950978,201.817768 C115.405997,202.317688 114.844009,202.701487 114.276004,203.020056 C111.994826,204.298824 109.71391,205.585031 107.432733,206.868087 C107.370202,206.903266 107.307149,206.934451 107.244619,206.97293 C107.151216,207.030096 107.112756,206.995653 107.115372,206.87971 C107.117727,206.773151 107.115372,206.668912 107.115372,206.563018 C107.11511,202.354463 107.115372,198.145943 107.114849,193.937535 C107.114849,193.429179 107.162204,193.419031 106.725277,193.665175 C105.909244,194.125593 105.092949,194.586158 104.276916,195.044597 C104.002463,195.199004 104.000108,195.197689 104.000108,194.856586 C103.999847,190.661226 104.000108,186.465902 104.00037,182.270577 C104.00037,182.191404 103.999847,182.112526 104.002986,182.031586 C104.006649,181.935838 104.047726,181.863575 104.122553,181.819828 C104.185344,181.783182 104.248136,181.746866 104.310928,181.711539 C106.026979,180.745763 107.742768,179.780464 109.458818,178.815017 C109.490214,178.797354 109.52161,178.779361 109.553006,178.763017 C109.788737,178.640292 109.793185,178.637789 109.79397,178.943153 C109.796063,179.852465 109.795278,180.763066 109.794232,181.674143 C109.793708,182.02016 109.792139,182.024672 109.524488,182.175911 C108.69799,182.642877 107.871491,183.106873 107.044731,183.572007 C106.971474,183.613221 106.898217,183.657075 106.824959,183.69499 C106.735219,183.741849 106.68891,183.814746 106.691788,183.930897 C106.693881,184.008892 106.691265,184.089537 106.691265,184.16871 L106.691265,189.868174 C106.69205,190.31176 106.669549,190.289121 106.970689,190.122999 C107.054411,190.076557 107.138134,190.029125 107.221856,189.982023 C107.964632,189.564139 108.70767,189.145778 109.450708,188.727746 C109.792923,188.535216 109.794232,188.53481 109.794232,188.959375 C109.794755,193.154588 109.794755,197.350095 109.794493,201.545749 C109.794493,202.194308 109.794232,202.194455 110.305986,201.906543 C111.394379,201.293886 112.482772,200.703001 113.570642,200.063587 C114.868864,199.299891 116.029468,198.118788 117.009545,196.470853 C117.481531,195.677825 117.827148,194.84505 117.987791,193.978448 C118.276633,192.419203 117.851741,191.315275 116.853873,191.002801 C116.40465,190.861978 115.912518,190.849539 115.403904,190.890248 C114.916481,190.928932 114.424088,190.986246 113.939021,191.016347 C112.597629,191.098701 111.519178,190.623405 110.883671,189.329853 C109.888943,187.304818 109.806528,184.743425 111.039343,181.541383 C112.069653,178.865628 113.583985,176.810899 115.545185,175.436694 C115.795568,175.261191 116.045166,175.108892 116.296595,174.967769 M120.601045,199.389663 C120.700841,199.219211 120.802755,199.050219 120.900168,198.878126 C122.672146,195.745839 123.528486,192.647607 123.540398,189.570537 C123.548869,187.309131 122.822237,185.837344 121.662007,184.838774 C120.486954,183.827007 119.046396,183.478495 117.313596,183.888459 C117.068209,183.946665 116.827851,183.978848 116.602581,183.954832 C116.005128,183.89072 115.723475,183.207617 115.925715,182.31291 C116.125572,181.429814 116.722496,180.609592 117.385862,180.342406 C120.615339,179.042373 123.068418,179.709189 124.807571,182.139726 C125.645647,183.310925 126.166069,184.822852 126.28466,186.704974 C126.454075,189.402713 126.121068,192.266157 124.949192,195.370946 C124.697981,196.037092 124.398328,196.684438 124.060821,197.316635 C123.96976,197.487473 123.877641,197.619148 123.733638,197.69917 C122.697823,198.275291 121.662007,198.86102 120.626192,199.443767" id="Combined-Shape-Copy" fill="#ED0000"></path>
                        <polygon id="Rectangle-13-Copy" fill="url(#linearGradient-6)" points="147.796762 220 208 253.80582 134.203238 297 74 263.19418"></polygon>
                    </g>
                    <g id="Group-11" transform="translate(299.000000, 73.000000)">
                        <path d="M85.877708,177.914165 C63.2238263,173.589847 39.0953211,176.84024 31.9875979,185.167243 C24.8723989,193.502423 37.4637033,203.761945 60.1213229,208.080811 C82.7677287,212.41058 106.90371,209.168364 114.015171,200.829096 C121.124763,192.495278 108.53159,182.242571 85.877708,177.914165" id="Fill-1-Copy-4" fill="#4A4A4A" opacity="0.132925725"></path>
                        <g id="Page-1-Copy-5" transform="translate(58.000000, 102.000000) scale(-1, 1) translate(-58.000000, -102.000000) ">
                            <path d="M60.2823702,189.306128 C60.2823702,189.306128 72.6757626,185.618037 75.3341918,187.001337 C77.9926211,188.383573 75.9548328,193.732689 70.1952437,197.14412 C64.4356546,200.555552 61.322225,202.676257 58.2711662,203.506238 C55.2211299,204.336218 50.4359574,204.428793 49.7273837,201.294021 C49.0188101,198.158186 49.3725857,194.37752 50.1701144,192.994219 C50.9676432,191.611983 60.2823702,189.306128 60.2823702,189.306128" id="Fill-5" fill="#4A4A4A"></path>
                            <path d="M59.2149533,187.927273 L59.2149533,192.230538 C59.2149533,192.230538 58.6850722,195.070574 54.4480198,195.328849 C50.2109674,195.587125 49.3457944,192.747089 49.3457944,192.747089 L49.3457944,189.410369 L55.7452803,188.44283 L59.2149533,187.927273 Z" id="Fill-7" fill="#E8C8A1"></path>
                            <g id="Group-85" transform="translate(29.852414, 147.110503) rotate(20.000000) translate(-29.852414, -147.110503) translate(16.852414, 96.610503)">
                                <path d="M11.1761121,87.551313 C11.1761121,87.551313 22.442925,84.3895372 24.8595505,85.5750752 C27.2761761,86.7606133 25.4235688,91.3452394 20.1878943,94.2686801 C14.9522198,97.1931437 12.1217029,99.0108323 9.34852601,99.7227689 C6.57430661,100.433683 2.22479765,100.512446 1.58050318,97.8252942 C0.936208708,95.1381428 1.25835594,91.8976039 1.98292659,90.7120659 C2.70853978,89.5265278 11.1761121,87.551313 11.1761121,87.551313" id="Fill-1" fill="#4A4A4A"></path>
                                <path d="M12.3364486,86.5454545 L12.3364486,89.1076815 C12.3364486,89.1076815 11.3611311,92.7517852 7.24898155,92.7271484 C2.57483825,92.6992981 2.46728972,90.2195509 2.46728972,90.2195509 L2.60541577,86.6547134" id="Fill-3" fill="#E8C8A1"></path>
                                <path d="M0.908173438,4.95233718 C-0.292003313,10.6382361 3.09636398,17.2146109 3.27732651,19.7062999 C3.45724902,22.1990161 1.60186312,40.7192706 0.521288038,53.8843451 C-0.560327058,67.0483925 0.376726021,88.1507189 0.376726021,88.1507189 C0.376726021,88.1507189 2.29971286,90.9104751 6.57625255,90.1083279 C10.8527922,89.3072077 13.2812261,87.2612701 13.2812261,87.2612701 C13.2812261,87.2612701 16.2556677,42.8473744 17.1563202,37.6852848 C18.0580128,32.5231953 19.6149145,11.8738099 19.7376363,8.67035634 C19.860358,5.46587574 3.37092781,-6.7132047 0.908173438,4.95233718" id="Fill-9" fill="#8D8D8D"></path>
                            </g>
                            <path d="M69.0608653,103.475216 C69.3797496,122.788548 66.3186683,143.225654 65.9592743,145.535749 C65.5988416,147.845843 62.068263,189.784359 62.068263,189.784359 C62.068263,189.784359 58.3984971,197.960432 46.8760761,191.82889 C46.8760761,191.82889 48.069555,153.418574 48.2835295,146.900478 C48.4964653,140.382382 49.5652989,126.875559 49.1207306,120.12266 C48.6761623,113.369761 44.8256606,111.592845 44.411215,102.708261 C44.411215,102.708261 45.9152685,94.5332135 56.7469466,95.2437751 C67.5796635,95.9553621 69.0608653,103.475216 69.0608653,103.475216" id="Fill-11" fill="#9B9B9B"></path>
                            <path d="M72.5630366,51.5652088 C73.8297835,43.8510149 69.6648425,39.5952966 60.3460807,34.1160465 C56.4957832,31.8513854 42.1539616,21.9944737 35.1163657,30.7856626 C28.0777482,39.5768514 35.514778,59.2906747 35.1163657,70.47974 C34.7179534,81.6688052 32.9915,96.3214697 32.9915,96.3214697 C32.9915,96.3214697 36.5772108,103.64729 49.5899699,104.846228 C62.6037504,106.045166 70.8365833,102.448351 70.8365833,102.448351 C70.8365833,102.448351 68.8445217,74.20977 72.5630366,51.5652088" id="Fill-13" fill="#58ACC6"></path>
                            <path d="M71.9687347,72.9454545 C71.9687347,72.9454545 67.7017797,77.7530281 57.9813084,78.8203505 L57.9813084,84.0727273 C57.9813084,84.0727273 65.0137253,83.3844635 71.7619613,80.8676783 C71.7619613,80.8676783 72.5222513,78.9148583 72.7512926,76.1525581 C72.9803339,73.3902578 71.9687347,72.9454545 71.9687347,72.9454545" id="Fill-15" fill="#3A4D57"></path>
                            <path d="M55.9220182,43.3753881 C56.2480958,44.0258315 56.5083309,44.9697306 56.7476636,46.1647312 C51.314081,41.5924675 48.3145845,61.0765229 45.3150881,61.7481435 C42.336494,62.3985868 30.795226,58.4555892 27.8385795,52.5410928 C25.6218784,44.5653465 29.2296351,38.8031244 31.055461,35.6567938 C33.0767245,32.1756614 53.3353444,38.1325123 55.9220182,43.3753881" id="Fill-17" fill="#4A4A4A"></path>
                            <path d="M57.9539026,80.8581794 C58.0409317,87.1147123 58.325087,96.3066487 51.2369334,96.4345419 C44.1498283,96.562435 29.1462203,89.9232459 28.3388418,86.9868191 C27.7935993,85.0500053 26.5951141,67.3669869 27.4234634,52.9181304 C30.3887443,58.918877 41.968858,62.9193747 44.9561582,62.2604692 C47.9665264,61.5790545 50.9758461,41.8108661 56.4272234,46.4498065 C58.1059414,54.9828374 57.8668735,75.3894683 57.9539026,80.8581794" id="Fill-19" fill="#717171"></path>
                            <path d="M56.6807569,48.2181818 C56.6807569,48.2181818 59.3427655,41.0930062 63.144593,40.4379335 C66.9474624,39.7828608 70.2752336,40.9519136 70.2752336,40.9519136 C70.2752336,40.9519136 70.6711488,39.8483681 69.0468547,38.6037299 C67.4215188,37.3590917 63.4988329,35.9673142 63.4988329,35.9673142 C63.4988329,35.9673142 57.7382672,34.6803482 51.8130841,40.8017508 C51.8130841,40.8017508 54.4011191,41.8589374 55.2200383,43.5601109 C56.0389576,45.2612843 56.6807569,48.2181818 56.6807569,48.2181818" id="Fill-21" fill="#3A4D57"></path>
                            <path d="M40.612581,35.8545455 C40.612581,35.8545455 41.4498598,28.2110305 44.411215,26.5961882 C44.411215,26.5961882 43.639744,25.9636364 42.511898,25.9636364 C41.3840519,25.9636364 38.4976166,27.5979086 38.4976166,27.5979086 C38.4976166,27.5979086 35.8592263,29.3433631 34.5420561,34.7038624 C34.5420561,34.7038624 39.4108276,35.4896947 40.612581,35.8545455" id="Fill-23" fill="#3A4D57"></path>
                            <path d="M46.3176334,25.8550155 C46.3176334,25.8550155 46.2264024,29.1680841 46.3176334,29.8852611 C46.4088645,30.6014048 49.952195,32.9296467 53.4965742,33.2882352 C57.0409533,33.6457903 58.8980822,32.8635093 58.8980822,32.8635093 L58.8980822,28.362035 C58.8980822,28.362035 64.219894,28.5883488 64.9465966,27.2221988 C65.6732992,25.8550155 67.036522,19.0490674 66.4912329,17.6157468 C65.9459438,16.1834595 65.4006547,14.9299497 65.4006547,14.1239006 C65.4006547,13.3178515 65.9459438,10.7209266 65.7645303,9.64619442 C65.5831168,8.57146225 64.128663,5.70585429 64.128663,5.70585429 C64.128663,5.70585429 66.5489077,2.75034084 59.886943,0.780687476 C53.2239296,-1.18999929 44.4091216,0.959465038 43.3185434,2.9301518 C42.2279652,4.89980517 42.325488,6.33312585 42.325488,6.33312585 C42.325488,6.33312585 38.7318231,9.37751138 39.6168693,12.4218969 C40.5019154,15.4673158 45.1368728,23.8853622 45.1368728,23.8853622 L46.3176334,25.8550155 Z" id="Fill-25" fill="#EED7BA"></path>
                            <path d="M59.5548686,0.783528988 C53.0002508,-1.19443362 44.3298758,0.963060746 43.2570394,2.94206111 C42.184203,4.92002371 42.2801393,6.35939104 42.2801393,6.35939104 C42.2801393,6.35939104 38.7439054,9.41661971 39.6145534,12.4748861 C40.4852015,15.5321148 45.0447562,23.9856738 45.0447562,23.9856738 L46.2063079,25.9636364 C46.2063079,25.9636364 53.4479537,24.7951233 54.252581,23.8051042 C55.0572083,22.8161229 56.576716,18.6796282 57.4504588,19.0397295 C58.3252331,19.398793 58.4541797,22.3667747 58.4541797,22.3667747 L59.5435213,22.3667747 C59.5435213,22.3667747 59.7054784,18.85916 59.5548686,18.0497104 C59.4042589,17.2402609 60.8670301,15.8019313 61.0465239,14.6323805 C61.2249861,13.4638674 60.5101057,10.2260693 60.4740006,9.50690447 C60.4389271,8.78773968 63.7275833,5.72947326 63.7275833,5.72947326 C63.7275833,5.72947326 66.1094865,2.76252935 59.5548686,0.783528988" id="Fill-27" fill="#393939"></path>
                            <g id="Group-45" transform="translate(85.634676, 56.420076) rotate(-23.000000) translate(-85.634676, -56.420076) translate(65.134676, 29.420076)">
                                <g id="Group-74" transform="translate(1.000000, 0.000000)">
                                    <path d="M12.0190238,37.9833308 C12.5191416,29.5252794 10.3860483,14.6081451 10.3860483,14.6081451 C10.3860483,14.6081451 2.52184875,9.05165511 -4.26325641e-13,18.5957195 C-4.26325641e-13,18.5957195 0.890897994,33.4444598 1.16120454,39.7284127 C1.1598547,39.7332487 1.16997854,39.9684824 1.19157607,40.4341139 C1.22194759,41.2133904 1.2401705,41.8227183 1.2401705,42.1688331 C1.2401705,42.3729787 1.27155441,42.5605439 1.32014884,42.7398189 C1.41328818,43.003032 1.47808076,43.1418924 1.55907149,43.2714264 C4.69037546,49.7709239 12.8815751,38.8890325 12.0190238,37.9833308 Z" id="Fill-29" fill="#EED7BA"></path>
                                    <rect id="Rectangle-15" fill="#4A4A4A" transform="translate(28.796126, 13.194824) rotate(32.000000) translate(-28.796126, -13.194824) " x="22.8248777" y="2.33815364" width="11.9424966" height="21.7133403" rx="1.8"></rect>
                                    <rect id="Rectangle-15" fill="#FFFFFF" transform="translate(28.629884, 13.052237) rotate(32.000000) translate(-28.629884, -13.052237) " x="23.988598" y="3.11364766" width="9.28257259" height="19.8771795" rx="1.8"></rect>
                                    <path d="M27.4278993,32.7087311 L18.7740401,10.4237035 C11.3860214,2.98123455 5.79628854,11.3169699 5.84488298,11.4962449 C5.85905635,11.5490948 5.8752545,11.5853643 5.88841549,11.6123074 C5.93802231,11.759458 6.00281489,11.8983184 6.08380562,12.0278524 C9.21510959,18.5273499 20.7745111,36.0061483 20.9223191,36.8248031 C20.9223191,36.8248031 20.3533593,39.7999398 21.3222108,40.8776626 C22.29005,41.9543491 23.3429295,42.1274066 23.5119976,42.9460614 C23.7013134,43.7439907 23.5960255,46.8901123 23.7853413,47.7098034 C23.9544095,48.5066965 27.2811036,51.7398649 28.5232988,50.8341632 C28.5232988,50.8341632 29.5751659,47.8818245 29.8282619,47.0621334 C30.102618,46.2652403 30.6280453,42.1274066 30.3547016,41.2652283 C30.102618,40.4030501 27.4278993,32.7087311 27.4278993,32.7087311 Z" id="Fill-29-Copy-3" fill="#EED7BA" transform="translate(18.137922, 29.165337) scale(-1, 1) rotate(163.000000) translate(-18.137922, -29.165337) "></path>
                                </g>
                                <path d="M14.8037383,27.9038254 C14.7354337,22.2762499 14.5010965,14.5254155 13.7434413,11.9877349 C12.507654,7.8476933 3.74890672,4.74944731 0.951571962,14.2581814 C-0.479671444,19.1226781 -0.140250284,26.2106465 0.940012728,32.3612076 C0.995707221,32.3726903 11.8803028,34.605557 14.8037383,27.9038254" id="Fill-31" fill="#58ACC6"></path>
                            </g>
                        </g>
                    </g>
                    <g id="Group-114" transform="translate(125.000000, 70.000000)">
                        <polygon id="Rectangle-18-Copy" fill="url(#linearGradient-7)" opacity="0.821897645" points="103 245.653669 99.6144894 250 32 207.346331 35.3855106 203"></polygon>
                        <g id="Group-40-Copy">
                            <g id="Group-37" transform="translate(30.585774, 69.266858)" fill="#58ACC6">
                                <rect id="Rectangle-18" x="0" y="0" width="7.19665272" height="135.835007"></rect>
                                <ellipse id="Oval-3" cx="3.59832636" cy="135.835007" rx="3.59832636" ry="3.59827834"></ellipse>
                            </g>
                            <g id="Family-circle-Brand">
                                <path d="M38.9309623,73.1305581 C58.0587323,81.7399563 73.5648536,73.0945047 73.5648536,53.8204016 C73.5648536,34.5462986 58.0587323,11.9422547 38.9309623,3.33285653 C19.8031924,-5.27654162 4.29707113,3.36890992 4.29707113,22.643013 C4.29707113,41.9171161 19.8031924,64.52116 38.9309623,73.1305581 Z" id="Oval-2-Copy-2" fill="#E3E3E3"></path>
                                <rect id="Rectangle-17" fill="#E3E3E3" x="20.6903766" y="0" width="7.19665272" height="3.59827834"></rect>
                                <rect id="Rectangle-17-Copy" fill="#E3E3E3" x="48.5774059" y="72.8651363" width="7.19665272" height="3.59827834"></rect>
                                <path d="M34.6338912,73.1305581 C53.7616612,81.7399563 69.2677824,73.0945047 69.2677824,53.8204016 C69.2677824,34.5462986 53.7616612,11.9422547 34.6338912,3.33285653 C15.5061213,-5.27654162 0,3.36890992 0,22.643013 C0,41.9171161 15.5061213,64.52116 34.6338912,73.1305581 Z" id="Oval-2-Copy" fill="#FFFFFF"></path>
                                <g id="Group-36" transform="translate(17.092050, 6.296987)">
                                    <path d="M24.5216115,55.8201482 C24.3013418,55.9744099 24.0876675,56.1234064 23.8746949,56.2732618 C23.6912381,56.402357 23.4930936,56.513991 23.3303587,56.6679786 C23.1927428,56.7982675 23.1266011,56.6886191 23.0122329,56.4699308 C22.6739933,55.8228095 22.3224224,55.1774887 21.9752017,54.5315746 C21.9296883,54.4468103 21.8791231,54.362873 21.8264998,54.2708782 C21.751377,54.3143413 21.7843543,54.4197086 21.7842139,54.4976512 C21.781267,55.5499999 21.778133,56.6022864 21.7855237,57.6605811 C21.7867399,57.8359455 21.7450622,57.8813931 21.5536534,57.7589164 C21.3053647,57.6000362 21.0543629,57.455892 20.8060741,57.3290587 C20.6079764,57.2279078 20.5992292,57.1248239 20.5996034,56.9766855 C20.6032987,55.4849414 20.6018019,53.9901653 20.6017551,52.4962687 C20.6017551,52.3066729 20.6054972,52.1191839 20.6002115,51.9266843 C20.5972646,51.8176958 20.6411876,51.8000786 20.7503167,51.8638037 C21.0619874,52.0458934 21.3737517,52.2261251 21.6853756,52.4011321 C21.7991824,52.4650896 21.8468007,52.5693641 21.905084,52.6728538 C22.2819141,53.3421716 22.6644509,54.0104929 23.0329548,54.6813947 C23.1549475,54.903558 23.2229603,54.9059421 23.3261956,54.8389089 C23.6743519,54.6129015 24.0385991,54.4083946 24.3793179,54.1726468 C24.5120692,54.0808932 24.6526788,54.0874332 24.8704226,54.2296094 C25.1027139,54.3812912 25.3377181,54.5068109 25.5713191,54.6353474 C25.698925,54.7055575 25.7496773,54.7748535 25.7493966,54.9068402 C25.7459352,56.6034732 25.7461691,58.3022773 25.7494902,60.0028116 C25.7497708,60.13371 25.7012638,60.1466876 25.5717401,60.0686828 C25.3147977,59.9138838 25.0567795,59.7592399 24.8005856,59.6268582 C24.6024878,59.5244328 24.5692766,59.4179751 24.5701186,59.2517152 C24.5754511,58.2007842 24.5732526,57.1454304 24.5713815,56.0903106 C24.571288,56.018834 24.5990731,55.9568376 24.5216115,55.8201482 Z M8.40195793,46.8406059 C8.76649286,46.7811429 9.13518389,46.9061645 9.54114115,47.1840727 C9.77877692,47.3468285 10.0018664,47.5432147 10.1682946,47.8006509 C10.3099247,48.0196628 10.3898601,48.0255995 10.5223007,47.9975348 C10.917406,47.9137037 11.7017056,48.3280543 12.1418352,48.8286876 C12.5474692,49.2900508 12.700644,49.7463463 12.7071552,50.1802555 C12.7196235,51.0137206 12.709418,51.8344171 12.713805,52.6633705 C12.7144515,52.7937835 12.6661485,52.8083617 12.5374484,52.7304226 C12.2914543,52.58156 12.0447675,52.4381686 11.7988657,52.3058305 C11.6522944,52.2269854 11.616552,52.146548 11.6176603,52.0136408 C11.6228324,51.4024921 11.6206158,50.787048 11.6190457,50.1719759 C11.6187686,50.0659363 11.6083784,49.9541252 11.6032987,49.8452778 C11.593555,49.635648 11.5203156,49.4182986 11.3155129,49.2290181 C11.0994887,49.0293701 10.8905761,48.9575746 10.7039679,48.982648 C10.6110101,48.9951109 10.6053301,49.0870769 10.6056072,49.189704 C10.6075929,49.9187216 10.601174,50.642996 10.6101327,51.3758878 C10.6123954,51.5607394 10.5653855,51.6120524 10.3666784,51.4834268 C10.1524091,51.3447127 9.93555373,51.2231209 9.72073025,51.1111609 C9.55638013,51.0255023 9.50835425,50.9362707 9.51015522,50.7805565 C9.51712821,50.1628905 9.51375716,49.5391838 9.51283358,48.9168849 C9.51269505,48.8184326 9.5123718,48.718964 9.49999589,48.6144285 C9.45820414,48.2619208 9.27722968,48.007311 8.96016648,47.8478288 C8.64942977,47.6914849 8.48184714,47.7756868 8.48180096,48.0882504 C8.4817086,48.7781706 8.4751974,49.4645353 8.48581851,50.1604357 C8.48882013,50.3557679 8.42232275,50.3772622 8.2341444,50.2563307 C8.0350217,50.1283761 7.83308209,50.0095395 7.63446735,49.9121806 C7.44125552,49.8174744 7.40417399,49.7153819 7.40509757,49.5456494 C7.41091609,48.4420539 7.41345592,47.3364361 7.40301953,46.2234456 C7.40103384,46.0140465 7.47136405,45.9958032 7.66803929,46.1282651 C7.81280962,46.2257762 7.96081247,46.3073557 8.10627549,46.3806948 C8.29265286,46.4746095 8.45007617,46.5732103 8.40195793,46.8406059 Z M0.00338878079,42.8002828 C0.00324898428,41.9655412 0.0065109028,41.1327107 0.000313257619,40.2944847 C-0.000851713273,40.1406294 0.0369865415,40.1024493 0.206652903,40.2011316 C1.24683212,40.80612 2.28701133,41.4038205 3.32719055,41.9961915 C3.48749054,42.0874367 3.54900101,42.1665901 3.53963464,42.3231791 C3.52691316,42.5352316 3.52593458,42.7557236 3.53828327,42.982196 C3.54723025,43.1453101 3.4971831,43.1657636 3.33185043,43.0683897 C2.67988612,42.6845091 2.02768881,42.3197622 1.3757711,41.9364551 C1.20913366,41.8385129 1.13448232,41.8302384 1.1515375,42.0189693 C1.16798689,42.2014302 1.16421238,42.3755839 1.15228308,42.5424507 C1.14133235,42.6954865 1.1994411,42.7789692 1.36290982,42.8708982 C1.98379271,43.2199566 2.60514159,43.5924681 3.22574488,43.9337588 C3.45762069,44.0612537 3.52313865,44.174324 3.50356714,44.3772437 C3.48571979,44.5627073 3.48972729,44.7642032 3.50319435,44.9683615 C3.51465766,45.1412131 3.44587778,45.1395954 3.28823392,45.0470539 C2.66730443,44.6824816 2.04590896,44.3408719 1.42539886,43.9663831 C1.19016793,43.8243866 1.14422148,43.8750755 1.14892796,44.0891353 C1.16281442,44.7266258 1.14920756,45.3488037 1.15782834,45.9834932 C1.16001849,46.1454084 1.10917916,46.167456 0.946409423,46.0656347 C0.706425418,45.9155749 0.464717256,45.7760932 0.224873048,45.6513941 C0.0492886342,45.5601488 -0.00150409698,45.470762 3.36646074e-05,45.3023365 C0.00767587369,44.472071 0.00352857729,43.6350244 0.00338878079,42.8002828 Z M18.5178995,54.2900547 C18.682874,53.9158928 18.8490747,53.5492479 19.0079643,53.1758834 C19.1973694,52.7310149 19.1946448,52.7285334 19.7731683,53.0608784 C20.3624539,53.3994136 20.3575951,53.3947902 20.1514336,53.8390269 C19.6610964,54.89553 19.1727572,55.9539595 18.692501,57.0199641 C18.6331955,57.1515296 18.5521841,57.1632676 18.3817149,57.0548849 C18.1481712,56.9065197 17.9129474,56.7745147 17.6789042,56.6489949 C17.4946304,56.5502271 17.4252893,56.4716213 17.5126128,56.322341 C17.6491607,56.0886822 17.7606422,55.8295881 17.8895158,55.587995 C17.9358795,55.5011025 17.9327008,55.4012578 17.8849294,55.2589862 C17.4592106,53.9925371 17.0427555,52.7274847 16.6146753,51.460729 C16.5417469,51.2447844 16.5639524,51.2031539 16.7564908,51.3230876 C17.0054284,51.4781584 17.2563187,51.6273577 17.5045298,51.7522034 C17.6815834,51.8413323 17.7620499,51.9603503 17.8181313,52.1480438 C18.0059017,52.7763923 18.2006198,53.4061769 18.3957466,54.0360137 C18.4188149,54.1105425 18.4333461,54.190127 18.5178995,54.2900547 Z M33.0918233,61.8585763 C33.098061,61.7073519 33.0386386,61.6163204 32.8875735,61.5469415 C32.8259937,61.5186285 32.7621158,61.4697176 32.7004891,61.4411918 C32.5598827,61.3761564 32.5041185,61.2918274 32.51045,61.1508756 C32.5199238,60.9402936 32.520299,60.7232706 32.5093713,60.5010469 C32.5012576,60.3370623 32.5704821,60.3431111 32.716951,60.4279612 C33.0883058,60.6431371 33.1207606,60.6519575 33.0817867,60.2737462 C33.0295869,59.7672085 33.1552791,59.5596532 33.6636289,59.7040627 C34.1658818,59.8466838 34.1505455,59.7863514 34.1505924,60.31575 C34.1505924,60.5631802 34.1584716,60.8154211 34.1480598,61.056491 C34.1418689,61.2011003 34.1841259,61.2876465 34.3429764,61.3688888 C34.5295918,61.4643359 34.7176611,61.5856549 34.9048862,61.6883734 C35.0147262,61.7486252 35.0622828,61.8189901 35.0604068,61.9265072 C35.0561858,62.1636134 35.0505109,62.4000226 35.0560451,62.642554 C35.0590467,62.7725708 34.9995305,62.7669038 34.8856103,62.6979417 C34.6984321,62.5846599 34.5106911,62.4873113 34.3236067,62.3716682 C34.1914423,62.2899364 34.1462776,62.3110106 34.1487633,62.4441213 C34.1558921,62.8269613 34.1458086,63.2002262 34.1532188,63.5832281 C34.1619422,64.0309911 34.4620088,64.4169677 34.874448,64.4880497 C35.0821685,64.5238269 35.0892504,64.5958078 35.0819809,64.7593049 C35.0722725,64.9775554 35.0746175,65.2035747 35.0813712,65.431526 C35.0850294,65.5556499 35.0400522,65.5933676 34.9175492,65.5457586 C34.5375648,65.3981714 34.1562673,65.2133205 33.78843,64.857014 C33.2732796,64.3579618 33.1279832,63.8335953 33.0931834,63.3204836 C33.0763463,63.0722406 33.0902287,62.8395303 33.0902287,62.5998569 C33.08915,62.3518062 33.0818336,62.0998891 33.0918233,61.8585763 Z M16.2502407,52.1658195 C16.2505805,52.9933271 16.2461153,53.8181621 16.2543176,54.6501466 C16.2560163,54.817169 16.2140829,54.8605426 16.025771,54.7391585 C15.8085329,54.5991327 15.5882857,54.4721316 15.3710961,54.3624645 C15.1765234,54.2642578 15.1268246,54.1709571 15.1278438,53.9929739 C15.135318,52.6613956 15.1317265,51.3234524 15.1315324,49.9874633 C15.1314839,49.6534319 15.1376477,49.322837 15.1280865,48.9836073 C15.123864,48.8348529 15.1701169,48.8022524 15.3325602,48.9026092 C15.5666881,49.0472946 15.8021264,49.1838076 16.0360117,49.3066755 C16.2082103,49.3971592 16.2546088,49.4840531 16.2532498,49.6400263 C16.2461639,50.4783826 16.249901,51.3231009 16.2502407,52.1658195 Z M30.9783057,59.842931 C31.2886426,59.722778 31.6377199,59.8426275 32.0317876,60.1212714 C32.2435961,60.2710489 32.3635857,60.413169 32.3461227,60.6473821 C32.325213,60.9283186 32.3411595,61.2330942 32.3411595,61.5676168 C32.1131747,61.299789 31.9000794,61.1224605 31.6653851,61.0003505 C31.2227885,60.7700842 30.9971934,60.8606402 30.9973312,61.290833 C30.9974691,61.9123897 30.993471,62.531522 31.0000426,63.1566427 C31.0015591,63.3032684 30.961486,63.3383474 30.8067082,63.2419023 C30.5700378,63.0943483 30.3323564,62.9612797 30.0953183,62.8308116 C29.9772129,62.7657928 29.9335093,62.6990959 29.933785,62.5806763 C29.9367721,61.4228768 29.9373236,60.2637219 29.9338769,59.1023128 C29.9335553,58.9696661 29.9865418,58.9615426 30.1116325,59.0386817 C30.2872741,59.1470362 30.4640646,59.2520004 30.6392926,59.3416362 C30.8478842,59.4483227 31.0137373,59.5631097 30.9783057,59.842931 Z M14.4804176,51.9290801 C14.4804176,52.4945973 14.4747212,53.0568379 14.48396,53.6275313 C14.4866406,53.7934052 14.4486804,53.8441381 14.2608416,53.7244307 C14.0228838,53.5728186 13.7830592,53.4418109 13.5443355,53.3110691 C13.4100145,53.2374843 13.35822,53.1546457 13.3583636,53.0293895 C13.3598476,51.8687122 13.3603263,50.7074567 13.3575498,49.544329 C13.3572148,49.3996453 13.4273431,49.4025961 13.5645363,49.4855948 C13.80326,49.6299774 14.0426538,49.769923 14.2811382,49.8972663 C14.4388193,49.9814398 14.4858269,50.0627652 14.4837206,50.2116479 C14.4755829,50.7800166 14.4804176,51.3559388 14.4804176,51.9290801 Z M14.6450232,49.0684866 C14.6451683,49.4700809 14.313273,49.6009446 13.9051178,49.3603412 C13.5204792,49.1335992 13.2031004,48.6373263 13.1967131,48.2526288 C13.1900355,47.8527818 13.5227535,47.7054462 13.9234569,47.930802 C14.2974984,48.141253 14.644878,48.6889112 14.6450232,49.0684866 Z M6.70052293,48.5118487 C6.7004776,48.7951053 6.72536706,49.086441 6.92017581,49.4857937 C6.54325238,49.2689941 6.21343305,49.0803629 5.88361371,48.8880393 C5.8492037,48.8679668 5.78931485,48.8183298 5.78455457,48.7961485 C5.71886272,48.488495 5.58498554,48.5591385 5.45564196,48.5398004 C4.84147529,48.4479517 4.10290666,47.8482443 3.77036717,47.1766408 C3.20380329,46.0323704 3.74425364,45.1708366 4.74196279,45.6379034 C4.99643371,45.7570219 5.25425949,45.8938211 5.50741566,46.1065954 C5.55048485,46.142819 5.60126116,46.1981515 5.63580719,46.1794624 C5.67783365,46.1567097 5.6423809,46.0783153 5.62542524,46.0214034 C5.54649528,45.7567535 5.36093507,45.5800082 5.16259011,45.4341881 C4.80765464,45.1732949 4.47411775,45.073619 4.15114416,45.033628 C4.09089262,45.0261743 4.0416124,45.0584959 3.94608947,44.9791552 C3.94608947,44.6971812 3.94699619,44.4111483 3.94559077,44.1237856 C3.94513741,44.0254205 4.0035755,44.027204 4.0830495,44.047537 C4.62513194,44.1860731 5.17120395,44.4339822 5.73323423,44.891719 C6.32885848,45.376911 6.69299716,46.0593985 6.6988455,46.7356113 C6.70396847,47.3302687 6.7006136,47.9201433 6.70052293,48.5118487 Z M29.3852874,61.5582728 C29.3853784,61.8406591 29.4124663,62.1320379 29.6119151,62.5307251 C29.2335952,62.3131222 28.9022125,62.1222834 28.5708297,61.9321447 C28.5227999,61.9045655 28.4685331,61.8655563 28.4556948,61.8099492 C28.4030669,61.582353 28.3099665,61.5882764 28.1811283,61.5797128 C27.4909108,61.533902 26.5774799,60.7294 26.3359197,59.9295791 C26.0283925,58.9110149 26.4020688,58.1874947 27.5007899,58.7176457 C27.7408022,58.8334758 27.9852761,58.9655967 28.221965,59.1774078 C28.3422444,59.2850098 28.3567216,59.2286353 28.3259916,59.1175956 C28.2747295,58.9322854 28.1750734,58.7685295 28.0182368,58.6239819 C27.5920237,58.2311292 27.1914417,58.1116851 26.8111186,58.0777449 C26.6169508,58.0604077 26.614538,57.9844217 26.6192727,57.8309931 C26.6252365,57.6403655 26.6301533,57.4481554 26.6179069,57.2477071 C26.6081188,57.0874658 26.6681674,57.060991 26.8098439,57.101027 C27.3190507,57.2449041 27.8268916,57.4721637 28.3546274,57.889239 C28.9860711,58.388326 29.3797332,59.0770473 29.3841947,59.7394663 C29.3883376,60.3478774 29.3851053,60.9521398 29.3852874,61.5582728 Z" id="Combined-Shape" fill="#0072CB"></path>
                                    <path d="M5.48326907,47.6023958 C5.24076686,47.5551748 4.99835531,47.4608468 4.7757556,47.1689458 C4.50713985,46.8167385 4.55750814,46.4448791 4.86452347,46.4557338 C5.09197414,46.4637771 5.32744927,46.6097811 5.56242571,46.8382724 C5.74893798,47.0196783 5.63142709,47.1213287 5.66497572,47.2353644" id="Fill-24" fill="#FFFFFF"></path>
                                    <path d="M27.5108443,60.3882062 C27.2342747,60.0569643 27.2641396,59.6406046 27.5552775,59.6466349 C27.6817484,59.6492153 27.8191454,59.6912247 27.9681516,59.7821588 C28.320977,59.9976085 28.3813443,60.0909635 28.3809801,60.4464257 C28.3797509,60.6187696 28.4287822,60.8344005 28.2055234,60.7948689" id="Fill-26" fill="#FFFFFF"></path>
                                    <path d="M0.597617,34.4510206 C0.29125571,34.2632345 0.292074007,34.2638579 0.292074007,33.8515031 C0.292483156,28.9683125 0.294847125,24.0862593 0.287573374,19.1983595 C0.287164225,18.9020465 0.343444872,18.8670365 0.561748317,19.0009689 C11.8661117,25.9377882 23.170475,32.8660181 34.4747929,39.7955603 C34.8527098,40.0272678 34.7925649,39.9570794 34.7926559,40.406711 C34.7941561,45.2707862 34.7937469,50.133691 34.7937924,54.9969353 C34.7937924,55.4130671 34.7935651,55.4117703 34.4879312,55.2244301 C28.8433642,51.7643125 23.1987517,48.3044717 17.5541848,44.8446587" id="Fill-1" fill="#0072CB"></path>
                                    <path d="M0.552599668,15.4952771 C0.34153287,15.3660096 0.287891082,15.2589584 0.288209296,14.9803319 C0.294209903,10.0820374 0.294255362,5.18002628 0.287572868,0.273884902 C0.287209195,-0.0178283948 0.344942306,-0.0618063306 0.563691699,0.0726037469 C11.8735626,7.02275678 23.183479,13.9649592 34.4933954,20.9081361 C34.7897891,21.0900894 34.7902891,21.0911273 34.7903346,21.4850261 C34.7905164,26.3668955 34.788198,31.24723 34.7961079,36.1337218 C34.7966079,36.4472009 34.7341471,36.4801153 34.5049875,36.3391318 C28.8462789,32.8561053 23.1875249,29.3842574 17.5288163,25.9103057" id="Fill-3" fill="#00B820"></path>
                                </g>
                            </g>
                        </g>
                    </g>
                </g>
                <path d="M736.896026,105 L880,105 C907.061953,105 929,83.0619527 929,56 L929,56 C929,28.9380473 907.061953,7 880,7 L710,7 L710,7 C682.938047,7 661,28.9380473 661,56 L661,56 L661,56 C661,83.0619527 682.938047,105 710,105 L717.274887,105 C716.017573,107.783401 714.344055,110.084935 712.254334,111.904604 C708.434454,115.230846 704.016343,117.345336 699,118.248072 C710.376907,119.588294 718.606436,119.136926 723.688586,116.893967 C729.098491,114.506357 734.331845,110.66921 736.896026,105 Z" id="Combined-Shape" fill="#FFFFFF"></path>
                <!-- <text id="看我輕輕鬆鬆2步驟-無卡也能領現金" font-family=".PingFangTC-Regular, .PingFang TC" font-size="22" font-weight="normal" line-spacing="34" letter-spacing="1.07708299" fill="#FFA626">
                    <tspan x="695.756154" y="33">看我輕輕鬆鬆</tspan>
                    <tspan x="834.218652" y="33" font-family=".SFNSDisplay-Regular, .SF NS Display">2</tspan>
                    <tspan x="848.08968" y="33">步驟</tspan>
                    <tspan x="894.243846" y="33" font-family=".SFNSDisplay-Regular, .SF NS Display"></tspan>
                    <tspan x="714.23021" y="67">無卡也能領現金</tspan>
                </text> -->
                <text fill="#FFA626" font-family="MicrosoftJhengHeiBold, Microsoft JhengHei" font-size="22" font-weight="bold" letter-spacing="1.077">
                  <tspan x="695.6" y="46">看我輕輕鬆鬆3步驟</tspan> <tspan x="714.23" y="80">無卡也能領現金</tspan>
                </text>
            </g>
        </g>
    </g>
</svg>