<svg xmlns="http://www.w3.org/2000/svg" xmlns:xlink="http://www.w3.org/1999/xlink" width="84" height="192" viewBox="0 0 84 192">
  <defs>
    <polygon id="l4-5-p-left-1-a" points="0 1.917 0 .019 .832 .019 .832 1.917"/>
    <polygon id="l4-5-p-left-1-b" points=".049 8.192 14.893 17.037 14.844 8.91 0 .065"/>
    <rect id="l4-5-p-left-1-c" width="6.294" height="6.502" x="2.18" y=".813"/>
  </defs>
  <g fill="none" fill-rule="evenodd">
    <path fill="#B6D9E4" d="M64.1367803,180.675588 C50.7025017,179.149358 36.3937369,180.296555 32.1786918,183.235498 C27.9592133,186.177326 35.4261496,189.798334 48.862645,191.322639 C62.2924903,192.850793 76.6056884,191.706481 80.8229502,188.76321 C85.0391036,185.821863 77.571059,182.20326 64.1367803,180.675588"/>
    <path fill="#3A4D57" d="M50.5423729,36.5998011 L45.9856793,41.7742042 L48.2640261,47.8617374 L45.3781202,47.8617374 L48.2640261,51.2098806 L47.5045772,53.3405172 C46.6944983,51.9200928 45.6818998,51.2098806 44.4667815,51.2098806 C43.2516632,51.2098806 41.8340252,50.6011273 40.2138675,49.3836207 C36.7710324,46.9486074 35.2521345,44.9194297 35.6571739,43.2960875 C36.0622134,41.6727454 36.8722922,39.6435676 38.0874105,37.2085544 C41.5302456,34.9764589 43.0491435,33.3531167 42.6441041,32.3385279 C42.2390646,31.323939 41.6315055,30.8166446 40.8214266,30.8166446 C42.7453639,29.3962202 44.4667815,28.8889257 45.9856793,29.2947613 C48.2640261,29.9035146 49.9348137,29.5991379 49.9348137,32.9472812 C49.9348137,35.1793767 50.1373335,36.3968833 50.5423729,36.5998011 Z"/>
    <path fill="#F8C5AD" d="M49.3059768,48.362069 L55.3006244,48.362069 C58.2979483,51.1537222 59.7966102,53.1477602 59.7966102,54.344183 C59.7966102,55.5406059 59.7966102,56.8367306 59.7966102,58.2325572 C59.1971454,59.0301724 58.6975914,59.2295762 58.2979483,58.8307686 C57.8983051,58.431961 55.2007136,56.2385192 50.205174,52.2504431 L48.4067797,51.0540203 L49.3059768,48.362069 Z"/>
    <path fill="#F9CDB9" d="M49.8894853,35.5603448 C48.5680955,35.6907883 47.7723101,35.8939903 47.502129,36.1699507 C47.2037095,36.4747537 47.2173957,36.8379092 46.647929,37.4445359 C46.2653734,37.8520549 45.7116119,37.6939655 45.1147728,38.9131773 C44.5179338,40.1323892 44.5179338,40.1323892 44.5179338,42.2660099 C44.5179338,43.6884236 44.8163533,44.8060345 45.4131923,45.6188424 C44.6174069,45.2124384 44.0205679,45.2124384 43.6226752,45.6188424 C43.2247825,46.0252463 43.4237288,47.0412562 44.2195142,48.6668719 L46.90529,49.2764778 L47.502129,50.4956897 C51.8789488,50.0892857 54.4652514,49.2764778 55.2610368,48.057266 C56.4547149,46.2284483 57.648393,44.3996305 56.4547149,43.0280172 C55.6589295,42.1136084 53.4705196,39.6243842 49.8894853,35.5603448 Z"/>
    <path fill="#F8C5AD" d="M70.7886341 15.6055206C70.3698903 13.6907328 70.3698903 12.3503813 70.7886341 11.5844662 71.2073779 10.8185511 71.4167498 9.19098143 71.4167498 6.70175729 71.6261216 5.93584218 71.9401795 5.93584218 72.3589232 6.70175729 72.777667 7.46767241 72.9870389 9.09524204 72.9870389 11.5844662 73.4057827 11.5844662 73.8245264 11.5844662 74.2432702 11.5844662 74.8713858 11.5844662 77.3838485 9.86115716 77.3838485 8.71228448 77.3838485 7.5634118 77.6979063 4.97844828 78.6400798 4.97844828 79.2681954 4.97844828 80.105683 5.55288462 81.1525424 6.70175729 81.1525424 9.57393899 81.1525424 11.3929874 81.1525424 12.1589025 81.1525424 12.9248176 80.3150548 14.4566479 78.6400798 16.7543932L75.8135593 18.1904841 74.2432702 19.9137931 71.4167498 19.3393568 70.7886341 15.6055206zM13.7162327 32.8439507C12.8942862 30.6760036 12.175083 29.394944 11.5586231 29.0007718 10.6339333 28.4095136 9.09278351 26.0444804 8.47632361 26.3401096 8.06535034 26.5371957 8.06535034 27.0299109 8.47632361 27.8182553L9.40101345 30.1832884 9.40101345 30.7745467C8.99004019 30.7745467 8.27083697 30.7745467 7.24340381 30.7745467 6.21597064 30.7745467 5.70225406 30.5774606 5.70225406 30.1832884 3.23641447 28.6065997 1.79800804 27.8182553 1.38703477 27.8182553.976061506 27.8182553.56508824 28.2124275.154114975 29.0007718-.0513716582 29.1978579-.0513716582 29.5920301.154114975 30.1832884.359601608 30.7745467 2.59426874 32.4497785 6.85811637 35.2089838 8.34789446 35.603156 9.40101345 35.8002421 10.0174734 35.8002421 10.6339333 35.8002421 11.866853 36.1944142 13.7162327 36.9827586L14.9491525 34.6177255 13.7162327 32.8439507z"/>
    <g transform="translate(68.05)">
      <g>
        <g transform="matrix(-1 0 0 1 15.95 0)">
          <path fill="#9FA3A4" d="M1.30499969,1.17804932 C1.21651104,1.29700378 0.797258723,1.19159486 0.684407878,1.10878236 C0.570268646,1.02603144 0.340057606,0.723473366 0.225684123,0.630440145 C0.111369203,0.537406924 0.0450173561,0.516165057 0.0583111506,0.41075614 C0.0766413606,0.261693646 0.16038641,0.197968045 0.19429437,0.0381922614 C0.237103902,0.0934211159 0.234351443,0.231831891 0.364244113,0.262925059 C0.501515718,0.296419481 0.519845928,0.199876734 0.559785875,0.188547738 C0.600955643,0.177218742 0.732839455,0.189040303 0.732839455,0.189040303 C0.732839455,0.189040303 1.39348834,1.05786345 1.30499969,1.17804932" transform="translate(5.459 10.569)"/>
          <g transform="translate(4.82 1.586)"/>
          <g transform="matrix(-1 0 0 1 14.893 0)">
            <use fill="#F7F7F7" xlink:href="#l4-5-p-left-1-b"/>
            <path stroke="#00B820" stroke-width=".616" d="M0.355852713,8.01635258 L14.5820688,16.4931066 L14.5374953,9.08608945 L0.311279274,0.609335449 L0.355852713,8.01635258 Z"/>
          </g>
          <g transform="matrix(-1 0 0 1 13.257 2.673)">
            <path fill="#0072CB" d="M8.52628614,5.62512678 C8.47198526,5.66409321 8.4193103,5.70172967 8.36680831,5.73958306 C8.32158256,5.77219246 8.27273599,5.80039113 8.23261861,5.83928835 C8.19869353,5.87219925 8.18238828,5.84450211 8.15419426,5.78926156 C8.07081145,5.62579902 7.98414223,5.46279129 7.89854541,5.2996337 C7.88732546,5.27822229 7.87486013,5.25701977 7.86188742,5.23378193 C7.84336816,5.24476069 7.85149772,5.2713764 7.85146313,5.29106467 C7.85073666,5.55688745 7.84996406,5.82269453 7.85178601,6.09001926 C7.85208582,6.13431623 7.84181144,6.14579626 7.79462537,6.11485871 C7.73341725,6.07472563 7.67154031,6.03831489 7.61033219,6.00627685 C7.56149715,5.98072619 7.55934079,5.95468725 7.55943304,5.91726756 C7.56034402,5.5404537 7.55997502,5.16287396 7.55996348,4.78551641 C7.55996348,4.73762459 7.56088599,4.69026496 7.55958295,4.64163967 C7.55885648,4.61410922 7.56968437,4.60965911 7.59658688,4.62575604 C7.67341991,4.67175183 7.750276,4.71727826 7.8270975,4.76148496 C7.85515315,4.77764058 7.86689201,4.80398028 7.88126,4.83012171 C7.97415613,4.99919108 8.06845907,5.16800872 8.15930263,5.33747819 C8.18937625,5.39359654 8.20614275,5.39419877 8.23159232,5.3772662 C8.31741976,5.32017685 8.40721397,5.26851851 8.49120794,5.20896873 C8.52393376,5.18579179 8.55859683,5.1874438 8.61227502,5.22335745 C8.66953944,5.26167218 8.72747267,5.29337842 8.78505997,5.32584666 C8.81651734,5.3435817 8.8290288,5.36108584 8.82895961,5.39442561 C8.8281063,5.82299432 8.82816395,6.25211142 8.82898268,6.68166557 C8.82905186,6.71473043 8.81709391,6.71800858 8.78516375,6.6983046 C8.72182234,6.65920246 8.6582157,6.62013948 8.59505879,6.58669992 C8.54622375,6.5608273 8.53803653,6.53393614 8.53824409,6.49193896 C8.53955866,6.22647429 8.53901669,5.95989245 8.53855544,5.69336967 C8.53853238,5.67531471 8.54538197,5.65965447 8.52628614,5.62512678 Z M4.55247056,3.35689867 C4.64233568,3.34187837 4.73322536,3.37345876 4.8333019,3.44365822 C4.89188385,3.48477026 4.94687985,3.53437732 4.98790771,3.59940558 C5.02282237,3.65472788 5.04252803,3.65622751 5.07517728,3.64913837 C5.17257859,3.62796268 5.36592407,3.73262744 5.47442476,3.85908716 C5.57442162,3.97562729 5.61218228,4.09088732 5.61378742,4.20049257 C5.61686109,4.41102546 5.61434523,4.61833301 5.61542671,4.82772624 C5.61558609,4.8606685 5.60367845,4.86435095 5.5719513,4.84466357 C5.51130885,4.80706096 5.45049564,4.77084036 5.38987596,4.7374118 C5.35374321,4.71749556 5.34493202,4.69717713 5.34520523,4.66360483 C5.34648024,4.50922895 5.34593381,4.35376808 5.34554675,4.19840114 C5.34547845,4.17161559 5.34291705,4.14337218 5.34166481,4.11587736 C5.33926279,4.06292499 5.32120781,4.00802263 5.27071986,3.96021045 C5.21746562,3.90977947 5.1659645,3.89164396 5.11996185,3.89797749 C5.0970459,3.90112561 5.09564567,3.92435619 5.09571397,3.95027974 C5.09620349,4.13442923 5.09462111,4.31738061 5.0968296,4.50250874 C5.09738742,4.54920214 5.08579853,4.56216378 5.03681327,4.52967303 C4.98399162,4.4946339 4.93053246,4.46391988 4.87757419,4.43563884 C4.83705862,4.41400152 4.82521928,4.39146165 4.82566325,4.35212832 C4.82738224,4.19610619 4.8265512,4.03855818 4.82632353,3.88136576 C4.82628937,3.85649676 4.82620969,3.83137105 4.82315878,3.80496543 C4.81285628,3.71592214 4.76824247,3.65160783 4.69008008,3.61132269 C4.61347729,3.57183031 4.57216484,3.59309967 4.57215345,3.67205308 C4.57213069,3.8463266 4.57052555,4.019702 4.57314386,4.19548611 C4.57388382,4.24482692 4.55749089,4.25025638 4.51110118,4.21970913 C4.46201347,4.18738787 4.41223133,4.1573698 4.36326885,4.13277699 C4.31563828,4.10885424 4.30649695,4.08306573 4.30672463,4.04019137 C4.30815901,3.76142368 4.30878513,3.48214514 4.30621235,3.20100427 C4.30572284,3.14811017 4.32306064,3.14350193 4.371545,3.17696174 C4.40723377,3.20159299 4.44371942,3.22219994 4.47957895,3.24072536 C4.52552468,3.26444818 4.56433266,3.28935467 4.55247056,3.35689867 Z M2.48205603,2.33631499 C2.48202157,2.12545966 2.4828257,1.91508706 2.48129785,1.70335158 C2.48101067,1.66448782 2.49033855,1.65484354 2.53216468,1.67977063 C2.78858957,1.83259043 3.04501446,1.98356927 3.30143935,2.13320192 C3.34095649,2.15625041 3.35612004,2.17624452 3.35381105,2.21579883 C3.35067495,2.26936317 3.35043371,2.32505937 3.35347791,2.38226617 C3.35568352,2.42346872 3.3433459,2.42863526 3.3025881,2.40403865 C3.14186592,2.30707061 2.9810863,2.21493573 2.8203756,2.11811252 C2.77929615,2.09337237 2.76089311,2.09128225 2.76509755,2.13895558 C2.76915265,2.18504512 2.76822216,2.22903624 2.76528135,2.27118672 C2.76258178,2.30984349 2.77690674,2.33093119 2.81720504,2.35415241 C2.97026503,2.4423244 3.1234399,2.53642062 3.27643097,2.6226305 C3.33359298,2.65483564 3.34974446,2.68339714 3.34491969,2.73465456 C3.34051996,2.78150257 3.34150789,2.83240034 3.34482779,2.88397063 C3.34765373,2.92763286 3.33069812,2.92722423 3.29183577,2.90384829 C3.13876428,2.81175751 2.98557792,2.72546706 2.83260983,2.63087138 C2.77462072,2.59500313 2.76329401,2.60780711 2.76445425,2.66187852 C2.76787754,2.82290832 2.76452318,2.98007015 2.76664837,3.14039242 C2.76718828,3.18129211 2.75465538,3.18686133 2.7145294,3.16114132 C2.65536856,3.12323629 2.59578269,3.08800327 2.53665631,3.05650436 C2.49337126,3.03345584 2.48084984,3.01087677 2.48122893,2.96833257 C2.48311289,2.7586079 2.48209049,2.54717032 2.48205603,2.33631499 Z M7.04625158,5.23862589 C7.08692109,5.14411277 7.12789285,5.05149844 7.16706231,4.95718675 C7.21375444,4.84481319 7.21308278,4.84418637 7.35570033,4.92813655 C7.50097098,5.01365038 7.49977317,5.01248251 7.44895027,5.12469648 C7.32807238,5.39156866 7.20768704,5.65892746 7.08929432,5.9281997 C7.07467434,5.96143309 7.05470341,5.96439811 7.01267936,5.93702067 C6.9551062,5.89954371 6.89711884,5.86619931 6.83942254,5.83449306 C6.79399538,5.80954436 6.77690142,5.78968859 6.79842839,5.75198044 C6.83209016,5.69295835 6.85957259,5.62751129 6.8913425,5.56648501 C6.90277205,5.544536 6.90198844,5.51931527 6.89021185,5.48337753 C6.78526369,5.1634731 6.6825992,4.84392147 6.57706893,4.52393956 C6.55909061,4.46939208 6.5645647,4.45887622 6.61202926,4.48917142 C6.67339735,4.52834223 6.7352468,4.56602991 6.79643577,4.59756587 C6.84008301,4.62007978 6.85991962,4.65014368 6.87374479,4.69755496 C6.92003392,4.8562755 6.96803581,5.01535879 7.01613845,5.17445527 C7.02182525,5.19328119 7.02540748,5.21338421 7.04625158,5.23862589 Z M10.639014,7.15043085 C10.6405517,7.11223163 10.6259029,7.08923713 10.5886623,7.07171204 C10.5734817,7.06456018 10.5577345,7.05220532 10.5425423,7.04499972 C10.50788,7.0285718 10.4941331,7.00727035 10.4956939,6.97166598 C10.4980294,6.91847307 10.4981219,6.86365316 10.495428,6.80751956 C10.4934278,6.76609713 10.510493,6.76762504 10.5466005,6.78905815 C10.6381468,6.84341148 10.6461476,6.84563951 10.6365398,6.75010352 C10.6236715,6.62215233 10.6546571,6.56972397 10.7799755,6.60620172 C10.9037908,6.64222776 10.9000101,6.62698783 10.9000216,6.76071364 C10.9000216,6.8232144 10.901964,6.88693033 10.8993973,6.94782448 C10.8978712,6.98435273 10.9082883,7.00621426 10.9474482,7.02673602 C10.9934526,7.0508459 11.0398154,7.08149102 11.0859701,7.10743768 C11.1130478,7.12265725 11.1247715,7.14043139 11.124309,7.16759016 C11.1232685,7.22748307 11.1218695,7.28719993 11.1232338,7.34846324 C11.1239737,7.38130541 11.1093018,7.37987395 11.0812182,7.36245416 C11.035075,7.33383923 10.9887932,7.30924901 10.9426731,7.2800376 C10.910092,7.2593922 10.898958,7.26471553 10.8995707,7.29833924 C10.9013281,7.39504444 10.8988423,7.48933098 10.9006691,7.58607707 C10.9028196,7.69918178 10.976792,7.79667929 11.0784665,7.81463458 C11.1296737,7.82367189 11.1314195,7.84185421 11.1296275,7.88315352 C11.1272342,7.93828347 11.1278123,7.99537585 11.1294772,8.05295623 C11.130379,8.08430987 11.1192912,8.09383734 11.0890918,8.08181134 C10.9954181,8.04453088 10.9014206,7.99783762 10.8107414,7.90783479 C10.6837466,7.78177442 10.6479281,7.64931969 10.6393493,7.51970793 C10.6351986,7.45700186 10.6386209,7.39821935 10.6386209,7.33767798 C10.638355,7.27502049 10.6365513,7.21138633 10.639014,7.15043085 Z M6.48722854,4.70204509 C6.48731229,4.91107312 6.48621155,5.11942606 6.48823356,5.32958494 C6.48865232,5.37177473 6.47831491,5.38273088 6.43189229,5.35206931 C6.37833877,5.31669885 6.32404345,5.28461844 6.27050189,5.25691659 C6.22253584,5.23210962 6.2102841,5.20854189 6.21053535,5.16358344 C6.2123779,4.82722738 6.21149252,4.48926356 6.21144466,4.15179336 C6.2114327,4.06741718 6.2129522,3.98390908 6.21059518,3.89821982 C6.20955426,3.86064452 6.22095651,3.85240965 6.26100201,3.87775973 C6.3187192,3.9143072 6.37675945,3.94879031 6.43441682,3.97982669 C6.4768672,4.00268283 6.48830535,4.02463217 6.48797034,4.06403093 C6.48622351,4.27579935 6.48714478,4.48917478 6.48722854,4.70204509 Z M10.1179898,6.64127981 C10.194494,6.61092921 10.2805486,6.64120313 10.3776941,6.71158846 C10.4299091,6.74942218 10.4594889,6.78532166 10.4551839,6.84448377 C10.4500293,6.91544818 10.4539604,6.99243437 10.4539604,7.07693463 C10.3977576,7.00928145 10.3452254,6.96448835 10.2873686,6.93364342 C10.1782597,6.87547827 10.122646,6.89835266 10.12268,7.00701916 C10.122714,7.16402409 10.1217284,7.3204166 10.1233484,7.4783218 C10.1237222,7.51535937 10.1138434,7.52422032 10.0756876,7.49985832 C10.0173436,7.46258625 9.95875044,7.4289732 9.90031585,7.39601703 C9.87120051,7.37959329 9.8604267,7.36274571 9.86049467,7.33283296 C9.86123105,7.04037336 9.861367,6.74757138 9.86051733,6.45420001 C9.86043803,6.42069351 9.87350028,6.4186415 9.90433761,6.43812681 C9.94763677,6.46549712 9.99121914,6.49201101 10.0344163,6.51465296 C10.0858383,6.54160192 10.1267244,6.57059708 10.1179898,6.64127981 Z M6.05093191,4.64224484 C6.05093191,4.7850942 6.04952763,4.92711593 6.05180516,5.07127279 C6.052466,5.11317246 6.04310804,5.12598757 5.99680205,5.09574955 C5.93814072,5.0574524 5.87901916,5.02435992 5.82016901,4.99133459 C5.78705622,4.97274712 5.77428785,4.95182212 5.77432325,4.92018247 C5.77468907,4.62699594 5.77480708,4.33366336 5.77412264,4.03985784 C5.77404004,4.00331081 5.79132808,4.00405619 5.82514891,4.02502162 C5.88399906,4.06149259 5.94301441,4.09684278 6.00180555,4.12900963 C6.04067709,4.15027183 6.05226539,4.17081457 6.05174616,4.20842228 C6.04974004,4.35199195 6.05093191,4.49746962 6.05093191,4.64224484 Z M6.09151045,3.91966028 C6.09154624,4.02110282 6.00972743,4.05415893 5.90910903,3.99338261 C5.81428797,3.93610769 5.73604777,3.81074939 5.73447319,3.71357498 C5.73282703,3.61257383 5.81484862,3.57535694 5.91363,3.63228168 C6.00583868,3.68544151 6.09147467,3.82377971 6.09151045,3.91966028 Z M4.13303295,3.77905381 C4.13302178,3.8506043 4.13915752,3.92419555 4.18718176,4.02507187 C4.09426263,3.97030838 4.0129556,3.92266022 3.93164856,3.87407938 C3.92316581,3.86900908 3.90840202,3.85647079 3.90722851,3.85086781 C3.89103416,3.77315468 3.85803077,3.79099919 3.826145,3.78611441 C3.67474069,3.76291346 3.49266882,3.61142766 3.41069121,3.44178094 C3.27102193,3.15273877 3.40425371,2.93511574 3.65020888,3.0530966 C3.71294103,3.08318589 3.77650021,3.11774128 3.83890825,3.17148797 C3.84952567,3.18063803 3.86204304,3.194615 3.87055932,3.18989414 C3.88091968,3.18414682 3.87217987,3.16434443 3.86799996,3.14996853 C3.84854216,3.08311809 3.80279787,3.03847229 3.75390189,3.00163823 C3.66640323,2.93573672 3.58417974,2.91055862 3.50456032,2.90045692 C3.48970712,2.89857411 3.47755856,2.90673853 3.45401026,2.88669712 C3.45401026,2.81547062 3.45423378,2.74321886 3.45388732,2.67063116 C3.45377556,2.64578418 3.46818171,2.64623471 3.48777363,2.6513708 C3.62140775,2.68636497 3.75602537,2.74898668 3.89457703,2.86461077 C4.04141026,2.98717003 4.1311777,3.15956606 4.13261943,3.3303771 C4.13388235,3.48058728 4.1330553,3.62958932 4.13303295,3.77905381 Z M9.72527908,7.07457432 C9.72530152,7.14590496 9.73197923,7.21950712 9.78114733,7.32021531 C9.68788394,7.26524893 9.60619149,7.21704312 9.52449905,7.16901419 C9.51265875,7.1620477 9.4992809,7.15219399 9.496116,7.13814767 C9.48314218,7.08065696 9.46019108,7.08215322 9.4284299,7.07999005 C9.25827753,7.06841828 9.03309863,6.86520145 8.97354923,6.66316706 C8.89773765,6.40587825 8.98985629,6.22311739 9.26071293,6.35703328 C9.31988075,6.38629191 9.38014842,6.41966557 9.43849696,6.47316896 C9.46814821,6.50034917 9.47171713,6.486109 9.46414159,6.45806042 C9.45150446,6.41125115 9.42693724,6.36988651 9.3882739,6.33337383 C9.28320388,6.23413943 9.18445243,6.20396791 9.09069523,6.19539462 C9.042829,6.19101527 9.04223418,6.17182124 9.04340138,6.13306524 C9.04487159,6.08491281 9.04608368,6.03636062 9.04306468,5.98572748 C9.04065173,5.9452506 9.05545491,5.93856309 9.09038098,5.94867617 C9.21591059,5.98501946 9.3411035,6.0424251 9.47120088,6.14777813 C9.62686432,6.27384728 9.72390987,6.44781793 9.72500972,6.61514466 C9.72603102,6.76882902 9.72523418,6.92146542 9.72527908,7.07457432 Z"/>
            <path fill="#FFF" d="M3.82802893 3.54510461C3.76960168 3.53335044 3.71119628 3.50987045 3.65756424 3.43721093 3.59284533 3.34954004 3.60498081 3.25697739 3.67895152 3.25967932 3.73375232 3.26168143 3.7904865 3.29802453 3.84710053 3.35490021 3.89203784 3.4000555 3.86372537 3.42535814 3.87180841 3.45374374M9.26212154 6.77628602C9.19548627 6.69383382 9.20268178 6.59019421 9.27282706 6.59169526 9.3032983 6.59233758 9.33640204 6.60279448 9.37230282 6.62542965 9.45731078 6.67905906 9.47185537 6.70229685 9.47176762 6.79077793 9.47147146 6.83367749 9.48328483 6.88735201 9.42949398 6.87751187"/>
            <path fill="#0072CB" d="M0.0150841161,1.72023922 C0.000179257758,1.71082166 0.000219068924,1.71085293 0.000219068924,1.69017315 C0.000238974507,1.445279 0.000353984543,1.20044189 1.07509077e-07,0.955311572 C-1.9798074e-05,0.940451349 0.00271832548,0.938695582 0.01333906,0.945412348 C0.563310417,1.29329688 1.11328177,1.64075065 1.66325092,1.98827023 C1.68163704,1.99989046 1.67871092,1.99637048 1.67871535,2.0189197 C1.67878833,2.2628552 1.67876843,2.50673201 1.67877064,2.75062585 C1.67877064,2.77149504 1.67875958,2.77143001 1.66389011,2.76203481 C1.3892749,2.5885084 1.11465747,2.41499586 0.840042258,2.24148472"/>
            <path fill="#00B820" d="M0.012878886,0.775004556 C0.00262223366,0.768539175 1.55462167e-05,0.763184949 3.10096167e-05,0.749249295 C0.000322605161,0.504258484 0.000324814218,0.25908178 8.28165867e-08,0.0136984996 C-1.75896406e-05,-0.000891696682 0.00278791294,-0.00309127662 0.013417896,0.00363131516 C0.563013643,0.351246929 1.1126116,0.698464889 1.66220956,1.04573159 C1.67661261,1.05483208 1.67663691,1.05488399 1.67663912,1.07458505 C1.67664795,1.31875435 1.67653529,1.56284689 1.67691967,1.80724738 C1.67694397,1.82292621 1.67390872,1.82457244 1.66277287,1.81752108 C1.38779164,1.64331565 1.11280821,1.46966932 0.83782698,1.29591777"/>
          </g>
        </g>
        <path fill="#00B820" d="M5.22971229,8.76496054 L5.22971229,9.14046894 L4.91835454,8.95585289 L4.92090666,8.58185773 L4.83923905,8.53343385 C4.86220807,8.57834543 4.88517708,8.61543392 4.91069821,8.65664336 C4.83413483,8.65036143 4.76522778,8.6825193 4.68611229,8.75556273 C4.57892356,8.55901383 4.47939117,8.33571229 4.42324469,8.12770516 C4.48449539,8.1353384 4.53808976,8.13321651 4.59423624,8.14043096 L4.19610666,7.89914913 L4.39517145,8.11105945 C4.35688976,8.27872265 4.24714892,8.39879956 4.10933483,8.4683307 C4.06850103,8.32416469 3.96896864,8.16866328 3.89750948,8.08717692 C4.00725033,8.04272323 4.08891793,7.96336995 4.15016864,7.8719107 L4.01235455,7.79019539 L4.01235455,6.14995383 L4.77798835,6.60392774 L4.77798835,8.2441693 L4.67845595,8.18515269 C4.71163342,8.28305581 4.76267567,8.39676705 4.80350947,8.46530985 L4.80350947,8.23844019 L4.91835454,8.30653627 L4.91835454,7.67547354 L5.35221369,7.93011772 L5.35221369,7.88317917 L4.80095736,7.55631796 L4.80095736,7.29294054 L5.11997144,7.48209633 L5.11997144,7.4221193 L4.88262497,7.28138739 L4.88262497,7.06234082 L5.11997144,7.20046503 L5.11997144,7.14309569 L4.83923905,6.97663859 L4.83923905,6.74455354 L5.11997144,6.91101064 L5.11997144,6.8484259 C5.11997144,6.81191814 5.08424187,6.79855578 5.08424187,6.76987112 C5.08424187,6.74900954 5.10721088,6.76002106 5.13017989,6.77364027 L5.41856862,6.94463711 L5.41856862,7.08806046 L5.56403904,7.1743155 L5.56403904,7.10129998 C5.56403904,7.0804384 5.53341369,7.06488714 5.53341369,7.03881017 C5.53341369,7.01794859 5.55127848,7.02332592 5.57424749,7.03694514 L5.857532,7.20491549 L5.857532,7.34833883 L6.17654608,7.53749463 L6.17654608,7.76957968 L5.86263622,7.58345038 L5.86263622,7.64081972 L6.12550383,7.7966841 L6.12550383,8.01833836 L5.86263622,7.86247399 L5.86263622,7.92245102 L6.19951509,8.12219954 L6.19951509,8.38296927 L5.65336299,8.05913455 L5.65336299,8.10868079 L6.07701369,8.36248739 L6.07701369,8.99355012 L6.20461932,9.06921244 L6.20461932,9.34302065 L6.07701369,9.26735833 L6.07701369,9.44989714 C6.07701369,9.50205108 6.05149256,9.53385717 5.99024186,9.52883162 C5.89070946,9.51936126 5.76565594,9.45825068 5.65081087,9.39536999 C5.62528975,9.27592963 5.59211228,9.15455724 5.52830947,9.02284898 C5.60232073,9.06934082 5.67122777,9.11541387 5.74523904,9.14104413 C5.7579996,9.14339497 5.76310383,9.13338297 5.76565594,9.11925004 L5.76565594,9.08274227 L5.22971229,8.76496054 Z M4.48194328,7.31761592 L4.48194328,7.17680027 L4.31095173,7.07541276 L4.31095173,7.21622841 L4.48194328,7.31761592 Z M4.48194328,7.76613984 L4.48194328,7.61228571 L4.31095173,7.5108982 L4.31095173,7.66475234 L4.48194328,7.76613984 Z M4.48194328,6.89777666 L4.48194328,6.75696101 L4.31095173,6.65557351 L4.31095173,6.79638916 L4.48194328,6.89777666 Z M5.35476581,8.24716234 L5.35476581,8.17675451 L5.22971229,8.10260544 L5.22971229,8.17301327 L5.35476581,8.24716234 Z M5.35476581,8.5653014 L5.35476581,8.48707048 L5.22971229,8.41292141 L5.22971229,8.49115233 L5.35476581,8.5653014 Z M5.76565594,8.490795 L5.76565594,8.42038717 L5.65336299,8.35380433 L5.65336299,8.42421216 L5.76565594,8.490795 Z M5.76565594,8.80893406 L5.76565594,8.73070315 L5.65336299,8.66412031 L5.65336299,8.74235122 L5.76565594,8.80893406 Z M5.56403904,7.40640056 L5.41601651,7.31863227 L5.41601651,7.37600161 L5.56403904,7.4637699 L5.56403904,7.40640056 Z M5.56403904,7.68542416 L5.41601651,7.59765587 L5.41601651,7.65763291 L5.56403904,7.7454012 L5.56403904,7.68542416 Z M7.72302001,8.28235085 L8.05734677,8.54838625 C8.04203409,8.68012243 8.01396085,8.79386158 7.98078339,8.90718194 L8.82553267,9.40806648 L8.82042845,10.852312 C8.82042845,10.972266 8.79235521,11.0990437 8.67751014,11.0935323 C8.55245662,11.0871834 8.41974676,11.0058869 8.28193268,10.9241716 C8.26917212,10.799259 8.24365099,10.6485262 8.16198338,10.4775406 C8.25130733,10.5305042 8.35594395,10.6003704 8.44271578,10.6283515 C8.48610169,10.6332151 8.47589324,10.6089082 8.48099746,10.5702116 L8.49375803,10.0066921 C8.35083972,10.3652588 8.01906508,10.5518683 7.64390452,10.5510754 C7.58775804,10.4082607 7.47546508,10.2034699 7.3989017,10.1137416 C7.97823127,10.1469326 8.2053693,9.81744139 8.33552704,9.46956231 L8.27172423,9.43433885 C8.17219183,9.77169222 7.95015803,9.98686352 7.62859184,10.007418 C7.57754959,9.89109902 7.5392679,9.76409243 7.41421438,9.62735863 C7.68473832,9.639124 7.88380311,9.42337197 7.93739747,9.23349588 L7.88380311,9.2017177 C7.83276085,9.30444533 7.75109325,9.42552177 7.66687353,9.47728483 C7.6413524,9.43086 7.61327916,9.36727574 7.58520593,9.32455306 L7.58520593,9.58532279 C7.50353832,9.57340666 7.42697494,9.55408625 7.34530734,9.53695473 L7.34530734,10.3844563 L7.00842847,10.1847078 L7.00842847,9.4415141 C6.92420875,9.42286934 6.81957213,9.397334 6.73790453,9.38281018 C6.69451861,9.24495401 6.64858058,9.08472302 6.60519467,8.94686685 C6.74300875,8.99728978 6.87061438,9.02862125 7.00842847,9.07643649 L7.00842847,8.69571269 L6.93952143,8.65485504 C6.92931298,8.76614843 6.89868762,8.83925887 6.85530171,8.94391855 C6.74556086,8.78236416 6.67410171,8.72956247 6.5720172,8.65860183 C6.7123834,8.40543743 6.69962284,8.13710148 6.70217495,7.88566809 L6.96249044,8.07131159 C6.96249044,8.1547579 6.96504255,8.25536364 6.95993833,8.33839115 L7.00842847,8.36714284 L7.00842847,7.96294976 C7.00842847,7.93426509 6.96759467,7.92830703 6.96759467,7.89179927 C6.96759467,7.85529151 7.01608481,7.89186628 7.04160593,7.90699875 L7.34530734,8.08707506 L7.34530734,8.56689135 L7.58265381,8.70762327 L7.58265381,8.90059286 C7.66687353,8.73148342 7.70260311,8.51015303 7.72302001,8.28235085 Z M7.51374677,8.99533547 L7.34275522,8.89394796 L7.34530734,9.1849156 L7.52395522,9.23347351 C7.49588198,9.19075082 7.44994396,9.13222002 7.40400593,9.08412001 C7.44994396,9.0565968 7.48312142,9.03193815 7.51374677,8.99533547 Z M11.4617587,12.4549666 L11.4617587,12.7731057 L9.41751647,11.5609954 L9.41751647,11.2428563 L9.82330238,11.4834625 C9.80288548,11.3305409 9.73397844,11.1514753 9.67017562,11.0145516 L9.91007421,11.0968197 L9.61147703,10.9145545 L9.61147703,10.6016308 C9.57319534,10.5997937 9.55277844,10.6007262 9.51449675,10.5962814 C9.46600661,10.4501834 9.37157844,10.28467 9.2618376,10.1335464 C9.72121788,10.231215 10.0989305,10.045767 10.2341925,9.7869684 L10.6221136,10.0769589 L10.5940404,10.1124671 C10.8492517,10.6054001 11.219308,11.064729 11.5740517,11.4367474 C11.4923841,11.4900237 11.423477,11.5665125 11.3800911,11.6581337 C11.219308,11.494999 11.0738376,11.3070438 10.9232629,11.1212774 L10.9232629,11.2412315 L10.583832,11.0399697 L10.583832,11.1703546 L11.2626939,11.5728781 L11.2626939,11.8936249 L10.9972742,11.7362473 L11.1886826,11.9071101 C11.1325362,12.0068112 11.0865981,12.1125654 11.0023784,12.1825823 L11.4617587,12.4549666 Z M10.2392967,10.9660664 L10.2392967,10.8356815 L9.92028266,10.6465257 L9.92028266,10.5761179 C9.83351083,10.6028984 9.7263221,10.6097499 9.6242376,10.5961586 L10.2392967,10.9660664 Z M10.2392967,11.7301216 L10.2392967,11.2868131 L9.99684604,11.1430547 C10.0759615,11.3151348 10.1499728,11.4894038 10.1882545,11.6555259 C10.1142432,11.6220725 10.0529925,11.5961854 9.98663759,11.5750949 L10.2392967,11.7301216 Z M10.1831503,10.4816433 L10.6910207,10.7827793 C10.5787277,10.6249271 10.4689869,10.4294726 10.4179446,10.3340153 C10.3464855,10.3959523 10.2699221,10.4392166 10.1831503,10.4816433 Z M10.8364911,11.6409128 L10.5863841,11.4926146 L10.5863841,11.9359231 L10.879877,12.1099465 C10.8084179,12.0362832 10.7241981,11.9706999 10.6450827,11.9107508 C10.721646,11.828371 10.8007615,11.7370737 10.8364911,11.6409128 Z"/>
      </g>
    </g>
    <path fill="#619AAF" d="M40.8288682 145.086207C39.2367414 145.488636 38.440678 145.991672 38.440678 146.595315 38.440678 147.198958 38.6396938 150.921424 39.0377255 157.762713 39.2367414 159.171213 39.833789 160.479107 40.8288682 161.686393 42.3214872 163.497323 46.5008201 166.213717 46.5008201 164.402787 46.5008201 163.195501 46.699836 160.780929 47.0978677 157.15907L47.0978677 153.537211 47.6949153 152.028103 44.1126299 147.500779 40.8288682 145.086207zM57.0438319 134.543238C56.6875 135.472506 56.6875 136.401774 57.0438319 137.331042 57.5783298 138.724944 58.1128278 144.021773 57.0438319 144.858114 56.331168 145.415675 55.1730892 144.951041 53.5695954 143.464212L51.9661017 139.814722 52.5005996 133.706897 57.0438319 134.543238z"/>
    <path fill="#2D434E" d="M62.593033,101.124894 C67.9788225,107.437368 70.9709278,111.102675 71.5693488,112.120816 C72.4669804,113.648028 74.2622436,114.564355 73.364612,115.175239 C72.4669804,115.786124 62.2938225,119.756873 59.9001383,123.727623 C58.3043488,126.37479 56.6088225,129.429213 54.8135593,132.890892 L54.8135593,134.418103 L58.1048751,134.418103 C71.2701383,126.680232 78.451191,122.40404 79.6480331,121.589527 C81.4432962,120.367758 85.3330331,116.702451 83.5377699,112.120816 C81.7425068,107.539182 70.3725067,90.7398559 68.5772436,89.823529 C67.3804015,89.2126444 64.8869804,89.9253431 61.0969804,91.961625 L59.9001383,99.29224 L62.593033,101.124894 Z"/>
    <path fill="#3A4D57" d="M63.3559322,92.8334178 C62.7752007,102.62762 62.484835,108.224307 62.484835,109.623479 C62.484835,111.722236 61.6137377,120.417089 60.7426405,122.515847 C60.161909,123.915019 57.9357716,128.712179 54.0642284,136.907328 L47.3858162,150.699163 C48.5472792,151.698572 48.5472792,152.198276 47.3858162,152.198276 C45.6436218,152.198276 41.2881356,151.298808 41.2881356,148.300583 C41.2881356,146.301766 42.2560214,142.204192 44.191793,136.00786 C47.8697591,128.412356 49.9991079,123.915019 50.5798394,122.515847 C51.1605709,121.116675 51.7413024,117.518805 52.3220339,111.722236 L52.3220339,100.928626 L52.3220339,96.7311105 L61.6137377,91.0344828 L63.3559322,92.8334178 Z"/>
    <path fill="#51859B" d="M47.6286953,51.2193739 C54.9791092,55.970735 58.6543161,58.6433757 58.6543161,59.2372958 C58.6543161,60.128176 59.2502956,55.970735 58.6543161,54.4859347 C58.2569965,53.4960678 57.0650374,51.6153206 55.0784391,48.8436933 L58.6543161,48.2497731 C60.044935,47.4578796 60.7402444,46.369026 60.7402444,44.9832123 C60.7402444,43.5973987 63.9188017,34.2926497 70.2759164,17.0689655 C73.255814,17.6628857 74.7457627,18.4547792 74.7457627,19.4446461 C74.7457627,20.434513 72.5605045,32.1149425 68.1899882,54.4859347 C67.196689,58.6433757 67.196689,61.5139897 68.1899882,63.0977768 C69.1832873,64.6815638 70.1765865,73.8873261 71.1698857,90.7150635 C70.772566,89.92317 69.3819472,89.7251966 66.9980292,90.1211434 C64.6141112,90.5170901 62.6771778,91.7049304 61.187229,93.6846642 L51.8005518,100.514746 L49.1186441,101.702586 C49.1186441,93.9816243 49.1186441,88.7353297 49.1186441,85.9637024 C49.1186441,83.192075 48.4233346,79.3315941 47.0327158,74.3822595 C46.2380765,70.6207653 45.1454474,68.2450847 43.7548285,67.2552178 C42.3642097,66.2653509 39.0863224,63.2957502 33.9211667,58.3464156 L10.6779661,37.8561706 C10.8766259,34.6885965 11.8699251,33.1048094 13.6578636,33.1048094 C15.4458021,33.1048094 24.4848246,39.4399577 40.774931,52.1102541 C42.0662199,52.7041742 42.7118644,52.7041742 42.7118644,52.1102541 C42.7118644,51.2193739 42.8608593,49.7345735 44.350808,49.7345735 C45.3441072,49.7345735 46.4367363,50.229507 47.6286953,51.2193739 Z"/>
  </g>
</svg>
