<svg xmlns="http://www.w3.org/2000/svg" xmlns:xlink="http://www.w3.org/1999/xlink" width="90" height="149" viewBox="0 0 90 149">
  <g fill="none" fill-rule="evenodd">
    <image width="70" height="101" x="20"  xlink:href="images/L4.5-coupon-sm.png"/>
    <g transform="translate(0 34)">
      <path fill="#585254" d="M9.10447761 107.788085L9.10447761 112.596028C9.77313433 114.198676 10.6925373 115 11.8626866 115 13.0328358 115 14.6208955 114.519206 16.6268657 113.557617L16.6268657 111.033447C19.0507463 111.434109 20.680597 111.434109 21.5164179 111.033447 22.3522388 110.632785 24.3164179 109.550997 27.4089552 107.788085 28.4955224 106.105304 28.4955224 105.10365 27.4089552 104.78312 26.3223881 104.46259 24.358209 104.302326 21.5164179 104.302326L9.10447761 107.788085zM34.1913699 107.09939L33.6865672 109.836047C34.1072361 110.946575 34.8223733 111.700147 35.8319787 112.096764 36.8415842 112.493381 38.5242599 112.374396 40.8800059 111.739809L41.5110093 109.712486C41.4268755 109.55689 42.1420127 109.479092 43.6564209 109.479092 45.9280331 109.479092 50.7236589 109.003152 52.1118664 107.09939 53.0373381 105.830216 53.0373381 104.75935 52.1118664 103.886793L47.3162406 103.410853 42.2682134 104.600704 34.4437712 106.86142"/>
      <path fill="#31424B" d="M17.0965946,64.1860465 C18.1121382,71.4269399 18.4506528,75.7389326 18.1121382,77.1220246 C17.7736237,78.5051166 17.9428809,80.8238296 18.61991,84.0781637 L8.46447354,106.288994 C7.87207308,107.672086 8.25290195,108.363632 9.60696015,108.363632 C11.6380474,108.363632 17.8582523,112.756983 21.2857121,105.312694 C23.5706853,100.349834 25.9826015,94.7767871 28.5214606,88.5935523 L30.0447761,81.3933381 L25.9826015,65.8945719 L17.0965946,64.1860465 Z"/>
      <path fill="#3A4D57" d="M25.4925373,66.709843 C29.1343284,77.1887845 30.9552239,82.840812 30.9552239,83.6659255 C30.9552239,84.491039 31.6587517,89.44172 33.0658073,98.5179686 L33.8107191,106.810359 C34.224559,108.543098 35.9213026,109.120677 38.9009498,108.543098 C41.880597,107.965518 44.6947083,106.645337 47.3432836,104.582553 C47.0122117,104.252507 46.6811398,103.262371 46.3500678,101.612144 C46.0189959,99.9619172 45.3568521,94.3511454 44.3636364,84.7798287 C43.9497965,82.964579 43.4531886,81.190585 42.8738128,79.4578466 C42.2944369,77.7251083 40.5563094,71.7430354 37.6594301,61.5116279 L25.4925373,66.709843 Z"/>
      <path fill="#F9CDB9" d="M37.4522937 52.8549572C39.2674692 53.8871889 40.3479309 54.3172855 40.6936786 54.1452468 41.0394264 53.9732082 41.471611 53.6721406 41.9902326 53.2420441 42.5952911 53.0085631 42.8978204 53.1007266 42.8978204 53.5185347 42.8978204 54.1452468 42.5088542 55.5645655 41.9902326 55.5645655 41.6444849 55.5645655 41.0394264 55.994662 40.175057 56.8548552 39.9157462 57.370971 40.0886201 57.7580579 40.6936786 58.0161159 41.6012664 58.4032028 44.5833406 58.9193186 44.9723068 59.6934925 45.361273 60.4676663 45.7502392 60.8547532 45.361273 61.499898 45.1019622 61.9299946 43.6757528 62.2310622 41.0826448 62.4031008L38.2302261 61.499898 35.5074627 56.4677683 35.5074627 52.5968992 37.4522937 52.8549572zM17.3327329 5.34883721C18.1260869 9.81673905 18.5227639 12.21929 18.5227639 12.5564902 18.5227639 13.0622904 19.8450206 15.8441915 19.9772463 16.855792 20.109472 17.8673924 20.109472 20.6492935 18.5227639 20.6492935 17.4649586 20.6492935 16.5834541 21.1129437 15.8782506 22.0402441L15.3493479 23.1782946 7.6802591 22.6724944 7.28358209 19.258343 11.6470292 11.7977899 16.2749276 5.34883721 17.3327329 5.34883721z"/>
      <path fill="#3A4D57" d="M15.8201118,12.0195578 C15.8201118,10.9673406 15.8201118,9.99606322 15.8201118,9.10572561 C15.8201118,8.21538799 15.210411,8.37726756 13.9910093,9.59136431 L13.4684085,12.7480159 L13.9910093,15.297619 C14.3394098,16.3498362 14.1652095,17.159234 13.4684085,17.7258125 C12.4232071,18.5756802 10.5941045,20.154006 8.76500195,19.425548 C6.93589939,18.6970899 2.36314298,15.5404384 1.31794151,13.4764739 C0.27274005,11.4125094 -1.03376178,6.55612244 1.31794151,3.88510959 C3.66964481,1.21409675 6.67459902,5.553927e-16 10.3328041,0 C13.9910093,0 17.1266137,0.849867723 17.7798646,1.9425548 C18.4331155,3.03524187 18.4331155,5.34202569 17.1266137,5.82766439 C15.8201118,6.31330309 17.387914,11.5339191 16.8653133,12.0195578 C16.5169128,12.3433169 16.1685123,12.3433169 15.8201118,12.0195578 Z"/>
      <polygon fill="#74B0C1" points="6.373 23.453 6.63 21.395 15.25 22.424 18.209 24.07 13.578 23.453"/>
      <path fill="#F9CDB9" d="M50.3234972,27.9967618 C51.6508059,26.5072122 52.3144603,25.39005 52.3144603,24.6452752 C52.3144603,23.528113 51.9411547,22.2868217 52.5633307,22.2868217 C52.9781146,22.2868217 53.641769,23.1557256 54.5542937,24.8935335 L55.42534,26.0106957 C56.254908,26.258954 56.8770839,26.1762012 57.2918679,25.7624374 C57.9140439,25.1417918 58.4117846,24.397017 59.1583958,24.397017 C59.9050069,24.397017 61.3982292,24.1487587 60.9004884,25.5141792 C60.4027477,26.8795996 59.2828309,29.6104406 58.5362198,30.1069571 C57.7896087,30.6034737 54.3054233,32.0930233 53.434377,32.0930233 C52.8536794,32.0930233 52.3974171,32.0102705 52.0655899,31.844765 L50.0746269,28.6174075 L50.3234972,27.9967618 Z"/>
      <path fill="#51859B" d="M7.66022672,23.1782946 C6.81057336,24.4192653 6.25829867,25.4534076 6.00340266,26.2807215 C5.62105864,27.5216922 5.23871463,30.8723132 5.62105864,32.7337694 C5.87595465,33.9747401 6.72560802,36.1671218 8.17001874,39.3109144 L15.434555,58.421864 C16.1992431,61.8965821 17.0064138,63.923501 17.8560671,64.5026207 C19.1305472,65.3713002 21.0422673,66.8604651 25.6303954,66.8604651 C28.6891476,66.8604651 31.1531423,66.612271 33.0223797,66.1158827 C33.1073451,66.4468082 33.9569984,65.9090542 35.5713398,64.5026207 C37.9928519,62.3929704 40.03202,62.1447763 38.75754,59.2905435 C37.9078866,57.3877217 35.0615478,50.4382855 30.2185236,38.4422348 L22.6990913,35.9602933 C20.3200619,34.9675167 18.8331685,33.8920088 18.2384111,32.7337694 C17.3462751,30.9964103 16.7090351,28.762663 17.8560671,27.3975951 C18.6207552,26.4875499 20.1040562,25.8256988 22.3059701,25.4120419 C20.4439175,24.4192653 18.8331685,23.79878 17.4737231,23.5505858 C16.1142777,23.3023916 12.8431123,23.1782946 7.66022672,23.1782946 Z"/>
      <path fill="#619AAF" d="M34.5970149 49.9224806C37.0248756 51.0005408 38.238806 51.7883541 38.238806 52.2859203 38.238806 52.7834866 37.8341625 53.7786191 37.0248756 55.2713178L34.5970149 49.9224806zM21.8507463 25.4069767C21.2063056 25.4538247 19.8714668 26.0091567 17.8462301 27.0729729 15.8209934 28.1367891 15.9053783 30.3871694 18.0993847 33.8241139 19.1963879 34.8879301 21.0950474 35.9108302 23.795363 36.8928144 26.4956786 37.8747985 29.2803791 38.7749507 32.1494644 39.5932708 32.8245433 39.7569348 34.0903163 39.9205989 35.9467833 40.0842629 38.7314837 40.3297589 41.3896069 39.1022787 42.6553799 38.4885386 43.4992285 38.0793786 46.4948912 36.2446977 51.6423678 32.9844961L51.8955224 32.9844961C51.8955224 30.9256169 51.5157905 29.5279333 50.7563267 28.7914452 49.6171311 27.686713 49.2373992 27.3184689 48.4779354 27.686713 47.9716263 27.932209 44.722809 29.3233532 38.7314837 31.8601456 36.9594016 32.5148017 35.6514362 32.6375497 34.8075876 32.2283897 33.963739 31.8192296 29.6447919 29.5454253 21.8507463 25.4069767z"/>
    </g>
  </g>
</svg>
