<svg xmlns="http://www.w3.org/2000/svg" xmlns:xlink="http://www.w3.org/1999/xlink" width="131" height="244" viewBox="0 0 131 244">
  <defs>
    <polygon id="l4-5-p-left-2-a" points="0 1.548 0 .016 .693 .016 .693 1.548"/>
    <polygon id="l4-5-p-left-2-b" points=".041 6.616 12.398 13.76 12.357 7.196 0 .053"/>
    <rect id="l4-5-p-left-2-c" width="5.24" height="5.252" x="1.744" y=".656"/>
  </defs>
  <g fill="none" fill-rule="evenodd" transform="translate(-2)">
    <g transform="translate(21 30)">
      <ellipse cx="56" cy="197.261" fill="#BDD5DD" rx="56" ry="16.739"/>
      <g transform="translate(7.86)">
        <path fill="#F8C5AD" d="M18.994152 43.3378998L14.8414382 42.2544523 8.88319658 39.365259C8.04061696 38.6429607 7.61932715 37.8604708 7.61932715 37.0177894 7.61932715 36.175108 7.2582216 29.6744231 6.5360105 17.5157345 6.41564198 17.1545853 6.77674753 16.4924785 7.61932715 15.5294141 8.46190677 14.5663497 9.60540769 13.0615615 11.0498299 11.0150495 11.4109355 10.0519851 11.5914882 9.45006982 11.5914882 9.20930371 11.5914882 8.84815455 13.0359104 4.1532154 13.397016 4.1532154 13.7581215 4.1532154 13.1938941 3.43091707 12.7537967 3.79206623 12.4603985 4.03283234 11.9525938 4.69493915 11.2303827 5.77838664L10.5081716 5.59781206 10.6887243 0C7.07766882 1.0834475 5.03140403 1.98632041 4.54992996 2.70861874 4.06845589 3.43091707 3.16569201 5.23666289 1.84163832 8.12585622L1.29997999 17.1545853.0361105552 41.3515794C-.20462648 43.3980913.75832166 45.0834541 2.92495497 46.4076677 5.09158829 47.7318813 10.2072503 50.8618408 18.2719409 55.797546L18.994152 43.3378998zM75.3788842 58.4233129L88.9918369 52.9778305C91.2311971 51.6467125 92.3508772 50.6181214 92.3508772 49.8920571 92.3508772 49.1659927 91.7615719 47.1693159 90.5829613 43.9020264L83.8648807 24.8428379C83.6291586 24.2377843 83.5112975 23.693236 83.5112975 23.2091932 83.5112975 22.7251503 83.5112975 21.0915055 83.5112975 18.308259L81.0362152 13.7703569C80.3290488 12.9232819 79.7986741 12.4997444 79.4450909 12.4997444 79.0915077 12.4997444 77.7361055 11.8341854 75.3788842 10.5030675L75.3788842 15.7670338 73.6109683 14.4964213C72.9038019 13.7703569 72.6091493 13.7703569 72.7270103 14.4964213 72.8448714 15.2224856 73.3163156 16.795625 74.1413431 19.2158394 74.4949263 20.1839251 75.025301 20.9099895 75.7324674 21.3940323 76.4396338 21.8780752 77.6771749 23.3302039 79.4450909 25.7504183 79.9165351 25.7504183 80.1522572 26.1739558 80.1522572 27.0210309 80.1522572 28.2916434 83.5112975 46.0802194 83.1577143 46.4432515 82.9219922 46.685273 79.4450909 47.6533587 72.7270103 49.3475088L75.3788842 58.4233129z"/>
        <polygon fill="#130101" points="10.241 187.742 7.205 192.397 7.205 199.558 14.171 201.528 17.565 196.873 17.565 193.829 18.994 190.428"/>
        <polygon fill="#150002" points="75.977 191.962 76.713 196.595 80.398 200.871 87.766 199.624 87.766 193.031 85.187 188.399"/>
        <path fill="#3A4D57" d="M32.6895596,107.204287 C30.889166,111.672267 29.5688774,115.294954 28.7286938,118.072347 C27.8885101,120.84974 25.9080772,130.329103 22.787395,146.510437 L19.1866079,156.110557 C16.7860832,162.752149 15.3457683,167.280507 14.8656634,169.695632 C14.3855584,172.110756 12.7051911,178.269323 9.8245614,188.171334 L19.1866079,191.069483 L29.8089299,159.733243 C32.0894284,153.272786 33.2296777,149.891611 33.2296777,149.589721 C33.2296777,149.28783 37.4906091,139.446198 46.0124719,120.064824 L49.7932984,120.064824 C55.4345316,134.555571 59.3353843,143.914178 61.4958565,148.140646 C63.6563288,152.367114 65.5767486,158.284169 67.2571159,165.891811 L76.0790444,192.337423 C77.399333,191.371374 79.0797003,190.767592 81.1201463,190.52608 C83.1605924,190.284568 84.7209335,189.982677 85.8011696,189.620408 L81.1201463,172.050378 C79.439779,165.891811 78.2995298,161.967233 77.6993986,160.276646 C77.0992674,158.586059 75.6589525,155.023751 73.378454,149.589721 C72.1781917,146.450059 71.5780605,144.034935 71.5780605,142.344347 C71.5780605,139.808467 64.9166043,108.834496 63.8363682,107.204287 C63.1162107,106.117481 62.0959877,105.392944 60.7756991,105.030675 L32.6895596,107.204287 Z"/>
        <path fill="#31424B" d="M56.3274854,103.717791 C58.878468,107.727972 61.4763813,114.41237 64.1212255,123.770983 C66.7660697,133.129596 69.0014835,143.54762 70.827467,155.025055 L82.2462025,189.711656 L85.1461988,188.80836 C81.5212034,173.392092 79.1045398,164.178464 77.896208,161.167474 C76.6878762,158.156485 75.1170449,154.302418 73.183714,149.605274 C72.2170486,147.557801 71.6128827,145.630768 71.3712163,143.824174 C71.1295499,142.01758 70.8878836,140.150766 70.6462172,138.223733 C67.3837214,123.168785 65.6920568,115.400431 65.5712237,114.918673 C65.4503905,114.436915 64.785808,111.907683 63.5774762,107.330979 C63.2149766,106.487902 62.9128937,106.006144 62.6712273,105.885704 C62.429561,105.765264 60.3149803,105.042627 56.3274854,103.717791 Z"/>
        <path fill="#03A4B8" d="M34.5962024,48.7213268 L39.2739874,49.4408166 L45.9308353,55.9162247 L54.2069165,49.4408166 L57.2654682,50.1603064 C60.2640483,49.6806465 62.3030828,49.4408166 63.3825717,49.4408166 C64.4620605,49.4408166 67.700527,49.4408166 73.0979713,49.4408166 L75.9766082,59.3338013 C71.4187664,60.5329509 68.3002431,62.031888 66.6210382,63.8306125 C64.9418333,65.6293369 63.8623445,67.8477638 63.3825717,70.485893 L60.8637643,85.4153062 C60.3839915,88.0534355 60.3839915,90.5116923 60.8637643,92.7900766 C61.3435372,95.0684609 62.1831396,99.5053147 63.3825717,106.100638 L30.9979063,107 L32.2573099,91.351097 C32.6171396,90.8714372 32.6171396,89.9720749 32.2573099,88.6530103 C31.8974803,87.3339457 29.6185594,79.6593879 25.4205473,65.6293369 C25.5404905,63.5907825 25.1806608,62.2117604 24.3410584,61.4922706 C23.501456,60.7727808 21.2825067,58.9140989 17.6842105,55.9162247 L18.4038698,43.3251534 C22.2420523,44.644218 24.5809448,45.3037503 25.4205473,45.3037503 C26.2601497,45.3037503 28.1192694,45.9632826 30.9979063,47.2823472 L34.5962024,48.7213268 Z"/>
        <path fill="#14C1D9" d="M38.2482131,47.2638037 L45.8479532,55.0505606 L40.3690708,57.7668712 L34.7134503,48.3503279 C35.4174214,48.5323317 36.0654612,48.5323317 36.6575699,48.3503279 C37.2496785,48.1683241 37.7798929,47.8061493 38.2482131,47.2638037 Z"/>
        <path fill="#00CCD1" d="M46.502924,55.1070305 L51.7109979,57.7668712 L57.6374269,49.9646719 C56.4401685,48.30966 55.5422247,47.6594767 54.9435955,48.0141221 C54.3449664,48.3687675 51.5314092,50.7330703 46.502924,55.1070305 Z"/>
        <path fill="#F8C5AD" d="M42.3491788,44.5354678 C42.3491788,48.2279525 41.512425,49.5818635 39.8389173,48.5972009 C38.1654097,47.6125383 40.3768305,50.0126534 46.4731798,55.797546 L54.3625731,48.5972009 C53.1672105,48.2279525 52.5695292,47.5509969 52.5695292,46.5663344 C52.5695292,45.5816718 52.509761,44.720092 52.3902248,43.9815951 L49.5213545,46.9355828 L45.7559623,46.9355828 L42.3491788,44.5354678 Z"/>
        <path fill="#3A4D57" d="M39.2753645,32.5934377 L38.1942338,25.866754 C37.7137312,23.8605501 38.0741081,22.2083822 39.2753645,20.9102502 C40.476621,19.6121183 42.5187569,18.5500103 45.4017723,17.7239264 L53.3300646,17.7239264 L53.87063,21.2642862 C55.0718864,22.3263942 55.6725146,23.1524781 55.6725146,23.7425381 C55.6725146,24.3325981 55.3722005,27.5779279 54.7715723,33.4785276 L39.2753645,32.5934377 Z"/>
        <path fill="#F9CDB9" d="M39.9593953,32.1404521 C39.6010151,31.0459 39.0634448,30.8634746 38.3466843,31.593176 C37.6299239,32.3228775 37.9883041,33.8430888 39.421825,36.1538099 L40.4969657,39.0726156 L41.3929163,43.4508242 L46.2310493,47.6466074 C47.7840303,48.0114581 48.799441,48.0114581 49.2772813,47.6466074 C49.7551216,47.2817567 51.4275626,45.57912 54.2946044,42.5386974 L54.2946044,39.5378003 C56.0865056,37.6466574 56.9824561,35.8497677 56.9824561,34.147131 C56.9824561,32.4444944 56.5643459,31.9580267 55.7281253,32.6877282 L55.0113649,34.147131 L53.7570341,27.7622436 C53.9959542,25.93799 52.9208136,25.0258632 50.531612,25.0258632 C48.1424105,25.0258632 46.1115892,25.0258632 44.4391482,25.0258632 C43.1250874,24.7826294 42.2888668,25.0866717 41.9304866,25.93799 C41.5721064,26.7893083 40.9150759,28.8567957 39.9593953,32.1404521 Z"/>
        <g transform="translate(68.01 7.877)">
          <g>
            <g>
              <g transform="matrix(-1 0 0 1 13.206 0)">
                <path fill="#D2ECF4" d="M3.90655781,8.61620114 C3.16015639,8.42250957 2.365169,8.56809873 2.13098333,8.94107557 C1.89655133,9.31441867 2.31141036,9.77395544 3.05793493,9.96740284 C3.80409003,10.1613386 4.59932374,10.0161157 4.83363257,9.64258946 C5.06787982,9.2693074 4.65295922,8.81007585 3.90655781,8.61620114"/>
                <path fill="#3A4D57" d="M6.04449597,4.33288193 C6.04449597,4.33288193 6.17215727,5.33097491 6.19425439,5.44594392 C6.21640072,5.56091294 6.07318778,5.71858191 5.79296285,5.77066105 C5.51268871,5.82274019 5.35023306,5.72420942 5.35023306,5.72420942 L5.1342325,4.52298312 C5.1342325,4.52298312 5.46559084,3.962503 6.04449597,4.33288193"/>
                <path fill="#9FA3A4" d="M1.08634894,0.951418826 C1.01268644,1.04748909 0.66367922,0.962358504 0.569736364,0.895477291 C0.47472099,0.828645803 0.283081464,0.584293177 0.187871086,0.509157479 C0.0927094597,0.434021781 0.0374747656,0.416866377 0.0485412047,0.331735791 C0.0638002156,0.211349607 0.133513907,0.159883395 0.16174064,0.0308449195 C0.197377499,0.0754489704 0.19508621,0.18723259 0.303215558,0.212344123 C0.417487511,0.239394964 0.432746522,0.161424895 0.46599459,0.152275346 C0.500266426,0.143125797 0.610053303,0.152673152 0.610053303,0.152673152 C0.610053303,0.152673152 1.16001145,0.854354047 1.08634894,0.951418826" transform="translate(4.544 8.535)"/>
                <path fill="#9FA3A4" d="M4.61376599,8.41282707 C4.49121013,8.44994161 4.26751396,8.29670539 4.22630677,8.09684674 C4.18611453,7.89703637 4.203927,7.8915826 4.16601842,7.81716048 C4.12922628,7.74273835 4.07330224,7.46797495 4.0719828,7.41778104 C4.07112009,7.38669942 4.17566049,7.34702693 4.31130928,7.24837658 C4.32156033,7.31536615 4.29938356,7.35407338 4.30024627,7.38819559 C4.30136272,7.42931598 4.33419653,7.55103622 4.38453832,7.57791892 C4.4348801,7.60484988 4.46101521,7.59514895 4.50014174,7.59722427 C4.52759628,7.59857565 4.58747865,7.62623056 4.62640219,7.66146282 C4.62538723,7.66247636 4.62437228,7.66353815 4.62437228,7.66450342 C4.58209938,7.74085608 4.73632186,8.37672607 4.61376599,8.41282707"/>
                <g transform="translate(4.013 1.281)"/>
                <g transform="matrix(-1 0 0 1 12.398 0)">
                  <use fill="#F7F7F7" xlink:href="#l4-5-p-left-2-b"/>
                  <path stroke="#00B820" stroke-width=".616" d="M0.34760994,6.43768373 L12.0866609,13.2238188 L12.0503799,7.37462872 L0.311328944,0.588493682 L0.34760994,6.43768373 Z"/>
                </g>
                <g transform="matrix(-1 0 0 1 11.036 2.159)">
                  <path fill="#0072CB" d="M7.09771968,4.54297746 C7.05251683,4.57444761 7.00866748,4.60484366 6.96496212,4.63541489 C6.92731388,4.66175097 6.88665148,4.68452485 6.8532557,4.71593911 C6.82501472,4.74251868 6.81144139,4.72014986 6.78797124,4.67553636 C6.71855909,4.54352038 6.64641117,4.41187171 6.57515597,4.28010201 C6.56581591,4.26280968 6.55543912,4.24568605 6.54463997,4.22691866 C6.52922358,4.23578535 6.53599105,4.25728079 6.53596225,4.27318148 C6.5353575,4.48786586 6.53471435,4.70253757 6.53623103,4.91843496 C6.53648061,4.95421018 6.52792769,4.96348171 6.48864757,4.93849586 C6.43769478,4.90608349 6.38618523,4.87667736 6.33523244,4.85080273 C6.29457964,4.83016745 6.29278458,4.80913782 6.29286137,4.77891685 C6.29361971,4.4745936 6.29331253,4.16965181 6.29330294,3.86488946 C6.29330294,3.82621096 6.29407088,3.78796227 6.29298616,3.7486914 C6.29238141,3.7264572 6.3013951,3.72286319 6.32379014,3.73586343 C6.38774991,3.77301065 6.45172888,3.80977881 6.51567905,3.84548112 C6.53903401,3.85852876 6.54880604,3.87980129 6.5607667,3.90091369 C6.63809822,4.03745787 6.71660085,4.17379875 6.7922237,4.31066606 C6.81725853,4.35598849 6.83121584,4.35647487 6.85240137,4.34279974 C6.92384855,4.29669311 6.99859787,4.25497269 7.06851878,4.20687896 C7.09576143,4.18816075 7.12461676,4.18949495 7.16930125,4.21849962 C7.2169711,4.24944345 7.26519771,4.27505011 7.31313634,4.30127218 C7.33932308,4.31559539 7.34973826,4.32973213 7.34968067,4.35665806 C7.34897032,4.70277968 7.34901832,5.0493442 7.34969986,5.39626168 C7.34975746,5.4229656 7.33980304,5.4256131 7.31322273,5.40969973 C7.26049408,5.37811997 7.20754464,5.34657184 7.15496958,5.31956531 C7.11431677,5.29867001 7.10750131,5.2769521 7.1076741,5.24303425 C7.10876841,5.02863908 7.10831725,4.81334165 7.10793328,4.59809193 C7.10791408,4.58351035 7.11361603,4.57086279 7.09771968,4.54297746 Z M3.78971094,2.711106 C3.86451929,2.69897527 3.94018054,2.7244803 4.02348942,2.78117495 C4.07225605,2.81437794 4.11803755,2.85444171 4.15219125,2.90695998 C4.18125601,2.9516395 4.19766002,2.95285063 4.22483893,2.94712529 C4.3059208,2.93002332 4.46687154,3.01455292 4.5571931,3.1166846 C4.64043564,3.21080499 4.67186955,3.30389156 4.67320575,3.3924112 C4.67576444,3.56244224 4.67367011,3.72986843 4.67457038,3.89897906 C4.67470306,3.92558396 4.66479052,3.92855798 4.63837921,3.91265802 C4.58789731,3.88228931 4.53727327,3.85303675 4.48681032,3.82603911 C4.45673156,3.80995431 4.44939667,3.79354469 4.44962411,3.76643095 C4.45068549,3.64175356 4.45023061,3.51619991 4.44990841,3.39072211 C4.44985155,3.3690895 4.44771931,3.3462795 4.44667688,3.32407407 C4.44467732,3.28130856 4.42964742,3.23696819 4.38761865,3.19835401 C4.34328707,3.15762483 4.30041489,3.14297819 4.26211992,3.14809329 C4.2430435,3.15063579 4.24187788,3.16939732 4.24193474,3.19033375 C4.24234223,3.33905697 4.24102498,3.48681258 4.24286345,3.63632617 C4.2433278,3.6740368 4.23368061,3.68450491 4.19290276,3.65826466 C4.14893129,3.62996628 4.10442914,3.60516094 4.06034395,3.58232056 C4.0266167,3.56484577 4.01676102,3.54664207 4.01713061,3.5148756 C4.01856158,3.38886866 4.01786979,3.26162938 4.01768025,3.13467729 C4.01765182,3.11459253 4.01758549,3.09430045 4.01504576,3.07297468 C4.00646943,3.00106134 3.96933059,2.94911968 3.90426419,2.9165845 C3.84049609,2.88468958 3.80610547,2.90186719 3.806096,2.96563172 C3.80607704,3.10637888 3.80474084,3.24640071 3.80692046,3.38836786 C3.80753644,3.4282166 3.79389012,3.43260156 3.75527294,3.40793092 C3.7144098,3.38182755 3.67296859,3.35758429 3.63220969,3.33772259 C3.59255956,3.31840204 3.58494984,3.29757467 3.58513937,3.26294838 C3.58633343,3.03780939 3.58685464,2.81225784 3.58471293,2.58520222 C3.58430543,2.54248377 3.59873831,2.53876205 3.63909919,2.56578494 C3.66880836,2.58567768 3.69918089,2.60232032 3.72903221,2.61728186 C3.76727981,2.63644093 3.79958557,2.65655597 3.78971094,2.711106 Z M2.06619126,1.88685993 C2.06616258,1.71656848 2.06683197,1.54666689 2.06556012,1.37566461 C2.06532105,1.34427737 2.07308606,1.33648843 2.10790429,1.35662011 C2.32136557,1.48004078 2.53482685,1.60197465 2.74828814,1.7228213 C2.78118424,1.74143577 2.79380716,1.75758347 2.79188504,1.78952841 C2.78927439,1.83278816 2.78907357,1.87776964 2.79160771,1.92397113 C2.79344378,1.95724722 2.78317331,1.96141984 2.74924442,1.94155507 C2.61545099,1.86324152 2.48160976,1.78883134 2.3478259,1.71063477 C2.31362925,1.69065407 2.29830961,1.68896604 2.3018096,1.72746808 C2.30518528,1.76469102 2.30441069,1.80021923 2.30196261,1.83426089 C2.29971534,1.86548096 2.31164018,1.88251186 2.34518656,1.90126583 C2.47260158,1.97247549 2.60011223,2.04846969 2.72746988,2.1180947 C2.77505447,2.14410429 2.7884998,2.1671712 2.78448341,2.20856782 C2.78082085,2.24640332 2.78164325,2.28750949 2.78440691,2.32915881 C2.78675936,2.36442139 2.77264464,2.36409138 2.74029362,2.34521245 C2.61286903,2.27083788 2.48534882,2.2011478 2.3580103,2.12475022 C2.30973718,2.09578223 2.30030824,2.106123 2.30127408,2.14979228 C2.30412381,2.27984352 2.30133146,2.40677091 2.30310058,2.53625075 C2.30355004,2.56928225 2.293117,2.57378007 2.25971407,2.55300802 C2.21046554,2.52239507 2.16086319,2.4939401 2.11164335,2.46850088 C2.07561064,2.44988638 2.06518717,2.43165102 2.06550274,2.39729139 C2.06707104,2.22791308 2.06621995,2.05715138 2.06619126,1.88685993 Z M5.86566269,4.23083075 C5.89951809,4.15449985 5.93362509,4.07970246 5.96623176,4.00353424 C6.0051007,3.91277886 6.00454157,3.91227262 6.12326377,3.98007265 C6.24419454,4.04913552 6.24319742,4.04819232 6.20088982,4.13881883 C6.10026484,4.35435073 6.00004988,4.57027564 5.90149368,4.78774589 C5.88932326,4.81458591 5.87269843,4.81698053 5.83771545,4.7948699 C5.78978858,4.76460267 5.74151692,4.737673 5.69348755,4.71206632 C5.65567164,4.6919172 5.64144175,4.67588124 5.6593619,4.6454273 C5.6873837,4.59775975 5.71026148,4.54490325 5.73670839,4.49561706 C5.74622294,4.47789055 5.74557062,4.45752173 5.73576719,4.42849761 C5.64840293,4.17013568 5.56293972,3.91205868 5.47509089,3.65363418 C5.46012481,3.60958042 5.46468173,3.60108757 5.50419367,3.62555465 C5.55527962,3.65718987 5.60676629,3.68762728 5.65770315,3.71309642 C5.69403736,3.73127916 5.71055037,3.75555943 5.72205915,3.79384983 C5.76059261,3.92203607 5.80055186,4.05051527 5.84059497,4.17900513 C5.84532895,4.19420936 5.84831099,4.210445 5.86566269,4.23083075 Z M8.85646314,5.77484694 C8.85774322,5.7439964 8.8455488,5.72542553 8.81454784,5.71127188 C8.80191069,5.70549588 8.78880193,5.69551782 8.77615516,5.68969842 C8.74730049,5.67643086 8.73585679,5.65922734 8.73715612,5.63047246 C8.7391003,5.58751268 8.73917729,5.5432389 8.73693475,5.49790416 C8.73526969,5.46445048 8.74947566,5.46568446 8.7795334,5.48299432 C8.85574129,5.52689127 8.86240154,5.52869068 8.85440347,5.45153369 C8.84369125,5.34819746 8.86948528,5.30585515 8.97380674,5.3353154 C9.07687699,5.36441082 9.07372974,5.35210272 9.07373936,5.46010266 C9.07373936,5.51057966 9.0753563,5.56203806 9.07321963,5.61121754 C9.07194918,5.64071856 9.08062098,5.65837442 9.11321963,5.67494824 C9.15151607,5.69441992 9.19011087,5.7191696 9.22853242,5.7401247 C9.25107333,5.75241636 9.26083271,5.76677115 9.26044773,5.78870518 C9.25958151,5.83707603 9.25841693,5.88530469 9.25955264,5.93478231 C9.26016861,5.96130637 9.24795495,5.96015029 9.2245767,5.94608168 C9.18616476,5.92297162 9.14763734,5.90311202 9.10924465,5.87952024 C9.08212242,5.86284655 9.07285389,5.86714579 9.073364,5.89430104 C9.07482694,5.97240232 9.07275765,6.04855022 9.07427834,6.12668451 C9.07606852,6.2180304 9.13764696,6.29677155 9.22228603,6.31127264 C9.26491356,6.31857137 9.26636688,6.33325582 9.26487506,6.36661006 C9.26288276,6.41113423 9.26336399,6.45724331 9.26474994,6.50374651 C9.26550066,6.5290684 9.25627063,6.536763 9.23113108,6.52705053 C9.15315225,6.496942 9.07490394,6.45923149 8.9994179,6.3865432 C8.89370087,6.28473405 8.86388374,6.17776066 8.85674226,6.07308332 C8.85328701,6.02244051 8.8561359,5.97496644 8.8561359,5.92607188 C8.85591454,5.87546831 8.85441309,5.82407594 8.85646314,5.77484694 Z M5.40030312,3.79747616 C5.40037284,3.96629185 5.39945653,4.13456231 5.40113976,4.3042913 C5.40148835,4.33836471 5.39288296,4.34721314 5.35423838,4.32245017 C5.30965767,4.29388421 5.26445945,4.26797535 5.2198887,4.24560272 C5.17995929,4.22556806 5.16976031,4.20653424 5.16996946,4.1702248 C5.1715033,3.89857616 5.17076626,3.62562907 5.17072642,3.35308063 C5.17071646,3.28493655 5.17198137,3.21749356 5.17001926,3.14828901 C5.16915275,3.11794235 5.17864458,3.11129169 5.21198051,3.13176498 C5.26002727,3.16128153 5.30834296,3.18913085 5.35633993,3.21419653 C5.39167781,3.23265565 5.40119952,3.25038243 5.40092064,3.28220174 C5.39946649,3.45323063 5.4002334,3.62555737 5.40030312,3.79747616 Z M8.42273579,5.36364524 C8.48642185,5.33913343 8.55805806,5.36358331 8.638927,5.42042807 C8.68239347,5.45098342 8.70701724,5.47997664 8.70343354,5.52775728 C8.69914254,5.58506972 8.70241502,5.64724547 8.70241502,5.71548976 C8.65562892,5.66085155 8.61189839,5.62467564 8.56373539,5.5997646 C8.47290754,5.55278912 8.42661184,5.57126299 8.42664013,5.65902447 C8.42666842,5.78582515 8.42584795,5.91213121 8.42719655,6.03965897 C8.42750776,6.06957133 8.41928412,6.07672763 8.38752125,6.05705234 C8.33895273,6.02695059 8.29017673,5.99980393 8.24153277,5.9731878 C8.21729566,5.95992362 8.20832699,5.94631714 8.20838357,5.92215894 C8.20899657,5.68596206 8.20910974,5.44948867 8.20840244,5.21255543 C8.20833642,5.18549484 8.21921011,5.18383759 8.24488069,5.19957436 C8.28092514,5.22167923 8.31720535,5.24309244 8.35316492,5.26137858 C8.39597123,5.28314316 8.43000692,5.30656029 8.42273579,5.36364524 Z M5.03710734,3.74918015 C5.03710734,3.86454847 5.03593834,3.97924837 5.03783428,4.09567266 C5.0383844,4.12951177 5.03059435,4.13986154 4.99204686,4.11544064 C4.94321414,4.08451101 4.89399831,4.05778479 4.84500842,4.0311128 C4.81744363,4.01610114 4.80681458,3.99920164 4.80684405,3.97364876 C4.80714858,3.7368648 4.80724681,3.49996289 4.80667705,3.26267902 C4.80660828,3.23316282 4.82099974,3.23376481 4.84915395,3.25069695 C4.89814384,3.28015172 4.94727126,3.30870132 4.99621203,3.33467999 C5.0285707,3.35185181 5.0382174,3.36844259 5.03778516,3.39881541 C5.03611516,3.51476547 5.03710734,3.63225646 5.03710734,3.74918015 Z M5.07088701,3.16560479 C5.0709168,3.24753205 5.00280661,3.27422889 4.91904667,3.22514458 C4.84011274,3.17888808 4.77498157,3.07764593 4.7736708,2.99916572 C4.77230045,2.91759495 4.84057945,2.88753776 4.92281016,2.93351145 C4.99956942,2.97644451 5.07085722,3.08816951 5.07088701,3.16560479 Z M3.44054948,3.05204788 C3.44054017,3.10983365 3.44564789,3.16926758 3.48562573,3.25073754 C3.40827506,3.20650933 3.3405909,3.16802761 3.27290674,3.12879264 C3.26584526,3.12469776 3.25355512,3.11457156 3.25257823,3.11004646 C3.23909722,3.04728361 3.2116235,3.06169524 3.18508014,3.05775018 C3.0590434,3.03901258 2.90747739,2.91666928 2.83923501,2.77965882 C2.72296711,2.54622193 2.8338761,2.37046473 3.03862185,2.4657487 C3.09084332,2.49004948 3.14375327,2.51795718 3.19570493,2.5613642 C3.20454341,2.56875399 3.21496352,2.5800421 3.22205291,2.57622943 C3.23067741,2.57158777 3.22340194,2.55559492 3.21992237,2.54398462 C3.20372469,2.48999472 3.16564479,2.45393778 3.12494125,2.42418977 C3.05210286,2.37096625 2.9836558,2.35063186 2.91737649,2.3424735 C2.90501192,2.3409529 2.89489884,2.34754667 2.87529602,2.33136078 C2.87529602,2.27383668 2.87548209,2.21548454 2.87519368,2.1568611 C2.87510064,2.13679413 2.88709306,2.13715799 2.90340239,2.14130601 C3.01464631,2.16956808 3.12670895,2.22014276 3.24204648,2.31352336 C3.36427803,2.41250494 3.43900507,2.5517358 3.44020524,2.6896866 C3.44125656,2.81099968 3.44056808,2.93133704 3.44054948,3.05204788 Z M8.09582315,5.71358352 C8.09584183,5.77119173 8.1014007,5.83063447 8.14233075,5.91196865 C8.06469351,5.86757658 7.99668851,5.82864449 7.92868351,5.78985526 C7.91882704,5.78422897 7.90769063,5.77627089 7.905056,5.76492677 C7.89425592,5.718496 7.87515025,5.71970441 7.84871061,5.71795738 C7.70706701,5.70861177 7.5196165,5.54448934 7.47004451,5.38132187 C7.40693505,5.17352971 7.48361935,5.02592797 7.70909436,5.13408142 C7.7583487,5.15771134 7.80851862,5.18466466 7.85709095,5.22787518 C7.88177417,5.24982652 7.88474513,5.23832584 7.87843885,5.21567319 C7.86791905,5.17786898 7.84746804,5.14446197 7.81528268,5.11497352 C7.72781699,5.03482962 7.64561119,5.01046243 7.56756287,5.00353845 C7.52771656,5.00000158 7.5272214,4.98450006 7.52819303,4.95319986 C7.52941692,4.91431088 7.53042592,4.87509905 7.52791275,4.83420661 C7.52590409,4.80151657 7.53822702,4.79611559 7.56730128,4.80428314 C7.67179858,4.83363479 7.77601561,4.87999687 7.88431537,4.96508231 C8.01389763,5.06689856 8.09468335,5.20740113 8.09559892,5.34253791 C8.0964491,5.46665682 8.09578578,5.58992937 8.09582315,5.71358352 Z"/>
                  <path fill="#FFF" d="M3.18664842 2.8631053C3.13801057 2.85361238 3.08939091 2.83464942 3.04474484 2.77596797 2.99086948 2.70516301 3.00097168 2.63040736 3.06254871 2.63258949 3.10816772 2.63420645 3.15539617 2.66355794 3.2025246 2.70949201 3.23993274 2.74596042 3.21636398 2.7663954 3.22309271 2.78932023M7.71026696 5.47267925C7.65479633 5.40608903 7.66078625 5.32238737 7.71917879 5.32359966 7.74454462 5.32411841 7.77210188 5.33256364 7.80198754 5.3508443 7.87275254 5.39415661 7.8848602 5.41292396 7.88478715 5.48438324 7.88454062 5.51902989 7.89437467 5.56237862 7.8495964 5.5544315"/>
                  <path fill="#0072CB" d="M0.012556795,1.38930344 C0.000149223389,1.38169761 0.000182364254,1.38172286 0.000182364254,1.36502142 C0.000198934687,1.16723946 0.000294674964,0.969503563 8.94960843e-08,0.771530867 C-1.64809364e-05,0.75952942 0.00226287412,0.758111423 0.0111041205,0.763536033 C0.468928601,1.04449532 0.926753082,1.3251067 1.38457572,1.60577124 C1.39988128,1.615156 1.39744542,1.61231319 1.39744911,1.63052444 C1.39750986,1.82753218 1.39749329,2.02449251 1.39749514,2.22146659 C1.39749514,2.23832102 1.39748593,2.2382685 1.38510782,2.23068072 C1.15650397,2.09053694 0.927898283,1.95040435 0.699294437,1.8102729"/>
                  <path fill="#00B820" d="M0.010721048,0.625910912 C0.00218288234,0.620689326 1.29414714e-05,0.616365134 2.58140019e-05,0.60511039 C0.00026855315,0.407250364 0.000270392083,0.209240206 6.89407944e-08,0.0110632128 C-1.46425227e-05,-0.000720154067 0.00232080231,-0.00249658373 0.0111697476,0.00293273086 C0.468681551,0.28367483 0.926195194,0.564095774 1.38370884,0.844556082 C1.39569868,0.851905843 1.39571891,0.851947765 1.39572075,0.867858778 C1.3957281,1.06505534 1.39563432,1.2621899 1.39595429,1.45957317 C1.39597452,1.47223574 1.39344783,1.47356527 1.38417776,1.46787043 C1.15526923,1.32717825 0.926358859,1.18693762 0.697450326,1.04661201"/>
                </g>
              </g>
              <path fill="#00B820" d="M4.2829351,7.07877702 L4.2829351,7.38204595 L4.02374488,7.23294592 L4.02586939,6.93089912 L3.95788507,6.89179091 C3.97700566,6.92806251 3.99612625,6.958016 4.01737135,6.99129765 C3.95363605,6.98622423 3.89627428,7.01219564 3.83041447,7.07118714 C3.74118505,6.91244987 3.65832916,6.73210659 3.61158994,6.5641154 C3.66257818,6.57028018 3.70719289,6.56856649 3.75393211,6.57439304 L3.42250855,6.37952847 L3.58822033,6.55067196 C3.55635268,6.68608049 3.46499875,6.78305727 3.35027521,6.83921216 C3.31628305,6.72278048 3.23342716,6.59719409 3.17394088,6.5313839 C3.26529481,6.49548211 3.33327913,6.43139463 3.38426737,6.35753011 L3.26954383,6.29153501 L3.26954383,4.96683945 L3.90689683,5.33347888 L3.90689683,6.65817443 L3.82404094,6.61051131 C3.85165957,6.68958005 3.89414977,6.78141577 3.92814193,6.83677246 L3.92814193,6.65354747 L4.02374488,6.70854339 L4.02374488,6.19888309 L4.38491158,6.4045394 L4.38491158,6.36663078 L3.92601742,6.1026504 L3.92601742,5.88994093 L4.19158117,6.04270736 L4.19158117,5.99426857 L3.99400174,5.88061035 L3.99400174,5.70370347 L4.19158117,5.81525566 L4.19158117,5.7689229 L3.95788507,5.63448845 L3.95788507,5.4470514 L4.19158117,5.58148585 L4.19158117,5.53094103 C4.19158117,5.50145655 4.16183803,5.49066482 4.16183803,5.46749844 C4.16183803,5.45065016 4.18095862,5.45954331 4.20007921,5.47054249 L4.44014884,5.60864334 L4.44014884,5.72447523 L4.56124591,5.79413672 L4.56124591,5.73516776 C4.56124591,5.71831948 4.53575179,5.70575994 4.53575179,5.6846996 C4.53575179,5.66785133 4.55062336,5.67219418 4.56974395,5.68319336 L4.80556456,5.81884994 L4.80556456,5.93468183 L5.07112831,6.08744826 L5.07112831,6.27488531 L4.80981358,6.12456314 L4.80981358,6.1708959 L5.02863811,6.29677543 L5.02863811,6.47578835 L4.80981358,6.34990881 L4.80981358,6.3983476 L5.0902489,6.55966894 L5.0902489,6.77027237 L4.63560376,6.50873625 L4.63560376,6.5487509 L4.98827242,6.75373075 L4.98827242,7.26339104 L5.09449792,7.32449761 L5.09449792,7.54563121 L4.98827242,7.48452464 L4.98827242,7.63194704 C4.98827242,7.67406773 4.96702732,7.69975503 4.91603908,7.69569629 C4.83318319,7.68804782 4.7290822,7.63869355 4.63347925,7.5879097 C4.61223415,7.49144702 4.58461552,7.39342397 4.53150277,7.28705345 C4.59311356,7.3246013 4.65047533,7.36181092 4.71208612,7.38251049 C4.72270867,7.38440907 4.72695769,7.37632317 4.7290822,7.36490909 L4.7290822,7.33542461 L4.2829351,7.07877702 Z M3.66045367,5.90986932 L3.66045367,5.79614347 L3.5181115,5.71426067 L3.5181115,5.82798652 L3.66045367,5.90986932 Z M3.66045367,6.27210722 L3.66045367,6.14785119 L3.5181115,6.06596839 L3.5181115,6.19022441 L3.66045367,6.27210722 Z M3.66045367,5.5707978 L3.66045367,5.45707195 L3.5181115,5.37518915 L3.5181115,5.488915 L3.66045367,5.5707978 Z M4.38703609,6.66059168 L4.38703609,6.60372875 L4.2829351,6.54384431 L4.2829351,6.60070724 L4.38703609,6.66059168 Z M4.38703609,6.91752786 L4.38703609,6.85434683 L4.2829351,6.79446239 L4.2829351,6.85764342 L4.38703609,6.91752786 Z M4.73585438,6.85735483 L4.73585438,6.80049191 L4.63560376,6.74671812 L4.63560376,6.80358105 L4.73585438,6.85735483 Z M4.73585438,7.11429101 L4.73585438,7.05110998 L4.63560376,6.9973362 L4.63560376,7.06051723 L4.73585438,7.11429101 Z M4.56124591,5.98157377 L4.43802433,5.91069015 L4.43802433,5.9570229 L4.56124591,6.02790652 L4.56124591,5.98157377 Z M4.56124591,6.20691944 L4.43802433,6.13603582 L4.43802433,6.1844746 L4.56124591,6.25535822 L4.56124591,6.20691944 Z M6.35849285,6.6890107 L6.63680366,6.90386681 C6.6240566,7.01025987 6.60068699,7.10211814 6.57306836,7.19363818 L7.27628117,7.59816367 L7.27203215,8.76456843 C7.27203215,8.86144601 7.24866254,8.96383445 7.15305959,8.95938336 C7.0489586,8.95425581 6.93848408,8.88859894 6.82376054,8.82260385 C6.81313799,8.72172165 6.79189289,8.59998655 6.72390857,8.46189474 C6.79826642,8.50466934 6.88537133,8.56109483 6.95760467,8.58369299 C6.99372134,8.58762095 6.9852233,8.56799018 6.98947232,8.53673789 L7.00009487,8.08162705 C6.88112231,8.37121351 6.60493601,8.52192347 6.29263304,8.52128307 C6.24589382,8.40594274 6.15241538,8.24054914 6.08868008,8.16808261 C6.57094385,8.19488836 6.76002524,7.92878396 6.86837525,7.64782907 L6.8152625,7.61938182 C6.73240661,7.89183591 6.54757424,8.06561303 6.27988598,8.08221325 C6.23739578,7.98827149 6.20552813,7.88569815 6.10142714,7.77526889 C6.3266252,7.78477086 6.49233698,7.61052473 6.53695169,7.45717657 L6.49233698,7.43151181 C6.44984678,7.51447693 6.38186246,7.61226096 6.31175363,7.65406596 C6.29050853,7.61657223 6.26713892,7.56522017 6.24376931,7.53071638 L6.24376931,7.74131981 C6.17578499,7.73169608 6.11204969,7.71609248 6.04406537,7.70225669 L6.04406537,8.38671783 L5.76363005,8.22539648 L5.76363005,7.62517672 C5.69352122,7.61011879 5.60641631,7.58949588 5.53843199,7.57776612 C5.50231532,7.46643042 5.46407414,7.3370243 5.42795747,7.22568859 C5.54268101,7.26641128 5.64890651,7.29171527 5.76363005,7.33033192 L5.76363005,7.02285091 L5.70626828,6.98985337 C5.69777024,7.07973638 5.67227612,7.138782 5.63615945,7.22330748 C5.54480552,7.09283257 5.48531924,7.05018875 5.40033884,6.99287936 C5.51718689,6.78841816 5.50656434,6.57170408 5.50868885,6.36864088 L5.72538887,6.5185707 C5.72538887,6.5859638 5.72751338,6.66721523 5.72326436,6.7342701 L5.76363005,6.75749059 L5.76363005,6.43105528 C5.76363005,6.4078889 5.72963789,6.40307704 5.72963789,6.37359256 C5.72963789,6.34410808 5.77000358,6.37364668 5.79124868,6.385868 L6.04406537,6.53130163 L6.04406537,6.91881194 L6.2416448,7.03247016 L6.2416448,7.1883167 C6.31175363,7.05174015 6.34149677,6.87298881 6.35849285,6.6890107 Z M6.18428303,7.26483293 L6.04194086,7.18295013 L6.04406537,7.41794206 L6.19278107,7.45715851 C6.16941146,7.42265472 6.13117028,7.37538394 6.0929291,7.3365373 C6.13117028,7.31430895 6.15878891,7.29439407 6.18428303,7.26483293 Z M9.47081148,10.058908 L9.47081148,10.3158442 L7.76907897,9.33691692 L7.76907897,9.07998074 L8.10687606,9.27429964 C8.08987998,9.15079673 8.03251821,9.00617937 7.97940546,8.89559678 L8.1791094,8.96203834 L7.93054173,8.8148369 L7.93054173,8.56211279 C7.89867408,8.56062909 7.881678,8.56138221 7.84981035,8.55779248 C7.80944466,8.43980044 7.73083779,8.30612814 7.63948386,8.18407736 C8.02189566,8.26295672 8.33632314,8.11318478 8.44892217,7.90417329 L8.77184769,8.13837605 L8.74847808,8.16705329 C8.96092908,8.56515692 9.26898303,8.93612113 9.56428992,9.23657152 C9.4963056,9.27959865 9.43894383,9.34137265 9.40282716,9.41536795 C9.26898303,9.28361679 9.14788596,9.13181996 9.02253987,8.98179094 L9.02253987,9.07866851 L8.73998004,8.91612504 L8.73998004,9.02142675 L9.3050997,9.3465137 L9.3050997,9.60555592 L9.08415066,9.47845425 L9.24348891,9.61644686 C9.19674969,9.69696772 9.15850851,9.7823771 9.08839968,9.83892434 L9.47081148,10.058908 Z M8.45317119,8.85643901 L8.45317119,8.7511373 L8.18760744,8.59837087 L8.18760744,8.54150795 C8.1153741,8.56313651 8.02614468,8.56866991 7.94116428,8.55769327 L8.45317119,8.85643901 Z M8.45317119,9.47350705 L8.45317119,9.11548123 L8.25134274,8.99937874 C8.31720255,9.13835446 8.37881334,9.27909799 8.41068099,9.41326184 C8.3490702,9.38624417 8.29808196,9.36533715 8.2428447,9.34830398 L8.45317119,9.47350705 Z M8.40643197,8.46520819 L8.82920946,8.70841234 C8.73573102,8.58092736 8.64437709,8.42307399 8.60188689,8.34598051 C8.54240061,8.3960022 8.47866531,8.43094342 8.40643197,8.46520819 Z M8.95030653,9.40145998 L8.74210455,9.2816911 L8.74210455,9.63971692 L8.9864232,9.78026204 C8.92693692,9.72076995 8.85682809,9.6678034 8.79096828,9.61938716 C8.85470358,9.55285542 8.92056339,9.47912168 8.95030653,9.40145998 Z"/>
            </g>
          </g>
          <path fill="#F8C5AD" d="M8.2940685,13.7852761 C7.20245057,13.1288344 6.43831802,12.1441718 6.00167084,10.8312883 C5.56502367,9.51840491 5.23753829,8.31492843 5.0192147,7.2208589 C4.36424394,6.34560327 4.25508215,5.90797546 4.69172932,5.90797546 C5.1283765,5.90797546 5.78334726,6.34560327 6.6566416,7.2208589 L7.63909774,8.20552147 L9.60401003,11.8159509 L8.2940685,13.7852761 Z"/>
        </g>
      </g>
    </g>
    <image width="21" height="30" x="53" xlink:href="images/L4.5-coupon-sm.png"/>
    <image width="20" height="30" x="91" y="95" transform="rotate(-80 101 110)" xlink:href="images/L4.5-coupon-sm.png"/>
    <image width="14" height="21" x="6" y="9" transform="rotate(-50 13 19.5)" xlink:href="images/L4.5-coupon-sm.png"/>
    <image width="13" height="19" x="17" y="74" transform="matrix(-1 0 0 1 47 0)" xlink:href="images/L4.5-coupon-sm.png"/>
  </g>
</svg>
