<svg xmlns="http://www.w3.org/2000/svg" xmlns:xlink="http://www.w3.org/1999/xlink" width="232" height="376" viewBox="0 0 232 376">
  <defs>
    <polygon id="l4-5-p-right-2-a" points="18.36 102.579 .324 102.579 .324 .7 18.36 .7"/>
    <polygon id="l4-5-p-right-2-c" points="8.827 11.062 .065 11.062 .065 .054 8.827 .054"/>
    <polygon id="l4-5-p-right-2-e" points="0 .185 0 11.703 23.523 11.703 23.523 .185 0 .185"/>
    <polygon id="l4-5-p-right-2-g" points=".575 .187 16.45 .187 16.45 7.077 .575 7.077 .575 .187"/>
    <polygon id="l4-5-p-right-2-i" points="0 86.356 0 .057 31.116 .057 31.116 86.356 0 86.356 31.116 86.357 31.116 68.642 0 68.642 0 86.356"/>
  </defs>
  <g fill="none" fill-rule="evenodd" transform="translate(-1)">
    <g transform="translate(165)">
      <path fill="#EED7BA" d="M16.5437903,5.80848308 C18.1937903,1.62554812 21.0647581,-0.590479317 23.6083065,0.977510706 C26.1510484,2.54550073 22.1994355,13.8869696 20.9365323,17.8012458 C19.6728226,21.7171503 19.2470161,24.0194742 18.1018548,24.927215 C16.9558871,25.8349559 6.28814516,38.6108995 6.28814516,38.6108995 C6.28814516,38.6108995 7.00427419,41.7867713 6.51314516,43.3506907 C6.02120968,44.9154243 5.35991935,46.7878942 4.83733871,46.5754096 C4.31475806,46.3637391 4.52443548,43.7707753 4.08975806,43.6885494 C3.65508065,43.6071377 3.2091129,46.0201815 3.30427419,46.7186942 C3.40024194,47.4172069 4.95024194,49.9784201 4.5325,50.5352764 C4.11475806,51.0921326 2.21395161,49.5770602 1.2808871,48.4250842 C0.347016129,47.2739223 -0.0804032258,45.6945346 0.0123387097,44.8274996 C0.105080645,43.9596505 0.410725806,42.0651994 0.410725806,42.0651994 L2.76395161,37.6070928 L11.1849194,22.3309948 L16.5437903,5.80848308 Z" transform="translate(0 24.136)"/>
      <path fill="#384B54" d="M15.0191121,35.1986032 C15.0191121,35.1986032 12.2478328,43.4120088 11.2301085,45.2227004 C10.2115765,47.0333921 9,48.9746701 9,48.9746701 C9,48.9746701 9.96926121,51.3499089 12.0135947,52.3261217 L14.0579281,53.300742 C14.0579281,53.300742 17.4131873,50.789343 17.8913562,49.6451197 C18.3687173,48.5001001 17.1183704,40.3464139 17.1183704,40.3464139 L15.0191121,35.1986032 Z"/>
      <path fill="#4D6570" d="M9.17121647,49.2780445 C9.17121647,49.2780445 7.9615953,49.6965686 8.00093938,51.2963816 C8.00093938,51.2963816 8.38014934,52.5465186 9.90452314,54.1617318 C11.4288969,55.7760391 13.3651279,56.3177652 13.3651279,56.3177652 C13.3651279,56.3177652 14.3462186,55.3991863 15,53.6372178 C15,53.6372178 12.0600764,52.1153119 11.0563839,51.136038 C10.0526913,50.156764 9.17121647,49.2780445 9.17121647,49.2780445"/>
      <path fill="#E8C8A1" d="M10.0078674,146.293341 C9.73833707,148.533096 16.4717388,147.977002 18.2904614,146.849435 C20.1083747,145.721059 21.5223971,143.482114 22.7850617,142.505105 C24.0469169,141.512717 25.1582236,141.512717 25.3095815,140.535708 C25.3435763,140.249162 25.4277539,139.441329 25.4949342,138.33076 C25.6964749,135.619905 25.9158224,131.091829 25.7304697,127.909873 C25.4447513,123.414175 26.101175,113.044283 25.3095815,107.707565 C25.1922184,106.950727 25.1080408,106.159083 25.0238631,105.333442 C24.6369698,101.24328 24.6199724,96.5128414 24.5017999,93.717803 C24.350442,90.3512914 25.1582236,76.983998 25.1582236,76.983998 C25.1582236,76.983998 26,61.5469354 26,57.9108762 C26,56.6813183 25.0068657,56.0078541 23.6770209,55.671122 C21.0675141,54.9644703 17.1621573,55.518945 17.1621573,55.518945 C12.5331966,77.4057226 14.4012926,89.7450117 14.5024677,96.630212 C14.5866453,102.808761 16.3203809,106.731366 17.0277968,113.599568 C17.7344034,120.468579 19.1314284,130.148818 18.8457101,133.666697 C18.6603574,136.023821 14.8391782,139.930238 12.2806636,142.892833 C11.0519939,144.340943 10.1090424,145.552693 10.0078674,146.293341"/>
      <g transform="translate(18 55.312)">
        <mask id="l4-5-p-right-2-b" fill="#fff">
          <use xlink:href="#l4-5-p-right-2-a"/>
        </mask>
        <path fill="#EED7BA" d="M0.930920833,17.7769838 C2.3139625,22.0772789 6.4298375,22.4948066 5.87012917,29.4445194 C5.32704583,36.3782043 4.91537917,44.578096 6.01817083,49.5788119 C6.06804583,49.7623317 6.10050417,49.9618795 6.15037917,50.1453994 L6.15037917,50.1622287 C7.21992083,54.961794 8.52062917,59.6627874 9.31150417,68.7466198 C10.1340458,78.1966905 10.1340458,87.7805945 9.8545875,90.1302898 C9.72317083,91.2306076 9.1468375,93.5306163 8.6860875,95.8306251 C8.1255875,98.4808442 7.6980875,101.131063 8.20792083,101.947687 C9.1634625,103.464731 14.9260042,101.947687 15.7493375,100.547646 C16.5726708,99.1644356 16.3090458,96.1143195 16.3090458,94.4474142 C16.3090458,94.1476918 16.3581292,93.0473741 16.4570875,91.4141275 C16.8853792,83.9795696 18.0380458,65.4296386 17.8068792,61.1125142 C17.5440458,55.8289053 16.0287958,47.4951803 16.4404625,41.5287813 C16.8521292,35.5447516 18.9104625,30.8277302 18.2185458,20.4103736 C17.5440458,9.99381842 13.6910042,9.16036578 13.4273792,3.74372501 C13.2468792,0.360227848 8.4390875,0.443573112 4.83304583,0.976501964 L4.81642083,0.976501964 C2.65992083,1.30988302 0.930920833,1.79392667 0.930920833,1.79392667 C0.930920833,1.79392667 -0.435495833,13.4606608 0.930920833,17.7769838" mask="url(#l4-5-p-right-2-b)"/>
      </g>
      <path fill="#69A6A5" d="M15.701701,55.3120908 C15.701701,55.3120908 19.0612423,60.3236997 31.97905,58.5492736 C31.97905,58.5492736 37.6246459,65.1272613 37.9363807,72.540651 C38.2481154,79.9540408 37.3129112,91.5436373 37.3129112,91.5436373 C37.3129112,91.5436373 32.7416011,93.5277172 24.1177395,93.5277172 C15.4938779,93.5277172 13,90.8126606 13,90.8126606 C13,90.8126606 13.5195579,69.3034682 14.0391158,63.769733 C14.5586737,58.2359979 15.701701,55.3120908 15.701701,55.3120908"/>
      <path fill="#E8C8A1" d="M41.9631616,38.1367548 C41.0274841,32.1203733 38.6363083,30.4232221 33.2309714,26.308916 C27.8256346,22.1954011 21.7437309,20.0868193 18.6256056,24.8689089 C15.5066807,29.6509985 14,36.0281729 14,37.1596071 C14,38.29025 15.8705553,40.9131202 15.8185732,42.4045561 C15.7665911,43.8952009 15.6106448,54.6430343 15.6106448,54.6430343 C15.6106448,54.6430343 17.2220894,58.7573404 24.5507634,59.2194086 C31.8794373,59.682268 32.5552044,58.6030539 32.5552044,58.6030539 C32.5552044,58.6030539 33.4908819,52.9466742 34.1666489,49.6038005 C34.842416,46.2617181 42.597343,42.2178299 41.9631616,38.1367548"/>
      <path fill="#8CA8AF" d="M32.5551468,59.5881168 C32.5551468,59.5881168 31.8793818,60.6977302 24.5507306,60.221833 C17.2220794,59.7459357 15.6114396,55.5165517 15.6114396,55.5165517 C15.6114396,55.5165517 15.7665856,44.465974 15.8185675,42.9325274 C15.8705495,41.3998943 14,38.7031433 14,37.539839 C14,36.3773481 15.5074757,29.8205419 18.6255913,24.9037507 C19.7476011,23.1335757 21.2582757,22.2932307 22.9784774,22.1248363 C22.7233661,22.4339661 19.8411685,25.9718756 19.9075454,28.1292764 C19.9771212,30.3851106 26.4220798,34.826818 28.9859881,34.826818 C31.5187072,34.826818 32.9726016,30.4322935 36.5449592,29.0322609 C39.6702723,31.6720668 41.2465241,33.8066896 41.9630748,38.5453244 C42.598054,42.741355 34.8423513,46.8983376 34.1665864,50.3353731 C33.4908214,53.7724087 32.5551468,59.5881168 32.5551468,59.5881168"/>
      <path fill="#E8C8A1" d="M23,21.0702408 C23,21.0702408 23.0568523,25.5336692 23.2274093,26.8458719 C23.3979664,28.1588826 27.319903,28.1588826 29.0254731,28.1588826 C30.7310432,28.1588826 31.9249423,27.1618025 31.9817947,25.63871 C32.038647,24.1164256 31.9441847,17.0964644 31.9441847,17.0964644 C31.9441847,17.0964644 29.7077012,17.4463313 26.4102656,18.9169033 C23.1137047,20.3866672 23,21.0702408 23,21.0702408"/>
      <path fill="#4D6570" d="M25.7908396,27.2242046 C25.7908396,27.2242046 24.8584711,29.5572921 24.2371908,31.0433196 C23.6159106,32.5277149 21.2849893,55.5819496 22.2173578,63.3605403 C23.1497264,71.1391309 25.1695594,73.967561 26.8783041,74.3927231 C28.5879453,74.8162532 38.9981988,70.1500781 38.9981988,70.1500781 C38.9981988,70.1500781 34.6474444,60.2489408 34.9585327,56.5718185 C35.2687246,52.8946962 40.2416557,46.1059745 41.9504004,40.7314678 C43.6600416,35.356961 42.9598687,34.8616186 42.1054963,33.3054108 C41.251124,31.7500191 36.0459972,27.1532082 36.0459972,27.1532082 L29.2092255,28.0019004 L25.7908396,27.2242046 Z"/>
      <path fill="#384B54" d="M25,26.6171261 C25,26.6171261 26.3637556,29.9515896 26.3637556,31.0359389 C26.3637556,32.1211828 35,26.5392892 35,26.5392892 L34.5454148,24.1361851 L25,26.6171261 Z"/>
      <path fill="#EED7BA" d="M18.6938588,6.88357316 C18.2094033,8.4443858 18.6938588,10.6447549 18.5555572,11.3539174 C18.4164561,12.06308 18.0007516,12.7730614 18.0007516,13.9088678 C18.0007516,15.0438554 17.9320005,21.0758312 19.1095632,21.8562375 C20.287126,22.6366439 26.7992956,21.5720812 28.1159595,20.5083374 C29.4318239,19.4437748 30.4710849,17.9542059 30.4710849,17.9542059 C30.4710849,17.9542059 31.9260504,18.0950558 32.8262104,16.8896433 C33.7271698,15.682593 36.0135441,10.8576675 34.4890281,5.60527907 C32.9653115,0.354528469 24.7207735,0.141615937 21.8108426,2.27074126 C18.901711,4.39986658 18.6938588,6.88357316 18.6938588,6.88357316"/>
      <path fill="#717171" d="M17.8282152,147.797772 C19.7640459,146.603691 21.2697877,144.234375 22.614354,143.200476 C23.9580583,142.150302 25.141449,142.150302 25.3026246,141.116403 C25.3388244,140.813172 25.4284622,139.9583 25.5,138.783064 C22.8651673,140.724944 16.4293492,145.231441 14.0099918,144.911078 C12.50425,144.696931 11.7328482,144.216387 11.428597,143.610781 C10.1202306,145.143213 9.11611539,146.425521 9.00837771,147.209297 C8.72136453,149.57947 15.8915227,148.990995 17.8282152,147.797772 Z"/>
      <g transform="translate(25.8 146.828)">
        <mask id="l4-5-p-right-2-d" fill="#fff">
          <use xlink:href="#l4-5-p-right-2-c"/>
        </mask>
        <path fill="#717171" d="M0.274548506,10.4403942 C1.26209396,11.9361912 7.21763942,10.4403942 8.06773032,9.05996244 C8.91863942,7.69533414 8.64618487,4.68872692 8.64618487,3.04516765 C8.64618487,2.74964305 8.69773032,1.6647359 8.80000305,0.0535737108 C8.62982123,0.710997418 8.47682123,1.41741184 8.35736669,2.14121005 C7.86400305,5.22999524 7.57436669,6.46345486 3.54154851,6.93913884 C1.77263942,7.15327565 1.04036669,5.88741894 0.768730324,4.40900577 C0.189457597,7.02210698 -0.253178766,9.63441801 0.274548506,10.4403942" mask="url(#l4-5-p-right-2-d)"/>
      </g>
      <path fill="#4D6570" d="M23,24.7847032 C23,24.7847032 21.111626,27.1189213 19.4323537,30.1502689 C17.7530814,33.1808125 17.1233543,36.9438648 17.1233543,38.3027448 C17.1233543,39.6608207 15.9341389,54.0150962 15.3044118,58.9271659 C14.6746847,63.8392356 13.5549007,70.390002 13.5549007,70.390002 C13.5549007,70.390002 11.3516631,70.9118441 12.1904919,63.0729559 C13.0301281,55.2340678 14.9193094,46.9778668 14.8143549,43.9465191 C14.7094004,40.9159755 12.8210264,39.9752125 13.0301281,36.9438648 C13.2400371,33.9125171 17.6134112,24.227482 19.4323537,23.1821897 C21.2504889,22.1368974 22.9572109,22.1248363 22.9572109,22.1248363 L23,24.7847032 Z"/>
      <path fill="#384B54" d="M23,24.7480589 C23,24.7480589 22.6178871,25.6684059 21.3305745,27.2845353 C21.3305745,27.2845353 20.7843042,25.8479409 21.2031163,24.610078 C21.6226195,23.3738011 22.9633712,22.1248363 22.9633712,22.1248363 L23,24.7480589 Z"/>
      <path fill="#717171" d="M20,5.02407783 C20,5.02407783 22.0527455,11.6943341 29.8523889,15.1887044 C29.8523889,15.1887044 30.8266535,11.6943341 32.3662127,12.8061792 C33.9057718,13.9180243 33.8544532,15.3996699 33.2899481,16.3005496 C32.7254431,17.1998001 32.0354048,18.40043 30.712963,18.1177851 C30.712963,18.1177851 30.5992725,24.3995064 30.6734871,25.5651111 C30.7469123,26.7290867 36.6769782,29.164557 36.6769782,29.164557 C36.6769782,29.164557 37.7538801,13.5294894 35.9750972,7.38868325 C34.1963142,1.24706255 29.9542367,0.399942457 26.7393214,1.31792741 C23.5228271,2.23591236 20,5.02407783 20,5.02407783"/>
      <path fill="#717171" d="M30,0.866004711 C27.550403,-0.540953684 24.7953914,-0.0195608924 22.8050938,0.91814399 C20.8147962,1.85665102 19.3356165,3.68152579 19.0804501,4.93286849 C18.8252838,6.18421119 19.258674,9.0510694 19.258674,9.0510694 C19.258674,9.0510694 19.5907829,6.39276831 19.8451641,5.55853984 C20.1011156,4.72431137 20.4073152,4.67217209 20.4073152,4.67217209 C20.4073152,4.67217209 23.2636082,2.5841945 25.0254337,1.80451174 C28.2656539,0.37108263 30,0.866004711 30,0.866004711"/>
      <g transform="translate(38 77)">
        <polygon fill="#368AA4" points="0 14.071 22.171 0 22.171 32 0 46.071"/>
        <polygon fill="#8DD2E8" points="0 14 6 17.763 6 49.763 0 46"/>
        <polygon fill="#2A6071" points="22 0 29 3.763 29 35.763 22 32"/>
        <polygon fill="#58ACC6" points="6 18.071 29.171 4 29.171 36 6 50.071"/>
        <path stroke="#215C6F" stroke-linecap="round" d="M12.2020835,15.1489885 C11.6293654,8.19575899 12.2739882,4.49843507 14.1359521,4.05701668 C15.9979159,3.61559829 18.0082298,5.73724821 20.1668936,10.4219664"/>
        <path stroke="#215C6F" stroke-linecap="round" d="M7,9.83613522 C8.92076137,6.00680239 10.812124,3.87142678 12.6740878,3.43000839 C14.5360517,2.98859001 15.2996258,3.54829161 14.9648101,5.1091132"/>
      </g>
      <g transform="rotate(-23 102.685 -57.76)">
        <path fill="#EED7BA" d="M10.6783976,11.6434104 C10.116729,6.38980324 9.69527494,2.53629577 6.95582358,2.04642257 C4.21637222,1.555741 2.53055599,4.98889524 3.23324958,10.7323755 C3.93594317,16.4766642 5.12979283,23.9726942 5.12979283,23.9726942 C5.12979283,23.9726942 3.51448911,42.8861648 3.30376209,43.587023 C3.09303506,44.2878812 1.75816039,44.7777544 1.1259793,45.6879808 C0.494608709,46.5990156 -0.418811908,50.3118664 0.213369175,50.6626997 C0.845550259,51.0127246 1.54743336,48.7711102 2.03939992,49.0508067 C2.53055599,49.3313117 2.10991243,51.5729262 1.75816039,52.5534809 C1.40721884,53.5340357 0.494608709,54.5849188 1.0554668,54.9357521 C1.61794586,55.285777 4.8485533,54.1653739 5.76197392,52.5534809 C6.67539453,50.9423963 7.1665506,46.669344 7.0960381,45.4778042 C7.02633608,44.2878812 10.8891246,26.4940053 11.0998516,25.1634256 C11.3105787,23.8320375 10.6783976,11.6434104 10.6783976,11.6434104"/>
        <path fill="#384B54" d="M9.52697385,5.14301569 C8.81725956,1.90249188 7.29840242,0.0923966382 3.80811671,0.653396638 C0.316116707,1.21358711 -0.351597579,6.75639664 0.613545279,11.0355395 C1.57954528,15.3146824 3.13868814,23.3823966 3.13868814,24.0138252 C3.13868814,24.6452538 2.47097385,31.8710633 2.47097385,31.8710633 C2.47097385,31.8710633 4.99611671,34.0454443 8.93297385,33.3435871 C8.93297385,33.3435871 10.715831,26.3290633 10.715831,24.6452538 C10.715831,22.9614443 10.8641167,11.2460157 9.52697385,5.14301569" transform="translate(1.013)"/>
        <path fill="#4D6570" d="M3.58830281,29.9128443 C4.79064639,30.816593 7.12513562,32.7429571 9.99019058,31.5243481 C9.99019058,31.5243481 10.2024169,32.1930859 10.0963037,33.1367593 C9.99019058,34.0804327 9.60083696,34.5903793 9.60083696,34.5903793 C9.60083696,34.5903793 8.25646501,35.2600245 6.09991937,34.6693212 C3.94174121,34.0804327 3.05773708,32.8609163 3.05773708,32.8609163 C3.05773708,32.8609163 2.95162393,32.0352021 3.19894919,31.092436 C3.4470907,30.1487626 3.58830281,29.9128443 3.58830281,29.9128443"/>
      </g>
    </g>
    <g transform="translate(0 205)">
      <g transform="translate(53 10)">
        <path fill="#D2ECF4" d="M31.2591202,127.064637 C19.3508661,123.979737 6.66746049,126.298516 2.93121017,132.238869 C-0.808969948,138.185056 5.80978325,145.504038 17.7200022,148.585049 C29.6243265,151.673838 42.3116619,149.360892 46.0498771,143.411789 C49.7871099,137.466575 43.1673742,130.152454 31.2591202,127.064637"/>
        <g transform="matrix(-1 0 0 1 63 0)">
          <g transform="scale(-1 1) rotate(-14 77.788 144.64)">
            <path fill="#EED7BA" d="M19.4459583,45.7299294 C19.2648292,45.1182188 17.3429694,39.6591432 17.3429694,39.6591432 L11.1249309,23.8480426 C10.6862929,22.7327001 10.1421782,21.8768935 9.5224111,21.2343033 C9.88175961,15.2333639 8.34907276,4.64974178 8.34907276,4.64974178 C8.34907276,4.64974178 2.69842662,0.707443641 0.886408147,7.47890314 C0.886408147,7.47890314 1.52654314,18.0140001 1.72076591,22.472429 C1.71931106,22.4775756 1.71640136,22.481987 1.7149465,22.4871336 L1.7425887,22.97312 C1.76441148,23.5260123 1.77750515,23.9583269 1.77750515,24.2038934 C1.77750515,24.3487336 1.80005536,24.48181 1.83497181,24.6090046 L1.83569924,24.6281206 C1.84515578,24.6465013 1.8567946,24.6722343 1.86625114,24.6913503 C1.90189502,24.7957528 1.94845029,24.8942735 2.00664438,24.9861771 C2.01610092,25.0060283 2.02264775,25.0207329 2.03283172,25.0405841 L2.03283172,25.0560239 C4.25657338,29.5975337 12.5623249,41.998642 12.6685291,42.579473 C12.6685291,42.579473 12.2597156,44.6903155 12.9558624,45.4549537 C13.6512818,46.2188567 14.407805,46.34164 14.5292851,46.9224709 C14.6653138,47.4885973 14.5896615,49.7207527 14.7256902,50.3023188 C14.8471703,50.86771 17.2374926,53.1616246 18.1300444,52.5190344 C18.1300444,52.5190344 18.8858402,50.4243669 19.0676967,49.8428007 C19.2648292,49.2774096 19.6423634,46.34164 19.4459583,45.7299294"/>
            <path fill="#619AAF" d="M10.6368978,14.1216512 C10.587819,10.1289183 10.4194412,4.62974528 9.87504484,2.8292753 C8.98709732,-0.108060741 2.69369376,-2.30624868 0.683730924,4.44014416 C-0.344657275,7.89147699 -0.10077373,12.9203503 0.675425293,17.2841385 C0.715443336,17.2922855 8.53632804,18.8764917 10.6368978,14.1216512"/>
          </g>
          <path fill="#4A9EA1" d="M31.0283889,127.906633 C31.0283889,127.906633 39.1239074,125.663371 40.8603201,126.504504 C42.5967327,127.345636 41.2655829,130.598403 37.5036052,132.672567 C33.7416274,134.747457 31.7078222,136.037097 29.7152175,136.542212 C27.7218637,137.046601 24.5966205,137.102483 24.133677,135.195965 C23.6707335,133.289446 23.9022053,130.990302 24.4228294,130.14917 C24.9442027,129.308037 31.0283889,127.906633 31.0283889,127.906633"/>
          <path fill="#E8C8A1" d="M31.862123,127.192982 L31.862123,129.010868 C31.862123,129.010868 31.1613302,131.596339 28.2066364,131.578859 C24.8481344,131.5591 24.7708578,129.799733 24.7708578,129.799733 L24.8701052,127.270501"/>
          <path fill="#4A9EA1" d="M42.3795813,134.311623 C42.3795813,134.311623 51.2845786,131.694943 53.1947339,132.676387 C55.1048892,133.657076 53.6406817,137.452243 49.5022567,139.872634 C45.3638317,142.293026 43.1267459,143.797654 40.9344754,144.386521 C38.7429395,144.975387 35.3046598,145.041068 34.79553,142.816966 C34.2864001,140.592108 34.5405977,137.909747 35.1136443,136.928303 C35.6866909,135.947615 42.3795813,134.311623 42.3795813,134.311623"/>
          <path fill="#E8C8A1" d="M41.6126126,133.333333 L41.6126126,136.386476 C41.6126126,136.386476 41.2318784,138.401465 38.1874383,138.58471 C35.1429983,138.767955 34.5213474,136.752965 34.5213474,136.752965 L34.5213474,134.385582 L39.1195561,133.699118 L41.6126126,133.333333 Z"/>
          <path fill="#53697A" d="M23.6505894,69.3031288 C22.788229,73.3372418 25.2228652,78.0031424 25.3528918,79.7709816 C25.4821711,81.5395496 24.1490247,94.6795651 23.3726015,104.020111 C22.5954309,113.359928 23.2687296,128.331908 23.2687296,128.331908 C23.2687296,128.331908 24.6504492,130.28994 27.7232619,129.720821 C30.7960746,129.152431 32.5409719,127.70085 32.5409719,127.70085 C32.5409719,127.70085 34.6781909,96.1894426 35.3253348,92.5269694 C35.973226,88.8644961 37.0919032,74.2138744 37.1800822,71.9410423 C37.2682612,69.6674815 25.4201469,61.0264931 23.6505894,69.3031288"/>
          <path fill="#617688" d="M48.6871743,73.4150787 C48.9163015,87.117778 46.7168295,101.617789 46.4585949,103.256788 C46.199614,104.895786 43.662795,134.650926 43.662795,134.650926 C43.662795,134.650926 41.0259661,140.451803 32.7467862,136.101509 C32.7467862,136.101509 33.604334,108.849607 33.7580806,104.225055 C33.9110808,99.6005035 34.6790675,90.0174891 34.3596328,85.2263457 C34.0401981,80.4352023 31.2735056,79.17449 30.9757148,72.8709282 C30.9757148,72.8709282 32.0564191,67.0707784 39.8392812,67.5749179 C47.6228896,68.0797848 48.6871743,73.4150787 48.6871743,73.4150787"/>
          <path fill="#619AAF" d="M51.2035818,36.5852229 C52.1137747,31.1120462 49.1211487,28.0926382 42.4253591,24.2051413 C39.6588133,22.5983772 29.3538155,15.6049543 24.2971071,21.8422528 C19.2396647,28.0795514 24.5833774,42.0663972 24.2971071,50.0049755 C24.0108368,57.9435537 22.770332,68.339536 22.770332,68.339536 C22.770332,68.339536 25.346765,73.5371637 34.6967943,74.3878035 C44.0475576,75.2384434 49.9630771,72.6865238 49.9630771,72.6865238 C49.9630771,72.6865238 48.5317254,52.6514106 51.2035818,36.5852229"/>
          <path fill="#EED7BA" d="M32.3455295,18.3439868 C32.3455295,18.3439868 32.2799775,20.6945901 32.3455295,21.2034232 C32.4110816,21.711523 34.9570631,23.3633974 37.5037982,23.6178139 C40.0505332,23.8714973 41.3849319,23.3164733 41.3849319,23.3164733 L41.3849319,20.1227028 C41.3849319,20.1227028 45.2088018,20.2832712 45.7309578,19.3139956 C46.2531138,18.3439868 47.2326273,13.5152052 46.8408219,12.4982723 C46.4490165,11.4820726 46.0572111,10.5927146 46.0572111,10.0208273 C46.0572111,9.44894005 46.4490165,7.60643656 46.3186659,6.84392019 C46.1883152,6.08140382 45.1432497,4.04827123 45.1432497,4.04827123 C45.1432497,4.04827123 46.8822629,1.95135122 42.0954559,0.553893333 C37.3078955,-0.844297739 30.9742107,0.680734998 30.1905999,2.07892607 C29.4069891,3.47638395 29.477062,4.49331684 29.477062,4.49331684 C29.477062,4.49331684 26.8949138,6.65329109 27.5308441,8.81326535 C28.1667744,10.9739728 31.4971202,16.9465289 31.4971202,16.9465289 L32.3455295,18.3439868 Z"/>
          <path fill="#3A4D57" d="M41.8568513,0.555909369 C37.147176,-0.847443872 30.9172704,0.683286133 30.1464076,2.08737566 C29.3755448,3.4907289 29.4444777,4.51195185 29.4444777,4.51195185 C29.4444777,4.51195185 26.9035953,6.68103824 27.5291801,8.8508609 C28.1547649,11.0199473 31.4309318,17.0176994 31.4309318,17.0176994 L32.2655391,18.4210526 C32.2655391,18.4210526 37.468863,17.5919992 38.0470101,16.8895863 C38.6251572,16.1879097 39.7169658,13.2530902 40.3447742,13.50858 C40.9733239,13.7633335 41.0659757,15.8690997 41.0659757,15.8690997 L41.8486979,15.8690997 C41.8486979,15.8690997 41.9650685,13.380467 41.8568513,12.8061671 C41.748634,12.2318672 42.7996758,11.2113806 42.928647,10.3815909 C43.0568771,9.55253752 42.5432156,7.25533809 42.5172731,6.74509476 C42.4920719,6.23485142 44.8550628,4.06502876 44.8550628,4.06502876 C44.8550628,4.06502876 46.5665265,1.95999889 41.8568513,0.555909369"/>
          <path fill="#EED7BA" d="M61.9449791,74.6772978 C61.76385,74.0655873 59.8419901,68.6065116 59.8419901,68.6065116 L53.6239516,52.795411 C53.1853137,51.6800685 52.6411989,50.8242619 52.0214319,50.1816718 C52.3807804,44.1807323 50.8480935,33.5971102 50.8480935,33.5971102 C50.8480935,33.5971102 45.1974474,29.6548121 43.3854289,36.4262716 C43.3854289,36.4262716 44.0255639,46.9613685 44.2197867,51.4197975 C44.2183318,51.4249441 44.2154221,51.4293554 44.2139673,51.434502 L44.2416095,51.9204884 C44.2634322,52.4733807 44.2765259,52.9056954 44.2765259,53.1512619 C44.2765259,53.296102 44.2990761,53.4291784 44.3339926,53.5563731 L44.33472,53.575489 C44.3441765,53.5938698 44.3558154,53.6196028 44.3652719,53.6387187 C44.4009158,53.7431212 44.447471,53.8416419 44.5056651,53.9335456 C44.5151217,53.9533968 44.5216685,53.9681013 44.5318525,53.9879525 L44.5318525,54.0033923 C46.7555941,58.5449021 55.0613456,70.9460104 55.1675499,71.5268414 C55.1675499,71.5268414 54.7587364,73.637684 55.4548832,74.4023222 C56.1503025,75.1662251 56.9068257,75.2890084 57.0283059,75.8698393 C57.1643346,76.4359657 57.0886822,78.6681211 57.2247109,79.2496873 C57.3461911,79.8150784 59.7365133,82.108993 60.6290652,81.4664028 C60.6290652,81.4664028 61.3848609,79.3717353 61.5667175,78.7901691 C61.76385,78.224778 62.1413841,75.2890084 61.9449791,74.6772978"/>
          <path fill="#619AAF" d="M53.1359185,43.0690196 C53.0868398,39.0762867 52.918462,33.5771137 52.3740656,31.7766437 C51.4861181,28.8393077 45.1927145,26.6411197 43.1827517,33.3875126 C42.1543635,36.8388454 42.398247,41.8677188 43.1744461,46.231507 C43.2144641,46.2396539 51.0353488,47.8238601 53.1359185,43.0690196"/>
        </g>
      </g>
      <g transform="rotate(17 33.118 240.345)">
        <g transform="translate(0 2.508)">
          <mask id="l4-5-p-right-2-f" fill="#fff">
            <use xlink:href="#l4-5-p-right-2-e"/>
          </mask>
          <path fill="#2B6372" d="M20.08104,1.87590577 C24.67284,4.12742011 24.67044,7.77360129 20.07564,10.0200275 C15.48084,12.2669624 8.03364,12.2634007 3.44244,10.0118864 C-1.14996,7.76088087 -1.14696,4.11419087 3.44724,1.86776471 C8.04264,-0.379170279 15.48984,-0.375099744 20.08104,1.87590577" mask="url(#l4-5-p-right-2-f)"/>
        </g>
        <path fill="#327FA8" d="M19.7296582,4.22572948 C24.2404226,6.51293134 24.2380647,10.2182604 19.7237633,12.5008093 C15.2094619,14.7833581 7.89332261,14.7802561 3.38196866,12.4925373 C-1.12938528,10.2048184 -1.12702733,6.50000637 3.38727406,4.2174575 C7.90216493,1.93439164 15.2183042,1.93852763 19.7296582,4.22572948"/>
        <path fill="#2B6372" d="M17.973114,6.11994122 C21.2698393,7.5905245 21.2680182,9.97249473 17.9688649,11.4397996 C14.6703186,12.9071045 9.32368701,12.9047628 6.02696176,11.4341796 C2.7302365,9.96406463 2.73205756,7.5820944 6.03060388,6.1147895 C9.32975721,4.64701626 14.6763888,4.64935795 17.973114,6.11994122"/>
        <polygon fill="#2B6372" points="3.556 9.187 4.325 4.18 19.707 4.186 20.444 9.195"/>
        <g transform="translate(3.556)">
          <mask id="l4-5-p-right-2-h" fill="#fff">
            <use xlink:href="#l4-5-p-right-2-g"/>
          </mask>
          <path fill="#327FA8" d="M14.1269926,1.19858998 C17.2264165,2.54524632 17.2245399,4.72650987 14.1232395,6.07081521 C11.0225646,7.41465035 5.99655638,7.41229934 2.89775802,6.065643 C-0.201040329,4.71898665 -0.1997893,2.5377231 2.90151111,1.19341776 C6.00218601,-0.150417376 11.0281942,-0.14806637 14.1269926,1.19858998" mask="url(#l4-5-p-right-2-h)"/>
        </g>
      </g>
      <g transform="translate(105 5)">
        <path fill="#D2ECF4" d="M40.7894012,122.302263 C30.0185634,119.512758 18.5466126,121.609502 15.16723,126.981035 C11.784293,132.357842 17.7708564,138.975993 28.5434714,141.761981 C39.3107547,144.555003 50.78626,142.463533 54.1674198,137.084088 C57.5476909,131.70816 51.560239,125.094405 40.7894012,122.302263"/>
        <path fill="#FFE3D3" d="M40.3028846,77.77311 C40.9633117,68.3614971 49.7777778,66.4282452 49.7777778,73.8375898 C49.7777778,81.2461411 46.172398,92.1991197 47.2413165,97.6752124 C48.3089194,103.152098 46.7065284,107.500924 46.3059306,113.138054 C45.9053329,118.775979 47.7090094,118.096128 47.2413165,121.02972 C46.772308,123.965693 44.1292837,122.735298 42.5630715,124.337747 C40.9968593,125.940989 39.8950511,126.666851 36.9566764,126.183737 C34.0183018,125.701415 34.4623141,123.476232 35.2635096,123.106558 C36.0653629,122.736091 37.3210954,123.001844 39.6089098,119.591482 C42.1111657,115.863805 41.2277457,105.373315 40.9968593,99.798061 C40.7653151,94.2220136 40.3028846,83.070712 40.3028846,77.77311 Z"/>
        <path fill="#36393B" d="M47.9898597,122.842964 C46.9665235,124.692782 46.532682,125.741431 46.2279993,127.754139 C46.1471922,128.289649 44.7675098,128.128157 44.8383816,127.616416 C45.0278148,126.248978 45.6755965,125.120631 44.5668167,123.702158 C43.6448206,122.522776 48.2435411,120.910653 47.9898597,122.842964" transform="rotate(-3 46.222 125.015)"/>
        <path fill="#36393B" d="M36.2056907,123.560607 C35.0625698,124.038175 34.6566677,124.157567 33.6375943,124.395665 C32.619306,124.633077 32.1246864,126.663427 35.6317749,127.0813 C39.1388635,127.498485 40.4539236,126.870648 42.3232716,125.484603 C44.1926197,124.097871 47.3471937,125.162107 47.9069775,122.623311 C48.1731299,121.411551 47.8221855,120.912025 47.4335558,120.190184 C46.5055552,122.044191 42.3107099,123.336232 40.3824785,124.272156 C38.4683791,125.201904 36.783532,124.580242 36.2056907,123.560607"/>
        <path fill="#FFE3D3" d="M30.5249462,86.6770782 C30.5249462,92.0553525 30.9873525,103.378162 31.2182268,109.03997 C31.449101,114.700972 32.3331324,125.352807 29.8310079,129.137817 C27.5426557,132.600629 26.2869891,132.330789 25.4851779,132.70776 C24.6846822,133.082314 24.2406932,135.341721 27.1789137,135.83146 C30.1171341,136.322811 31.2182268,135.58498 32.7843568,133.957079 C34.3511446,132.329984 36.9933724,133.579303 37.4623563,130.59898 C37.9306825,127.618658 36.1264428,128.308965 36.5276773,122.585134 C36.9275962,116.862109 38.5305609,112.444787 37.4623563,106.885277 C36.3934939,101.324156 40,90.203525 40,82.6802238 C40,75.1569227 31.1853387,77.1199082 30.5249462,86.6770782"/>
        <path fill="#36393B" d="M4.2869719,1.02338091 C3.30601952,2.82886558 2.89078143,3.85238296 2.59808302,5.81685399 C2.5206227,6.34021254 1.19808302,6.18259087 1.26601952,5.68243204 C1.44760683,4.34776537 2.06855921,3.24646067 1.00633698,1.86198282 C0.12189254,0.710866939 4.53078143,-0.86262045 4.2869719,1.02338091" transform="rotate(-4 1891.116 -415.132)"/>
        <path fill="#36393B" d="M26.7356008,132.333485 C25.6395015,132.810349 25.2502959,132.930422 24.2731414,133.168511 C23.2974926,133.405914 22.822466,135.436187 26.1852927,135.854044 C29.5481193,136.2719 30.8090852,135.6434 32.6015388,134.257407 C34.3947452,132.870729 37.4180521,133.934924 37.9548095,131.396911 C38.2107668,130.18451 37.8742583,129.684318 37.5023675,128.96319 C36.6117868,130.817127 32.5894938,132.109119 30.740579,133.045693 C28.9052149,133.97472 27.289673,133.353082 26.7356008,132.333485"/>
        <path fill="#9B9B9B" d="M48.8907112,20.1833645 C52.1430321,19.853504 55.6570586,34.5814617 55.9517464,41.1361316 C56.2478682,47.6901041 55.1687803,55.4547274 53.0529076,60.5337423 L47.9973268,59.8447314 C47.9973268,59.8447314 49.2671373,51.9622509 49.7410756,46.8183797 C50.2150138,41.6731138 49.9346661,38.1297286 48.0991411,33.0897669 C46.2636161,28.0484105 44.6905138,20.6080687 48.8907112,20.1833645"/>
        <polygon fill="#FFE3D3" points="35.556 27.196 43.556 27.196 43.556 16.669 35.556 16.669"/>
        <path fill="#FFE3D3" d="M37.7310477,0.877300613 C42.8577249,0.877300613 46.6423145,5.59091967 46.1847371,11.4052502 C45.7278562,17.2188963 39.4150995,21.9325153 34.2884223,21.9325153 C29.1617452,21.9325153 27.1608019,17.2188963 27.6190757,11.4052502 C28.076653,5.59091967 32.6043705,0.877300613 37.7310477,0.877300613"/>
        <path fill="#717171" d="M29.3513809,66.0967364 C27.9343611,71.4972632 28.2187267,79.7414059 29.9187383,85.7112072 C35.3010784,87.132326 41.250089,88.5541339 50.0338261,81.1618354 C49.1834768,78.319598 49.7501474,74.6241379 51.4501591,70.6447298 C52.8967145,67.2580289 52.7785722,59.0214674 51.005752,54.4755415 C50.6966589,53.6795221 32.1119251,58.6954784 29.3513809,66.0967364"/>
        <path fill="#8C8C8C" d="M34.4993972,25.2554242 C30.6543406,27.849433 27.4599968,31.8204392 26.2184962,34.4871054 C24.9762905,37.1544702 26.4257654,43.9248821 29.7385488,48.8481194 C33.0499222,53.7713567 32.0149859,55.6185313 30.7720752,59.3107846 C29.5305746,63.0030379 28.4963432,66.490593 30.5662159,67.3114818 C32.6360887,68.1330693 40.7083104,66.8552772 46.5062101,63.4138316 C52.6678885,59.757907 54.9943804,57.7186095 52.0961355,52.5892767 C49.1985957,47.4606425 50.0262628,44.1295803 51.0611991,37.9746604 C52.0961355,31.8204392 53.959444,21.9718687 49.8196985,20.5375837 C47.9803599,19.8997356 45.4910137,20.1316804 42.6942885,21.0636512 C41.6530071,24.7698771 38.0342548,25.5914646 34.8124161,25.0458355 L34.4993972,25.2554242 Z"/>
        <path fill="#9B9B9B" d="M31.1111111,28.1953778 C37.735731,30.2709759 44.7266093,28.2194871 46.2222222,20.1779141 C45.4014421,20.2487811 44.524368,20.4175467 43.6048997,20.6776357 C41.8994006,25.7464496 38.2131874,26.4763061 33.7597081,25.8538459 C32.825645,26.566899 31.9360612,27.3617778 31.1111111,28.1953778"/>
        <path fill="#FFF" d="M34.7733706,24.9476829 C34.4361537,25.1835191 34.1038239,25.4301077 33.7777778,25.6852982 C38.2572472,27.392064 43.2296258,25.6824309 44.4444444,20.1779141 C43.9375718,20.3062262 43.4174339,20.4632114 42.8861253,20.6467192 L42.888918,20.6467192 C41.8577184,24.449488 38.2740033,25.2924768 35.0833588,24.7326347 L34.7733706,24.9476829 Z"/>
        <path fill="#3A4D57" d="M26.6757778,8.45019813 C26.4908116,11.6550885 29.1671302,13.5389936 30.6084437,14.4901576 C33.8460636,16.625159 39.8268744,17.2146896 40.8007926,20.2592331 C43.6421579,29.1342616 41.5065098,44.2389365 50.7156922,40.7078938 C61.7332748,36.4836068 42.9848165,24.6179386 46.0965171,18.8372635 C50.9170208,9.87899106 48.4242455,3.31568674 42.1126298,0.822463544 C35.3720347,-1.8379298 27.0329048,2.28605516 26.6757778,8.45019813"/>
        <g transform="rotate(32 -36.398 62.205)">
          <path fill="#FFE3D3" d="M0.895749928,43.1030764 C0.813321645,45.63505 1.47213278,47.6979318 2.95215106,49.479639 C4.43278448,51.2627486 4.59702591,48.2602809 4.3503562,44.3224345 C4.10368649,40.3838869 1.22484793,40.4778455 0.895749928,43.1030764"/>
          <path fill="#FFF" d="M0,43.0987119 C0.0182586261,43.6154577 0.0484250517,44.1464782 0.0889115704,44.6932009 C1.84967821,44.9151732 4.37254402,45.2270764 5.85228658,45.6196319 C5.94437356,45.3091562 6.01820192,44.9993942 6.07059624,44.7010521 C6.11425817,44.4555264 6.16506478,44.1871612 6.22222222,43.8995251 C4.44875393,42.9730942 1.8854016,42.8524726 0,43.0987119"/>
          <path fill="#9B9B9B" d="M5.87527742,0.00116036319 C9.48104929,0.0880479623 11.1703307,16.273771 10.5355879,23.3055091 C9.90012379,30.3372472 6.09888,43.8650307 6.09888,43.8650307 L0.000300055801,42.6376578 C-0.025666695,39.0800553 1.63909055,33.9530028 2.91001874,28.5290274 C4.18022563,23.1050519 4.39228743,19.2867866 3.12208054,13.6623539 C1.85115235,8.0365529 1.21785215,-0.1117251 5.87527742,0.00116036319"/>
        </g>
        <path fill="#619AAF" d="M42.0404341,22.6737451 C41.8954029,22.8410756 41.3618122,23.0307167 40.9740282,22.0636863 C40.8468351,21.7464558 40.8414061,20.787792 41.1019969,20.2920756 C42.3382522,17.9508443 46.0842451,18.0379955 47.4787162,19.3006429 C47.9409547,19.7189689 48.1441535,20.150542 47.8882161,20.7536287 C47.6555457,21.3030302 47.1964095,21.3978507 46.8838556,21.2897832 C45.3939897,20.7710589 43.6148369,20.8428715 42.0404341,22.6737451"/>
      </g>
      <g transform="translate(0 82)">
        <path fill="#D2ECF4" d="M39.518842,72.6153962 C30.995735,70.4071872 21.9178279,72.0669976 19.2436775,76.3191744 C16.5667145,80.5755268 21.3039616,85.8145427 29.828475,88.0199679 C38.3487694,90.2309606 47.4294892,88.5753258 50.1050458,84.3168856 C52.7798993,80.0612292 48.0419491,74.825693 39.518842,72.6153962"/>
        <g transform="translate(22.948 1.762)">
          <mask id="l4-5-p-right-2-j" fill="#fff">
            <use xlink:href="#l4-5-p-right-2-i"/>
          </mask>
          <path fill="#414046" d="M26.5591495,71.2358476 C32.6346753,74.6948732 32.6346753,80.3032733 26.5591495,83.7622989 C20.4830863,87.2213245 10.6326538,87.2213245 4.55712794,83.7622989 C-1.51893519,80.3032733 -1.51893519,74.6948732 4.55712794,71.2358476 C10.6326538,67.776822 20.4830863,67.776822 26.5591495,71.2358476" mask="url(#l4-5-p-right-2-j)"/>
        </g>
        <path fill="#58ACC6" d="M40.7474022,71.6748547 C40.7474022,72.5495367 41.9114067,73.5344553 42.0755194,73.7168095 C42.5760087,74.2757199 44.8817375,76.0987466 44.8817375,76.0987466 C44.8817375,76.0987466 46.4375474,78.1087636 43.6383937,77.9470144 C40.8403269,77.7857804 38.7363877,75.6041868 36.0734945,74.0047509 C35.6344115,73.0950405 36.214197,72.0591379 36.6244787,71.1937282 C37.4684092,70.648211 37.246694,70.990769 38.2748436,71.3142674 C39.1671384,71.4713804 40.5707909,71.0134345 40.7474022,71.6748547 Z" transform="scale(-1 1) rotate(-39 0 189.124)"/>
        <path fill="#FFCFA9" d="M46.0965562,50.2277228 C43.5391726,50.9037515 40.8335971,51.4608887 38.0834567,51.7962373 C38.3674911,53.7294235 39.5068504,57.9252799 39.8880686,60.5419589 C40.8529265,67.1689596 41.1412563,72.8373643 41.1987075,73.6274862 C41.1756197,74.1728942 41.6867742,74.5135743 41.6867742,74.5135743 C43.4779629,75.2711743 45.4114372,74.808937 45.4114372,74.058801 C45.4141219,73.5283211 45.6589606,63.0226857 45.5225811,59.1125954 C45.4592238,57.3126956 45.9317196,52.1715719 46.0965562,50.2277228"/>
        <g transform="rotate(-25 147.834 -14.295)">
          <path fill="#58ACC6" d="M6.3740182,19.3162564 C6.38464426,19.5457334 7.30114215,20.5013841 7.46106439,20.6895955 C7.95039456,21.2668106 9.62797407,23.2195094 9.81703887,23.8743343 C10.0061037,24.5291592 11.3859066,26.9066864 8.6906292,26.0668696 C5.99535181,25.2270528 4.69166014,22.8781024 2.04007289,20.7458009 C1.34459711,19.2023671 1.65817171,18.9378208 2.27873375,18.2302668 C3.14635175,17.7018659 4.33434552,18.0767789 5.36294836,18.4305559 C6.02282684,18.6575167 6.24756806,19.064637 6.3740182,19.3162564 Z" transform="scale(-1 1) rotate(-51 0 34.667)"/>
          <path fill="#FFCFA9" d="M12.0543546,0.374519084 C11.879542,0.831496206 11.7435767,1.29060128 11.6830207,1.74598244 C11.2671268,4.84534065 9.71895015,4.28196606 6.23241068,4.57509109 C6.54147472,9.90613618 6.4186489,18.1833271 6.54261729,20.2399902 C6.54718755,20.2532899 6.5454737,20.3767109 6.55061525,20.4426773 C6.63630768,21.8753192 7.49951613,21.9061745 9.03341069,22.0162959 C10.2382463,22.1631244 10.8500903,21.0555268 10.8500903,21.0555268 L10.8500903,21.0640386 L12.3754156,4.03725189 L13.3551657,0 C12.9221333,0.147360492 12.4885296,0.27556944 12.0543546,0.374519084"/>
        </g>
        <path fill="#73ADAA" d="M27.6901161,49.1418552 C27.118794,52.8587379 27.5376204,59.4330041 27.6997813,64.9560039 C28.0257142,67.1206884 30.1053481,66.8694256 32.4883627,66.9692933 C33.9327767,67.0043532 35.2166406,66.1188246 35.6429843,64.6468392 C35.6429843,64.6468392 36.8844286,55.9647281 37.7236922,55.3490547 C38.797606,55.8138642 39.1654214,63.1185454 39.4688021,63.2173506 C41.3814424,64.9772524 43.565783,64.6208099 44.6370119,64.4125752 C46.2339217,63.8813643 46.4116544,62.1597097 46.4497783,62.132618 C46.7558438,56.7323279 46.8761221,48.8889988 46.9867352,47.6130302 C47.05117,46.8656164 28.2609013,45.4244412 27.6901161,49.1418552"/>
        <path fill="#5F82B1" d="M45.9198643,27.3798635 C46.0314692,27.819577 44.4317539,37.6374685 47.768491,46.6124833 C47.8730329,46.8936757 47.6109311,47.238148 47.3696676,47.4580048 C44.5784505,49.9961585 40.873058,50.8337334 38.2388538,51.0392862 C31.9846019,51.5277391 27.7824581,49.3222843 25.8638383,48.2844543 C27.1166582,42.4410321 28.2053532,33.3659802 27.953695,32.4547666 C28.684396,28.0966548 25.8638383,18.1933327 31.9071202,18.1115688 C31.912591,18.106271 34.3539933,17.3541294 34.6275348,17.4537272 C34.9010762,17.5527951 37.7716917,18.1150713 39.6645986,17.1508802 C40.3648647,16.8859925 42.4635199,16.2574586 43.7163398,16.7342564 C47.768491,20.8221908 46.0068505,27.1414646 45.9198643,27.3798635 Z"/>
        <path fill="#745341" d="M40.7785292,17.6237624 C40.7544899,17.6475545 40.7785292,17.6475545 40.7785292,17.6704653 C40.7544899,17.6475545 40.7544899,17.6237624 40.7544899,17.6237624 L40.7785292,17.6237624 Z"/>
        <g transform="rotate(94 9.288 23.308)">
          <g fill="#FCC7A7" transform="translate(0 .881)">
            <path d="M1.964356,25.4137606 C1.964356,25.4137606 1.27032168,28.002131 1.33554838,29.4797872 C1.39826632,30.9006098 2.42853883,31.9415981 4.65677628,29.0310615 C5.01385689,27.9900839 5.00521349,25.4132107 4.40881863,23.7920792 L1.964356,25.4137606 Z"/>
            <path d="M0.683482288,25.3970448 C0.683482288,25.3970448 2.2684474,27.4103463 1.74883865,27.8995597 C1.22843781,28.3894701 0.517936206,27.4458874 0.517936206,27.4458874 L0.683482288,25.3970448 Z" transform="scale(-1 1) rotate(-15 0 35.725)"/>
            <path d="M3.40587645,16.1477546 C3.20782917,19.5836222 2.66319695,22.5424603 1.80355796,26.2340777 C1.6695691,27.2779871 2.14039848,27.2133107 2.79592963,27.2977642 C3.4519946,27.3822176 4.51002615,27.1935336 4.82551387,26.5831165 C4.83245353,25.1222848 5.08133106,24.4296765 5.26656665,23.533828 C5.87618927,20.588646 6.68449474,18.7872243 7.4302415,15.8121094 C8.55179765,12.264528 8.38502667,7.96806911 8.73414505,5.59481894 C9.90214356,-2.34434431 4.66536782,-0.309977155 4.06535396,2.4550731 C3.82406725,3.24455295 4.02350637,9.26105294 3.40587645,16.1477546 Z"/>
          </g>
          <path fill="#5F82B1" d="M6.20713663,11.433519 C5.55046289,11.4483687 4.76714883,11.3383705 4.76714883,11.3383705 C4.27805517,11.2723716 2.84461773,10.469935 2.67103315,9.929294 C3.16394785,7.73318056 2.68917007,4.44290931 3.16297955,2.36669387 C3.45064959,1.00216659 4.90416055,0.709247501 5.55755911,0.342953599 C6.21095767,-0.0233403026 6.97516651,0.000309303715 6.97516651,0.000309303715 C11.7498342,0.688347849 9.14388203,11.2866714 8.55380363,11.3950196 C7.96972973,11.5028178 6.20713663,11.433519 6.20713663,11.433519 Z"/>
        </g>
        <path fill="#FFCFA9" d="M40.7546421,16.1793321 C40.724179,16.1954318 40.6217599,16.2421208 40.5193408,16.3312056 C40.3969631,16.4251202 40.3045233,16.5034719 40.2383448,16.6081197 C40.1107148,16.7911192 40.0644949,17.0363707 40.1868726,17.3293845 C40.2330925,17.4388622 40.3559954,17.731876 40.44791,18.1134379 C40.6170328,18.8132365 36.8240117,19.8887004 35.0130915,19.6675157 C32.8696436,18.9618139 32.0490185,18.3747891 32.8830777,17.3240179 C33.195062,16.9322595 33.3022082,16.6338792 33.3174397,16.4197537 C33.2617657,16.2421208 33.2003143,16.0805875 33.1178538,15.9442771 C33.0721591,15.8557289 33.0469482,15.8138698 33.0264644,15.7822072 C33.0007283,15.7510812 32.9849716,15.7301516 32.9749923,15.709222 L32.7139549,15.3485897 C32.540105,15.0872385 32.3610029,14.8833095 32.1924053,14.6793805 C32.1766485,14.6482544 32.1461854,14.6171284 32.1209745,14.5961989 C32.0800069,14.5280436 32.0232825,14.465255 31.9676085,14.3922698 C31.5988997,13.9269897 31.2459478,13.3940909 31.102561,12.996966 C30.4533815,11.6639141 29.506924,9.12392445 30.5043284,6.70414556 C31.5789411,4.1121003 35.3532163,2.19892404 40.2178609,4.67666171 C40.2178609,4.67666171 40.2740601,4.67129516 40.2845647,4.68149161 C41.4043468,5.01099798 43.1486229,5.82081088 43.88499,7.65026891 C43.9159783,7.70232448 43.9364621,7.76028325 43.9569459,7.81770537 C44.033629,8.04739385 44.1003327,8.27761899 44.1413003,8.53360359 C44.7190491,10.7177908 43.8954945,14.3396776 41.17955,15.9496436 C41.0366885,16.0333619 40.9080081,16.106347 40.7546421,16.1793321 Z"/>
        <path fill="#717171" d="M44.285592,7.84812537 C43.1842284,8.41685086 41.7785662,7.40817407 40.4735436,9.56982302 C39.1674485,10.7321644 40.728236,12.7738569 39.6805549,13.5336261 C38.6328737,14.2933953 37.6945011,17.0156587 34.4262877,16.454784 C32.0588598,15.1991285 30.1952834,12.4653879 30.0703573,9.10604722 C30.0703573,6.42944359 30.5108401,2.53537115 35.2349794,0.699789824 C40.7891002,-0.768569709 44.1666398,2.40387957 44.9751748,4.63675688 C45.5138407,6.12499 45.2839798,7.19544617 44.285592,7.84812537 Z" transform="matrix(-1 0 0 1 75.329 0)"/>
      </g>
    </g>
  </g>
</svg>
