<svg xmlns="http://www.w3.org/2000/svg" xmlns:xlink="http://www.w3.org/1999/xlink" width="54" height="160" viewBox="0 0 54 160">
  <defs>
    <polygon id="l4-5-p-right-1-a" points="0 32.724 0 .349 11.84 .349 11.84 32.724 0 32.724"/>
    <polygon id="l4-5-p-right-1-c" points=".718 .514 20.105 .514 20.105 13.252 .718 13.252 .718 .514"/>
  </defs>
  <g fill="none" fill-rule="evenodd">
    <g transform="translate(0 63)">
      <polygon fill="#368AA4" points="0 14.029 22.171 0 22.171 31.904 0 45.933"/>
      <polygon fill="#8DD2E8" points="0 13.958 6 17.71 6 49.615 0 45.862"/>
      <polygon fill="#2A6071" points="22 0 29 3.752 29 35.656 22 31.904"/>
      <polygon fill="#58ACC6" points="6 18.017 29.171 3.988 29.171 35.892 6 49.921"/>
      <path stroke="#215C6F" stroke-linecap="round" d="M12.2020835,15.1036774 C11.6293654,8.17124526 12.2739882,4.48498013 14.1359521,4.04488203 C15.9979159,3.60478394 18.0082298,5.72008795 20.1668936,10.3907941"/>
      <path stroke="#215C6F" stroke-linecap="round" d="M7,9.80671508 C8.92076137,5.98883588 10.812124,3.85984724 12.6740878,3.41974914 C14.5360517,2.97965105 15.2996258,3.53767857 14.9648101,5.0938317"/>
    </g>
    <g transform="matrix(-1 0 0 1 54 0)">
      <path fill="#E8C8A1" d="M34.82816,105.927598 C34.623746,108.85999 10.8752747,129.378178 9.68127499,131.041059 C9.66542894,131.058162 9.64958289,131.074487 9.65037519,131.090813 C8.98959502,132.319898 11.3974019,142.563056 9.4839917,143.144558 C7.57137377,143.74161 4.07811261,141.273332 3.43476309,138.054854 C2.80725961,134.835598 3.08535774,134.747751 2.49350787,133.549761 C1.91908865,132.350995 1.04597144,127.924421 1.02457927,127.116692 C1.01190243,126.615262 2.64404532,125.977008 4.76186956,124.387204 C6.05569933,123.400671 7.53730477,122.069745 8.95552601,120.190744 C12.6682549,115.245638 15.9642328,109.502908 19.2102956,107.529841 C22.4555661,105.556774 24.3317381,104.167542 24.3317381,104.167542 C24.3317381,104.167542 21.0547755,89.0134841 19.4337249,84.3474679 C17.7960359,79.665126 17.3206545,72.1242468 21.5420415,70.2724556 C25.7467902,68.4206644 29.938862,71.1462647 29.938862,71.1462647 C29.938862,71.1462647 35.0151433,102.963333 34.82816,105.927598"/>
      <path fill="#3A4D57" d="M33.9204406,79.9994027 C33.9204406,79.9994027 35.9894215,103.051388 35.8510654,105.449145 C35.7135044,107.847671 10.3561641,131.297872 10.3561641,131.297872 C10.3561641,131.297872 7.32425636,130.231605 5.67034392,126.367826 C4.01643148,122.504047 6.63486113,120.238516 6.63486113,120.238516 C6.63486113,120.238516 15.4546673,108.514184 17.660414,106.915167 C19.8653655,105.31615 21.9319609,103.051388 21.9319609,103.051388 C21.9319609,103.051388 17.2469359,81.8659478 16.6951016,78.1359327 C16.1440625,74.4051489 15.7305844,69.7418613 18.486575,68.4096033 C21.2433608,67.0765765 28.4092545,67.876085 28.4092545,67.876085 L33.9204406,79.9994027 Z"/>
      <path fill="#51859B" d="M9.40585329,143.139361 C7.27838876,143.770412 3.39521541,141.164965 2.67989401,137.767626 C1.98219135,134.368647 2.29140048,134.276738 1.63334003,133.011352 C0.994660202,131.745967 0.0238668656,127.074216 8.15479094e-05,126.220778 C-0.0140134552,125.692303 1.80071819,125.017759 4.15546464,123.340426 C4.33341405,124.479437 3.94844428,125.137568 3.96342022,125.717742 C3.98280085,126.416904 4.55276754,128.486491 5.42577679,128.943573 C6.30054792,129.401475 6.75423083,129.237352 7.43343379,129.271818 C7.91002108,129.294795 8.94952756,129.765006 9.62520677,130.364054 C9.60758802,130.381287 9.58996926,130.39934 9.58996926,130.415753 C8.85526723,131.713963 11.5333178,142.525542 9.40585329,143.139361"/>
      <path fill="#EED7BA" d="M18.9785052,87.8594131 C17.8012249,89.3466599 12.2278307,88.0287684 10.7266426,86.9933921 C9.20988211,85.9587856 6.14833055,82.1760057 4.62845551,81.0128432 C3.10780185,79.8504505 2.22639891,79.5841009 2.40314668,78.2662093 C2.64685615,76.402532 3.76028919,75.6057927 4.21111278,73.6081708 L4.21111278,73.5920051 C4.38474604,72.8029637 4.44080701,71.8091564 4.29286835,70.4674012 C3.76807543,65.8201398 2.58145169,53.6943055 2.60169592,49.433482 C2.62194016,45.1572625 3.91679271,42.5938402 2.99723717,38.3414845 C2.07768163,34.0883589 1.08337814,21.8455156 0.673821647,16.6509289 C0.281394896,11.4555724 1.40962181,3.01937275 1.40962181,3.01937275 C1.40962181,3.01937275 12.0253883,-4.32602531 16.1731211,5.17865189 C16.1731211,5.17865189 14.2187736,28.7221076 14.0054304,36.1906731 C13.7928659,43.6754043 12.3757693,46.5136439 12.0978004,51.453428 C11.8206101,56.4093777 11.3705651,75.494942 11.3705651,75.494942 C11.3705651,75.494942 20.1550068,86.3567704 18.9785052,87.8594131" transform="translate(6.147 69.628)"/>
      <path fill="#425760" d="M22.5391304,83.9616167 C22.5391304,83.9616167 20.7703857,109.351089 20.6337849,111.477935 C20.4979692,113.604782 19.545689,117.991931 19.2732725,120.517609 C19.001641,123.043287 18.3209922,144.444442 18.3209922,144.444442 C18.3209922,144.444442 11.8151833,147.297623 9.42152924,142.082899 C9.42152924,142.082899 7.70773886,120.251466 8.11597111,117.060812 C8.52420335,113.870925 8.79661987,109.617232 8.11597111,106.028514 C7.4361074,102.439029 5.12252964,86.0884634 5.12252964,84.0943049 C5.12252964,82.1009134 5.39494616,79.5744681 5.39494616,79.5744681 L22.5391304,83.9616167 Z"/>
      <path fill="#EED7BA" d="M3.83956881,12.2607813 C3.83956881,12.2607813 9.61792195,25.9096701 9.91004585,26.8183618 C10.2029614,27.7270535 9.39546446,28.8602183 9.16192368,30.3235359 C8.9283829,31.7860822 9.94012907,33.8171393 10.4998353,34.0176994 C11.0587498,34.2174882 11.0555832,31.8663062 11.3825403,31.6734599 C11.7087057,31.4806137 12.4022031,32.8421084 12.78616,33.8449091 C13.1701169,34.8484812 13.3648661,37.7010635 14.3124875,37.5452437 C15.2593173,37.3894239 16.7896032,32.9886716 16.6724369,31.276968 C16.5552707,29.5652643 14.5072368,26.6232014 13.9594055,25.3804999 C13.4115743,24.1385698 9.82296285,7.49902073 9.82296285,7.49902073 C9.82296285,7.49902073 5.80368638,-1.48838765 1.83032641,1.01012885 C-2.14303356,3.50710258 3.83956881,12.2607813 3.83956881,12.2607813" transform="translate(29.71 35.809)"/>
      <path fill="#619AAF" d="M40.9802372,48.1340257 C40.9802372,48.1340257 39.1358633,41.2516602 38.8340145,39.4733105 C38.5321656,37.6957207 33.8535086,25.445627 30.7351779,22.8776596 L31.0873348,34.6824059 L33.6693034,49.5498657 L35.0113698,51.7234043 C35.0113698,51.7234043 39.6722255,50.9003475 40.9802372,48.1340257"/>
      <path fill="#8CA8AF" d="M26.6188524,53.0520653 C26.6196559,53.0835556 26.6196559,53.1181181 26.6204594,53.1496084 C26.5489446,51.7694124 26.4653768,50.4468206 26.3705595,49.2010343 C26.4975183,50.5681734 26.5891215,51.8777083 26.6188524,53.0520653 M34.5320838,48.0504869 C34.1094234,40.005104 34.1801346,29.5503305 32.8422457,26.3867092 C32.1560252,24.7645757 30.9137571,23.2123352 29.3018621,22.3421282 C27.4569413,21.3451919 25.3259615,22.2238476 23.4255967,22.6193963 C21.5846937,23.001888 19.7036138,23.8398367 17.9920801,24.5833146 C16.0635916,25.4204952 13.9454683,26.0218828 12.1238501,27.0341801 C10.3616937,28.012683 8.63730351,29.0557026 6.92496636,30.1125472 C1.23833569,33.6217935 1.354045,36.7393314 3.12504034,44.3860934 C4.89523214,52.0328555 5.14432858,80.1897757 5.14432858,80.1897757 C14.2283133,86.4939765 24.9611557,84.1030192 24.9611557,84.1030192 C24.9611557,84.1030192 32.1110271,82.9109968 34.8085005,79.5830117 C34.8085005,79.5830117 34.9555477,56.0966379 34.5320838,48.0504869"/>
      <path fill="#E8C8A1" d="M14.3970995,19.893617 C15.0030782,21.2674408 14.0272379,24.907533 14.455716,26.170091 C14.8833685,27.432649 18.839567,30.8216204 22.3482989,29.5660166 C25.8570309,28.3104127 25.7629143,26.1167761 25.499553,23.0175594 C25.2361917,19.9191154 14.3970995,19.893617 14.3970995,19.893617"/>
      <path fill="#51859B" d="M22.6967332,28.3706313 C22.6967332,28.3706313 24.3669991,34.4346913 24.5757823,40.0952063 C24.7845656,45.7549438 22.2791667,85.3738838 22.2791667,85.3738838 C22.2791667,85.3738838 12.884724,86.8908708 4.95176392,80.8260332 L3.59467287,55.2557451 L3.07351779,32.9526938 C3.07351779,32.9526938 3.3513601,31.9418875 5.7178378,29.8534063 C8.0835125,27.7641475 13.4420146,24.8670213 13.4420146,24.8670213 L18.9394379,27.8317938 L22.6967332,28.3706313 Z"/>
      <path fill="#EED7BA" d="M5.188138,31.8314245 C10.4381872,31.7234367 10.5765137,36.9665867 10.2942958,44.8205896 C10.0120778,52.6745924 9.883291,55.908098 9.883291,55.908098 L19.3101661,70.9191615 C19.3101661,70.9191615 20.7928041,71.0256175 22.1744797,71.6582266 C23.5553603,72.2916016 26.1159915,74.6083601 25.97528,75.4707304 C25.8345685,76.3331006 23.2357783,74.3525593 22.8510078,74.8610974 C22.4662374,75.3704013 24.0355283,78.4982168 24.4799223,79.1224013 C24.9243162,79.74582 26.6692977,79.9326924 26.6367035,80.6886067 C26.6033143,81.4452868 25.5650702,81.9622494 22.7214261,81.1596171 C19.8777819,80.3569847 18.4961064,79.7243756 17.3688245,78.5426373 C16.2407476,77.360899 14.5379,72.4509026 14.5379,72.4509026 C14.5379,72.4509026 1.87863548,61.5326516 1.61072715,59.5000311 C1.34281883,57.4681764 0.915119488,47.1672171 1.05026612,41.2891603 C1.18620773,35.4095719 2.42240193,31.8888648 5.188138,31.8314245"/>
      <path fill="#51859B" d="M17.9391917,15.2252217 C16.6699996,16.7626004 10.6614831,15.4002855 9.04309531,14.3300089 C7.40791927,13.2605281 4.10734831,9.35023872 2.46881462,8.14786851 C0.829441505,6.94629404 -0.120773734,6.67096638 0.0697729613,5.30865149 C0.332509154,3.38215362 1.53286939,2.55855787 2.01888938,0.493600426 C2.63166069,1.2073834 2.59220829,2.99621745 4.45486519,3.39886426 C6.42160928,3.83174936 6.68518489,2.58322596 7.25766438,2.43680894 C7.84777155,2.29039191 9.73728966,2.44397064 9.73728966,2.44397064 C9.73728966,2.44397064 19.2075444,13.6719281 17.9391917,15.2252217" transform="translate(8.196 143.234)"/>
      <path fill="#619AAF" d="M14.589229,23.5002332 C14.589229,23.5002332 17.6750788,26.7611066 21.4745735,27.8510638 L24.5881423,28.5398117 C24.5881423,28.5398117 24.5881423,32.8980688 24.5881423,33.7153402 C24.5881423,34.5326117 15.388819,30.3103046 13.59003,28.5398117 C11.7900872,26.7693189 12.3900681,25.5096207 12.3900681,25.5096207 L13.7400252,22.5980912 L14.7138405,21.8829787 L14.589229,23.5002332 Z"/>
      <g transform="translate(1.025 30.835)">
        <mask id="l4-5-p-right-1-b" fill="#fff">
          <use xlink:href="#l4-5-p-right-1-a"/>
        </mask>
        <path fill="#619AAF" d="M2.25096247,1.55618513 C3.1033514,-0.163664325 6.65469875,0.101221499 8.21686539,1.4241239 C9.77985164,2.7470263 10.2060461,7.44397867 10.4896293,15.7791035 C10.7740322,24.1134649 10.9871294,24.7752978 10.9871294,24.7752978 L11.8395184,27.0241556 C11.8395184,27.0241556 4.87861527,32.4485898 3.7426431,32.7134756 C2.60585132,32.9783614 0.486353455,27.9997293 0.486353455,27.9997293 C0.486353455,27.9997293 -0.184083225,14.2126893 0.0486845217,9.09741583 C0.308499225,3.3913019 2.25096247,1.55618513 2.25096247,1.55618513" mask="url(#l4-5-p-right-1-b)"/>
      </g>
      <path fill="#3A4D57" d="M19.4656126,70.8689979 C19.4656126,70.8689979 15.87091,73.0830594 15.1069965,73.606383 L14.343083,72.464586 L18.6351016,69.6276596 L19.4656126,70.8689979 Z"/>
      <path fill="#3A4D57" d="M17.4166008,73.1094521 C17.4166008,73.9334836 16.7290035,74.6010638 15.8794201,74.6010638 C15.0306803,74.6010638 14.343083,73.9334836 14.343083,73.1094521 C14.343083,72.2854206 15.0306803,71.6170213 15.8794201,71.6170213 C16.7290035,71.6170213 17.4166008,72.2854206 17.4166008,73.1094521"/>
      <path fill="#52666F" d="M16.3920949,72.6117021 C16.3920949,73.1610341 15.9333924,73.606383 15.3675889,73.606383 C14.8017855,73.606383 14.343083,73.1610341 14.343083,72.6117021 C14.343083,72.0623701 14.8017855,71.6170213 15.3675889,71.6170213 C15.9333924,71.6170213 16.3920949,72.0623701 16.3920949,72.6117021"/>
      <path fill="#74B0C1" d="M13.2033802 56.6968085L2.04901186 63.1323839C2.04901186 63.1323839 3.87989595 65.3682616 4.79629858 65.6395377 5.71174063 65.9108137 15.3675889 60.2194886 15.3675889 60.2194886L13.2033802 56.6968085zM41.9836605 50.264607C41.9836605 50.264607 39.3599584 53.4479939 35.7521786 53.712766 35.7521786 53.712766 35.0958746 52.7187228 34.8332016 51.4583771 34.8332016 51.4583771 38.3100233 49.8008733 39.4258159 49.0050266 40.5408514 48.2084146 40.9344825 47.7446809 40.9344825 47.7446809 40.9344825 47.7446809 42.1804761 49.0050266 41.9836605 50.264607"/>
      <path fill="#51859B" d="M26.0646863,26.4882615 C27.3764496,29.1609703 29.3722404,34.5560405 29.8711881,38.5391136 C30.3701358,42.5229625 32.3104879,68.7426622 32.5322425,72.4743688 C32.753997,76.2052996 33.0857759,82.5585106 33.0857759,82.5585106 L35.8577075,80.4412908 C35.8577075,80.4412908 35.1924439,44.0358165 34.4163031,34.7577543 C33.6401622,25.4796922 32.3471627,22.6564738 27.5794403,21.8829787 C27.5794403,21.8829787 26.8851781,23.7713309 25.6126482,24.5494809 L26.0646863,26.4882615 Z"/>
      <path fill="#619AAF" d="M24.5881423,24.5149785 C24.5881423,24.5149785 25.4966571,26.1676593 25.785427,27.2775541 C26.074197,28.3861688 28.5764999,32.8244681 28.5764999,32.8244681 C28.5764999,32.8244681 28.9618967,28.1647019 28.2877299,26.2790328 C27.6135631,24.3920836 26.2063648,22.8776596 26.2063648,22.8776596 C26.2063648,22.8776596 25.702128,23.7264027 24.5881423,24.5149785"/>
      <g transform="translate(9.22)"/>
      <g transform="translate(9.22)">
        <path fill="#EED7BA" d="M17.8278493,8.93470776 C17.8934834,9.03192412 17.9575359,9.12993086 18.0200068,9.22951835 C18.5023775,10.0017166 18.8384554,10.879035 18.9475819,11.7855973 C19.0582899,12.7134998 18.8432001,13.6287563 18.8756217,14.5598203 C18.8969725,15.175524 19.3745986,15.7801623 19.4600019,17.1143186 C19.5454052,18.4484748 18.684255,25.2346511 14.9162283,25.7768497 C11.1482017,26.3190482 8.63592034,24.1202196 7.58498489,23.2223514 C6.53404944,22.3236929 3.98460183,19.1005358 3.98460183,19.1005358 C3.98460183,19.1005358 1.73011202,15.3549395 1.21215662,13.2098565 C0.836540115,11.6504429 1.06507311,9.82625293 1.54190838,8.31426187 C1.74513668,7.67089505 2.0226975,6.9192466 2.53432673,6.4497627 C3.23495036,5.80797664 4.25583648,5.80876702 5.09247283,5.44361288 C5.71639162,5.17014246 5.97102007,4.46117436 6.65424673,4.1821713 C7.51144313,3.83124395 8.96567209,4.00907876 9.85291782,4.1616215 C12.9242747,4.69196442 16.039124,6.30433335 17.8278493,8.93470776"/>
        <path fill="#4A4A4A" d="M18.3765455,6.79651908 C18.5066868,6.0508291 18.4482401,5.23404743 18.1263937,4.67690496 C18.0757399,4.86236154 17.9837838,5.03931802 17.8583182,5.18536508 C17.2364455,4.26735503 16.6886052,3.55875636 15.626434,3.15152463 C15.432391,3.59352947 15.4471975,3.91035112 14.9920926,3.94821517 C14.8884472,3.957488 14.3772335,3.69089417 14.2954081,3.66153021 C13.844979,3.49925571 13.3828605,3.37639072 12.9191834,3.25816216 C12.3884875,3.12216067 11.7853177,2.92511306 11.2289052,3.00084116 C11.2655318,3.15152463 11.1961751,3.34084488 11.1891615,3.45830071 C9.80046818,3.21643443 8.33228739,3.18011585 6.95840058,3.52861966 C6.42069105,3.66539389 5.70062786,3.84157764 5.3234519,4.27430965 C5.1574633,4.46285717 4.88003636,5.42414042 4.73976431,5.46741362 L3.08143695,5.96119175 C1.42155102,6.45496989 0.672654124,10.8448816 1.18230924,12.9420864 C1.69196436,15.0392911 3.91371779,18.7012858 3.91371779,18.7012858 C3.91371779,18.7012858 4.33141678,19.2228824 4.88782925,19.893617 C3.86618115,18.2252806 3.4235449,15.3476127 5.10525093,15.7571626 C6.78773625,16.1667126 6.83293502,17.9239136 6.83293502,17.9239136 L7.56312897,17.905368 C7.56312897,17.905368 7.58728694,15.7447989 7.49533082,15.1436105 C7.34882445,14.1761453 8.64400305,13.4644557 8.53334399,12.4390354 C8.49437953,12.083577 8.27929572,11.7482097 8.20214609,11.4004786 C7.94420138,10.2274657 8.99857963,10.7861537 9.7053949,10.8734728 C10.5711852,10.9801103 11.6403699,10.9499736 12.4983673,10.837927 C13.5418355,10.7026982 15.0404086,10.3619218 15.9124332,9.78700637 C16.6254827,9.31718304 17.5512783,8.68431248 17.9798873,7.94712259 C18.1653581,7.62875546 18.3017337,7.22384194 18.3765455,6.79651908"/>
        <path fill="#BFC1BF" d="M20.1052196,9.62176891 C16.926887,12.5213741 12.1771199,13.2826365 7.21929924,13.2509173 C2.36392922,13.2199716 0.81377294,11.4661283 0.81377294,11.4661283 C0.81377294,11.4661283 -0.78524439,1.77473168 9.11621137,0.61968617 C19.8640666,-0.633611702 20.1052196,9.62176891 20.1052196,9.62176891"/>
        <path fill="#AEAFAE" d="M19.3691831,9.94680851 C19.3691831,9.94680851 22.8245038,11.8214585 23.4767757,12.9200939 C24.1290476,14.0187293 21.0851119,16.8210041 15.1067346,15.6224928 C9.12835731,14.4239814 7.1715415,13.3181606 7.1715415,13.3181606 C7.1715415,13.3181606 12.8159618,13.3088197 19.3691831,9.94680851"/>
      </g>
    </g>
  </g>
</svg>
