<svg xmlns="http://www.w3.org/2000/svg" xmlns:xlink="http://www.w3.org/1999/xlink" width="1065" height="732" viewBox="0 0 1065 732">
  <defs>
    <linearGradient id="level5-left-a" x1="72.002%" x2="20.011%" y1="100%" y2="16.576%">
      <stop offset="0%" stop-color="#E7F5F9" stop-opacity="0"/>
      <stop offset="100%" stop-color="#1A6780" stop-opacity=".521"/>
    </linearGradient>
    <polygon id="level5-left-b" points=".024 .288 237.712 .288 237.712 238 .024 238"/>
  </defs>
  <g fill="none" fill-rule="evenodd" transform="translate(-203)">
    <polygon fill="#D3EFF8" points="634 0 1268 366 634 732 0 366" opacity=".567"/>
    <g transform="translate(457 187)">
      <polygon fill="url(#level5-left-a)" points="66.16 193.448 120.133 220.472 53.973 255 0 227.977" transform="matrix(-1 0 0 1 120.133 0)"/>
      <g transform="translate(50.456)">
        <polygon fill="#31AB05" points=".211 193.577 64.204 230.789 63.994 141.541 0 104.329"/>
        <polygon fill="#CCC" points="0 104.308 64.038 141.477 82.435 64.041 18.4 26.873"/>
        <polygon fill="#E8E8E8" points="65.17 0 18.231 26.921 82.265 64.02 129.201 37.094"/>
        <polygon fill="#278704" points="82.731 64.135 64.204 141.605 64.417 230.789 129.073 193.838 128.86 104.652 129.994 37.147"/>
        <polygon fill="#C1C1C1" points=".211 193.803 64.204 231.014 63.994 141.766 0 104.555"/>
        <path fill="#ED0000" d="M36.3413499,166.065357 C37.9352549,167.034758 39.5291599,168.004159 41.1228305,168.973418 C41.4353287,169.163769 41.4318122,169.118757 41.4318122,169.536108 C41.4315777,172.172187 41.4318122,174.808259 41.4313433,177.443904 C41.4313433,177.762969 41.4304056,177.764148 41.1713579,177.606889 C40.561834,177.237639 39.9523101,176.865473 39.3430207,176.495491 C39.0323979,176.306865 39.0670939,176.337882 39.0670939,175.992278 C39.0663906,174.393901 39.066625,172.796095 39.066625,171.198147 C39.066625,171.116193 39.0624053,171.031673 39.0670939,170.953446 C39.0764712,170.801659 39.0363833,170.685408 38.8940829,170.621319 C38.857277,170.604767 38.819299,170.577002 38.7817898,170.55419 C36.4473133,169.134378 34.1126023,167.726966 31.7781258,166.290239 C30.2522062,165.351395 29.1456859,166.118584 28.85288,167.306005 C28.5989898,168.336272 28.8233415,170.387984 30.1912538,172.27921 C30.5356348,172.755228 30.9076788,173.16495 31.2907411,173.557749 C32.1900233,174.479748 33.0588293,175.468372 33.8479283,176.614132 C34.6135841,177.725802 35.2538186,178.904976 35.6246905,180.207016 C36.1057455,181.896009 36.098947,183.325915 35.7036942,184.491277 C35.0018039,186.56208 33.5623898,187.230341 31.5315031,186.70563 C31.0431807,186.579542 30.5396202,186.333069 30.0306677,186.022653 C27.9866528,184.775415 25.9428723,183.535028 23.8988573,182.291582 C23.842828,182.257505 23.7863298,182.219352 23.7303005,182.188192 C23.6466082,182.141374 23.6121466,182.070834 23.614491,181.971058 C23.6166009,181.879305 23.614491,181.784693 23.614491,181.691074 C23.6142565,177.970065 23.614491,174.249632 23.6140221,170.528481 C23.6140221,170.079049 23.6564543,170.119438 23.2649525,169.881621 C22.5337582,169.438081 21.8023295,168.994398 21.0711353,168.549108 C20.8252158,168.399542 20.823106,168.395925 20.823106,168.094359 C20.8228715,164.385016 20.823106,160.67625 20.8233404,156.967484 C20.8233404,156.897488 20.8228715,156.827207 20.8256847,156.758922 C20.8289668,156.678089 20.8657726,156.657019 20.9328203,156.696338 C20.989084,156.729391 21.0453477,156.762735 21.1016115,156.796954 C22.6392527,157.731844 24.1766595,158.666884 25.7143008,159.602066 C25.7424327,159.619175 25.7705645,159.635993 25.7986964,159.654269 C26.0099199,159.791483 26.0139052,159.793907 26.0146085,160.064694 C26.016484,160.870788 26.0157807,161.675022 26.014843,162.479404 C26.0143741,162.784768 26.0129675,162.787121 25.7731433,162.641845 C25.0325718,162.193185 24.2920002,161.7419 23.5511943,161.291347 C23.4855532,161.251425 23.4199122,161.213835 23.3542711,161.170997 C23.2738609,161.118884 23.2323664,161.135061 23.2349451,161.240748 C23.2368206,161.311885 23.2344763,161.380455 23.2344763,161.450451 L23.2344763,166.489282 C23.2351796,166.882271 23.2150184,166.838802 23.4848499,167.005828 C23.5598682,167.052037 23.6348866,167.097371 23.7099049,167.142997 C24.3754581,167.547781 25.0412457,167.952417 25.7070334,168.357344 C26.0136708,168.543838 26.014843,168.544843 26.014843,168.920196 C26.0153118,172.629682 26.0153118,176.338882 26.0150774,180.04794 C26.0150774,180.621323 26.014843,180.621181 26.4733925,180.900067 C27.4486307,181.492908 28.4238689,182.104998 29.3986383,182.673638 C30.5618912,183.351663 31.6018328,183.517217 32.480016,183.081878 C32.9029318,182.872744 33.2126169,182.49675 33.3565583,181.898043 C33.6153715,180.820606 33.2346535,179.401751 32.3405288,178.085371 C31.9380086,177.492623 31.4970415,176.968653 31.0413052,176.47449 C30.6045579,176.000626 30.1633564,175.538052 29.7287189,175.059055 C28.5267847,173.733665 27.5604549,172.18934 26.9910189,170.383306 C26.0997074,167.556142 26.0258613,165.205739 27.1305061,163.659872 C28.0537004,162.368209 29.4105944,162.130107 31.1678986,162.959442 C31.3922503,163.065268 31.6158987,163.19079 31.8411881,163.328101 M35.6981254,189.405957 C35.7875463,189.359286 35.8788646,189.316111 35.9661507,189.265505 C37.5539041,188.343303 38.3212155,186.496796 38.3318891,183.788809 C38.3394792,181.798355 37.6883912,179.739761 36.6487851,177.647573 C35.5958963,175.528267 34.3051054,173.718588 32.7524562,172.274852 C32.5325806,172.070531 32.3172116,171.848448 32.1153625,171.592407 C31.5800234,170.912972 31.3276527,170.015468 31.5088663,169.435271 C31.6879451,168.862856 32.2228098,168.75991 32.8172092,169.215153 C35.7109337,171.432048 37.9089784,174.578535 39.4673202,178.540148 C40.2182654,180.449159 40.684582,182.328298 40.7908433,184.115873 C40.9426453,186.677504 40.6442596,188.861933 39.5942171,190.385339 C39.3691233,190.712422 39.1006236,190.97239 38.7982057,191.179508 C38.7166121,191.235627 38.6340698,191.256019 38.5050382,191.176664 C37.5769116,190.606326 36.6487851,190.044483 35.7206585,189.480003"/>
        <polygon fill="#D7D7D7" points="82.731 64.135 64.204 141.605 64.417 230.789 129.073 193.838 128.86 104.652 129.994 37.147"/>
        <polygon fill="#C8C8C8" points="17.72 40.309 3.963 99.587 20.825 90.759 30.913 48.367"/>
        <polygon fill="#707070" points="21.151 90.102 3.963 98.953 54.183 128.04 57.863 111.232"/>
        <polygon fill="gray" points="20.609 90.45 30.837 48.213 67.375 69.284 57.119 111.442"/>
        <polygon fill="#393C41" points="26.95 77.595 33.435 50.584 67.375 70.358 60.867 97.216"/>
        <polygon fill="#FF9C9C" points="29.328 76.612 34.941 53.745 65.79 71.321 60.156 94.054"/>
        <g fill="#BFBFBF" transform="translate(30.913 101.168)">
          <path d="M6.65046111.281451433L6.64788501.886085935C6.64788501.978559447 6.5809064 1.07103296 6.44952527 1.14453755L6.45210137.537531928C6.5834825.466398457 6.65046111.373924945 6.65046111.281451433M.383323758.555078184L.380747658 1.15971269C.24421433 1.0862081.174659616.993734587.174659616.898889959L.177235716.294255458C.177235716.38672897.24679043.481573597.383323758.555078184"/>
        </g>
        <polygon fill="#B9B9B9" points="30.913 102.565 33.253 103.912 33.255 103.305 30.916 101.958"/>
        <polygon fill="#979797" points="34.084 103.324 34.084 103.928 36.44 102.563 36.443 101.958"/>
        <g transform="translate(30.913 99.587)">
          <path fill="#BFBFBF" d="M3.7974496,3.84100983 L3.79493955,4.49603054 C3.53138465,4.65272177 3.10718677,4.65015306 2.84112182,4.49346183 L2.84363187,3.83844112 C3.10718677,3.99513235 3.5338947,3.99770106 3.7974496,3.84100983"/>
          <path fill="#E6E6E6" d="M6.2768737,1.79529025 C6.54293864,1.95198148 6.55046878,2.20371493 6.28440384,2.36297486 L3.79694759,3.83998235 C3.53339269,3.99924228 3.1091948,3.99667358 2.84312986,3.83741364 L0.373243939,2.38095582 C0.107178993,2.22169589 0.107178993,1.97253115 0.370733892,1.81583992 L2.85819014,0.336263724 C3.12174504,0.179572495 3.54343288,0.179572495 3.80698778,0.336263724 L6.2768737,1.79529025 Z"/>
          <path fill="#BFBFBF" d="M10.7977187 4.63165836L10.7952087 5.28667907C10.7952087 5.38942742 10.7299475 5.48960705 10.5994251 5.56666831L10.5994251 4.9116476C10.7324575 4.83458634 10.7977187 4.731838 10.7977187 4.63165836M4.69378726 4.93219727L4.69127722 5.58721798C4.55824474 5.50758801 4.49047348 5.40740838 4.49298353 5.30466003L4.49298353 4.64963932C4.49298353 4.74981896 4.56075479 4.8525673 4.69378726 4.93219727"/>
        </g>
        <polygon fill="#979797" points="38.842 105.692 38.84 106.299 41.196 104.934 41.199 104.329"/>
        <polygon fill="#B9B9B9" points="35.669 104.934 38.009 106.281 38.011 105.674 35.671 104.329"/>
        <g transform="translate(34.876 101.958)">
          <path fill="#BFBFBF" d="M4.01763354,3.82200139 L4.01512349,4.4770221 C3.75156859,4.63371333 3.3323908,4.63371333 3.06632585,4.4770221 L3.06632585,3.82200139 C3.3323908,3.97869262 3.75407864,3.97869262 4.01763354,3.82200139"/>
          <path fill="#E6E6E6" d="M6.50207772,1.77936425 C6.76814267,1.93605548 6.77065272,2.18522022 6.50458777,2.34191145 L4.01713153,3.82148764 C3.75357663,3.97817887 3.33439883,3.97817887 3.06833389,3.82148764 L0.598447968,2.36246112 C0.332383022,2.20576989 0.332383022,1.95660515 0.595937921,1.79991392 L3.08339417,0.32033773 C3.34694907,0.163646501 3.76863691,0.163646501 4.03219181,0.32033773 L6.50207772,1.77936425 Z"/>
          <path fill="#BFBFBF" d="M11.0226718 4.61547549L11.0201617 5.2704962C11.0201617 5.37067584 10.9549005 5.47342419 10.8243781 5.55048545L10.8243781 4.89546474C10.9574106 4.81840348 11.0226718 4.71565513 11.0226718 4.61547549M4.91899129 4.91601441L4.91648125 5.57103512C4.78344877 5.49140515 4.71567751 5.39122551 4.71567751 5.28847717L4.71818756 4.63345645C4.71818756 4.73363609 4.78595882 4.83638444 4.91899129 4.91601441"/>
        </g>
        <polygon fill="#979797" points="43.598 108.856 43.596 109.461 45.952 108.095 45.954 107.491"/>
        <polygon fill="#B9B9B9" points="39.632 108.095 41.972 109.442 41.972 108.837 39.635 107.491"/>
        <g transform="translate(38.84 105.12)">
          <path fill="#BFBFBF" d="M4.23950845,3.73536082 L4.23693235,4.38030429 C3.96644179,4.53458488 3.53623301,4.53458488 3.26316635,4.38030429 L3.26316635,3.73536082 C3.53623301,3.88964141 3.96901789,3.88964141 4.23950845,3.73536082"/>
          <path fill="#E6E6E6" d="M6.78933275,1.72364303 C7.0623994,1.87792363 7.0623994,2.12325507 6.79190885,2.27753566 L4.23899323,3.73434914 C3.96850267,3.88862974 3.53571779,3.88862974 3.26522723,3.73434914 L0.730344315,2.29776918 C0.457277659,2.14348859 0.454701559,1.89815715 0.727768214,1.74387656 L3.28068383,0.287063073 C3.55117439,0.132782479 3.98138318,0.132782479 4.25444983,0.287063073 L6.78933275,1.72364303 Z"/>
          <path fill="#BFBFBF" d="M6.13757932 5.36415923L6.13500322 6.0091027C5.99846989 5.9306978 5.92891517 5.83205939 5.92891517 5.73089179L5.93149127 5.08594832C5.93149127 5.18458673 6.00104599 5.28575433 6.13757932 5.36415923M15.6413294 6.90418306L15.6387533 7.54912653C15.6387533 7.64776494 15.5717747 7.74893255 15.4378174 7.82480825L15.4378174 7.17986478C15.5743508 7.10398908 15.6413294 7.00282147 15.6413294 6.90418306"/>
        </g>
        <polygon fill="#979797" points="51.522 113.599 51.522 114.203 53.879 112.837 53.881 112.233"/>
        <polygon fill="#B9B9B9" points="50.729 113.163 50.727 113.814 45.181 110.512 45.183 109.862"/>
        <g transform="translate(26.157 104.33)">
          <path fill="#BFBFBF" d="M25.7661773,9.42679724 L25.7636012,10.0717407 C25.4931106,10.2260213 25.0629018,10.2260213 24.7898352,10.0717407 L24.7898352,9.42679724 C25.0629018,9.58107784 25.4956867,9.58107784 25.7661773,9.42679724"/>
          <path fill="#E6E6E6" d="M28.3162592,7.41533238 C28.5893258,7.56961297 28.5893258,7.81494441 28.3188353,7.969225 L25.7659197,9.42603848 C25.4954291,9.58031908 25.0652203,9.58031908 24.7921537,9.42603848 L19.0191124,6.15326653 C18.7460457,5.99898593 18.7434696,5.7536545 19.0139602,5.5993739 L21.5668758,4.14256042 C21.8399425,3.98827983 22.2701512,3.98827983 22.5432179,4.14256042 L28.3162592,7.41533238 Z"/>
          <path fill="#BFBFBF" d="M6.55696848.310331622L6.55439238.955275091C6.55439238 1.05644269 6.48998987 1.15508111 6.35860874 1.23095681L6.35860874.58601334C6.48998987.510137638 6.55696848.411499225 6.55696848.310331622M.286739805.605235185L.284163704 1.25017865C.147630376 1.17177376.0780756621 1.07060616.0780756621.971967745L.0806517626.327024276C.0806517626.425662689.150206477.526830292.286739805.605235185"/>
        </g>
        <polygon fill="#B9B9B9" points="26.95 104.936 29.29 106.283 29.29 105.676 26.952 104.329"/>
        <polygon fill="#979797" points="30.123 105.7 30.121 106.304 32.484 104.936 32.487 104.329"/>
        <g transform="translate(26.157 101.958)">
          <path fill="#BFBFBF" d="M3.68301789,3.85462399 L3.68050785,4.5096447 C3.41695295,4.66633593 2.99275506,4.66376722 2.72669011,4.50707599 L2.72669011,3.85205528 C2.99275506,4.00874651 3.41946299,4.01131522 3.68301789,3.85462399"/>
          <path fill="#E6E6E6" d="M6.16746208,1.80607882 C6.43352703,1.96277005 6.43603708,2.21707221 6.17499222,2.37119473 L3.68251588,3.85590834 C3.41896098,4.01259957 2.9947631,4.00746215 2.72869815,3.85077092 L0.258812233,2.39431311 C-0.00725271378,2.23505317 -0.00725271378,1.98588843 0.256302186,1.8291972 L2.74877852,0.3470523 C3.00731333,0.19292978 3.43402126,0.190361072 3.70008621,0.3470523 L6.16746208,1.80607882 Z"/>
          <path fill="#BFBFBF" d="M10.6860481 4.64193319L10.683538 5.2969539C10.683538 5.39970225 10.6182768 5.49988189 10.4877544 5.57694315L10.4902644 4.92192244C10.6207869 4.84486118 10.6860481 4.74468154 10.6860481 4.64193319M4.57935556 4.94581143L4.57684551 5.60083214C4.44381304 5.52120217 4.37604178 5.42102253 4.37604178 5.31827419L4.37855182 4.66325348C4.37855182 4.76343311 4.44632308 4.86618146 4.57935556 4.94581143"/>
        </g>
        <polygon fill="#979797" points="34.086 108.861 34.084 109.466 36.445 108.098 36.447 107.491"/>
        <polygon fill="#B9B9B9" points="30.913 108.095 33.253 109.442 33.255 108.837 30.916 107.491"/>
        <g transform="translate(30.913 105.12)">
          <path fill="#BFBFBF" d="M3.7708431,3.83587241 L3.76833306,4.49089312 C3.50477816,4.64758435 3.08560037,4.64758435 2.81953542,4.49089312 L2.81953542,3.83587241 C3.08560037,3.99256364 3.50728821,3.99256364 3.7708431,3.83587241"/>
          <path fill="#E6E6E6" d="M6.26030739,1.78989596 C6.52637233,1.94658719 6.52386229,2.19832064 6.26281743,2.35244316 L3.7703411,3.83458806 C3.5067862,3.993848 3.0876084,3.993848 2.82154346,3.83458806 L0.351657538,2.37813024 C0.0855925913,2.21887031 0.0855925913,1.96970557 0.349147491,1.81301434 L2.84162383,0.330869436 C3.10015864,0.176746916 3.52435652,0.174178207 3.79293152,0.330869436 L6.26030739,1.78989596 Z"/>
          <path fill="#BFBFBF" d="M10.7788934 4.62575033L10.7763833 5.28077104C10.7763833 5.38351939 10.7111221 5.48369902 10.5831098 5.56076028L10.5831098 4.90573957C10.7136322 4.82867831 10.7788934 4.72849868 10.7788934 4.62575033M4.67194986 4.92962856L4.66943981 5.58464927C4.53640734 5.50501931 4.46863608 5.40483967 4.47114612 5.30209132L4.47114612 4.64707061C4.47114612 4.74725025 4.53891738 4.8499986 4.67194986 4.92962856"/>
        </g>
        <polygon fill="#979797" points="38.842 111.232 38.84 111.837 41.203 110.469 41.203 109.862"/>
        <polygon fill="#B9B9B9" points="35.669 110.466 38.009 111.813 38.009 111.208 35.669 109.862"/>
        <g transform="translate(34.876 107.49)">
          <path fill="#BFBFBF" d="M4.14266689,3.74851261 L4.14009079,4.39345608 C3.86960023,4.54773667 3.43939144,4.54773667 3.16632479,4.39345608 L3.16632479,3.74851261 C3.43939144,3.9027932 3.87217633,3.9027932 4.14266689,3.74851261"/>
          <path fill="#E6E6E6" d="M6.69764339,1.73451855 C6.97071004,1.88879915 6.96555784,2.13665977 6.70021949,2.28841118 L4.14215167,3.74775385 C3.87166111,3.90456364 3.44145232,3.90456364 3.16838567,3.74775385 L0.633502751,2.31370308 C0.360436096,2.15689329 0.360436096,1.91156186 0.630926651,1.75728126 L3.18899447,0.297938591 C3.45433283,0.146187186 3.89226991,0.143657996 4.16276047,0.297938591 L6.69764339,1.73451855 Z"/>
          <path fill="#BFBFBF" d="M6.04073775 5.37731101L6.03816165 6.02225448C5.90162832 5.94637878 5.83207361 5.84521118 5.83464971 5.74404358L5.83464971 5.09910011C5.83464971 5.19773852 5.90420442 5.29890612 6.04073775 5.37731101M15.5470639 6.91328815L15.5444878 7.55823161C15.5444878 7.65939922 15.4775092 7.76056682 15.3409759 7.83897171L15.343552 7.19402824C15.4775092 7.11562335 15.5470639 7.01445575 15.5470639 6.91328815"/>
        </g>
        <polygon fill="#979797" points="47.559 115.97 47.559 116.574 49.915 115.209 49.918 114.604"/>
        <polygon fill="#B9B9B9" points="45.973 116.324 45.971 116.975 40.425 113.674 40.427 113.023"/>
        <g transform="translate(21.401 106.7)">
          <path fill="#BFBFBF" d="M26.4622396,9.44020195 L26.4596635,10.0851454 C26.189173,10.239426 25.7589642,10.239426 25.4858975,10.0851454 L25.4858975,9.44020195 C25.7589642,9.59448254 26.1917491,9.59448254 26.4622396,9.44020195"/>
          <path fill="#E6E6E6" d="M29.0172161,7.42570206 C29.2902828,7.57998265 29.2877067,7.82784328 29.01464,7.98212387 L26.4617244,9.43893735 C26.1912339,9.59574714 25.7610251,9.59574714 25.4879584,9.43893735 L19.7149171,6.16869459 C19.4418505,6.0118848 19.4392744,5.76655337 19.7097649,5.61227277 L22.2626806,4.15545929 C22.5357472,4.0011787 22.9711082,3.99864951 23.2441748,4.1529301 L29.0172161,7.42570206 Z"/>
          <path fill="#BFBFBF" d="M7.2520004.322724653L7.2494243.967668122C7.2494243 1.06883572 7.18244569 1.17000333 7.04848846 1.24587903L7.04848846.600935561C7.18502179.525059859 7.2520004.423892256 7.2520004.322724653M.982544556.618639892L.979968456 1.26358336C.843435128 1.18770766.776456514 1.08654006.776456514.985372453L.779032615.340428984C.779032615.441596587.846011228.540235.982544556.618639892"/>
        </g>
        <polygon fill="#B9B9B9" points="22.194 108.098 24.534 109.444 24.534 108.837 22.196 107.491"/>
        <polygon fill="#979797" points="25.367 108.854 25.365 109.461 27.724 108.095 27.724 107.491"/>
        <g transform="translate(21.401 105.12)">
          <path fill="#BFBFBF" d="M4.3612325,3.86798127 L4.35872246,4.52300198 C4.10018765,4.6771245 3.67096967,4.6771245 3.40490472,4.52043327 L3.40490472,3.86541256 C3.67096967,4.02210379 4.1026977,4.02210379 4.3612325,3.86798127"/>
          <path fill="#E6E6E6" d="M6.84542569,1.81969298 C7.11149063,1.97638421 7.11400068,2.23068637 6.84793573,2.3899463 L4.36047949,3.86695379 C4.10194468,4.02107631 3.6727267,4.02107631 3.40666176,3.86438508 L0.936775837,2.40792726 C0.67071089,2.24866733 0.675730984,1.99693388 0.93426579,1.84281136 L3.42172204,0.363235165 C3.68527694,0.206543936 4.11198487,0.203975228 4.37553977,0.360666456 L6.84542569,1.81969298 Z"/>
          <path fill="#BFBFBF" d="M11.3635097 4.65451987L11.3609996 5.30954058C11.3609996 5.41228892 11.2957384 5.51503727 11.162706 5.59466724L11.165216 4.93964653C11.2957384 4.86001656 11.3635097 4.75726821 11.3635097 4.65451987M5.25731916 4.95916871L5.25480911 5.61418942C5.12177664 5.53712816 5.05651543 5.43437982 5.05651543 5.33163147L5.05902547 4.67661076C5.05902547 4.77935911 5.12428669 4.87953875 5.25731916 4.95916871"/>
        </g>
        <polygon fill="#979797" points="30.121 111.225 30.121 111.832 32.477 110.466 32.479 109.862"/>
        <polygon fill="#B9B9B9" points="26.157 110.469 28.497 111.815 28.5 111.208 26.16 109.862"/>
        <g transform="translate(26.157 107.49)">
          <path fill="#BFBFBF" d="M3.65590939,3.8492297 L3.65339934,4.50425041 C3.39486454,4.65837293 2.97066665,4.66094164 2.7046017,4.50425041 L2.70711175,3.8492297 C2.97066665,4.00592093 3.39737458,4.00335222 3.65590939,3.8492297"/>
          <path fill="#E6E6E6" d="M6.14537367,1.80351012 C6.41143862,1.96020134 6.40892857,2.21193479 6.14286362,2.37119473 L3.65540738,3.84820222 C3.39687257,4.00232474 2.97267469,4.00489344 2.70660974,3.84820222 L0.236723822,2.3917444 C-0.0293411244,2.23248446 -0.0243210311,1.98075101 0.234213775,1.82662849 L2.72167002,0.3470523 C2.98522492,0.190361072 3.41193285,0.187792363 3.67548775,0.344483592 L6.14537367,1.80351012 Z"/>
          <path fill="#BFBFBF" d="M10.6637087 4.638337L10.6611986 5.29335771C10.6611986 5.39610606 10.5959374 5.49885441 10.4629049 5.57848437L10.4629049 4.92346366C10.5959374 4.84383369 10.6637087 4.74108535 10.6637087 4.638337M4.55726715 4.94298585L4.5547571 5.59800656C4.42172463 5.5209453 4.35646341 5.41819695 4.35646341 5.31544861L4.35897346 4.6604279C4.35897346 4.76317624 4.42423467 4.86335588 4.55726715 4.94298585"/>
        </g>
        <polygon fill="#979797" points="34.086 113.599 34.084 114.203 36.44 112.837 36.443 112.233"/>
        <polygon fill="#B9B9B9" points="30.913 112.837 33.251 114.184 33.253 113.58 30.913 112.233"/>
        <g transform="translate(30.913 109.862)">
          <path fill="#BFBFBF" d="M3.8902062,3.76217023 L3.88760179,4.4071137 C3.61934763,4.55886511 3.17920246,4.5613943 2.90313507,4.4071137 L2.90313507,3.76217023 C3.17920246,3.91645083 3.62195204,3.91392164 3.8902062,3.76217023"/>
          <path fill="#E6E6E6" d="M6.47325937,1.74767034 C6.74932676,1.90195094 6.74411794,2.14981156 6.47065496,2.30662135 L3.88968532,3.76343483 C3.62143116,3.91265704 3.17868158,3.91518623 2.9052186,3.76343483 L0.342479826,2.32685487 C0.0664124377,2.17257427 0.0716212563,1.92218446 0.339875416,1.77043305 L2.92084505,0.313619569 C3.19430803,0.159338975 3.63445321,0.156809785 3.9105206,0.311090379 L6.47325937,1.74767034 Z"/>
          <path fill="#BFBFBF" d="M5.80939543 5.39096864L5.80679102 6.03591211C5.66875733 5.96003641 5.60104269 5.8588688 5.60104269 5.7577012L5.6036471 5.11275773C5.6036471 5.21139615 5.67136174 5.31256375 5.80939543 5.39096864M15.4199263 6.92669285L15.4173219 7.57163632C15.4173219 7.67280393 15.3470028 7.77397153 15.2115735 7.85237642L15.2115735 7.20743295C15.3496072 7.12902806 15.4199263 7.02786046 15.4199263 6.92669285"/>
        </g>
        <polygon fill="#979797" points="42.805 118.341 42.803 118.945 45.162 117.58 45.162 116.975"/>
        <polygon fill="#B9B9B9" points="42.01 118.696 42.008 119.346 36.462 116.045 36.464 115.394"/>
        <g transform="translate(35.67 112.233)">
          <path fill="#BFBFBF" d="M7.3418865,6.24198182 L7.33931039,6.89700253 C7.07397204,7.05112505 6.63861105,7.05369376 6.3655444,6.89700253 L6.3655444,6.24198182 C6.63861105,6.39867305 7.07654814,6.39610434 7.3418865,6.24198182"/>
          <path fill="#E6E6E6" d="M9.896863,4.19651911 C10.1699297,4.35321034 10.1673536,4.60494379 9.8942869,4.76163502 L7.34137128,6.24121121 C7.07603292,6.39533373 6.64067193,6.40047115 6.36760528,6.24121121 L0.594564001,2.9198709 C0.321497345,2.76061096 0.324073446,2.50887752 0.5894118,2.354755 L3.14490352,0.875178803 C3.41539408,0.718487574 3.85075506,0.715918865 4.12382172,0.872610094 L9.896863,4.19651911 Z"/>
        </g>
        <polygon fill="#081C01" points="45.353 99.587 30.121 90.611 30.743 87.731 45.973 96.707"/>
        <polygon fill="#444" points="71.479 101.958 62.619 96.965 63.271 94.054 72.131 99.048"/>
        <polygon fill="#444" points="67.094 116.185 58.656 111.389 61.315 100.377 69.753 105.173"/>
      </g>
    </g>
    <g transform="translate(498 180)">
      <polygon fill="#FF9C9C" points="0 0 117 66.426 117 136.5 0 68.25" opacity=".466"/>
      <path fill="#FFF" d="M55.4462891 64.6210935L52.9101563 67.0136717 55.4052734 72.1582029 54.0722656 71.3964842 52.5683594 68.0556639C52.4635411 67.8225898 52.3518886 67.5696627 52.2333984 67.2968749L52.1992188 67.2773436C52.1992188 67.2819009 52.0852876 67.4059231 51.8574219 67.6494139L50.3125 69.2480468 49 68.4980469 51.5839844 66.2763671 49.109375 61 50.4423828 61.7617187 52.2402344 65.9814452 52.2675781 65.9970702C52.3177086 65.9482418 52.3678383 65.8948569 52.4179688 65.8369139L54.1953125 63.9062498 55.4462891 64.6210935zM64.4462891 69.6210935L61.9101563 72.0136717 64.4052734 77.1582029 63.0722656 76.3964842 61.5683594 73.0556639C61.4635411 72.8225898 61.3518886 72.5696627 61.2333984 72.2968749L61.1992188 72.2773436C61.1992188 72.2819009 61.0852876 72.4059231 60.8574219 72.6494139L59.3125 74.2480468 58 73.4980469 60.5839844 71.2763671 58.109375 66 59.4423828 66.7617187 61.2402344 70.9814452 61.2675781 70.9970702C61.3177086 70.9482418 61.3678383 70.8948569 61.4179688 70.8369139L63.1953125 68.9062498 64.4462891 69.6210935zM73.4462891 74.6210935L70.9101563 77.0136717 73.4052734 82.1582029 72.0722656 81.3964842 70.5683594 78.0556639C70.4635411 77.8225898 70.3518886 77.5696627 70.2333984 77.2968749L70.1992188 77.2773436C70.1992188 77.2819009 70.0852876 77.4059231 69.8574219 77.6494139L68.3125 79.2480468 67 78.4980469 69.5839844 76.2763671 67.109375 71 68.4423828 71.7617187 70.2402344 75.9814452 70.2675781 75.9970702C70.3177086 75.9482418 70.3678383 75.8948569 70.4179688 75.8369139L72.1953125 73.9062498 73.4462891 74.6210935zM82.4462891 79.6210935L79.9101563 82.0136717 82.4052734 87.1582029 81.0722656 86.3964842 79.5683594 83.0556639C79.4635411 82.8225898 79.3518886 82.5696627 79.2333984 82.2968749L79.1992188 82.2773436C79.1992188 82.2819009 79.0852876 82.4059231 78.8574219 82.6494139L77.3125 84.2480468 76 83.4980469 78.5839844 81.2763671 76.109375 76 77.4423828 76.7617187 79.2402344 80.9814452 79.2675781 80.9970702C79.3177086 80.9482418 79.3678383 80.8948569 79.4179688 80.8369139L81.1953125 78.9062498 82.4462891 79.6210935zM91.4462891 84.6210935L88.9101563 87.0136717 91.4052734 92.1582029 90.0722656 91.3964842 88.5683594 88.0556639C88.4635411 87.8225898 88.3518886 87.5696627 88.2333984 87.2968749L88.1992188 87.2773436C88.1992188 87.2819009 88.0852876 87.4059231 87.8574219 87.6494139L86.3125 89.2480468 85 88.4980469 87.5839844 86.2763671 85.109375 81 86.4423828 81.7617187 88.2402344 85.9814452 88.2675781 85.9970702C88.3177086 85.9482418 88.3678383 85.8948569 88.4179688 85.8369139L90.1953125 83.9062498 91.4462891 84.6210935zM100.446289 89.6210935L97.9101563 92.0136717 100.405273 97.1582029 99.0722656 96.3964842 97.5683594 93.0556639C97.4635411 92.8225898 97.3518886 92.5696627 97.2333984 92.2968749L97.1992188 92.2773436C97.1992188 92.2819009 97.0852876 92.4059231 96.8574219 92.6494139L95.3125 94.2480468 94 93.4980469 96.5839844 91.2763671 94.109375 86 95.4423828 86.7617187 97.2402344 90.9814452 97.2675781 90.9970702C97.3177086 90.9482418 97.3678383 90.8948569 97.4179688 90.8369139L99.1953125 88.9062498 100.446289 89.6210935z"/>
      <polygon fill="#FFF" points="36.398 63.5 31.317 60.252 31.317 59.032 33.206 60.218 33.206 51.854 31.267 52.656 31.267 51.381 34.515 49.443 34.515 61.081 36.398 62.382"/>
      <path fill="#FFF" d="M11 42.3762624C11 40.384065 11.3405728 39.0706349 12.0217285 38.4359328 12.7028843 37.8012307 13.6904232 37.8596055 14.984375 38.611059 17.4502076 40.0430742 18.6831055 42.6950869 18.6831055 46.5671766 18.6831055 48.4617173 18.3461948 49.7260051 17.6723633 50.3600779 16.9985318 50.9941507 16.0219791 50.9397146 14.7426758 50.1967681 13.507318 49.4793427 12.5747102 48.4543435 11.9448242 47.1217399 11.3149383 45.7891363 11 44.2073263 11 42.3762624zM12.7504883 43.3269284C12.7504883 46.2175679 13.4511649 48.069779 14.8525391 48.8836173 16.2343819 49.686113 16.925293 48.6127601 16.925293 45.6635267 16.925293 42.6361678 16.2490302 40.7297761 14.8964844 39.9442945 13.4658132 39.1134421 12.7504883 40.2409755 12.7504883 43.3269284zM39 59.3762624C39 57.384065 39.3405728 56.0706349 40.0217285 55.4359328 40.7028843 54.8012307 41.6904232 54.8596055 42.984375 55.611059 45.4502076 57.0430742 46.6831055 59.6950869 46.6831055 63.5671766 46.6831055 65.4617173 46.3461948 66.7260051 45.6723633 67.3600779 44.9985318 67.9941507 44.0219791 67.9397146 42.7426758 67.1967681 41.507318 66.4793427 40.5747102 65.4543435 39.9448242 64.1217399 39.3149383 62.7891363 39 61.2073263 39 59.3762624zM40.7504883 60.3269284C40.7504883 63.2175679 41.4511649 65.069779 42.8525391 65.8836173 44.2343819 66.686113 44.925293 65.6127601 44.925293 62.6635267 44.925293 59.6361678 44.2490302 57.7297761 42.8964844 56.9442945 41.4658132 56.1134421 40.7504883 57.2409755 40.7504883 60.3269284zM21.6225586 52.4750642C22.2524446 53.3010798 22.9384729 53.9820923 23.6806641 54.5181222 24.67188 55.2340041 25.4335911 55.4081589 25.9658203 55.0405918 26.4980495 54.6730247 26.7641602 53.8105398 26.7641602 52.4531111 26.7495116 52.4425316 26.7373047 52.4312741 26.7275391 52.4193382 26.2343725 52.9518368 25.418951 52.8072497 24.28125 51.9855724 23.3193311 51.2908495 22.5319855 50.3877387 21.9191895 49.2762128 21.3063934 48.1646869 21 47.1060076 21 46.1001432 21 44.967325 21.3478969 44.2908601 22.0437012 44.0707282 22.7395054 43.8505963 23.6464788 44.1443116 24.7646484 44.9518828 25.9414121 45.8017722 26.8532682 46.9144354 27.5002441 48.2899059 28.14722 49.6653764 28.4707031 51.188054 28.4707031 52.8579842 28.4707031 54.8892443 28.0629924 56.1853453 27.2475586 56.7463259 26.4321248 57.3073065 25.2651443 57.0394282 23.746582 55.942683 22.9311483 55.3537555 22.2231475 54.7105843 21.6225586 54.0131501L21.6225586 52.4750642zM22.7138672 47.147513C22.7138672 47.8506415 22.8933088 48.540536 23.2521973 49.2172172 23.6110858 49.8938984 24.107907 50.4614538 24.7426758 50.9199003 25.2944364 51.3183962 25.7546368 51.4603371 26.123291 51.3457275 26.4919452 51.2311179 26.6762695 50.8979378 26.6762695 50.3461772 26.6762695 49.6186345 26.4943866 48.8671629 26.1306152 48.0917399 25.7668439 47.3163169 25.2773468 46.7064443 24.6621094 46.2621038 24.0908175 45.8495019 23.6232928 45.7340092 23.2595215 45.9156222 22.8957501 46.0972352 22.7138672 46.5078614 22.7138672 47.147513z"/>
    </g>
    <g transform="translate(564 108)">
      <g id="Money3" transform="rotate(14 32.773 473.44)">
        <path fill="#B8E986" d="M63.0009302,11.8252042 C47.8829161,0.499314807 30.1717728,-2.69083112 9.86750041,2.25476645 C5.07990083,3.42090235 1.79073403,5.23440124 0,7.69526313 C5.40757525,9.63064808 10.2215197,12.6953536 14.4418333,16.8893797 C20.5672913,22.9766834 24.2353822,28.4529972 25.446106,33.3183212 C33.5601739,26.8991474 38.8444322,22.9338207 41.298881,21.4223411 C46.2056353,18.4007018 54.4702048,16.7470212 64.629531,21.4223411 C66.5851043,22.3222956 75.8100495,22.7546488 92.3043663,22.7194006 L63.0009302,11.8252042 Z"/>
        <path fill="#00B820" d="M63.0009302,11.8252042 C82.2215146,18.4606508 91.8913688,21.800436 92.0104931,21.84456 C92.1891794,21.910746 94.0048609,23.0640776 92.8329923,23.0350678 C91.6611237,23.0060579 67.562891,22.7722729 64.629531,21.4223411 C54.4702048,16.7470212 46.2056353,18.4007018 41.298881,21.4223411 C38.8444322,22.9338207 33.5601739,26.8991474 25.446106,33.3183212 C24.2353822,28.4529972 20.5672913,22.9766834 14.4418333,16.8893797 C10.2215197,12.6953536 5.40757525,9.63064808 0,7.69526313 C1.79073403,5.23440124 5.07990083,3.42090235 9.86750041,2.25476645 C30.1717728,-2.69083112 47.8829161,0.499314807 63.0009302,11.8252042 Z M15.4369067,3.57696575 C17.7298345,4.32419126 18.4695545,5.97402864 17.6560666,8.52647788 C16.8425787,11.0789271 19.3807192,14.7621167 25.270488,19.5760466 C28.6713921,15.1406805 32.0999956,13.8039009 35.5562985,15.5657079 C40.7407529,18.2084183 45.1003481,9.2737034 64.3450219,18.2084183 C65.9002535,18.9304649 81.4524154,21.4960615 83.6385623,20.9309265 C87.2167124,20.0059483 65.7473199,17.0742443 61.1190614,11.791305 C58.2163102,8.47795105 47.9373197,4.87887744 35.5562985,3.57696575 C31.1081551,3.10922646 24.4016911,3.10922646 15.4369067,3.57696575 Z"/>
        <path fill="#00B820" d="M41.0952024,6.27591602 C37.099638,7.39959814 36.781891,8.63021129 40.1419614,9.96775549 C45.1820669,11.9740718 51.5825181,13.6595949 51.5825181,9.96775549 C51.5825181,7.50652918 48.0867462,6.27591602 41.0952024,6.27591602 Z"/>
      </g>
      <g id="Money2" transform="rotate(-13 101.496 -150.038)">
        <path fill="#B8E986" d="M66.703299,16.1694306 C72.9802083,29.9467783 78.3520795,38.383336 82.8189125,41.4791036 C86.1958396,43.8195048 74.2142969,32.9076894 47.9747473,27.5025545 C42.3288566,26.3395467 32.5008852,27.318099 18.490833,30.4382113 C9.91291372,13.0761146 3.81995977,4.39370849 0.211971148,4.39099291 C-2.04558079,4.38929374 14.0858706,-3.39742033 31.6137772,1.77172865 C41.5569131,4.70405547 53.2534204,9.50328944 66.703299,16.1694306 Z"/>
        <path fill="#00B820" d="M66.703299,16.1694306 C72.9802083,29.9467783 78.3520795,38.383336 82.8189125,41.4791036 C86.1958396,43.8195048 74.2142969,32.9076894 47.9747473,27.5025545 C42.3288566,26.3395467 32.5008852,27.318099 18.490833,30.4382113 C9.91291372,13.0761146 3.81995977,4.39370849 0.211971148,4.39099291 C-2.04558079,4.38929374 14.0858706,-3.39742033 31.6137772,1.77172865 C41.5569131,4.70405547 53.2534204,9.50328944 66.703299,16.1694306 Z M18.3586565,2.90794971 C18.3586565,5.25109451 16.9585259,6.62328109 14.1582649,7.02450946 C11.3580038,7.42573783 12.7581343,11.6411614 18.3586565,19.6707802 C21.3491071,18.3920452 24.2967651,19.8161894 27.2016304,23.9432128 C29.1167775,26.6641159 33.7405914,21.5039829 45.613375,23.9432128 C49.7038216,24.7835836 58.1381677,27.1624492 70.9164133,31.0798098 C69.1109064,29.0260954 67.947394,27.342163 67.4258761,26.0280127 C66.6219948,24.002347 65.2761751,21.1613147 60.8265793,16.9938798 C52.6315038,9.31847625 38.4755296,4.62316623 18.3586565,2.90794971 Z"/>
        <path fill="#00B820" d="M49.8074311,13.2425458 C47.7839021,11.1534437 38.0823689,5.65365533 34.0120762,10.8010213 C29.9417835,15.9483872 41.2218665,20.3591176 42.6286205,19.6588142 C43.3245011,19.3123943 47.5092691,20.0060029 49.8074311,17.8185878 C50.6064944,17.0580308 51.8309601,15.3316479 49.8074311,13.2425458 Z"/>
      </g>
      <g id="Money1" transform="rotate(-46 113.387 46.788)">
        <path fill="#B8E986" d="M55.2743934,13.7320973 C40.3761214,0.57983265 22.9224117,-3.12474559 2.9132643,2.61836259 C0.780081158,3.23063763 0.662391796,4.79167308 2.56019621,7.30146894 C3.52225451,12.8408089 5.14255869,16.9446209 7.42110875,19.6129049 C13.4575325,26.6818269 17.0723073,33.0412328 18.265433,38.6911228 C26.2615619,31.2368144 31.4690129,26.6320523 33.887786,24.8768365 C38.7232201,21.3679377 46.8676631,19.44759 56.8793222,24.8768365 C58.8064711,25.9219147 63.579587,29.77079 71.1986701,36.4234624 L55.2743934,13.7320973 Z"/>
        <path fill="#00B820" d="M55.2743934,13.7320973 L71.1986701,36.4234624 C63.579587,29.77079 58.8064711,25.9219147 56.8793222,24.8768365 C46.8676631,19.44759 38.7232201,21.3679377 33.887786,24.8768365 C31.4690129,26.6320523 26.2615619,31.2368144 18.265433,38.6911228 C17.0723073,33.0412328 13.4575325,26.6818269 7.42110875,19.6129049 C4.07832785,15.698359 1.6362772,10.633777 0.0949567829,4.41915873 C1.04792789,3.48438378 1.98736373,2.8841184 2.9132643,2.61836259 C22.9224117,-3.12474559 40.3761214,0.57983265 55.2743934,13.7320973 Z M8.40171859,4.15377534 C10.6613184,5.02149595 11.3902865,6.93738061 10.5886227,9.90142932 C9.78695902,12.865478 12.2882073,17.1426065 18.0923676,22.7328147 C21.4438392,17.5822162 24.8226075,16.029872 28.2286727,18.0757821 C33.3377704,21.1446472 37.6339984,10.7691499 56.5989485,21.1446472 C58.1315746,21.9831286 60.2304704,24.1644835 61.5640915,24.6792156 C64.6888561,25.8852676 56.760393,22.002253 53.4198777,13.6927315 C51.8455094,9.77649533 40.4297342,5.66562898 28.2286727,4.15377534 C23.8451835,3.61060997 17.2361988,3.61060997 8.40171859,4.15377534 Z"/>
        <path fill="#00B820" d="M33.6329157,7.58649466 C29.7324935,8.89275111 29.4223127,10.3233126 32.7023732,11.8781791 C37.622464,14.210479 43.870508,16.1698636 43.870508,11.8781791 C43.870508,9.01705616 40.4579772,7.58649466 33.6329157,7.58649466 Z"/>
      </g>
    </g>
    <g transform="matrix(-1 0 0 1 929 109)">
      <path fill="#B6B7B5" d="M99.3837685,111.87797 L82.0708658,89.6253691 C82.0708658,89.6253691 82.4677987,85.5909497 93.6442148,85.979896 C104.82143,86.3692416 121.005829,83.3471208 131.469842,83.1091208 C143.570305,82.8343826 155.573332,85.1041678 155.573332,85.1041678 L137.480141,111.87797 L99.3837685,111.87797"/>
      <path fill="#B8E986" d="M127.759279,114.928044 C118.067168,112.05647 108.390232,109.184097 98.617057,106.301742 C103.638218,85.9978658 105.170044,65.4340268 109.498369,43.8427148 C125.486698,46.3788523 140.478701,50.8832819 155.26505,57.0193691 C144.345003,75.8133826 133.711674,94.8302215 127.759279,114.928044 Z"/>
      <path fill="#00B820" d="M155.26505,57.0193691 L153.613027,56.0593826 C142.685393,74.8729631 131.966208,94.0080034 125.926758,114.385755 L127.759279,114.928044 L128.301966,113.096322 C118.610255,110.224349 108.93252,107.351977 99.1577483,104.469221 L98.617057,106.301742 L100.47194,106.76057 C103.007678,96.5062047 104.653312,86.2282785 106.207101,75.8377416 C107.76049,65.446406 109.222034,54.9416611 111.371621,44.2184832 L109.498369,43.8427148 L109.198872,45.729943 C125.023477,48.2405235 139.862138,52.6966342 154.532681,58.7844027 L155.26505,57.0193691 L153.613027,56.0593826 L155.26505,57.0193691 L155.997419,55.2543356 C141.095265,49.0699295 125.949919,44.5171812 109.797866,41.9554866 L107.985312,41.6683691 L107.624718,43.4673456 C105.446379,54.3350805 103.977648,64.9081107 102.427852,75.2722919 C100.878456,85.6376711 99.2475973,95.7934027 96.7621745,105.843312 L96.3229128,107.61753 L98.0763658,108.134661 C107.847544,111.016218 117.523681,113.888191 127.216191,116.760164 L129.048312,117.303252 L129.591,115.470732 C135.456742,95.6528389 146.004614,76.7542013 156.917473,57.9793557 L158.01403,56.0913289 L155.997419,55.2543356 L155.26505,57.0193691"/>
      <path fill="#165E34" d="M126.046557 68.3615067C134.715987 70.8449329 139.121782 78.244896 136.150376 84.3997517 133.157406 90.5865537 125.539409 94.0068054 118.652185 92.017349 111.799701 90.0059295 106.931883 83.0915503 107.969339 76.4443221 109.030755 69.8290403 117.370738 65.9319899 126.046557 68.3615067M98.617057 106.301742C101.218285 107.069252 103.806735 107.833168 106.392389 108.599879 107.615134 104.32706 104.954007 99.8102517 100.421225 98.5176242 99.8813322 101.122446 99.2871309 103.717685 98.617057 106.301742"/>
      <path fill="#85BF43" d="M119.171711,76.6970973 C118.059581,76.4754698 117.290473,77.1711007 116.873174,78.7652215 C116.447889,80.3697248 116.738601,81.304953 117.723745,81.5788926 C118.328329,81.7438154 118.837872,81.6120369 119.251178,81.1731745 C119.676064,80.7355101 120.282245,79.7910973 121.103265,78.3363423 C121.920691,76.8827852 122.872691,75.9072248 123.963258,75.4216409 C125.049034,74.9380537 126.296138,74.8921309 127.677017,75.2962517 C129.281919,75.7678591 130.310191,76.7186611 130.724295,78.1191074 C131.145987,79.5183557 131.043359,80.946755 130.468326,82.4134899 C129.072671,85.948349 126.76495,87.4957483 123.515211,87.1000134 C123.749218,86.0817248 123.986819,85.0654329 124.223221,84.047943 C125.959503,84.3130973 127.162681,83.5048557 127.860309,81.6140336 C128.514409,79.8426107 128.112285,78.7324765 126.637963,78.302 C125.987456,78.1131174 125.429195,78.1885906 124.966372,78.5344094 C124.505547,78.8778322 123.816305,79.8014799 122.939379,81.304953 C122.060057,82.8052315 121.148789,83.807547 120.20198,84.3142953 C119.252775,84.819047 118.244869,84.9184799 117.147913,84.6141913 C115.981473,84.284745 115.098158,83.5467852 114.499564,82.3931242 C113.899772,81.2414597 113.79395,79.7775201 114.217238,78.0013054 C115.041852,74.4756309 116.965419,72.9821409 119.899289,73.5911174 C119.655299,74.6269765 119.414104,75.6620369 119.171711,76.6970973"/>
      <path fill="#85BF43" d="M114.943617 76.5154027C114.709611 77.4801812 114.474406 78.4445604 114.244792 79.4053456 113.208933 79.1298087 112.168681 78.8562685 111.121641 78.5859228 111.329292 77.619547 111.536943 76.6535705 111.740201 75.6836007 112.818789 75.9599362 113.886594 76.2366711 114.943617 76.5154027M133.510812 81.8316678C133.121466 82.7549161 132.735715 83.6773658 132.353956 84.6006141 131.341258 84.2923322 130.333352 83.9900403 129.325846 83.690943 129.68045 82.7569128 130.040644 81.8236812 130.40603 80.889651 131.437497 81.2011275 132.472158 81.513802 133.510812 81.8316678"/>
      <path fill="#165E34" d="M127.300849,114.79347 C128.088725,112.227782 128.933305,109.678067 129.830997,107.143926 C125.449161,105.842513 120.838909,108.240483 119.574634,112.502121 C122.147909,113.266037 124.72398,114.030352 127.300849,114.79347"/>
      <path fill="#00B820" d="M156.137584,56.7294564 C152.196607,55.1093792 146.674688,53.6087013 142.702164,52.2278221 C140.78299,56.5852987 144.705198,61.9758389 150.946309,64.2919463 C151.855714,62.6783915 153.586139,60.1575615 156.137584,56.7294564 Z"/>
      <path fill="#165E34" d="M109.498369 43.8427148C108.973252 46.6072685 108.474091 49.3502584 108.000487 52.0764765 114.597 53.2724664 120.684768 50.8661107 122.047279 46.2714329 117.919815 45.3250235 113.735248 44.5123893 109.498369 43.8427148M117.157497 97.1103893C118.692916 97.5604329 119.563054 99.100245 119.117802 100.552205 118.668956 102.002567 117.109577 102.826383 115.618883 102.387121 114.127789 101.949057 113.248866 100.41204 113.646198 98.9485 114.050718 97.4869564 115.622077 96.6639396 117.157497 97.1103893M129.710799 57.6878456C131.84002 58.2960235 133.067158 60.0271141 132.490527 61.5146141 131.906708 62.9993188 129.821812 63.7097248 127.807198 63.1442752 125.800171 62.5756309 124.524315 60.9108289 124.98554 59.384594 125.459943 57.8651477 127.581977 57.0808658 129.710799 57.6878456"/>
      <path fill="#B8E986" d="M148.280389,46.6487987 C140.169221,66.8145067 132.367534,87.1591141 129.354198,107.904248 C119.351409,106.448295 109.361,104.989946 99.277547,103.539185 C101.338084,82.7261644 99.9084866,62.1531409 101.101282,40.1652953 C117.285681,40.3829295 132.76846,42.6966409 148.280389,46.6487987"/>
      <path fill="#00B820" d="M148.280389,46.6487987 L146.507768,45.9355973 C138.391809,66.1216711 130.522235,86.5952617 127.462977,107.62951 L129.354198,107.904248 L129.629336,106.013027 C119.626946,104.557473 109.635738,103.099124 99.5494899,101.647963 L99.277547,103.539185 L101.179151,103.727668 C102.219403,93.2161342 102.37594,82.8080268 102.425456,72.3016846 C102.474574,61.794943 102.416671,51.1891678 103.009275,40.2687215 L101.101282,40.1652953 L101.075326,42.0760839 C117.093604,42.2917215 132.417849,44.5794765 147.808782,48.5004866 L148.280389,46.6487987 L146.507768,45.9355973 L148.280389,46.6487987 L148.751997,44.7971107 C133.118671,40.813406 117.477758,38.4741376 101.126839,38.254906 L99.2919228,38.2301477 L99.1928893,40.0618691 C98.5930973,51.1296678 98.653396,61.8041275 98.6038792,72.2837148 C98.5551611,82.7645 98.3962282,93.0492148 97.375943,103.351101 L97.1954463,105.170443 L99.005604,105.430805 C109.086262,106.881168 119.075473,108.339117 129.078661,109.79507 L130.970282,110.070607 L131.24502,108.178587 C134.212433,87.7229664 141.946235,67.5077416 150.05301,47.3616007 L150.86804,45.3358054 L148.751997,44.7971107 L148.280389,46.6487987"/>
      <path fill="#00B820" d="M120.988258,62.062094 C129.927634,63.2748557 135.342534,69.9704027 133.284393,76.4850537 C131.211477,83.0396376 124.156534,87.5165134 117.060859,86.5313691 C109.990342,85.5226644 104.180507,79.375396 104.254383,72.6487013 C104.356611,65.9507584 112.053275,60.8996477 120.988258,62.062094"/>
      <path fill="#165E34" d="M99.277547,103.539185 C101.958242,103.925735 104.63055,104.311886 107.300064,104.698436 C107.89746,100.297832 104.616174,96.2087047 99.9468221,95.5769664 C99.7854933,98.2301074 99.570255,100.884047 99.277547,103.539185"/>
      <path fill="#B8E986" d="M115.379285,71.2925805 C114.247987,71.2346779 113.584302,72.0337349 113.398215,73.6721812 C113.208933,75.3222081 113.630624,76.2023289 114.646517,76.3341074 C115.266275,76.4103792 115.749862,76.2051242 116.099275,75.7111544 C116.458272,75.2199799 116.919497,74.1980973 117.521285,72.6395168 C118.12507,71.0853289 118.928919,69.9831812 119.938023,69.346651 C120.945131,68.7125168 122.173466,68.4888926 123.592282,68.6913523 C125.250295,68.9253591 126.404755,69.7228188 127.015728,71.0473926 C127.633889,72.3723658 127.736916,73.8003658 127.377919,75.3333893 C126.502191,79.0335705 124.439658,80.893245 121.166758,80.9679195 C121.253413,79.9284664 121.339668,78.8902114 121.429517,77.8479631 C123.188161,77.8611409 124.263953,76.8887752 124.68205,74.9164899 C125.075389,73.0719899 124.519923,72.028943 123.001275,71.8137047 C122.327607,71.7202617 121.78452,71.8744027 121.378003,72.2829161 C120.970289,72.6898322 120.420413,73.7045268 119.768309,75.3142215 C119.113409,76.9263121 118.355483,78.0492248 117.48854,78.6865537 C116.622396,79.3226846 115.640047,79.5642785 114.510346,79.4193221 C113.308366,79.2615872 112.328413,78.657802 111.571685,77.6019765 C110.812161,76.547349 110.501084,75.114557 110.664809,73.2936174 C110.972691,69.6884765 112.66305,67.9334262 115.654822,68.1155201 C115.561379,69.1777349 115.467537,70.236755 115.379285,71.2925805"/>
      <path fill="#B8E986" d="M111.167963 71.7218591C111.074121 72.711396 110.982275 73.6969396 110.888433 74.6812852 109.827815 74.555896 108.76001 74.4352987 107.685416 74.3170973 107.748909 73.3327517 107.815997 72.3460101 107.882685 71.3576711 108.983235 71.4762718 110.079393 71.5972685 111.167963 71.7218591M130.305399 74.3230872C130.051426 75.2926577 129.801446 76.2598322 129.557856 77.2294027 128.513611 77.0704698 127.469765 76.9155302 126.429114 76.7605906 126.647946 75.7858289 126.869574 74.8118658 127.098789 73.8363054 128.164198 73.9956376 129.232003 74.1557685 130.305399 74.3230872"/>
      <path fill="#165E34" d="M128.879396,107.835164 C129.295097,105.183221 129.76351,102.538466 130.289826,99.9024966 C125.766628,99.2412081 121.54652,102.273711 120.906795,106.673517 C123.56353,107.060067 126.224658,107.446218 128.879396,107.835164"/>
      <path fill="#00B820" d="M149.348993 46.3221477C145.216738 45.2838926 139.291497 44.504802 135.162836 43.7077416 133.885782 48.2984262 138.026023 52.8304094 144.535084 54.2268624 145.204359 52.4990996 146.808996 49.8641946 149.348993 46.3221477zM101.101282 40.1652953C100.972299 42.9769698 100.872067 45.7626879 100.795396 48.5280403 107.496534 48.7668389 113.174591 45.515104 113.867426 40.7730738 109.646919 40.427255 105.388876 40.2200034 101.101282 40.1652953"/>
      <path fill="#165E34" d="M116.309322,91.7861376 C117.893859,92.0113591 118.97644,93.4106074 118.741235,94.9116846 C118.504832,96.4095671 117.082423,97.4494195 115.540614,97.2281913 C114.004795,97.0097584 112.913829,95.614104 113.096721,94.1086342 C113.288399,92.6055604 114.725185,91.5661074 116.309322,91.7861376"/>
      <path fill="#00B820" d="M123.084735,50.9723322 C125.281443,51.2686342 126.743785,52.8072483 126.38399,54.3606376 C126.023396,55.9128289 124.057899,56.9175403 121.982188,56.6432013 C119.914862,56.3688624 118.414185,54.9021275 118.652983,53.3283725 C118.904161,51.7562148 120.891621,50.6772282 123.084735,50.9723322"/>
      <path fill="#8CBBCA" d="M116.068926,207.709708 C88.3147718,207.709708 68.4841007,204.906419 68.4841007,201.444238 C68.4841007,197.986849 88.3147718,195.180765 116.068926,195.180765 C143.823081,195.180765 168.993977,197.986849 168.993977,201.444238 C168.993977,204.906419 143.823081,207.709708 116.068926,207.709708" opacity=".498"/>
      <path fill="#E6E6E2" d="M99.3837685 111.87797L82.0708658 89.6253691C82.0708658 89.6253691 82.4677987 82.7381443 93.6442148 83.1270906 104.82143 83.5168356 116.735805 88.3255537 127.191034 88.8143322 142.171057 89.5139564 155.573332 85.1041678 155.573332 85.1041678L137.480141 111.87797 99.3837685 111.87797M159.481963 152.788812C153.919312 139.112597 145.365688 124.821017 137.480141 111.87797L99.3845671 111.87797C91.5856745 124.821017 83.7180973 139.293094 77.5572517 152.788812 64.4145403 181.584017 71.9043523 191.074466 87.3276309 197.877034 98.7684027 202.922953 138.269215 202.922953 149.709987 197.877034 165.135661 191.074466 169.024725 176.250181 159.481963 152.788812"/>
      <path fill="#D8A042" d="M125.386866,149.738339 C125.156852,146.998544 122.631097,145.618862 117.79203,145.605285 C112.940584,145.586916 110.506275,146.87595 110.497889,149.460406 C110.494695,151.044943 111.266997,152.197406 112.82997,152.912604 C114.391346,153.636587 117.533664,154.458406 122.25453,155.374866 C126.978191,156.298913 130.441171,157.821554 132.646664,159.955567 C134.852158,162.082792 135.959497,164.85094 135.942725,168.253221 C135.929946,172.221352 134.144547,175.282607 130.586128,177.430997 C127.036094,179.580584 122.966134,180.644396 118.383836,180.631218 C107.322027,180.590087 101.029403,176.33444 99.5115537,167.849101 L108.674154,167.141091 C109.334245,171.591211 112.601554,173.825456 118.466896,173.845023 C123.966054,173.864591 126.719027,172.011705 126.732604,168.284369 C126.735399,166.633544 126.078104,165.401614 124.74155,164.591775 C123.412584,163.777544 120.282245,162.882648 115.360916,161.903893 C110.442782,160.921943 106.88596,159.444027 104.706023,157.461359 C102.529282,155.474299 101.443107,153.011638 101.451493,150.069782 C101.463872,146.909893 102.880292,144.237185 105.696758,142.059644 C108.516819,139.879708 112.60994,138.800721 117.975322,138.820289 C128.605856,138.857027 134.167309,142.397876 134.65449,149.44004 L125.386866,149.738339" transform="matrix(-1 0 0 1 235.454 0)"/>
      <polyline fill="#D8A042" points="122.723 139.702 114.003 139.668 114.026 131.734 122.753 131.763 122.723 139.702"/>
      <polyline fill="#D8A042" points="122.568 187.063 113.84 187.03 113.863 179.094 122.587 179.125 122.568 187.063"/>
      <path fill="#66472C" d="M141.006614,112.702584 C141.006614,113.462507 140.244295,114.07947 139.305872,114.07947 L97.0121544,114.07947 C96.0705369,114.07947 95.3094161,113.462507 95.3094161,112.702584 L95.3094161,111.570886 C95.3094161,110.810963 96.0705369,110.194 97.0121544,110.194 L139.305872,110.194 C140.244295,110.194 141.006614,110.810963 141.006614,111.570886 L141.006614,112.702584"/>
      <path fill="#CDCECA" d="M129.260755 195.563721C136.300523 200.632802 148.865406 196.322846 153.519185 193.025587 159.988312 188.437299 162.950933 179.292668 162.206185 172.750463 161.45904 166.203067 160.433963 161.772114 157.794 155.680352 156.855977 153.515191 161.003007 162.284453 155.962678 174.102591 152.202198 182.922966 141.322483 185.171987 134.110205 185.985419 129.064285 186.55606 122.255728 190.520597 129.260755 195.563721M124.979151 109.019973C124.979151 109.019973 138.301161 104.179309 144.880903 97.4094866 152.310416 89.7651342 137.571987 109.019973 137.571987 109.019973L124.979151 109.019973"/>
      <path fill="#FAFAF8" d="M87.1770839 91.2442483C87.1770839 91.2442483 87.4286611 91.4387215 87.8371745 91.8025101 88.2484832 92.1647013 88.8167282 92.6966074 89.4708289 93.3555 90.7782315 94.6744832 92.3899228 96.5333591 93.8766242 98.4868758 95.3633255 100.440792 96.7238389 102.490547 97.6442919 104.104235 98.1043188 104.91048 98.4641141 105.600919 98.7029128 106.094091 98.9425101 106.586064 99.0627081 106.880369 99.0627081 106.880369 99.0627081 106.880369 98.8107315 106.686295 98.4018188 106.323305 97.9901107 105.961114 97.4210671 105.430007 96.7669664 104.770715 95.3557383 103.347906 93.9101678 101.674718 92.3631678 99.6373423 90.8780638 97.6822282 89.5191477 95.6324732 88.597896 94.0191846 88.1370705 93.2129396 87.7776745 92.5228993 87.5384765 92.0301275 87.2968826 91.5385537 87.1770839 91.2442483 87.1770839 91.2442483M100.489111 116.864389C100.489111 116.864389 100.276268 117.5125 99.8613658 118.624232 99.4460638 119.736362 98.8378859 121.317705 98.0500101 123.184567 96.5034094 126.935463 94.2360201 131.832034 91.8029094 136.644346 89.3646074 141.454661 86.7613826 146.181117 84.6513289 149.645295 83.6130738 151.386369 82.6970134 152.811574 82.0449094 153.803906 81.3940034 154.796238 80.9966711 155.350507 80.9966711 155.350507 80.9966711 155.350507 81.2083154 154.702795 81.6236174 153.589866 82.0377215 152.477735 82.6447013 150.895993 83.4333758 149.029131 84.9783792 145.277436 87.2477651 140.382463 89.6828725 135.57055 92.1223725 130.761433 94.7283926 126.036174 96.8372483 122.570799 97.876302 120.830124 98.7907651 119.40452 99.4412718 118.411789 100.092577 117.419057 100.489111 116.864389 100.489111 116.864389"/>
      <path fill="#DFAA33" d="M98.621849,188.802285 C95.7570638,198.473631 85.5953423,203.993554 75.9223993,201.129966 C66.2506544,198.26598 60.7307315,188.10306 63.5947181,178.431315 C66.4587047,168.759171 76.6212248,163.239248 86.2933691,166.103634 C95.9655134,168.966822 101.485037,179.129342 98.621849,188.802285"/>
      <path fill="#F5C83C" d="M95.4563691,187.864262 C93.1099128,195.789742 84.7835067,200.311742 76.8600235,197.965285 C68.9357416,195.619228 64.412943,187.292822 66.7597987,179.36854 C69.105057,171.44306 77.4322617,166.920661 85.355745,169.267117 C93.2808255,171.613574 97.8036242,179.93998 95.4563691,187.864262"/>
      <path fill="#B88232" d="M85.3948792,180.599272 C85.6316812,179.453198 84.7687315,178.585856 82.796047,177.995648 C80.8189698,177.402245 79.669302,177.634255 79.3534329,178.687685 C79.1613557,179.333799 79.3362617,179.897252 79.8881342,180.377644 C80.4376107,180.861631 81.6212215,181.57643 83.4357718,182.521641 C85.2527181,183.46845 86.4810537,184.507503 87.1231745,185.645191 C87.766094,186.779685 87.8822987,188.042762 87.4646007,189.428034 C86.9810134,191.046114 85.8828591,192.079577 84.1717349,192.526826 C82.4630067,192.974473 80.6736141,192.917768 78.8067517,192.358309 C74.2979295,191.004983 72.2437819,188.508779 72.650698,184.863305 L76.4738725,185.680332 C76.2059228,187.575946 77.2701342,188.88295 79.6601174,189.599745 C81.9007517,190.271416 83.2484866,189.847728 83.7037215,188.329081 C83.9033859,187.655413 83.7843859,187.073191 83.3371376,186.581617 C82.8938826,186.088446 81.7242483,185.345695 79.8346242,184.352564 C77.9477953,183.357836 76.6747349,182.324372 76.0242282,181.252574 C75.3761174,180.178779 75.2299631,179.042688 75.5889597,177.844302 C75.9763087,176.555668 76.877594,175.636413 78.2888221,175.087735 C79.7036443,174.539456 81.5038188,174.593765 83.6905436,175.249862 C88.0232617,176.54848 89.8645671,178.664923 89.2132617,181.597594 L85.3948792,180.599272" transform="matrix(-1 0 0 1 161.941 0)"/>
      <polyline fill="#B88232" points="78.333 176.183 74.779 175.116 75.747 171.881 79.305 172.947 78.333 176.183" transform="matrix(-1 0 0 1 154.084 0)"/>
      <polyline fill="#B88232" points="84.528 195.487 80.971 194.419 81.939 191.184 85.496 192.251 84.528 195.487" transform="matrix(-1 0 0 1 166.467 0)"/>
      <path fill="#FFFFFE" d="M66.9886141 179.705973C66.9886141 178.271584 67.6231477 176.088852 68.0955537 175.615648 68.5595738 175.152027 70.7506913 174.509107 72.1838826 174.508309 70.7506913 174.509107 68.6410369 173.946852 68.0955537 173.402567 67.5241141 172.830728 66.9886141 170.74743 66.9886141 169.312242 66.9886141 170.78297 66.4339463 172.8475 65.810594 173.471651 65.1656779 174.116168 63.1905973 174.508309 61.7929463 174.508309 63.2273356 174.508309 65.3433792 175.076953 65.8812752 175.615648 66.4279564 176.161131 66.9886141 178.271584 66.9886141 179.705973M70.4579832 180.51102C70.4579832 180.000279 70.683604 179.223584 70.8521208 179.055067 71.0166443 178.889745 71.7965336 178.66093 72.3072752 178.66093 71.7965336 178.66093 71.0461946 178.460866 70.8521208 178.266792 70.6492617 178.063534 70.4579832 177.322379 70.4579832 176.811238 70.4579832 177.334359 70.2599161 178.069523 70.0386879 178.292349 69.8098725 178.521164 69.1058557 178.66093 68.6082919 178.66093 69.1190336 178.66093 69.8733658 178.863389 70.0634463 179.055067 70.2579195 179.249141 70.4579832 180.000279 70.4579832 180.51102M63.6873624 184.424044C63.6873624 183.715634 64.0004362 182.637047 64.234443 182.403839 64.4632584 182.174624 65.5462383 181.856758 66.2534497 181.856758 65.5462383 181.856758 64.5035906 181.579225 64.234443 181.310077 63.9521174 181.028151 63.6873624 179.998282 63.6873624 179.289473 63.6873624 180.016252 63.4138221 181.036537 63.1055403 181.344819 62.7872752 181.663084 61.8117148 181.856758 61.1200772 181.856758 61.8296846 181.856758 62.8747282 182.137087 63.1406812 182.403839 63.4102282 182.672987 63.6873624 183.715634 63.6873624 184.424044"/>
    </g>
    <g transform="translate(843 142)">
      <path fill="#AFD4E1" d="M3.77959351,174.358369 C-2.59099167,181.958092 8.68261809,191.312362 28.9690915,195.250151 C49.2455245,199.197882 70.8556472,196.241744 77.2228856,188.638293 C83.5884506,181.039813 72.3131675,171.691756 52.0300409,167.745268 C31.7469143,163.802508 10.1434851,166.766101 3.77959351,174.358369 Z" opacity=".727"/>
      <polyline fill="#E8E3D2" points="0 70.636 10.096 70 27.886 82.016 17.644 82.139 0 70.636"/>
      <path fill="#EED7BA" d="M25.499,57.9491882 C21.741,63.4681882 17.937,70.3811882 17.01,70.9351882 C16.084,71.4891882 13,71.4871882 13,71.4871882 L19.749,75.9711882 L20.469,74.1011882 C20.469,74.1011882 27.328,67.0561882 29.907,64.7631882 C32.487,62.4701882 28.03,54.2331882 25.499,57.9491882"/>
      <path fill="#EBD4B3" d="M9.11558092,76.8836427 C9.11558092,76.8836427 8.68658092,78.0566427 9.48158092,78.4356427 C10.2765809,78.8146427 10.2765809,78.8146427 10.2765809,78.8146427 C10.2765809,78.8146427 10.2905809,79.3426427 10.8465809,79.6536427 C11.4035809,79.9646427 11.7165809,79.6366427 11.7165809,79.6366427 C11.7165809,79.6366427 11.8295809,80.3646427 12.3745809,80.3766427 C12.9195809,80.3896427 13.2165809,80.1496427 13.2165809,80.1496427 C13.2165809,80.1496427 13.0965809,81.3806427 13.9655809,81.2496427 C14.8335809,81.1176427 15.6795809,80.3886427 15.7475809,80.1506427 C15.8155809,79.9126427 14.5905809,77.7186427 12.8695809,77.0496427 C11.1495809,76.3806427 10.6345809,75.8496427 10.1875809,76.0386427 C9.74158092,76.2276427 9.11558092,76.8836427 9.11558092,76.8836427"/>
      <path fill="#506A76" d="M30.267,43 C30.267,43 26.922,53.06 25.692,55.277 C24.463,57.494 23,59.872 23,59.872 C23,59.872 23.837,63.1 26.305,64.295 C28.773,65.49 29.39,65.478 29.39,65.478 C29.39,65.478 33.158,62.094 33.734,60.692 C34.311,59.29 32.801,49.304 32.801,49.304 L30.267,43"/>
      <path fill="#EED7BA" d="M25.0094935,176.610382 C24.6844935,179.307382 32.7974935,178.638382 34.9884935,177.279382 C37.1784935,175.920382 38.8824935,173.223382 40.4034935,172.046382 C41.9244935,170.850382 43.2634935,170.850382 43.4454935,169.673382 C43.4864935,169.329382 43.5874935,168.355382 43.6684935,167.016382 C43.9124935,163.751382 44.1754935,158.295382 43.9524935,154.462382 C43.6084935,149.047382 44.3994935,136.553382 43.4454935,130.124382 C43.3034935,129.211382 43.2024935,128.258382 43.1004935,127.264382 C42.6344935,122.335382 42.6144935,116.636382 42.4724935,113.269382 C42.2894935,109.213382 43.2634935,93.1093821 43.2634935,93.1093821 C43.2634935,93.1093821 44.2774935,74.5103821 44.2774935,70.1303821 C44.2774935,68.6493821 43.0804935,67.8383821 41.4784935,67.4323821 C38.3344935,66.5803821 33.6294935,67.2503821 33.6294935,67.2503821 C28.0514935,93.6163821 30.3034935,108.483382 30.4244935,116.778382 C30.5264935,124.221382 32.6154935,128.947382 33.4674935,137.222382 C34.3184935,145.497382 36.0024935,157.159382 35.6574935,161.398382 C35.4344935,164.238382 30.8304935,168.943382 27.7474935,172.513382 C26.2664935,174.257382 25.1314935,175.717382 25.0094935,176.610382"/>
      <path fill="#949191" d="M31.5782049,67.453 C31.5782049,67.453 29.1822049,81.858 28.4852049,91.661 C27.7882049,101.464 27.5962049,119.438 29.6132049,124.788 C31.6302049,130.138 34.0172049,159.098 34.0172049,159.098 C34.0172049,159.098 39.0732049,163.324 43.6562049,159.098 L43.6562049,106.703 L47.9012049,70.534 L43.0472049,64 L31.5782049,67.453"/>
      <path fill="#EED7BA" d="M36.748,87.7810965 C38.452,93.0140965 43.522,93.5210965 42.833,101.979097 C42.163,110.416097 41.656,120.395097 43.015,126.479097 C43.076,126.702097 43.117,126.946097 43.177,127.169097 L43.177,127.189097 C44.496,133.030097 46.098,138.750097 47.071,149.804097 C48.086,161.303097 48.086,172.965097 47.741,175.825097 C47.578,177.164097 46.869,179.963097 46.301,182.762097 C45.611,185.986097 45.084,189.211097 45.713,190.205097 C46.889,192.051097 53.988,190.205097 55.002,188.501097 C56.016,186.818097 55.691,183.106097 55.691,181.078097 C55.691,180.713097 55.752,179.375097 55.874,177.387097 C56.401,168.341097 57.821,145.767097 57.537,140.514097 C57.212,134.085097 55.347,123.944097 55.854,116.683097 C56.361,109.402097 58.896,103.662097 58.044,90.9860965 C57.212,78.3100965 52.467,77.2960965 52.142,70.7040965 C51.919,66.5870965 45.997,66.6880965 41.555,67.3370965 L41.535,67.3370965 C38.878,67.7430965 36.748,68.3310965 36.748,68.3310965 C36.748,68.3310965 35.065,82.5280965 36.748,87.7810965"/>
      <path fill="#9B9B9B" d="M35.4537778,69.902 C35.4537778,69.902 34.4327778,82.325 35.4537778,86.465 C36.4747778,90.606 40.1087778,94.325 40.7847778,96.268 C41.4607778,98.212 41.0387778,116.804 41.0387778,119.593 C41.0387778,122.381 42.3057778,129.48 43.0667778,131.339 C43.8267778,133.198 45.8557778,143.846 45.8557778,147.987 C45.8557778,152.128 47.2077778,165.481 46.9537778,168.523 C46.9537778,168.523 48.4747778,170.297 51.7707778,170.297 C55.0667778,170.297 56.5877778,168.692 56.5877778,168.692 C56.5877778,168.692 57.8557778,144.692 57.3487778,138.269 C56.8417778,131.846 55.7427778,121.536 55.9117778,117.902 C56.0807778,114.269 58.3627778,106.494 58.8697778,98.55 C59.3767778,90.606 57.3487778,82.663 57.3487778,82.663 L52.9537778,69.902 C52.9537778,69.902 50.4187778,65 50.0807778,65 C49.7427778,65 38.2497778,65.254 38.2497778,65.254 L35.4537778,69.902"/>
      <path fill="#EBD4B3" d="M64.099,46.7348496 C62.958,39.3188496 60.043,37.2278496 53.451,32.1568496 C46.859,27.0868496 39.444,24.4878496 35.641,30.3828496 C31.838,36.2768496 30,44.1358496 30,45.5308496 C30,46.9248496 32.282,50.1578496 32.218,51.9958496 C32.155,53.8338496 31.965,67.0798496 31.965,67.0798496 C31.965,67.0798496 33.93,72.1508496 42.866,72.7208496 C51.803,73.2918496 52.627,71.9608496 52.627,71.9608496 C52.627,71.9608496 53.768,64.9888496 54.592,60.8688496 C55.416,56.7488496 64.873,51.7658496 64.099,46.7348496"/>
      <path fill="#485E68" d="M40.8059556,35.549 C45.8719556,37.621 48.1579556,34.915 50.0599556,33.521 C51.9609556,32.127 53.4819556,31.366 53.4819556,31.366 C53.4819556,31.366 61.5949556,38.085 63.1159556,40.747 C64.6369556,43.409 63.6229556,50.761 60.5809556,54.69 C57.5389556,58.62 55.1349556,57.709 54.4989556,60.89 C53.8629556,64.071 52.9749556,69.395 53.8629556,71.803 C54.7499556,74.212 57.5389556,80.17 58.4259556,85.874 C58.4259556,85.874 53.1019556,81.311 49.8059556,82.451 C46.5099556,83.592 43.0879556,89.804 38.0169556,89.93 C32.9469556,90.057 29.2709556,83.592 29.0169556,82.198 C28.7639556,80.803 31.4259556,65.592 31.4259556,58.367 C31.4259556,51.141 29.0169556,46.831 29.3979556,44.042 C29.7779556,41.254 33.1159556,33.31 34.4679556,31.197 C35.8199556,29.084 40.8059556,29 40.8059556,29 C40.8059556,29 38.0169556,34.408 40.8059556,35.549"/>
      <path fill="#E3C49A" d="M41,26.796 C41,26.796 41.064,32.183 41.254,33.768 C41.444,35.352 45.817,35.352 47.719,35.352 C49.62,35.352 50.951,34.148 51.014,32.31 C51.078,30.472 50.972,22 50.972,22 C50.972,22 48.479,22.423 44.803,24.197 C41.127,25.972 41,26.796 41,26.796"/>
      <path fill="#EED7BA" d="M35.8459512,7.99926347 C35.2539512,9.85826347 35.8459512,12.4782635 35.6769512,13.3232635 C35.5079512,14.1682635 35.0009512,15.0132635 35.0009512,16.3652635 C35.0009512,17.7172635 34.9159512,24.9002635 36.3529512,25.8302635 C37.7899512,26.7602635 45.7329512,25.4922635 47.3389512,24.2252635 C48.9449512,22.9572635 50.2119512,21.1822635 50.2119512,21.1822635 C50.2119512,21.1822635 51.9869512,21.3512635 53.0859512,19.9152635 C54.1839512,18.4782635 56.9729512,12.7312635 55.1139512,6.47826347 C53.2549512,0.224263467 43.1979512,-0.0287365334 39.6489512,2.50626347 C36.0989512,5.04126347 35.8459512,7.99926347 35.8459512,7.99926347"/>
      <path fill="#4A4A4A" d="M25.0094935 176.594C24.6844935 179.291 32.7974935 178.622 34.9884935 177.263 37.1784935 175.904 38.8824935 173.207 40.4034935 172.03 41.9244935 170.834 43.2634935 170.834 43.4454935 169.657 43.4864935 169.313 43.5874935 168.339 43.6684935 167 40.6874935 169.211 33.4064935 174.343 30.6684935 173.977 28.9644935 173.734 28.0924935 173.186 27.7474935 172.497 26.2664935 174.241 25.1314935 175.701 25.0094935 176.594M45.2813303 190.818C46.4573303 192.664 53.5563303 190.818 54.5703303 189.114 55.5843303 187.431 55.2593303 183.719 55.2593303 181.691 55.2593303 181.326 55.3203303 179.988 55.4423303 178 55.2393303 178.811 55.0573303 179.683 54.9153303 180.576 54.3263303 184.389 53.9823303 185.91 49.1753303 186.498 47.0663303 186.762 46.1933303 185.2 45.8693303 183.375 45.1793303 186.599 44.6523303 189.824 45.2813303 190.818"/>
      <path fill="#EED7BA" d="M64.8489258,51.6340201 C64.1729258,45.2950201 63.6649258,40.6470201 60.3699258,40.0560201 C57.0739258,39.4640201 55.0459258,43.6050201 55.8909258,50.5350201 C56.7359258,57.4650201 58.1719258,66.5070201 58.1719258,66.5070201 C58.1719258,66.5070201 56.2289258,89.3240201 55.9749258,90.1690201 C55.7219258,91.0140201 54.1159258,91.6060201 53.3549258,92.7040201 C52.5949258,93.8030201 51.4959258,98.2820201 52.2569258,98.7050201 C53.0169258,99.1270201 53.8629258,96.4230201 54.4539258,96.7610201 C55.0459258,97.0990201 54.5389258,99.8030201 54.1159258,100.98602 C53.6939258,102.16902 52.5949258,103.43702 53.2709258,103.86002 C53.9469258,104.28202 57.8339258,102.93002 58.9329258,100.98602 C60.0319258,99.0430201 60.6229258,93.8880201 60.5389258,92.4510201 C60.4539258,91.0140201 65.1019258,69.5490201 65.3559258,67.9440201 C65.6089258,66.3380201 64.8489258,51.6340201 64.8489258,51.6340201"/>
      <path fill="#506A76" d="M64.5978214,44.5299111 C63.7898214,40.6269111 62.0618214,38.4459111 58.0908214,39.1219111 C54.1188214,39.7979111 53.3578214,46.4739111 54.4568214,51.6289111 C55.5548214,56.7839111 57.3298214,66.5019111 57.3298214,67.2629111 C57.3298214,68.0239111 56.5688214,76.7279111 56.5688214,76.7279111 C56.5688214,76.7279111 59.4428214,79.3479111 63.9218214,78.5029111 C63.9218214,78.5029111 65.9498214,70.0519111 65.9498214,68.0239111 C65.9498214,65.9949111 66.1188214,51.8829111 64.5978214,44.5299111"/>
      <path fill="#3C4E54" d="M37,5.81033636 C37,5.81033636 39.535,13.7963364 49.169,17.9793364 C49.169,17.9793364 50.373,13.7963364 52.275,15.1273364 C54.176,16.4583364 54.113,18.2333364 53.416,19.3103364 C52.719,20.3873364 51.866,21.8233364 50.234,21.4863364 C50.742,21.5913364 49.578,28.3343364 49.442,28.8453364 C48.727,31.5143364 47.279,33.5773364 46.269,36.0383364 C44.803,39.6123364 45.174,44.1683364 45.174,47.9703364 C44.967,46.2563364 47.228,42.4683364 48.521,41.4403364 C48.587,42.3073364 48.557,43.2053364 48.551,44.0833364 C48.565,41.9813364 50.724,38.9253364 51.851,37.2833364 C53.375,35.0603364 54.951,33.2883364 57.613,34.7143364 C57.909,26.2863364 59.187,16.8533364 56.733,8.64133636 C54.535,1.28933636 49.296,0.27533636 45.324,1.37333636 C41.352,2.47233636 37,5.81033636 37,5.81033636"/>
      <path fill="#37454B" d="M49.6638681,1.05320313 C46.6208681,-0.657796875 43.1988681,-0.0237968749 40.7268681,1.11620313 C38.2548681,2.25720313 36.4168681,4.47620313 36.0998681,5.99720313 C35.7828681,7.51820313 36.3218681,11.0042031 36.3218681,11.0042031 C36.3218681,11.0042031 36.7338681,7.77120313 37.0508681,6.75720313 C37.3678681,5.74320313 37.7478681,5.68020313 37.7478681,5.68020313 C37.7478681,5.68020313 41.2958681,3.14120313 43.4838681,2.19420313 C47.5088681,0.451203125 49.6638681,1.05320313 49.6638681,1.05320313"/>
      <path fill="#37454B" d="M36.2874723,6 C35.3624723,12.793 34.5384723,19.005 35.2984723,25.343 C36.0594723,31.681 36.4394723,37.892 36.4394723,37.892 L41.3834723,30.857 L41.1954723,26.155 C41.1954723,26.155 38.0504723,26.46 37.3084723,26.007 C36.5664723,25.554 35.9324723,20.526 35.9744723,19.089 C36.0174723,17.653 35.8054723,15.92 36.2284723,14.991 C36.6504723,14.061 36.6934723,13.174 36.6934723,13.174 L36.5664723,10.174 L36.2874723,6"/>
    </g>
    <g transform="matrix(-1 0 0 1 557 247)">
      <path fill="#B5CCDC" d="M78.9938071,160.122748 C58.6834305,156.230862 37.0509775,159.156216 30.6785361,166.650519 C24.2993921,174.152181 35.5881478,183.38575 55.9018757,187.27273 C76.2055498,191.169522 97.8447054,188.251528 104.220498,180.746186 C110.594615,173.245751 99.3041838,164.018314 78.9938071,160.122748" opacity=".727"/>
      <g transform="matrix(-1 0 0 1 106 0)">
        <path fill="#4A4A4A" d="M54.0462629,170.375515 C54.0462629,170.375515 65.1575803,167.056233 67.5409996,168.301203 C69.9244189,169.545216 68.0974363,174.35942 62.9336668,177.429708 C57.7698972,180.499997 54.9785465,182.408632 52.2431145,183.155614 C49.5085993,183.902596 45.2184445,183.985913 44.5831716,181.164619 C43.9478987,178.342367 44.2650768,174.939768 44.9801026,173.694798 C45.6951284,172.450785 54.0462629,170.375515 54.0462629,170.375515"/>
        <path fill="#E8C8A1" d="M53.0892684,169.134545 L53.0892684,173.007484 C53.0892684,173.007484 52.6142027,175.563516 48.815466,175.795964 C45.0167294,176.028412 44.241057,173.47238 44.241057,173.47238 L44.241057,170.469332 L49.9785272,169.598547 L53.0892684,169.134545 Z"/>
        <g transform="rotate(20 -227.348 131.769)">
          <path fill="#4A4A4A" d="M10.0199626,78.7961817 C10.0199626,78.7961817 20.1212431,75.9505835 22.2878729,77.0175677 C24.4545027,78.084552 22.7935445,82.2107154 18.0994915,84.841812 C13.4054385,87.4738293 10.8677336,89.1097491 8.38143711,89.750492 C5.89420593,90.3903143 1.99464617,90.4612011 1.41700285,88.0427648 C0.839359532,85.6243285 1.12818119,82.7078435 1.77779625,81.6408593 C2.42834601,80.573875 10.0199626,78.7961817 10.0199626,78.7961817"/>
          <path fill="#E8C8A1" d="M11.0602643,77.8909091 L11.0602643,80.1969133 C11.0602643,80.1969133 10.1858417,83.4766066 6.49908691,83.4544335 C2.30847567,83.4293683 2.21205285,81.1975958 2.21205285,81.1975958 L2.33589,77.989242"/>
          <path fill="#8D8D8D" d="M0.814224462,4.45710346 C-0.261796074,9.57441248 2.77605047,15.4931498 2.93829273,17.7356699 C3.09960257,19.9791145 1.43615314,36.6473436 0.46736169,48.4959106 C-0.50236219,60.3435533 0.337754363,79.335647 0.337754363,79.335647 C0.337754363,79.335647 2.06181153,81.8194276 5.89595056,81.0974951 C9.7300896,80.376487 11.9073062,78.5351431 11.9073062,78.5351431 C11.9073062,78.5351431 14.5740469,38.562637 15.3815285,33.9167564 C16.1899425,29.2708757 17.5857854,10.6864289 17.6958118,7.8033207 C17.8058382,4.91928816 3.02221114,-6.04188423 0.814224462,4.45710346"/>
        </g>
        <path fill="#9B9B9B" d="M61.9166379,93.1276948 C62.2025341,110.509693 59.4581164,128.903089 59.1359011,130.982174 C58.8127545,133.061259 55.6474082,170.805923 55.6474082,170.805923 C55.6474082,170.805923 52.3572732,178.164389 42.0268269,172.646001 C42.0268269,172.646001 43.0968424,138.076716 43.2886816,132.21043 C43.4795895,126.344144 44.4378541,114.188003 44.0392757,108.110394 C43.6406972,102.032785 40.1885233,100.43356 39.8169513,92.4374349 C39.8169513,92.4374349 41.1654131,85.0798921 50.8765728,85.7193976 C60.5886638,86.3598259 61.9166379,93.1276948 61.9166379,93.1276948"/>
        <path fill="#58ACC6" d="M65.0565156,46.4086879 C66.1922197,39.4659134 62.4581346,35.6357669 54.1033827,30.7044418 C50.6513919,28.6662469 37.793207,19.7950264 31.4836382,27.7070963 C25.1731536,35.6191662 31.8408355,53.3616072 31.4836382,63.431766 C31.126441,73.5019247 29.5785862,86.6893227 29.5785862,86.6893227 C29.5785862,86.6893227 32.7933614,93.2825607 44.459973,94.361605 C56.1275004,95.4406494 63.5086609,92.2035163 63.5086609,92.2035163 C63.5086609,92.2035163 61.7226747,66.788793 65.0565156,46.4086879"/>
        <path fill="#3A4D57" d="M64.5236932,65.6509091 C64.5236932,65.6509091 60.6981473,69.9777253 51.983242,70.9383154 L51.983242,75.6654545 C51.983242,75.6654545 58.2881675,75.0460172 64.3383101,72.7809104 C64.3383101,72.7809104 65.0199494,71.0233725 65.2252968,68.5373023 C65.4306442,66.051232 64.5236932,65.6509091 64.5236932,65.6509091"/>
        <path fill="#4A4A4A" d="M50.1369818,39.0378493 C50.4293273,39.6232483 50.6626415,40.4727576 50.8772156,41.5482581 C46.0057278,37.4332207 43.316524,54.9688706 40.6273203,55.5733291 C37.9568567,56.1587281 27.6095129,52.6100303 24.9587264,47.2869835 C22.9713393,40.1088118 26.2058798,34.9228119 27.8428271,32.0911144 C29.6549944,28.9580953 47.817895,34.319261 50.1369818,39.0378493"/>
        <path fill="#717171" d="M51.9586713,71.8723615 C52.0366974,77.5032411 52.2914573,85.7759839 45.936561,85.8910877 C39.5826047,86.0061915 26.1310941,80.0309213 25.4072375,77.3881372 C24.9183993,75.6450048 23.8438954,59.7302882 24.5865534,46.7263174 C27.2450811,52.1269893 37.627252,55.7274372 40.3055211,55.1344223 C43.0044719,54.521149 45.7024827,36.7297795 50.5899244,40.9048258 C52.094982,48.5845537 51.8806452,66.9505215 51.9586713,71.8723615"/>
        <path fill="#3A4D57" d="M50.8172304 43.3963636C50.8172304 43.3963636 53.2038587 36.9837056 56.6123938 36.3941402 60.0218629 35.8045747 63.0053819 36.8567223 63.0053819 36.8567223 63.0053819 36.8567223 63.3603403 35.8635313 61.9040766 34.7433569 60.4468789 33.6231826 56.9299881 32.3705827 56.9299881 32.3705827 56.9299881 32.3705827 51.765343 31.2123134 46.4531099 36.7215757 46.4531099 36.7215757 48.7734171 37.6730437 49.5076206 39.2040998 50.2418241 40.7351559 50.8172304 43.3963636 50.8172304 43.3963636M36.4112795 32.2690909C36.4112795 32.2690909 37.1619433 25.3899275 39.8169513 23.9365694 39.8169513 23.9365694 39.1252877 23.3672727 38.1141154 23.3672727 37.1029431 23.3672727 34.5151045 24.8381177 34.5151045 24.8381177 34.5151045 24.8381177 32.1496512 26.4090268 30.9687399 31.2334761 30.9687399 31.2334761 35.3338455 31.9407252 36.4112795 32.2690909"/>
        <path fill="#EED7BA" d="M41.5261541,23.269514 C41.5261541,23.269514 41.4443607,26.2512757 41.5261541,26.896735 C41.6079475,27.5412643 44.7847266,29.636682 47.9624458,29.9594117 C51.140165,30.2812113 52.8051771,29.5771584 52.8051771,29.5771584 L52.8051771,25.5258315 C52.8051771,25.5258315 57.5764567,25.7295139 58.2279832,24.499979 C58.8795097,23.269514 60.1017094,17.1441607 59.6128295,15.8541721 C59.1239496,14.5651135 58.6350697,13.4369548 58.6350697,12.7115106 C58.6350697,11.9860664 59.1239496,9.64883392 58.961303,8.68157497 C58.7986564,7.71431603 57.4946634,5.13526886 57.4946634,5.13526886 C57.4946634,5.13526886 59.6645379,2.47530676 53.691742,0.702618728 C47.7180059,-1.07099936 39.8150745,0.863518534 38.8373147,2.63713662 C37.859555,4.40982465 37.9469893,5.69981326 37.9469893,5.69981326 C37.9469893,5.69981326 34.7250828,8.43976024 35.5185725,11.1797072 C36.3120621,13.9205842 40.4675411,21.4968259 40.4675411,21.4968259 L41.5261541,23.269514 Z"/>
        <path fill="#393939" d="M53.3940202,0.705176089 C47.5174662,-1.07499026 39.7440266,0.866754671 38.7821732,2.647855 C37.8203199,4.42802134 37.9063318,5.72345194 37.9063318,5.72345194 C37.9063318,5.72345194 34.7359152,8.47495774 35.5164962,11.2273975 C36.2970772,13.9789033 40.3849538,21.5871064 40.3849538,21.5871064 L41.426345,23.3672727 C41.426345,23.3672727 47.918855,22.315611 48.640245,21.4245938 C49.361635,20.5345106 50.7239523,16.8116654 51.5073078,17.1357565 C52.2915883,17.4589137 52.4071956,20.1300972 52.4071956,20.1300972 L53.3838467,20.1300972 C53.3838467,20.1300972 53.5290496,16.973244 53.3940202,16.2447394 C53.2589907,15.5162348 54.5704408,14.2217382 54.7313662,13.1691424 C54.8913668,12.1174807 54.2504396,9.20346233 54.2180695,8.55621402 C54.1866243,7.90896571 57.1350747,5.15652593 57.1350747,5.15652593 C57.1350747,5.15652593 59.2705741,2.48627641 53.3940202,0.705176089"/>
        <g transform="rotate(-23 129.853 -109.475)">
          <path fill="#EED7BA" d="M10.7756765,23.1849977 C11.224058,15.5727515 9.31162952,2.14733062 9.31162952,2.14733062 C9.31162952,2.14733062 2.26096785,-2.8535104 -6.57252031e-13,5.73614753 C-6.57252031e-13,5.73614753 0.798736132,19.1000138 1.04107994,24.7555714 C1.03986973,24.7599238 1.04894628,24.9716341 1.06830958,25.3907025 C1.09553922,26.0920513 1.111877,26.6404464 1.111877,26.9519498 C1.111877,27.1356808 1.1400143,27.3044895 1.18358172,27.465837 C1.26708596,27.7027288 1.32517586,27.8277032 1.39778823,27.9442838 C4.2051642,33.7938315 11.5489983,24.0001292 10.7756765,23.1849977 Z" transform="translate(.897 4)"/>
          <path fill="#58ACC6" d="M13.2723171,18.1134429 C13.2110785,13.0486249 13.0009831,6.07287398 12.321706,3.78896144 C11.2137588,0.0629239676 3.36108879,-2.72549742 0.853133483,5.83236324 C-0.43005026,10.2104103 -0.125741634,16.5895819 0.842770032,22.1250869 C0.892703026,22.1354213 10.651306,24.1450013 13.2723171,18.1134429"/>
        </g>
      </g>
      <path fill="#EED7BA" d="M6.24800085,62.6572391 L7.93538088,58.3422889 C7.15201875,53.0649584 8.96005456,52.5272121 11.814374,48.4904066 C11.814374,48.4904066 13.3576875,46.2782297 14.4291828,45.095188 C15.1333083,44.316383 15.781608,44.2106881 16.2876419,44.5277729 C16.7252442,44.8003547 17.114224,45.3863127 16.6784226,46.2318723 C15.9760979,47.5855094 14.7893493,48.8315973 14.0023855,50.2297376 C17.3483322,51.6334408 18.4306326,52.4938348 18.2235368,54.153431 C18.0866736,55.2660095 17.4509797,56.5788521 16.7036342,57.8731517 C15.448454,60.0482426 15.6609522,59.9722164 13.5017541,61.0458546 L11.7513449,65.3608048 L6.24800085,62.6572391" transform="scale(-1 1) rotate(41 0 22.102)"/>
      <path fill="#EED7BA" d="M38.266322,57.7575169 C35.8215944,60.2430437 34.0424916,61.9431463 32.9290138,62.8578248 C31.8155359,63.7725032 29.551892,65.3933587 26.138082,67.7203912 C24.0828818,73.2808469 20.4486612,74.545514 18.0389029,73.06055 C15.6909862,71.6123022 14.5077516,67.5490492 17.0947889,62.3108796 C18.8194805,58.8187666 25.1276121,55.8308932 36.0191837,53.3472596 C35.1205731,55.6945334 35.8696192,57.1646192 38.266322,57.7575169 Z" transform="rotate(-108 26.95 63.49)"/>
    </g>
  </g>
</svg>