<svg xmlns="http://www.w3.org/2000/svg" width="980" height="1160" viewBox="0 0 980 1160">
    

    <defs>
        <linearGradient id="32301-layer4-a" x1="40.907%" x2="20.011%" y1="79.405%" y2="16.576%">
            <stop offset="0%" stop-color="#E7F5F9" stop-opacity="0" />
            <stop offset="100%" stop-color="#1A6780" stop-opacity=".521" />
        </linearGradient>
        <linearGradient id="32301-layer4-b" x1="65.12%" x2="51.983%" y1="53.503%" y2="14.942%">
            <stop offset="0%" stop-color="#006A7C" stop-opacity="0" />
            <stop offset="55.453%" stop-color="#2B97A0" stop-opacity=".221" />
            <stop offset="100%" stop-color="#247F8C" stop-opacity=".704" />
        </linearGradient>
    </defs>

    <g fill="none" fill-rule="evenodd" transform="translate(-288)">
        <polygon fill="#C5E9F4" points="634 128 1268 494 634 860 0 494" opacity=".567" />
        <g transform="translate(720 750)">
            <g id="sub-stair" >
                <ellipse cx="108" cy="365.5" fill="#B6D9E4" rx="79" ry="23.5" transform="rotate(150 108 365.5)" />
                <path stroke="#979797" stroke-linecap="square" stroke-width="7" d="M13.5 97.5L90.5 43.5M27.5 156.5L99.5 106.5M34.5 216.5L106.5 166.5M39.5 277.5L111.5 227.5M50.5 344.5L122.5 294.5" />
                <path stroke="#979797" stroke-linecap="round" stroke-width="11" d="M2.77777778 35.7780172L57.2222222 395.221983M83.5.5L134.5 339.5" />
                <path stroke="#888787" stroke-linecap="round" stroke-width="4" d="M81 1L132 342M0 36L54 396" />
            </g>
            
        </g>
        <polygon fill="url(#32301-layer4-a)" points="618.985 444 672 473.854 607.015 512 554 482.146" />
        <g transform="translate(343)">
            <g transform="translate(0 54)">
                <path fill="#FFF" d="M5,214.410122 L24.5035587,226 L393,8.04110034 L379.882562,0.256853922 C375.625148,-0.550401262 370.907473,0.545159345 365.729537,3.54353574 C360.551601,6.54191214 240.308422,76.8307742 5,214.410122 Z" />
                <path fill="gray" d="M24.9348164,223.39969 C28.0438071,220.751097 148.373262,150.217919 385.923181,11.8001549 C392.026015,6.73328169 396.171336,6.73328169 398.359144,11.8001549 C400.546952,16.8670281 400.546952,91.9488768 398.359144,237.045701 L21.1349388,454 L21.1349388,237.045701 C20.5591998,230.596953 21.8258257,226.048283 24.9348164,223.39969 Z" />
                <polygon fill="#95D2E4" points="35 231.486 384 31 384 226.305 35 428" />
                <polygon fill="#9FE5FF" fill-opacity=".483" points="35 235.486 384 35 384 230.305 35 432" />
                <path fill="#3B3B3C" d="M24,224.69734 C22.2976974,226.077642 21.4465461,228.780733 21.4465461,232.806614 C21.4465461,236.832495 21.2763158,310.563623 20.9358553,454 L3.91282895,450.20417 C2.55098684,449.398994 1.87006579,447.386053 1.87006579,444.165349 C1.87006579,440.944644 1.58634868,366.63839 1.01891447,221.246585 C0.905427632,219.406183 1.30263158,218.025881 2.21052632,217.105679 C3.11842105,216.185478 4.48026316,215.150252 6.29605263,214 L24,224.69734 Z" />
                <path fill="#D8D8D8" d="M21,226 C20.010101,228.251804 19.5151515,231.83533 19.5151515,236.750578 C19.5151515,241.665826 19.5151515,333.415633 19.5151515,512 L2.98148148,502.384639 C1.58754209,501.401589 0.890572391,498.943965 0.890572391,495.011766 C0.890572391,491.079568 0.60016835,400.358128 0.0193602694,222.847447 C-0.0968013468,220.600476 0.30976431,218.915248 1.23905724,217.791763 C2.16835017,216.668278 3.56228956,215.404357 5.42087542,214 L21,226 Z" />
                <path fill="#A09F9F" d="M23,224.267327 C21.6739785,225.524752 20.8406452,226.60231 20.5,227.5 C20.1593548,228.39769 19.8260215,229.731023 19.5,231.5 L0,220 C0.572043011,218.805281 1.14193548,217.871287 1.70967742,217.19802 C2.27741935,216.524752 3.58322581,215.458746 5.62709677,214 L23,224.267327 Z" />
                <polygon fill="#DDE4EE" points="126.102 478 104 467.116 288.934 360 310 371.23" />
                <path fill="#FFF" d="M19,455.831039 L397.941143,237 L398.978391,282.769712 C399.09364,287.836045 398.747891,291.232791 397.941143,292.95995 C396.731021,295.550688 394.8294,299.350438 391.890532,301.250313 C389.931286,302.516896 269.03431,372.178974 29.1996019,510.236546 C26.7793574,512.078849 24.4743626,513 22.2846176,513 C20.0948725,513 19,512.481852 19,511.445557 L19,455.831039 Z" />
                <polygon fill="#748694" points="104.113 468 125 477.649 125 498 89 477.649" />
                <polygon fill="#A2A9AF" points="104 466.815 114.236 472 299 364.84 291.193 360" />
                <polygon fill="#A2A9AF" points="126 476.602 311 370 311 389.773 126 495" />
                <polygon fill="url(#32301-layer4-b)" points="370 347.5 688 507 462.5 666.5 123 488.838" opacity=".444" />
                <g transform="translate(70 77)">
                    <path fill="#FFF" fill-opacity=".861" d="M3.51315863,156.279707 L271.558797,5.5286072 L271.558797,5.5286072 C274.447057,3.9042255 278.105276,4.92880161 279.729658,7.817062 C280.234702,8.71506362 280.5,9.72798571 280.5,10.7582653 L280.5,127.602573 L280.5,127.602573 C280.5,129.710304 279.394047,131.663464 277.586605,132.747752 L9.5409665,293.548926 L9.5409665,293.548926 C6.69936233,295.25361 3.01386705,294.331955 1.3091824,291.490351 C0.749829345,290.557944 0.454361895,289.491063 0.454361895,288.403746 L0.454361895,161.509365 L0.454361895,161.509365 C0.454361895,159.341576 1.62369244,157.342359 3.51315863,156.279707 Z" />
                    <path fill="#58ACC6" d="M102.732424,132.057977 C102.321383,133.594154 101.795289,134.950735 101.154258,136.12776 C101.60561,135.84188 101.983327,135.575926 102.287407,135.329891 C102.162348,135.162954 102.049472,135.039938 101.948782,134.960839 L102.637605,134.391051 C102.966688,134.727366 103.270293,135.138148 103.548409,135.623407 L102.842506,136.192074 C102.804745,136.110692 102.746356,136.005019 102.667334,135.875052 C101.877567,136.451497 101.096157,136.983523 100.323066,137.471145 L99.9399783,136.960178 C100.420831,136.134075 100.821558,135.284362 101.14213,134.411012 C100.667871,134.726579 100.225231,135.009817 99.8141844,135.260734 L99.4993893,134.637321 C99.9509111,133.750586 100.269085,132.733544 100.453815,131.586166 L101.380045,131.476436 C101.195816,132.436719 100.93173,133.264227 100.58784,133.958985 C100.919793,133.767991 101.221651,133.575938 101.49342,133.382818 C101.616624,133.01847 101.729646,132.603003 101.832483,132.136406 L102.732424,132.057977 Z M109.184999,134.98145 C109.24381,135.233037 109.202409,135.45899 109.06081,135.659314 C108.919217,135.859639 108.606982,136.076024 108.124119,136.308476 C107.983291,136.376275 107.802929,136.458443 107.583031,136.554983 L107.112576,135.979053 C107.487376,135.811052 107.832382,135.651185 108.147598,135.499445 C108.194546,135.476846 108.234893,135.437986 108.268639,135.382865 C108.302386,135.327745 108.315009,135.282015 108.306509,135.245674 L106.956218,129.488555 L103.604799,131.101184 L105.16137,137.730467 L104.316833,138.137256 L102.589675,130.786761 L107.632287,128.360554 L109.184999,134.98145 Z M107.136145,131.660874 L104.374084,132.990203 L104.214365,132.310921 L104.657053,132.097841 C104.465439,131.822867 104.252623,131.568981 104.0186,131.336175 L104.773072,130.781682 C105.043803,131.043506 105.280159,131.349854 105.482142,131.700738 L105.688431,131.601462 C105.780584,131.199277 105.842082,130.762058 105.872915,130.289791 L106.725584,130.080254 C106.701885,130.440153 106.641303,130.810008 106.543844,131.18983 L106.976624,130.981592 L107.136145,131.660874 Z M107.475175,133.177652 L105.850261,133.959753 L106.10786,135.058344 C106.115721,135.091888 106.146562,135.112037 106.200382,135.118789 C106.254202,135.125541 106.299553,135.120039 106.336437,135.102282 L107.664375,134.463042 L107.819465,135.125551 L106.265309,135.873753 C105.755718,136.119119 105.450512,136.026557 105.34962,135.596064 L105.055558,134.342328 L104.728652,134.499717 L104.571128,133.828822 L105.652574,133.308228 C105.546195,133.157197 105.409369,133.003708 105.242089,132.847756 L106.058712,132.319367 C106.221913,132.489729 106.381669,132.677295 106.537984,132.882068 L107.317848,132.506757 L107.475175,133.177652 Z M103.938615,137.549514 L103.295628,137.980576 C103.090249,137.438621 102.872704,136.980279 102.643011,136.605536 L103.285051,136.170281 C103.551898,136.608019 103.769748,137.067759 103.938615,137.549514 Z M101.408077,137.303126 C101.493579,138.080289 101.481457,138.839094 101.371759,139.579563 L100.503197,139.643463 C100.604178,138.882245 100.62031,138.172793 100.551572,137.515084 L101.408077,137.303126 Z M103.031293,138.308583 L102.237561,138.835672 C102.077392,138.200366 101.881602,137.659974 101.650205,137.21448 L102.372445,136.76387 C102.617158,137.218498 102.836777,137.733397 103.031293,138.308583 Z M123.1934,124.347345 L122.860862,125.253112 C121.912313,125.432097 121.05835,125.495721 120.298891,125.443987 C119.635835,126.18855 118.940763,126.875483 118.213661,127.504804 L117.556174,127.065238 C118.427739,126.350912 119.058902,125.758412 119.449585,125.28772 C119.131702,125.222796 118.796573,125.068204 118.444164,124.82394 C118.263103,125.088205 118.074726,125.345103 117.879027,125.594643 L117.199391,125.277503 C117.981471,124.276549 118.496832,123.357168 118.745355,122.519333 L119.662536,122.316706 C119.62667,122.498762 119.56863,122.68991 119.488417,122.890156 L121.883276,121.740007 L122.064013,122.464763 C121.718797,123.355003 121.352241,124.065834 120.964355,124.597277 C121.511594,124.635979 122.254583,124.55267 123.1934,124.347345 Z M121.030413,122.961143 L119.019143,123.927267 L118.983601,123.990991 C119.262981,124.242381 119.630514,124.42341 120.086221,124.534085 C120.47122,124.022643 120.785955,123.498334 121.030413,122.961143 Z M118.452723,129.968868 C117.380452,130.925961 116.292587,131.798963 115.189082,132.587898 L114.790059,132.005649 C114.982984,131.856862 115.122787,131.752292 115.209469,131.691934 L114.435765,128.383582 L115.25149,127.991321 L115.978904,131.102598 C116.073619,131.044603 116.2259,130.929382 116.435759,130.756933 L115.596491,127.167644 L114.22675,127.826255 L113.628536,125.276853 L116.72177,123.790136 L117.319147,126.339537 L116.482947,126.741484 L116.741986,127.848461 L117.724164,127.376295 L117.888793,128.080735 L116.906688,128.552901 L117.260231,130.066608 C117.531965,129.855102 117.85799,129.580191 118.23833,129.241868 L118.452723,129.968868 Z M116.243511,126.054171 L115.984017,124.947194 L114.674282,125.576748 L114.933929,126.683725 L116.243511,126.054171 Z M123.470799,128.643141 L122.528568,129.095936 L122.461274,128.806613 L120.048297,129.966446 L120.115665,130.25577 L119.189025,130.701301 L118.448604,127.527128 L122.73182,125.468968 L123.470799,128.643141 Z M122.293446,128.0854 L121.961354,126.659748 L119.547828,127.819582 L119.880284,129.245234 L122.293446,128.0854 Z M132.151442,118.006644 L131.717595,118.843905 C131.666147,118.815754 131.584576,118.778745 131.472879,118.732876 L131.625035,119.386999 L130.711278,119.825266 L130.860478,120.46681 L132.279032,119.786406 L132.440702,120.48246 L131.022253,121.162863 L131.54874,123.431328 C132.138354,123.039695 132.592405,122.716239 132.910872,122.460951 L133.108238,123.167635 C131.750428,124.148391 130.560877,124.958477 129.539412,125.597917 L129.179321,124.987911 C129.698328,124.679746 130.210831,124.351428 130.716848,124.002947 L130.154172,121.579338 L128.781627,122.237949 L128.619688,121.541895 L129.992333,120.883284 L129.843074,120.241741 L129.040593,120.626738 L128.945883,120.220007 C128.876632,120.34025 128.778405,120.480609 128.651202,120.641089 L128.026383,120.22296 C128.568029,119.48135 129.039045,118.532795 129.439383,117.377266 L130.374843,117.175762 C130.370287,117.252537 130.34385,117.339804 130.295532,117.437564 C131.060004,117.602415 131.678633,117.792106 132.151442,118.006644 Z M131.395533,118.714037 C130.897261,118.502412 130.426361,118.35223 129.982839,118.263486 C129.694585,118.90521 129.452003,119.397608 129.255081,119.740695 L131.395533,118.714037 Z M137.010507,117.997903 L133.732508,119.569369 L134.373029,122.332619 C134.744796,122.048707 135.137175,121.708342 135.550186,121.311511 L135.871633,121.949275 C135.360609,122.439693 134.683336,123.0192 133.839861,123.687815 L133.369339,123.205432 C133.481538,123.092592 133.526636,122.988651 133.504628,122.893607 L132.008657,116.453014 L136.186989,114.450545 L137.010507,117.997903 Z M135.596714,116.3085 L135.432999,115.60406 L133.073712,116.734837 L133.237602,117.439277 L135.596714,116.3085 Z M135.927705,117.734152 L135.753504,116.983588 L133.39456,118.114365 L133.568949,118.864929 L135.927705,117.734152 Z M138.414213,120.911809 L137.931897,121.762476 C136.545662,121.573254 135.428199,120.865337 134.579105,119.638703 L135.35814,118.980977 C135.582913,119.304969 135.786722,119.562891 135.969589,119.754751 C136.240771,119.407333 136.516306,118.941372 136.7962,118.356856 L137.633254,118.384259 C137.390443,118.935427 137.014311,119.548951 136.50489,120.22485 C137.00502,120.559591 137.641445,120.788575 138.414213,120.911809 Z M130.350846,123.75455 L129.622564,124.337095 C129.499343,123.886719 129.25112,123.340973 128.877812,122.699839 L129.628875,122.166962 C129.925213,122.702106 130.165862,123.231297 130.350846,123.75455 Z M132.534393,120.982737 C132.551395,121.636273 132.518856,122.189283 132.436812,122.641786 L131.677573,122.777736 C131.750682,122.174164 131.777971,121.639166 131.759439,121.172726 L132.534393,120.982737 Z M145.333306,110.127491 C144.77111,111.324911 144.006149,112.447074 143.038529,113.494014 L142.422591,112.96911 C143.163175,112.220215 143.806604,111.302075 144.352846,110.21466 L145.333306,110.127491 Z M151.131978,108.164532 L145.917179,110.658537 L145.744436,109.912166 L150.959647,107.418161 L151.131978,108.164532 Z M145.918616,111.612555 C145.70218,112.21597 145.457688,112.803312 145.185145,113.3746 L146.19241,117.743805 L145.231745,118.203864 L144.436179,114.752947 C144.135659,115.235214 143.844962,115.638279 143.564078,115.962153 L142.983291,115.392719 C143.750023,114.497794 144.408366,113.27917 144.958227,111.736812 L145.918616,111.612555 Z M151.891039,110.213065 L150.493537,110.881362 L151.294232,114.361631 C151.425176,114.931894 151.116153,115.396201 150.367271,115.754565 C149.888301,115.983789 149.417564,116.19978 148.955044,116.402546 L148.431772,115.787283 C148.723102,115.654048 149.260016,115.400182 150.042589,115.025675 C150.110057,114.99339 150.169695,114.939255 150.221504,114.863267 C150.273315,114.787279 150.291511,114.715741 150.276093,114.648651 L149.516474,111.348685 L146.135838,112.966157 L145.961494,112.2114 L151.717153,109.458308 L151.891039,110.213065 Z M166.429034,105.868809 L162.903946,107.551658 L163.353236,109.518219 L162.420483,109.96375 L161.970999,107.997189 L158.412812,109.696987 L157.428776,105.411644 L160.988571,103.711846 L160.709061,102.495848 L161.642549,102.050317 L161.921939,103.266315 L165.448618,101.583466 L166.429034,105.868809 Z M164.905026,103.805747 L164.662964,102.749088 L162.085568,103.979141 L162.327917,105.035801 L164.905026,103.805747 Z M161.394723,105.481332 L161.15227,104.424672 L158.545818,105.669253 L158.788562,106.725913 L161.394723,105.481332 Z M165.3175,105.608778 L165.064345,104.501801 L162.487425,105.731854 L162.74088,106.838832 L165.3175,105.608778 Z M161.807863,107.284363 L161.554299,106.177386 L158.948329,107.421967 L159.202197,108.528944 L161.807863,107.284363 Z M174.704007,97.3944137 L171.487476,98.9271376 L171.328317,98.2310838 L172.527436,97.6596418 C172.36579,97.49487 172.194418,97.3533299 172.013318,97.2350171 L172.921047,96.5467589 C173.194662,96.757399 173.417491,96.9596695 173.589547,97.1535765 L174.545084,96.69836 L174.704007,97.3944137 Z M180.938479,96.3356278 L175.234234,99.0523989 L175.088013,98.4108554 L177.471975,97.2752354 L177.379328,96.8685052 L175.412033,97.8055733 L175.277173,97.2143469 L177.24459,96.2772788 L177.158547,95.8999002 L174.952145,96.9507725 L174.81044,96.3301944 L177.016986,95.2793222 L176.895444,94.7467991 L177.800695,94.3157962 L177.922187,94.8483193 L180.129764,93.797447 L180.271122,94.4180251 L178.063689,95.4688973 L178.149696,95.8462759 L180.107789,94.9140505 L180.242348,95.5052768 L178.284377,96.4375022 L178.376985,96.8442324 L180.792644,95.6940842 L180.938479,96.3356278 Z M174.704149,98.8029393 L172.006294,100.088684 L171.843516,99.3758578 L174.541573,98.0901132 L174.704149,98.8029393 Z M174.993639,100.073447 L172.296144,101.359192 L172.131653,100.637979 L174.829352,99.3522347 L174.993639,100.073447 Z M181.284315,100.194456 C181.394458,100.680858 181.093679,101.093549 180.382064,101.432541 C180.232973,101.503568 180.041963,101.588374 179.809031,101.686962 L179.340329,101.134418 L180.163725,100.742157 C180.302663,100.675973 180.358513,100.582781 180.331273,100.462578 L180.233373,100.030689 L177.326251,101.41571 C177.332256,102.054087 177.185199,102.638378 176.885134,103.168601 L176.031528,103.078302 C176.398619,102.41386 176.490124,101.676316 176.305913,100.865647 L175.918598,99.1632502 L180.549969,96.957387 L181.284315,100.194456 Z M179.867072,98.4163478 L179.775644,98.0138106 L176.964471,99.3528253 L177.056017,99.7553624 L179.867072,98.4163478 Z M180.099288,99.4394629 L180.00129,99.0075741 L177.180247,100.351432 C177.231061,100.575064 177.256991,100.722254 177.258046,100.793006 L180.099288,99.4394629 Z M175.754351,103.419537 L174.870617,103.840854 L174.783006,103.45509 L173.889197,103.88125 L174.017799,104.447317 L173.098778,104.885585 L172.421348,101.908487 L175.118687,100.622742 L175.754351,103.419537 Z M174.62103,102.742263 L174.395028,101.7485 L173.501059,102.17466 L173.727154,103.168424 L174.62103,102.742263 Z" transform="rotate(-3 140.403 116.72)" />
                    <path fill="#ED0000" fill-opacity=".616" d="M61.337829,144.153141 C63.1186155,143.148998 64.899402,142.144856 66.6799266,141.140861 C67.0290644,140.944322 67.0251356,140.89788 67.0251356,141.371538 C67.0248737,144.363578 67.0251356,147.35499 67.0246118,150.346846 C67.0246118,150.708958 67.0235641,150.711535 66.7341438,150.875063 C66.0531547,151.260711 65.3721656,151.64305 64.6914384,152.027557 C64.3443959,152.223577 64.3831599,152.212973 64.3831599,151.82074 C64.3823741,150.007645 64.382636,148.193959 64.382636,146.380421 C64.382636,146.28741 64.3779215,146.197058 64.3831599,146.102087 C64.3936366,145.91744 64.3488485,145.838431 64.1898637,145.953565 C64.1487425,145.983373 64.1063116,146.002002 64.0644046,146.025633 C61.4562163,147.496327 58.8477662,148.981402 56.2395779,150.432899 C54.5347479,151.381964 53.2984908,153.713528 52.9713541,155.447726 C52.6876959,156.952188 52.9383523,158.984513 54.466649,159.324928 C54.8514078,159.410504 55.2670731,159.384319 55.6950486,159.32438 C56.6997694,159.183506 57.6704408,159.158483 58.5520598,159.417028 C59.4074868,159.667834 60.1227873,160.160836 60.537143,161.148905 C61.0746005,162.430664 61.0670049,164.062464 60.6254096,165.90688 C59.8412245,169.18373 58.2330426,171.842518 55.9640393,173.928266 C55.4184622,174.429868 54.8558605,174.81496 54.2872346,175.134602 C52.0035638,176.417675 49.720155,177.708213 47.4364842,178.995589 C47.3738856,179.030887 47.3107632,179.062177 47.2481646,179.100785 C47.1546595,179.158144 47.1161575,179.123585 47.1187766,179.007251 C47.1211339,178.900334 47.1187766,178.795744 47.1187766,178.689493 C47.1185147,174.466768 47.1187766,170.244078 47.1182528,166.0215 C47.1182528,165.511432 47.1656601,165.50125 46.7282556,165.748223 C45.9113306,166.210191 45.0941437,166.672307 44.2772187,167.132289 C44.0024658,167.287216 44.0001085,167.285897 44.0001085,166.943645 C43.9998466,162.734159 44.0001085,158.524709 44.0003704,154.315259 C44.0003704,154.23582 43.9998466,154.156676 44.0029896,154.075464 C44.0066565,153.979393 44.0477777,153.906887 44.1226865,153.862992 C44.1855471,153.826223 44.2484076,153.789784 44.3112681,153.754339 C46.0291941,152.785311 47.7468581,151.816761 49.4647841,150.848064 C49.4962143,150.830342 49.5276446,150.812288 49.5590749,150.795889 C49.7950638,150.672751 49.7995164,150.67024 49.8003022,150.976632 C49.8023975,151.889005 49.8016118,152.802672 49.8005641,153.716817 C49.8000403,154.063999 49.7984687,154.068526 49.5305257,154.220274 C48.703124,154.688812 47.8757222,155.154371 47.0480585,155.621071 C46.9747213,155.662424 46.901384,155.706425 46.8280467,155.744468 C46.7382085,155.791485 46.6918489,155.864628 46.69473,155.981169 C46.6968253,156.059427 46.6942061,156.140344 46.6942061,156.219783 L46.6942061,161.938437 C46.6949919,162.383517 46.6724669,162.360802 46.9739355,162.194121 C47.0577495,162.147522 47.1415636,162.09993 47.2253776,162.05267 C47.9689653,161.633378 48.712815,161.213609 49.4566646,160.79417 C49.7992545,160.600991 49.8005641,160.600584 49.8005641,161.026579 C49.8010879,165.235917 49.8010879,169.44555 49.800826,173.655331 C49.800826,174.306073 49.8005641,174.306221 50.3128774,174.01734 C51.40246,173.402619 52.4920425,172.809745 53.5811013,172.168178 C54.8807428,171.401911 56.0426149,170.216831 57.0237631,168.563348 C57.4962647,167.76765 57.8422596,166.93207 58.0030778,166.06255 C58.2922362,164.498055 57.86688,163.39041 56.8679213,163.076885 C56.4182066,162.935588 55.9255372,162.923107 55.4163669,162.963953 C54.928412,163.002766 54.4354807,163.060274 53.949883,163.090476 C52.6070249,163.173107 51.5273953,162.696211 50.8911943,161.398304 C49.8953787,159.36645 49.8128743,156.796433 51.0470361,153.58361 C52.0784726,150.898846 53.5944591,148.837198 55.5578031,147.458367 C55.8084594,147.282273 56.0583301,147.129461 56.3100341,146.987862 M60.619188,171.491985 C60.7190932,171.320959 60.8211184,171.151398 60.9186386,170.978726 C62.6925523,167.835893 63.549829,164.727229 63.5617541,161.639798 C63.5702341,159.370778 62.8428076,157.894036 61.6813102,156.892103 C60.5049728,155.87693 59.0628398,155.527244 57.3281462,155.938589 C57.0824907,155.99699 56.8418702,156.029282 56.6163547,156.005185 C56.0182485,155.940857 55.7362879,155.255454 55.9387483,154.357734 C56.1388238,153.471665 56.7364,152.648681 57.4004914,152.380596 C60.633498,151.076186 63.0892581,151.745247 64.8303117,154.183967 C65.6693034,155.35911 66.1902945,156.876128 66.3090147,158.764587 C66.4786151,161.471409 66.1452444,164.344494 64.972087,167.459737 C64.7206015,168.128126 64.4206208,168.777652 64.0827451,169.411977 C63.991585,169.58339 63.8993648,169.715509 63.7552045,169.7958 C62.7182573,170.373861 61.6813102,170.961562 60.6443631,171.546271" />
                    <polygon fill="#D8D8D8" points="98 171.5 199 111 199 125.5 98 186" />
                    <polygon fill="#D8D8D8" points="98 201.5 199 141 199 155.5 98 216" />
                </g>
            </g>
            <g transform="translate(253 342)">
                <g transform="matrix(-1 0 0 1 148.934 0)">
                    <polygon fill="#31AB05" points=".24 221.064 72.946 263.559 72.706 161.638 0 119.143" />
                    <polygon fill="#CCC" points="0 119.119 72.756 161.565 93.659 73.134 20.905 30.688" />
                    <polygon fill="#E8E8E8" points="74.043 0 20.713 30.744 93.465 73.11 146.792 42.361" />
                    <polygon fill="#278704" points="93.995 73.242 72.946 161.712 73.187 263.559 146.646 221.361 146.404 119.511 147.693 42.422" />
                    <polygon fill="#C1C1C1" points=".24 221.064 72.946 263.559 72.706 161.638 0 119.143" />
                    <polygon fill="#4A4A4A" points="10.285 133.949 58.099 161.895 57.941 157.381 10.127 129.434" />
                    <polygon fill="#D7D7D7" points="93.995 73.242 72.946 161.712 73.187 263.559 146.646 221.361 146.404 119.511 147.693 42.422" />
                    <polygon fill="#C8C8C8" points="20.133 46.033 4.503 113.727 23.66 103.646 35.122 55.235" />
                    <polygon fill="#707070" points="24.031 102.896 4.503 113.003 61.56 146.221 65.741 127.026" />
                    <polygon fill="gray" points="23.415 103.293 35.035 55.059 76.548 79.122 64.896 127.266" />
                    <polygon fill="#393C41" points="30.619 88.613 37.988 57.766 76.548 80.348 69.154 111.02" />
                    <polygon fill="#FF9C9C" points="33.321 87.49 39.698 61.377 74.747 81.448 68.346 107.409" />
                    <g fill="#BFBFBF" transform="translate(35.122 115.533)">
                        <path d="M7.55591828.321415304L7.55299144 1.01190311C7.55299144 1.11750713 7.47689372 1.22311114 7.32762511 1.3070528L7.33055195.613857198C7.47982055.532623338 7.55591828.427019321 7.55591828.321415304M.435513108.633894883L.432586272 1.32438269C.277463996 1.24044103.19843944 1.13483702.19843944 1.0265252L.201366276.336037398C.201366276.441641416.280390832.549953228.435513108.633894883" />
                    </g>
                    <polygon fill="#B9B9B9" points="35.122 117.128 37.78 118.666 37.783 117.973 35.125 116.435" />
                    <polygon fill="#979797" points="38.724 117.995 38.724 118.685 41.402 117.126 41.404 116.435" />
                    <g transform="translate(35.122 113.727)">
                        <path fill="#BFBFBF" d="M4.31447058,4.38640276 L4.31161879,5.13443121 C4.01218102,5.31337135 3.53022879,5.31043791 3.22793922,5.13149777 L3.23079101,4.38346931 C3.53022879,4.56240945 4.01503281,4.5653429 4.31447058,4.38640276" />
                        <path fill="#E6E6E6" d="M7.1314671,2.05020722 C7.43375667,2.22914736 7.44231203,2.51662496 7.14002247,2.69849855 L4.31390022,4.38522938 C4.01446245,4.56710297 3.53251022,4.56416952 3.23022065,4.38229593 L0.424060926,2.71903266 C0.121771362,2.53715908 0.121771362,2.25261492 0.421209138,2.07367478 L3.24733138,0.384010505 C3.54676916,0.205070365 4.0258696,0.205070365 4.32530738,0.384010505 L7.1314671,2.05020722 Z" />
                        <path fill="#BFBFBF" d="M12.2678231 5.28931711L12.2649713 6.03734556C12.2649713 6.15468336 12.1908248 6.26908771 12.0425318 6.35709106L12.0425318 5.6090626C12.1936766 5.52105925 12.2678231 5.40372146 12.2678231 5.28931711M5.3328442 5.63253016L5.32999241 6.38055862C5.17884763 6.28962182 5.10184934 6.17521747 5.10470113 6.05787967L5.10470113 5.30985122C5.10470113 5.42425557 5.18169942 5.54159337 5.3328442 5.63253016" />
                    </g>
                    <polygon fill="#979797" points="44.13 120.7 44.128 121.393 46.805 119.833 46.808 119.143" />
                    <polygon fill="#B9B9B9" points="40.525 119.833 43.184 121.372 43.187 120.678 40.528 119.143" />
                    <g transform="translate(39.625 116.435)">
                        <path fill="#BFBFBF" d="M4.56463246,4.36469527 L4.56178067,5.11272372 C4.26234289,5.29166386 3.78609424,5.29166386 3.48380467,5.11272372 L3.48380467,4.36469527 C3.78609424,4.54363541 4.26519468,4.54363541 4.56463246,4.36469527" />
                        <path fill="#E6E6E6" d="M7.38733256,2.03201986 C7.68962212,2.21096 7.69247391,2.49550416 7.39018434,2.6744443 L4.5640621,4.36410858 C4.26462432,4.54304872 3.78837567,4.54304872 3.48608611,4.36410858 L0.679926378,2.69791186 C0.377636814,2.51897172 0.377636814,2.23442756 0.67707459,2.05548742 L3.50319684,0.365823147 C3.80263461,0.186883007 4.28173505,0.186883007 4.58117283,0.365823147 L7.38733256,2.03201986 Z" />
                        <path fill="#BFBFBF" d="M12.5234034 5.2708364L12.5205516 6.01886486C12.5205516 6.13326921 12.4464051 6.25060701 12.2981121 6.33861035L12.2981121 5.5905819C12.4492569 5.50257855 12.5234034 5.38524075 12.5234034 5.2708364M5.58870965 5.61404946L5.58585786 6.36207791C5.43471308 6.27114112 5.35771479 6.15673677 5.35771479 6.03939897L5.36056658 5.29137052C5.36056658 5.40577487 5.43756487 5.52311267 5.58870965 5.61404946" />
                    </g>
                    <polygon fill="#979797" points="49.534 124.313 49.531 125.004 52.208 123.444 52.211 122.753" />
                    <polygon fill="#B9B9B9" points="45.028 123.444 47.687 124.982 47.687 124.291 45.031 122.753" />
                    <g transform="translate(44.128 120.046)">
                        <path fill="#BFBFBF" d="M4.81671554,4.26575242 L4.8137887,5.00227275 C4.50647098,5.17845996 4.01768947,5.17845996 3.70744492,5.00227275 L3.70744492,4.26575242 C4.01768947,4.44193964 4.50939782,4.44193964 4.81671554,4.26575242" />
                        <path fill="#E6E6E6" d="M7.71369722,1.96838667 C8.02394177,2.14457389 8.02394177,2.42474044 7.71662405,2.60092766 L4.81613017,4.2645971 C4.50881245,4.44078431 4.0171041,4.44078431 3.70978639,4.2645971 L0.829780351,2.62403418 C0.519535798,2.44784696 0.516608963,2.16768041 0.826853515,1.99149319 L3.7273474,0.327823753 C4.03466512,0.151636538 4.52344663,0.151636538 4.83369118,0.327823753 L7.71369722,1.96838667 Z" />
                        <path fill="#BFBFBF" d="M6.97320786 6.12582729L6.97028103 6.86234761C6.81515875 6.77280985 6.73613419 6.66016556 6.73613419 6.54463296L6.73906103 5.80811264C6.73906103 5.92075692 6.81808558 6.03628952 6.97320786 6.12582729M17.770889 7.88452229L17.7679622 8.62104261C17.7679622 8.7336869 17.6918645 8.8492195 17.539669 8.93586895L17.539669 8.19934862C17.6947913 8.11269917 17.770889 7.99716657 17.770889 7.88452229" />
                    </g>
                    <polygon fill="#979797" points="58.537 129.729 58.537 130.419 61.214 128.859 61.217 128.169" />
                    <polygon fill="#B9B9B9" points="57.636 129.231 57.633 129.974 51.332 126.204 51.335 125.461" />
                    <g transform="translate(29.719 119.143)">
                        <path fill="#BFBFBF" d="M29.2742302,10.7653277 L29.2713034,11.501848 C28.9639857,11.6780352 28.4752041,11.6780352 28.1649596,11.501848 L28.1649596,10.7653277 C28.4752041,10.9415149 28.9669125,10.9415149 29.2742302,10.7653277" />
                        <path fill="#E6E6E6" d="M32.1715046,8.46825075 C32.4817491,8.64443797 32.4817491,8.92460452 32.1744314,9.10079174 L29.2739375,10.7644612 C28.9666198,10.9406484 28.4778383,10.9406484 28.1675937,10.7644612 L21.6085556,7.02698157 C21.2983111,6.85079435 21.2953842,6.5706278 21.6027019,6.39444058 L24.5031958,4.73077114 C24.8134404,4.55458392 25.3022219,4.55458392 25.6124664,4.73077114 L32.1715046,8.46825075 Z" />
                        <path fill="#BFBFBF" d="M7.44969666.354396251L7.44676983 1.09091658C7.44676983 1.20644918 7.37359894 1.31909346 7.22433034 1.40574291L7.22433034.669222586C7.37359894.582573136 7.44969666.469928851 7.44969666.354396251M.325779294.69117378L.322852459 1.4276941C.167730183 1.33815634.0887056268 1.22262374.0887056268 1.10997945L.0916324622.37345913C.0916324622.486103415.170657018.601636015.325779294.69117378" />
                    </g>
                    <polygon fill="#B9B9B9" points="30.619 119.836 33.278 121.374 33.278 120.681 30.622 119.143" />
                    <polygon fill="#979797" points="34.224 120.708 34.221 121.399 36.907 119.836 36.91 119.143" />
                    <g transform="translate(29.719 116.435)">
                        <path fill="#BFBFBF" d="M4.18445905,4.40195002 L4.18160726,5.14997847 C3.88216949,5.32891861 3.40021726,5.32598517 3.09792769,5.14704503 L3.09792769,4.39901657 C3.40021726,4.57795671 3.88502128,4.58089016 4.18445905,4.40195002" />
                        <path fill="#E6E6E6" d="M7.00715915,2.06252769 C7.30944872,2.24146783 7.3123005,2.53187888 7.01571452,2.70788557 L4.18388869,4.40341674 C3.88445092,4.58235688 3.40249869,4.57648999 3.10020912,4.39754985 L0.294049397,2.73428658 C-0.00824016736,2.55241299 -0.00824016736,2.26786883 0.291197608,2.08892869 L3.12302343,0.396330974 C3.41675763,0.220324279 3.90156165,0.217390834 4.20385121,0.396330974 L7.00715915,2.06252769 Z" />
                        <path fill="#BFBFBF" d="M12.1409485 5.30105088L12.1380967 6.04907934C12.1380967 6.16641714 12.0639502 6.28082149 11.9156572 6.36882484L11.918509 5.62079638C12.066802 5.53279303 12.1409485 5.41838868 12.1409485 5.30105088M5.20283267 5.64807742L5.19998088 6.39610587C5.0488361 6.30516908 4.97183781 6.19076473 4.97183781 6.07342693L4.9746896 5.32539848C4.9746896 5.43980283 5.05168789 5.55714063 5.20283267 5.64807742" />
                    </g>
                    <polygon fill="#979797" points="38.727 124.318 38.724 125.009 41.407 123.447 41.41 122.753" />
                    <polygon fill="#B9B9B9" points="35.122 123.444 37.78 124.982 37.783 124.291 35.125 122.753" />
                    <g transform="translate(35.122 120.046)">
                        <path fill="#BFBFBF" d="M4.28424162,4.38053587 L4.28138984,5.12856432 C3.98195206,5.30750446 3.50570341,5.30750446 3.20341384,5.12856432 L3.20341384,4.38053587 C3.50570341,4.55947601 3.98480385,4.55947601 4.28424162,4.38053587" />
                        <path fill="#E6E6E6" d="M7.1126453,2.04404699 C7.41493487,2.22298713 7.41208308,2.51046473 7.11549709,2.68647143 L4.28367127,4.37906915 C3.98423349,4.56094273 3.50798484,4.56094273 3.20569527,4.37906915 L0.399535547,2.71580587 C0.0972459824,2.53393229 0.0972459824,2.24938813 0.396683758,2.07044799 L3.22850958,0.377850271 C3.52224378,0.201843576 4.00419601,0.198910131 4.30933736,0.377850271 L7.1126453,2.04404699 Z" />
                        <path fill="#BFBFBF" d="M12.2464347 5.28257018L12.2435829 6.03059864C12.2435829 6.14793643 12.1694364 6.26234079 12.0239952 6.35034413L12.0239952 5.60231568C12.1722882 5.51431233 12.2464347 5.39990798 12.2464347 5.28257018M5.30803364 5.62959672L5.30518185 6.37762517C5.15403707 6.28668838 5.07703878 6.17228403 5.07989057 6.05494623L5.07989057 5.30691777C5.07989057 5.42132213 5.15688886 5.53865992 5.30803364 5.62959672" />
                    </g>
                    <polygon fill="#979797" points="44.13 127.026 44.128 127.717 46.813 126.154 46.813 125.461" />
                    <polygon fill="#B9B9B9" points="40.525 126.152 43.184 127.69 43.184 126.999 40.525 125.461" />
                    <g transform="translate(39.625 122.753)">
                        <path fill="#BFBFBF" d="M4.70668904,4.28077166 L4.7037622,5.01729199 C4.39644449,5.1934792 3.90766297,5.1934792 3.59741842,5.01729199 L3.59741842,4.28077166 C3.90766297,4.45695888 4.39937132,4.45695888 4.70668904,4.28077166" />
                        <path fill="#E6E6E6" d="M7.60952439,1.98080643 C7.91976894,2.15699364 7.91391527,2.44004851 7.61245123,2.61334741 L4.70610367,4.27990517 C4.39878595,4.4589807 3.91000444,4.4589807 3.59975989,4.27990517 L0.719753854,2.64223056 C0.409509301,2.46315503 0.409509301,2.18298848 0.716827018,2.00680126 L3.62317457,0.340243507 C3.92463862,0.166944607 4.42220064,0.164056292 4.72951836,0.340243507 L7.60952439,1.98080643 Z" />
                        <path fill="#BFBFBF" d="M6.86318136 6.14084652L6.86025453 6.87736685C6.70513225 6.7907174 6.6261077 6.6751848 6.62903453 6.5596522L6.62903453 5.82313187C6.62903453 5.93577616 6.70805909 6.05130876 6.86318136 6.14084652M17.6637894 7.89492022L17.6608625 8.63144055C17.6608625 8.74697315 17.5847648 8.86250575 17.4296425 8.95204351L17.4325694 8.21552319C17.5847648 8.12598542 17.6637894 8.01045282 17.6637894 7.89492022" />
                    </g>
                    <polygon fill="#979797" points="54.034 132.436 54.034 133.127 56.711 131.567 56.714 130.877" />
                    <polygon fill="#B9B9B9" points="52.233 132.842 52.23 133.585 45.929 129.815 45.932 129.072" />
                    <g transform="translate(24.315 121.85)">
                        <path fill="#BFBFBF" d="M30.0650611,10.7806357 L30.0621343,11.5171561 C29.7548166,11.6933433 29.2660351,11.6933433 28.9557905,11.5171561 L28.9557905,10.7806357 C29.2660351,10.956823 29.7577434,10.956823 30.0650611,10.7806357" />
                        <path fill="#E6E6E6" d="M32.9678965,8.48009284 C33.278141,8.65628006 33.2752142,8.93933493 32.9649697,9.11552214 L30.0644758,10.7791916 C29.7571581,10.9582671 29.2683765,10.9582671 28.958132,10.7791916 L22.3990938,7.04460029 C22.0888493,6.86552476 22.0859225,6.5853582 22.3932402,6.40917099 L25.2937341,4.74550155 C25.6039786,4.56931433 26.0986138,4.56642602 26.4088584,4.74261323 L32.9678965,8.48009284 Z" />
                        <path fill="#BFBFBF" d="M8.23935686.368548994L8.23643002 1.10506932C8.23643002 1.22060192 8.1603323 1.33613452 8.00813686 1.42278397L8.00813686.686263644C8.16325914.599614194 8.23935686.484081594 8.23935686.368548994M1.11631754.706481849L1.1133907 1.44300217C.958268425 1.35635272.882170704 1.24082012.882170704 1.12528752L.88509754.388767199C.88509754.504299799.96119526.616944084 1.11631754.706481849" />
                    </g>
                    <polygon fill="#B9B9B9" points="25.216 123.447 27.874 124.985 27.874 124.291 25.219 122.753" />
                    <polygon fill="#979797" points="28.821 124.31 28.818 125.004 31.498 123.444 31.498 122.753" />
                    <g transform="translate(24.315 120.046)">
                        <path fill="#BFBFBF" d="M4.95501226,4.41720393 L4.95216047,5.16523238 C4.65842627,5.34123908 4.17077047,5.34123908 3.8684809,5.16229894 L3.8684809,4.41427048 C4.17077047,4.59321062 4.66127806,4.59321062 4.95501226,4.41720393" />
                        <path fill="#E6E6E6" d="M7.77742718,2.07807495 C8.07971675,2.25701509 8.08256853,2.54742614 7.78027897,2.72929972 L4.95415672,4.41603055 C4.66042253,4.59203725 4.17276672,4.59203725 3.87047716,4.41309711 L1.06431743,2.74983384 C0.762027864,2.56796025 0.76773144,2.28048265 1.06146564,2.10447595 L3.88758789,0.414811677 C4.18702566,0.235871537 4.67182968,0.232938092 4.97126745,0.411878232 L7.77742718,2.07807495 Z" />
                        <path fill="#BFBFBF" d="M12.9106462 5.31542476L12.9077944 6.06345322C12.9077944 6.18079102 12.8336479 6.29812881 12.6825031 6.38906561L12.6853549 5.64103715C12.8336479 5.55010036 12.9106462 5.43276256 12.9106462 5.31542476M5.9731007 5.66333133L5.97024891 6.41135979C5.81910413 6.32335644 5.74495763 6.20601864 5.74495763 6.08868085L5.74780942 5.34065239C5.74780942 5.45799019 5.82195592 5.57239454 5.9731007 5.66333133" />
                    </g>
                    <polygon fill="#979797" points="34.221 127.018 34.221 127.711 36.899 126.152 36.902 125.461" />
                    <polygon fill="#B9B9B9" points="29.719 126.154 32.377 127.692 32.38 126.999 29.721 125.461" />
                    <g transform="translate(29.719 122.753)">
                        <path fill="#BFBFBF" d="M4.15365974,4.39578978 L4.15080795,5.14381824 C3.85707375,5.31982493 3.37512152,5.32275838 3.07283196,5.14381824 L3.07568374,4.39578978 C3.37512152,4.57472992 3.85992554,4.57179648 4.15365974,4.39578978" />
                        <path fill="#E6E6E6" d="M6.98206341,2.05959425 C7.28435298,2.23853439 7.28150119,2.52601199 6.97921163,2.70788557 L4.15308938,4.3946164 C3.85935518,4.5706231 3.37740295,4.57355654 3.07511339,4.3946164 L0.268953659,2.73135313 C-0.0333359048,2.54947955 -0.0276323281,2.26200194 0.266101871,2.08599525 L3.09222412,0.396330974 C3.39166189,0.217390834 3.87646591,0.214457389 4.17590369,0.393397529 L6.98206341,2.05959425 Z" />
                        <path fill="#BFBFBF" d="M12.1155676 5.29694406L12.1127158 6.04497252C12.1127158 6.16231031 12.0385693 6.27964811 11.8874245 6.3705849L11.8874245 5.62255645C12.0385693 5.53161966 12.1155676 5.41428186 12.1155676 5.29694406M5.17773693 5.64485063L5.17488514 6.39287908C5.02374036 6.30487574 4.94959386 6.18753794 4.94959386 6.07020014L4.95244565 5.32217169C4.95244565 5.43950949 5.02659215 5.55391384 5.17773693 5.64485063" />
                    </g>
                    <polygon fill="#979797" points="38.727 129.729 38.724 130.419 41.402 128.859 41.404 128.169" />
                    <polygon fill="#B9B9B9" points="35.122 128.859 37.778 130.397 37.78 129.707 35.122 128.169" />
                    <g transform="translate(35.122 125.461)">
                        <path fill="#BFBFBF" d="M4.41985595,4.29636856 L4.41689695,5.03288889 C4.11212012,5.20618779 3.61204938,5.2090761 3.29839555,5.03288889 L3.29839555,4.29636856 C3.61204938,4.47255578 4.11507912,4.46966746 4.41985595,4.29636856" />
                        <path fill="#E6E6E6" d="M7.3545906,1.99582567 C7.66824443,2.17201288 7.66232643,2.45506775 7.3516316,2.63414328 L4.41926415,4.29781272 C4.11448732,4.46822331 3.61145758,4.47111162 3.30076275,4.29781272 L0.389108293,2.6572498 C0.0754544599,2.48106259 0.0813724568,2.1951194 0.386149295,2.0218205 L3.31851674,0.35815106 C3.62921157,0.181963845 4.12928231,0.17907553 4.44293614,0.355262745 L7.3545906,1.99582567 Z" />
                        <path fill="#BFBFBF" d="M6.6003419 6.15644342L6.5973829 6.89296375C6.44055598 6.8063143 6.36362202 6.6907817 6.36362202 6.5752491L6.36658102 5.83872877C6.36658102 5.95137306 6.44351498 6.06690566 6.6003419 6.15644342M17.519342 7.91022829L17.516383 8.64674862C17.516383 8.76228122 17.43649 8.87781382 17.2826221 8.96735158L17.2826221 8.23083126C17.439449 8.14129349 17.519342 8.02576089 17.519342 7.91022829" />
                    </g>
                    <polygon fill="#979797" points="48.633 135.144 48.63 135.835 51.311 134.275 51.311 133.585" />
                    <polygon fill="#B9B9B9" points="47.73 135.549 47.727 136.292 41.426 132.522 41.429 131.779" />
                    <g transform="translate(40.525 128.169)">
                        <path fill="#BFBFBF" d="M8.3414809,7.12829373 L8.33855406,7.87632218 C8.03709002,8.05232888 7.54245483,8.05526232 7.23221028,7.87632218 L7.23221028,7.12829373 C7.54245483,7.30723387 8.04001685,7.30430042 8.3414809,7.12829373" />
                        <path fill="#E6E6E6" d="M11.2443162,4.79239154 C11.5545608,4.97133168 11.551634,5.25880928 11.2413894,5.43774942 L8.34089553,7.12741369 C8.03943148,7.30342039 7.5447963,7.30928728 7.23455175,7.12741369 L0.675513611,3.33446941 C0.365269058,3.15259582 0.368195894,2.86511822 0.66965994,2.68911153 L3.57308066,0.99944725 C3.88039838,0.82050711 4.37503356,0.817573665 4.68527811,0.996513805 L11.2443162,4.79239154 Z" />
                    </g>
                    <polygon fill="#081C01" points="51.528 113.727 34.221 103.477 34.929 100.188 52.233 110.439" />
                    <polygon fill="#444" points="81.211 116.435 71.145 110.733 71.885 107.409 81.951 113.112" />
                    <polygon fill="#444" points="76.229 132.682 66.642 127.206 69.663 114.63 79.25 120.106" />
                </g>
                <path fill="#ED0000" d="M122.337829,173.153141 C124.118615,172.148998 125.899402,171.144856 127.679927,170.140861 C128.029064,169.944322 128.025136,169.89788 128.025136,170.371538 C128.024874,173.363578 128.025136,176.35499 128.024612,179.346846 C128.024612,179.708958 128.023564,179.711535 127.734144,179.875063 C127.053155,180.260711 126.372166,180.64305 125.691438,181.027557 C125.344396,181.223577 125.38316,181.212973 125.38316,180.82074 C125.382374,179.007645 125.382636,177.193959 125.382636,175.380421 C125.382636,175.28741 125.377921,175.197058 125.38316,175.102087 C125.393637,174.91744 125.348848,174.838431 125.189864,174.953565 C125.148742,174.983373 125.106312,175.002002 125.064405,175.025633 C122.456216,176.496327 119.847766,177.981402 117.239578,179.432899 C115.534748,180.381964 114.298491,182.713528 113.971354,184.447726 C113.687696,185.952188 113.938352,187.984513 115.466649,188.324928 C115.851408,188.410504 116.267073,188.384319 116.695049,188.32438 C117.699769,188.183506 118.670441,188.158483 119.55206,188.417028 C120.407487,188.667834 121.122787,189.160836 121.537143,190.148905 C122.074601,191.430664 122.067005,193.062464 121.62541,194.90688 C120.841225,198.18373 119.233043,200.842518 116.964039,202.928266 C116.418462,203.429868 115.85586,203.81496 115.287235,204.134602 C113.003564,205.417675 110.720155,206.708213 108.436484,207.995589 C108.373886,208.030887 108.310763,208.062177 108.248165,208.100785 C108.15466,208.158144 108.116157,208.123585 108.118777,208.007251 C108.121134,207.900334 108.118777,207.795744 108.118777,207.689493 C108.118515,203.466768 108.118777,199.244078 108.118253,195.0215 C108.118253,194.511432 108.16566,194.50125 107.728256,194.748223 C106.911331,195.210191 106.094144,195.672307 105.277219,196.132289 C105.002466,196.287216 105.000108,196.285897 105.000108,195.943645 C104.999847,191.734159 105.000108,187.524709 105.00037,183.315259 C105.00037,183.23582 104.999847,183.156676 105.00299,183.075464 C105.006656,182.979393 105.047778,182.906887 105.122687,182.862992 C105.185547,182.826223 105.248408,182.789784 105.311268,182.754339 C107.029194,181.785311 108.746858,180.816761 110.464784,179.848064 C110.496214,179.830342 110.527645,179.812288 110.559075,179.795889 C110.795064,179.672751 110.799516,179.67024 110.800302,179.976632 C110.802398,180.889005 110.801612,181.802672 110.800564,182.716817 C110.80004,183.063999 110.798469,183.068526 110.530526,183.220274 C109.703124,183.688812 108.875722,184.154371 108.048059,184.621071 C107.974721,184.662424 107.901384,184.706425 107.828047,184.744468 C107.738209,184.791485 107.691849,184.864628 107.69473,184.981169 C107.696825,185.059427 107.694206,185.140344 107.694206,185.219783 L107.694206,190.938437 C107.694992,191.383517 107.672467,191.360802 107.973935,191.194121 C108.05775,191.147522 108.141564,191.09993 108.225378,191.05267 C108.968965,190.633378 109.712815,190.213609 110.456665,189.79417 C110.799254,189.600991 110.800564,189.600584 110.800564,190.026579 C110.801088,194.235917 110.801088,198.44555 110.800826,202.655331 C110.800826,203.306073 110.800564,203.306221 111.312877,203.01734 C112.40246,202.402619 113.492043,201.809745 114.581101,201.168178 C115.880743,200.401911 117.042615,199.216831 118.023763,197.563348 C118.496265,196.76765 118.84226,195.93207 119.003078,195.06255 C119.292236,193.498055 118.86688,192.39041 117.867921,192.076885 C117.418207,191.935588 116.925537,191.923107 116.416367,191.963953 C115.928412,192.002766 115.435481,192.060274 114.949883,192.090476 C113.607025,192.173107 112.527395,191.696211 111.891194,190.398304 C110.895379,188.36645 110.812874,185.796433 112.047036,182.58361 C113.078473,179.898846 114.594459,177.837198 116.557803,176.458367 C116.808459,176.282273 117.05833,176.129461 117.310034,175.987862 M121.619188,200.491985 C121.719093,200.320959 121.821118,200.151398 121.918639,199.978726 C123.692552,196.835893 124.549829,193.727229 124.561754,190.639798 C124.570234,188.370778 123.842808,186.894036 122.68131,185.892103 C121.504973,184.87693 120.06284,184.527244 118.328146,184.938589 C118.082491,184.99699 117.84187,185.029282 117.616355,185.005185 C117.018249,184.940857 116.736288,184.255454 116.938748,183.357734 C117.138824,182.471665 117.7364,181.648681 118.400491,181.380596 C121.633498,180.076186 124.089258,180.745247 125.830312,183.183967 C126.669303,184.35911 127.190294,185.876128 127.309015,187.764587 C127.478615,190.471409 127.145244,193.344494 125.972087,196.459737 C125.720601,197.128126 125.420621,197.777652 125.082745,198.411977 C124.991585,198.58339 124.899365,198.715509 124.755204,198.7958 C123.718257,199.373861 122.68131,199.961562 121.644363,200.546271" />
                <polygon fill="url(#32301-layer4-a)" points="148.731 220.741 209 254.66 135.123 298 74.854 264.08" />
            </g>
            <path fill="#FFF" d="M224.543353 497.814707C224.740976 499.249301 225.801603 500.419643 227.221122 500.770705L243.426457 504.779087C244.18547 504.966775 244.194 506.031819 243.434988 506.219709 239.134187 507.283546 231.161 509.255685 227.211982 510.23231 225.79226 510.583372 224.740976 511.752107 224.54315 513.1867L220.24702 544.356905C220.128812 545.214365 218.876045 545.214365 218.757836 544.356905L214.46191 513.187303C214.264084 511.75271 213.212596 510.583975 211.792672 510.232913 207.84345 509.256489 199.87006 507.284551 195.569259 506.220713 194.810247 506.033025 194.810247 504.969991 195.569259 504.782302 199.870466 503.718464 207.844263 501.745923 211.793281 500.768897 213.212799 500.417633 214.264084 499.2491 214.461707 497.814707L218.757836 466.644101C218.876045 465.786641 220.128609 465.784631 220.246817 466.642091 221.584077 476.34303 224.278704 495.894414 224.543353 497.814707M284.499469 540.552198C284.636596 541.569125 285.372541 542.398734 286.357513 542.647588L297.602032 545.488973C298.128693 545.622018 298.134613 546.376986 297.607951 546.510173 294.623722 547.264286 289.091306 548.662258 286.351171 549.354549 285.366058 549.603403 284.636596 550.431873 284.499328 551.4488L281.518341 573.544135C281.436318 574.151955 280.567052 574.151955 280.485029 573.544135L277.504183 551.449228C277.366915 550.432301 276.637312 549.603831 275.652058 549.354976 272.911782 548.662828 267.379225 547.264998 264.394996 546.510885 263.868335 546.37784 263.868335 545.624297 264.394996 545.491252 267.379507 544.737139 272.912345 543.338882 275.652481 542.646306 276.637453 542.39731 277.366915 541.568982 277.504042 540.552198L280.485029 518.456578C280.567052 517.848758 281.436177 517.847333 281.5182 518.455153 282.446094 525.331768 284.315835 539.190977 284.499469 540.552198" />
            <g transform="matrix(-1 0 0 1 539 396)">
                <ellipse cx="64.981" cy="218.799" fill="#4A4A4A" opacity=".154" rx="50.981" ry="15.799" />
                <g transform="scale(1 -1) rotate(-63 -16.954 -47.476)">
                    <path fill="#E5CBAA" d="M55.0199566,63.4043729 L46.5928092,34.103862 C45.8816799,32.2776404 44.9995494,30.8763734 43.9947697,29.8242194 C44.5773532,19.9984969 42.0925283,2.66925476 42.0925283,2.66925476 C42.0925283,2.66925476 32.9315789,-3.78572242 29.9938955,7.30162182 C29.9938955,7.30162182 31.0316961,24.5514107 31.3465743,31.8514819 C31.3450019,31.8570998 31.3567951,32.1303709 31.3819539,32.6712953 C31.4173334,33.5765811 31.4385612,34.2844376 31.4385612,34.6865194 C31.4385612,34.9236754 31.4751201,35.14157 31.5317274,35.3498339 C31.6402247,35.6556087 31.7157011,35.8169229 31.8100466,35.9674026 C35.45768,43.517872 48.9231434,63.8230007 49.095324,64.7740324 C49.095324,64.7740324 50.4707414,72.1226703 50.6676876,73.073702 C50.8882203,74.0006569 53.510889,77.6588932 53.7314217,78.6111287 C53.9283679,79.5368798 57.7224747,79.830654 59.709632,80.4378593 C60.0113079,80.5300409 60.9587565,78.8298397 61.0149405,78.5266546 C61.3470039,76.7347457 58.3296253,73.0797064 57.1510223,72.0038538 C57.4706177,71.0781026 57.5244419,68.2539702 57.2060258,67.2523773 C55.3765103,65.9035828 54.6478205,64.6209147 55.0199566,63.4043729 Z" />
                    <path fill="#58ACC6" d="M17.244768,25.1222837 C17.1652005,18.5847265 16.8922227,9.58057841 16.0096356,6.63255362 C14.5700759,1.82306523 4.3670744,-1.77616865 1.10847931,9.27013236 C-0.558765804,14.9212206 -0.163376543,23.155317 1.09501405,30.3004268 C1.15989216,30.3137663 13.839279,32.9076885 17.244768,25.1222837" />
                </g>
                <g transform="rotate(-7 909.555 51.102)">
                    <path fill="#8D8D8D" d="M63.454125,56.195131 C65.0295439,66.8887588 48.1010755,55.8723814 46.8295308,54.7497304 C45.5579862,53.6270793 40.4445833,40.7561476 37.9458068,32.6318538 C35.4470303,24.5075601 32.9425108,22.7227629 32.459726,12.4015376 C32.459726,12.4015376 34.2117871,2.90458092 46.8295308,3.73004072 C59.4484846,4.55669165 61.1739259,13.29251 61.1739259,13.29251 C61.5453919,35.728817 61.8787061,45.5015033 63.454125,56.195131 Z" transform="rotate(16 48.009 32.253)" />
                    <g transform="rotate(-13 226.589 24.406)">
                        <g transform="rotate(38 -63.446 47.75)">
                            <path fill="#4A4A4A" d="M14.4734682,5.24735146 C14.4734682,5.24735146 28.9104417,0.962893879 32.0072267,2.56987451 C35.1040117,4.175619 32.7302069,10.3896895 26.0209031,14.3527509 C19.3115993,18.3158124 15.6847876,20.7794373 12.1306312,21.7436257 C8.57766599,22.7078141 3.00345297,22.8153581 2.17804066,19.1736928 C1.35262835,15.5307913 1.76473897,11.1387897 2.69377447,9.53180905 C3.62280998,7.92606456 14.4734682,5.24735146 14.4734682,5.24735146" transform="rotate(7 17.541 12.263)" />
                            <path fill="#E8C8A1" d="M13.9008189,2.06391425 L13.9008189,7.06301954 C13.9008189,7.06301954 13.2835643,10.3622905 8.34785252,10.6623292 C3.41214071,10.9623678 2.40430695,7.66309681 2.40430695,7.66309681 L2.40430695,3.78682842 L9.85902194,2.66283753 L13.9008189,2.06391425 Z" />
                        </g>
                        <path fill="#8D8D8D" d="M43.2250827,7.50348522 C48.0505641,17.6062415 41.0229789,59.0113375 41.0229789,59.0113375 C41.0229789,59.0113375 37.3701527,68.5094853 25.9009194,61.38647 C25.9009194,61.38647 27.0888892,16.7651866 27.3018759,9.19311163 C27.5138288,1.6210367 38.3996014,-2.59927107 43.2250827,7.50348522 Z" transform="rotate(28 35.41 32.788)" />
                    </g>
                </g>
                <g transform="rotate(-6 1099.483 -203.08)">
                    <path fill="#9B9B9B" d="M63.492089,44.5579285 C65.0675078,55.2515563 44.6477189,52.1931943 43.3761742,51.0705432 C42.1046295,49.9478922 36.9912266,37.0769604 34.4924502,28.9526667 C31.9936737,20.828373 29.4891542,19.0435757 29.0063694,8.72235044 C29.0063694,8.72235044 30.7584305,-0.774606205 43.3761742,0.0508535907 C55.995128,0.877504527 57.7205693,9.61332292 57.7205693,9.61332292 C58.0920353,32.0496299 61.9166701,33.8643008 63.492089,44.5579285 Z" />
                    <g transform="rotate(-40 102.366 36.542)">
                        <g transform="rotate(38 -57.342 55.634)">
                            <path fill="#4A4A4A" d="M16.4435318,10.3694 C16.4435318,10.3694 30.8805053,6.08494241 33.9772903,7.69192304 C37.0740753,9.29766753 34.7002705,15.511738 27.9909667,19.4747995 C21.2816629,23.4378609 17.6548512,25.9014858 14.1006949,26.8656742 C10.5477296,27.8298626 4.9735166,27.9374067 4.14810429,24.2957414 C3.32269198,20.6528399 3.7348026,16.2608382 4.6638381,14.6538576 C5.5928736,13.0481131 16.4435318,10.3694 16.4435318,10.3694" transform="rotate(34 19.511 17.385)" />
                            <path fill="#E8C8A1" d="M17.244768,5.74513696 L17.244768,10.7442422 C17.244768,10.7442422 16.6275134,14.0435133 11.6918016,14.3435519 C6.75608975,14.6435905 5.74825599,11.3443195 5.74825599,11.3443195 L5.74825599,7.46805113 L13.202971,6.34406024 L17.244768,5.74513696 Z" />
                        </g>
                        <path fill="#9B9B9B" d="M56.1181657,9.29437293 C59.6794861,16.7942234 48.0616873,63.2204085 48.0616873,63.2204085 C48.0616873,63.2204085 44.4088611,72.7185563 32.9396277,65.595541 C32.9396277,65.595541 34.0281244,14.4998261 34.2411112,6.92775118 C34.453064,-0.644323743 52.5568452,1.79452249 56.1181657,9.29437293 Z" transform="rotate(28 44.868 35.281)" />
                    </g>
                </g>
                <path fill="#58ACC6" d="M72.6682639,39.7179792 C68.1830802,37.0871213 51.4763957,25.6363422 43.278351,35.8490706 C35.0791162,46.0617989 43.7424586,68.9633571 43.278351,81.9616996 C42.8142433,94.9600422 40.8031103,111.98205 40.8031103,111.98205 C40.8031103,111.98205 44.9800789,120.492458 60.138548,121.885265 C75.2982072,123.278072 87.6569357,114.633999 87.6569357,113.165603 C87.6569357,111.697207 82.5680366,86.2948773 86.8997078,59.9886795 C88.3753321,51.0270967 83.5236223,46.0832267 72.6682639,39.7179792 Z" />
                <path fill="#3A4D57" d="M86.2074098,84.8261215 C86.2074098,84.8261215 81.2368647,90.411082 69.9135578,91.6509909 L69.9135578,97.7526796 C69.9135578,97.7526796 78.1055695,96.9531233 85.9665409,94.0293726 C85.9665409,94.0293726 86.8521972,91.7607808 87.1190058,88.5518152 C87.3858144,85.3428497 86.2074098,84.8261215 86.2074098,84.8261215" />
                <path fill="#4A4A4A" d="M67.5147055,50.4745609 C67.894551,51.2301812 68.1976969,52.3267093 68.4764938,53.7149421 C62.1469526,48.4033411 58.6528608,71.0379778 55.1587691,71.8181997 C51.6890264,72.5738201 38.2446865,67.9932378 34.8005103,61.1223645 C32.2182912,51.8569361 36.420941,45.1629599 38.5478324,41.5078661 C40.9023876,37.4638329 64.5015078,44.3839094 67.5147055,50.4745609" />
                <path fill="#717171" d="M69.881633,94.0183378 C69.9830125,101.286555 70.314023,111.964832 62.0570839,112.113406 C53.8013664,112.261979 36.3237717,104.54923 35.3832623,101.137982 C34.7481132,98.887984 33.3520065,78.3456128 34.3169446,61.5603692 C37.7711789,68.5314395 51.2607698,73.1788196 54.7406543,72.4133688 C58.2474105,71.621769 61.7529452,48.6570549 68.1032153,54.0461142 C70.0587419,63.9589404 69.7802534,87.6653335 69.881633,94.0183378" />
                <path fill="#3A4D57" d="M68.3985548 56.1004367C68.3985548 56.1004367 71.4995093 47.8231167 75.9282308 47.0621184 80.3581659 46.3011201 84.2346626 47.6592094 84.2346626 47.6592094 84.2346626 47.6592094 84.6958613 46.37722 82.8037328 44.9313232 80.9103907 43.4854264 76.3408823 41.8685977 76.3408823 41.8685977 76.3408823 41.8685977 69.6304408 40.3735288 62.7282378 47.4847652 62.7282378 47.4847652 65.743021 48.7128994 66.6969742 50.6891534 67.6509273 52.6654074 68.3985548 56.1004367 68.3985548 56.1004367M49.6808525 41.7375943C49.6808525 41.7375943 50.6561926 32.8581193 54.1058538 30.9821562 54.1058538 30.9821562 53.2071728 30.2473204 51.8933531 30.2473204 50.5795335 30.2473204 47.2171457 32.1458552 47.2171457 32.1458552 47.2171457 32.1458552 44.143704 34.1735506 42.6093418 40.4008452 42.6093418 40.4008452 48.2809387 41.313747 49.6808525 41.7375943" />
                <path fill="#EED7BA" d="M56.3266269,30.1211355 C56.3266269,30.1211355 56.2203525,33.9699289 56.3266269,34.8030738 C56.4329013,35.6350182 60.5605015,38.3397379 64.6893232,38.7563104 C68.8181449,39.1716824 70.9815009,38.2629061 70.9815009,38.2629061 L70.9815009,33.0335412 C70.9815009,33.0335412 77.1808412,33.2964501 78.0273718,31.709393 C78.8739024,30.1211355 80.4619107,22.2146623 79.8267074,20.5495729 C79.1915041,18.8856841 78.5563007,17.4294812 78.5563007,16.4930936 C78.5563007,15.5567059 79.1915041,12.539857 78.9801768,11.2913401 C78.7688495,10.0428232 77.0745668,6.71384504 77.0745668,6.71384504 C77.0745668,6.71384504 79.8938924,3.28042363 72.1334177,0.992276352 C64.3717215,-1.29707142 54.1034152,1.19996233 52.8330086,3.48931011 C51.5626019,5.77745738 51.6762055,7.44254672 51.6762055,7.44254672 C51.6762055,7.44254672 47.4899712,10.9792109 48.5209551,14.515875 C49.551939,18.0537397 54.9511674,27.8329882 54.9511674,27.8329882 L56.3266269,30.1211355 Z" />
                <path fill="#3A4D57" d="M71.7465867,0.995577337 C64.1111597,-1.30222279 54.0111024,1.20413947 52.761363,3.50314515 C51.5116236,5.80094528 51.6233791,7.47305901 51.6233791,7.47305901 C51.6233791,7.47305901 47.5040458,11.024643 48.5182574,14.5774326 C49.532469,18.1290167 54.8438614,27.9495202 54.8438614,27.9495202 L56.1969447,30.2473204 C56.1969447,30.2473204 64.6326856,28.8898582 65.5699901,27.7397525 C66.5072947,26.5908525 68.2773582,21.7854845 69.2951748,22.2038144 C70.3141931,22.6209386 70.4644022,26.0688444 70.4644022,26.0688444 L71.7333683,26.0688444 C71.7333683,26.0688444 71.9220309,21.9940467 71.7465867,21.0537087 C71.5711426,20.1133708 73.2751141,18.4424626 73.4842052,17.0837949 C73.6920945,15.7263327 72.8593355,11.964981 72.8172769,11.1295269 C72.7764201,10.2940728 76.607352,6.74128321 76.607352,6.74128321 C76.607352,6.74128321 79.3820138,3.29458302 71.7465867,0.995577337" />
                <g transform="translate(71 38)">
                    <g transform="translate(3)">
                        <path fill="#EED7BA" d="M14.122353,44.3138859 C14.7099914,34.4461593 12.2036068,17.042836 12.2036068,17.042836 C12.2036068,17.042836 2.96317228,10.5602643 -4.26325641e-13,21.6950061 C-4.26325641e-13,21.6950061 1.04680514,39.0185364 1.36441534,46.3498148 C1.36282927,46.3554568 1.37472478,46.6298961 1.40010188,47.1731329 C1.43578842,48.0822888 1.45720034,48.7931713 1.45720034,49.1969719 C1.45720034,49.4351418 1.49407643,49.6539679 1.55117489,49.8631221 C1.66061361,50.170204 1.7367449,50.3322078 1.831909,50.4833308 C5.51119116,58.0660779 15.1358507,45.3705379 14.122353,44.3138859 Z" />
                        <rect width="14.032" height="25.332" x="26.819" y="2.728" fill="#4A4A4A" rx="1.8" transform="rotate(32 33.835 15.394)" />
                        <rect width="10.907" height="23.19" x="28.187" y="3.633" fill="#FFF" rx="1.8" transform="rotate(32 33.64 15.228)" />
                        <path fill="#EED7BA" d="M32.2277816,38.1601863 L22.0594971,12.1609874 C13.3785751,3.47810698 6.81063904,13.2031315 6.8677375,13.4122857 C6.88439122,13.4739439 6.90342404,13.5162583 6.9188882,13.5476919 C6.97717622,13.7193676 7.0533075,13.8813715 7.1484716,14.0324945 C10.8277538,21.6152415 24.4100505,42.0071731 24.583725,42.9622703 C24.583725,42.9622703 23.9151972,46.4332631 25.0535977,47.6906064 C26.1908088,48.9467407 27.4279421,49.148641 27.6265972,50.1037383 C27.8490433,51.0346559 27.72533,54.705131 27.9477761,55.6614373 C28.1464311,56.5911459 32.0552967,60.3631757 33.5148761,59.3065238 C33.5148761,59.3065238 34.7508199,55.8621286 35.0482078,54.9058223 C35.3705762,53.9761137 35.9879533,49.148641 35.6667744,48.1427664 C35.3705762,47.1368918 32.2277816,38.1601863 32.2277816,38.1601863 Z" transform="scale(1 -1) rotate(-17 -206.363 0)" />
                    </g>
                    <path fill="#58ACC6" d="M17,35.3430894 C16.9215619,28.7431019 16.6524587,19.6529689 15.7823988,16.6767921 C14.3632719,11.8213756 4.30508922,8.18777093 1.09274583,19.3395583 C-0.550834821,25.0446115 -0.161057617,33.3573391 1.07947169,40.570681 C1.14342894,40.5841479 13.6428477,43.2028407 17,35.3430894" />
                </g>
            </g>
            <g transform="translate(183)">
                <g id="connectLine" transform="translate(0 27)">
                    <polyline id="line-dot" stroke="#58ACC6" stroke-dasharray="2 3" stroke-dashoffset="50"  points="3.5 144.5 3.5 0 136.5 22.158 136.5 346" />
                    <circle cx="4" cy="143" r="4" fill="#58ACC6" />
                    <circle cx="136" cy="342" r="4" fill="#58ACC6" />
                </g>
                <g id="wifi" transform="translate(27)">
                    <path id="wifi1" fill="#ACE0F0" d="M30.9717546,52.1471755 C28.9292967,52.7012282 26.7551973,53 24.5,53 C12.6258779,53 3,44.7172679 3,34.5 C3,24.6614139 11.9255744,16.6166218 23.1893718,16.0338098 C24.5906204,6.98249169 33.5976551,0 44.5,0 C56.3741221,0 66,8.28273213 66,18.5 C66,18.668788 65.997373,18.837048 65.9921524,19.0047514 C77.6389639,19.2298478 87,27.424269 87,37.5 C87,46.603998 79.3575062,54.1720657 69.291782,55.7132091 L69.5,56 L68.129867,55.8629867 C67.2679567,55.953437 66.3902978,56 65.5,56 C62.8736512,56 60.3572904,55.5947944 58.0307483,54.8530748 L30.9717546,52.1471755 Z" />
                    <path fill="#FFF" d="M27.9717546,56.1471755 C25.9292967,56.7012282 23.7551973,57 21.5,57 C9.62587788,57 0,48.7172679 0,38.5 C0,28.6614139 8.92557436,20.6166218 20.1893718,20.0338098 C21.5906204,10.9824917 30.5976551,4 41.5,4 C53.3741221,4 63,12.2827321 63,22.5 C63,22.668788 62.997373,22.837048 62.9921524,23.0047514 C74.6389639,23.2298478 84,31.424269 84,41.5 C84,50.603998 76.3575062,58.1720657 66.291782,59.7132091 L66.5,60 L65.129867,59.8629867 C64.2679567,59.953437 63.3902978,60 62.5,60 C59.8736512,60 57.3572904,59.5947944 55.0307483,58.8530748 L27.9717546,56.1471755 Z" />
                    <path fill="#58ACC6" d="M41.3089255,42.8053751 C40.1688297,42.747856 39.242304,43.6726584 39.242304,44.8668575 C39.242304,46.06333 40.1676784,47.1012245 41.3089255,47.1858539 C42.4506044,47.2705153 43.3748275,46.3466178 43.3748275,45.1243267 C43.3748275,43.9018805 42.4506044,42.862974 41.3089255,42.8053751 Z M57.2092466,25.739997 C52.9592884,21.3960709 47.3100432,19.3333405 41.3027372,19.7788135 C35.2952872,20.2242972 29.6461859,22.8303543 25.3966595,26.9687341 C24.646142,27.6792225 24.646142,28.7823551 25.3966595,29.4465225 C25.7711267,29.7797138 26.2636043,29.9411423 26.754355,29.9309055 C27.2451056,29.9206687 27.7370076,29.7367122 28.1124822,29.3816271 C31.6356689,25.9639139 36.3206826,24.0785012 41.3021615,23.8179825 C46.2852235,23.5573811 50.9692298,25.1339157 54.4916969,28.7486602 C55.2422144,29.5362822 56.4575778,29.5121511 57.2092466,28.6836874 C57.9580371,27.8498788 57.9591885,26.5268112 57.2092466,25.739997 Z M41.2863308,27.4456204 C36.8464046,27.5906696 32.6722897,29.4700743 29.5320612,32.6490822 C28.748875,33.4251731 28.748875,34.6769434 29.5320612,35.4582085 C29.9243739,35.8526354 30.4377192,36.0545539 30.9514963,36.0621529 C31.4646977,36.0697433 31.9786187,35.8807166 32.3697801,35.4906185 C34.751144,33.0893616 37.9190042,31.5853582 41.2863308,31.5501505 C44.6526501,31.5149533 47.8215177,33.0618313 50.202306,35.6942866 C50.9866435,36.5752796 52.2565508,36.5954777 53.0395931,35.7266917 C53.8239306,34.8508924 53.8239306,33.4168849 53.0395931,32.5359037 C49.8999402,29.0777194 45.7240983,27.3006418 41.2863308,27.4456204 Z M41.3037446,35.1148897 C38.7925692,35.0927016 36.4326486,36.1165079 34.65616,37.9681255 C33.9203219,38.7243563 33.9203219,39.9826617 34.65616,40.7877457 C35.0227119,41.1914546 35.5055472,41.4070966 35.9879508,41.428455 C36.4697787,41.4497879 36.9514627,41.2747511 37.3185902,40.8969304 C38.3828428,39.7903095 39.7982482,39.1338385 41.3037446,39.180261 C42.8076579,39.2266347 44.2226316,39.9916161 45.2890428,41.2212887 C46.024881,42.0792345 47.2156349,42.1332519 47.9526244,41.3304853 C48.6861599,40.5217916 48.6861599,39.1606701 47.9526244,38.3029543 C46.1761358,36.2591713 43.8150639,35.1370791 41.3037446,35.1148897 Z" />
                </g>
            </g>
        </g>
        <!-- God -->
        <g  transform="matrix(1 0 0 1 684 217)">
          <g fill="none" fill-rule="evenodd" transform="rotate(10 64.153 42.75)">
          <g  transform="scale(-1 1) rotate(-2 55.79 3165.658)">
            <g id="god">
                <path fill="#72C1D6" d="M50.7528,42.0350733 C50.7528,42.0350733 22.1888,-0.420457478 7.0424,8.96753079 C7.0424,8.96753079 -10.8792,18.7308152 50.6224,43.8178299 L50.7528,42.0350733"/>
                <path fill="#EED7BA" d="M43.7683596,39.1873122 C43.7683596,39.1873122 29.2539596,45.1621392 26.0091596,47.1199809 C26.0091596,47.1199809 14.6519596,38.5089075 8.48635958,33.3325322 L7.51315958,34.4109603 C7.51315958,34.4109603 19.2151596,49.1859046 25.6403596,51.2354765 C25.6403596,51.2354765 26.4631596,53.0046729 42.2227596,44.9762858 L43.7683596,39.1873122"/>
                <path fill="#E8BC9E" d="M42.8107596,42.7747609 L42.8107596,42.7747609 C42.8107596,42.7747609 28.7131596,51.0197111 24.8191596,48.9701392 C20.9251596,46.921365 10.1671596,36.1303034 8.79995958,34.6267257 L7.92035958,34.9170718 C10.0251596,37.5094471 19.9199596,49.4112419 25.6403596,51.2354765 C25.6403596,51.2354765 26.4631596,53.0046729 42.2227596,44.9762858 L42.8107596,42.7747609"/>
                <path fill="#E8BC9E" d="M40.2903871,79.8882488 C40.2903871,79.8882488 48.1735871,106.331674 51.5559871,111.221293 C51.5559871,111.221293 58.3267871,117.392343 72.0987871,127.142865 C72.0987871,127.142865 74.6899871,128.914853 76.5503871,130.815662 C76.5503871,130.815662 76.4171871,128.228073 73.4279871,124.734747 C73.4279871,124.734747 70.9959871,125.305868 68.4143871,119.949222 C65.4079871,113.708378 61.0287871,108.683158 55.6203871,107.55009 C55.6203871,107.55009 55.9743871,88.1064775 53.8927871,81.2873338 L40.2903871,79.8882488" transform="rotate(20 58.42 105.352)"/>
                <path fill="#DBB194" d="M57.5748026,100.206806 C55.1684026,98.6785011 52.5740026,96.2037797 52.5740026,96.2037797 C51.1484026,97.6850231 49.5572026,98.5975393 48.3456026,99.1359557 C48.0576026,98.3107827 47.7700026,97.4748413 47.4860026,96.6381023 C49.1224026,94.4182314 51.5360026,90.2867827 52.1664026,84.6074865 L57.1164026,89.8440847 C57.3216026,92.402161 57.4448026,95.1321316 57.5172026,97.6750525 C57.5416026,98.5452929 57.5604026,99.3947944 57.5744026,100.206806" transform="rotate(20 52.53 92.407)"/>
                <path fill="#EED7BA" d="M49.8527131,87.0771065 C49.8527131,87.0771065 59.1191131,113.071054 62.7547131,117.776813 C62.7547131,117.776813 69.8415131,123.584532 84.1091131,132.598819 C84.1091131,132.598819 86.7899131,134.233212 88.7475131,136.033916 C88.7475131,136.033916 88.4779131,133.456696 85.3091131,130.125294 C85.3091131,130.125294 82.9107131,130.822843 80.0499131,125.60818 C76.7183131,119.534045 72.0811131,114.746127 66.6199131,113.89862 C66.6199131,113.89862 65.9479131,94.4617868 63.5099131,87.7614936 L49.8527131,87.0771065" transform="rotate(20 69.3 111.556)"/>
                <path fill="#E8BC9E" d="M53.5085556,102.144412 C52.9405556,100.821503 52.3609556,99.4272037 51.7841556,98.0077785 L49.0577556,80.3305703 L51.7061556,80.4633797 C53.7293556,81.8772213 56.5957556,83.6547932 59.6777556,84.8508753 C60.0057556,86.5658313 60.2865556,88.507321 60.5261556,90.5098313 L56.5709556,87.7112624 C55.5601556,94.1108401 54.2865556,99.2788401 53.5085556,102.144412" transform="rotate(20 54.792 91.237)"/>
                <path fill="#72C1D6" d="M58.7236 42.8008211C58.7236 42.8008211 87.2876.345290323 102.4336 9.73367742 102.4336 9.73367742 120.3556 19.496563 58.8536 44.5839765L58.7236 42.8008211M52.3156 47.325912C52.3156 47.325912 30.4584 79.8135601 18.868 72.6294897 18.868 72.6294897 5.1544 65.1586628 52.216 45.9615249L52.3156 47.325912M58.4148 47.9117889C58.4148 47.9117889 80.2728 80.399437 91.8628 73.2157654 91.8628 73.2157654 105.5764 65.7445396 58.5148 46.5478006L58.4148 47.9117889"/>
                <path fill="#EED7BA" d="M62.0124543,40.9871255 C61.0300543,41.0999935 59.0972543,40.3677472 57.5300543,39.6713953 L59.3304543,27.4553249 C61.8032543,28.7100346 62.5976543,26.6054246 62.5976543,26.6054246 C62.5976543,26.6054246 67.0040543,18.9778586 65.7784543,18.9778586 C64.2452543,18.9778586 60.1364543,23.4491079 60.1364543,23.4491079 C66.3068543,2.07636891 45.064158,9.14119407 45.064158,9.14119407 C43.8836502,11.2232186 40.5563504,16.4359023 41.5779065,20.5442091 C42.2814343,23.3735285 41.5879203,27.4236991 41.5879203,27.4236991 C45.3460646,39.0734882 50.2408543,32.5455537 52.1452543,34.5843572 C53.4520543,35.9858352 53.2448543,38.1474774 52.9884543,39.3587149 C51.3632543,39.6961226 49.3004543,39.6151607 47.5092543,38.6097179 C44.7444543,37.0606739 42.8180543,38.6097179 42.8180543,38.6097179 C39.3412543,42.4448381 42.9336543,56.229495 44.5012543,60.551583 C46.0628543,64.8740698 45.7640543,72.7393366 45.7640543,72.7393366 C49.2524543,77.8431255 58.5404543,73.542973 58.5404543,73.542973 C57.1220543,70.2574364 62.0736543,58.5953366 62.0736543,58.5953366 C67.1404543,53.4397003 68.3816543,45.4551842 68.3816543,45.4551842 C68.5252543,38.6751255 62.0124543,40.9871255 62.0124543,40.9871255 Z" transform="rotate(-7 54.868 41.63)"/>
                <path fill="#E8BC9E" d="M65.0736 43.8178299C65.0736 43.8178299 65.4304 50.1061349 61.2684 54.9602581L62.6412 56.797654C65.8436 52.5820528 67.062 47.4339941 67.3736 45.8662053L65.0736 43.8178299M41.1612 13.2724692C40.5312 14.9467449 40.0592 16.7502405 39.7096 18.445654 41.9696 15.4959296 47.3112 11.7381818 47.3112 11.7381818 46.4208 11.3134311 43.242 12.4445044 41.1612 13.2724692"/>
                <path fill="#E8BC9E" d="M57.1127518,27.4995292 C55.9447518,28.5368781 55.0487518,28.9049954 54.3647518,28.9049954 C52.6903518,28.9049954 52.2867518,26.6998811 52.2867518,26.6998811 C52.7655518,27.2295233 53.1751518,27.4317286 53.5211518,27.4317286 C54.6387518,27.4313297 55.0963518,25.3227315 55.0963518,25.3227315 C46.0847518,23.0940863 46.6471518,13.208362 46.6471518,13.208362 L50.0507518,13.208362 L59.3107518,13.9286435 C60.3127518,16.0946729 60.4519518,19.3215819 59.1315518,24.0516699 C59.1127518,24.118274 59.1107518,24.1258517 59.1087518,24.1334295 C59.0883518,24.2056171 59.0863518,24.2115995 59.0847518,24.2183796 C59.0643518,24.2901685 59.0619518,24.2973473 59.0599518,24.3041274 C59.0423518,24.3659456 63.1511518,19.8946963 64.6843518,19.8946963 C64.8339518,19.8946963 64.8995518,20.008362 64.8995518,20.2081743 C64.8999518,21.6431538 61.5035518,27.5222623 61.5035518,27.5222623 C61.5035518,27.5222623 61.0323518,28.7713884 59.6851518,28.7713884 C59.2835518,28.7713884 58.8043518,28.6605145 58.2363518,28.3721626 L56.3491518,41.1773004 C56.3491518,41.1773004 54.7047518,41.5888899 53.7775518,41.791494 C54.9687518,39.5792007 57.1127518,27.4995292 57.1127518,27.4995292 Z" transform="rotate(-10 55.77 27.5)"/>
                <path fill="#73ADAA" d="M67.8656233,53.8878888 C65.0360233,51.8881703 64.6816233,50.3136014 64.6816233,50.3136014 C59.4828233,42.4834313 54.0076233,48.8407334 54.0076233,48.8407334 C49.1788233,43.0601351 45.4368233,46.2930266 43.3840233,48.276792 C43.6156233,54.1263873 45.6248233,58.4959357 46.5352233,61.0045574 C48.0968233,65.3270442 47.7980233,73.1923111 47.7980233,73.1923111 C51.2864233,78.2961 60.5744233,73.9959475 60.5744233,73.9959475 C62.7196233,64.043619 63.6836233,62.8930032 63.6836233,62.8930032 C65.9908233,59.2449328 67.3528233,55.5829035 67.8656233,53.8878888" transform="rotate(-7 55.625 60.628)"/>
                <path fill="#C9D6B7" d="M58.0296,71.6152727 C59.8728,63.4457009 60.7152,62.3892082 60.7292,62.3720587 C60.7152,62.3892082 59.8728,63.4472962 58.03,71.6152727 M60.7292,62.3720587 L60.7292,62.3720587 C62.2808,59.9184751 63.4052,57.4589091 64.1308,55.5951906 C63.4052,57.4589091 62.2808,59.9184751 60.7292,62.3720587"/>
                <path fill="#74B1A5" d="M64.1308,55.5951906 L64.1308,55.5951906 C64.4844,54.6878592 64.7432,53.9217126 64.9112,53.3669443 C64.7432,53.9217126 64.4844,54.6878592 64.1308,55.5951906 M64.9112,53.3669443 C64.9084,53.3645513 64.9056,53.3625572 64.9024,53.360563 C64.9056,53.3625572 64.9084,53.3645513 64.9112,53.3669443"/>
                <path fill="#AC8E62" d="M64.6732,53.1950499 C64.088,52.765912 63.6172,52.357912 63.2392,51.9838123 C63.2396,51.9830147 63.2396,51.9830147 63.24,51.982217 C63.6172,52.3567155 64.0872,52.7647155 64.6732,53.1950499"/>
                <path fill="#69A6A5" d="M57.0748,71.8274487 L48.1544,71.8274487 C48.316,68.6472023 52.9732,63.1214545 57.1064,59.8139824 C61.6088,56.2105806 62.7464,51.5638475 62.7664,51.4816891 C62.9052,51.6408211 63.062,51.8087273 63.2392,51.9838123 C63.6172,52.357912 64.088,52.765912 64.6732,53.1950499 C64.674,53.1958475 64.6752,53.1966452 64.676,53.1974428 C64.6772,53.1982405 64.678,53.1990381 64.6792,53.1998358 C64.752,53.2528798 64.8264,53.3067214 64.9024,53.360563 C64.9056,53.3625572 64.9084,53.3645513 64.9112,53.3669443 C64.7432,53.9217126 64.4844,54.6878592 64.1308,55.5951906 C63.4052,57.4589091 62.2808,59.9184751 60.7292,62.3720587 C60.7152,62.3892082 59.8728,63.4457009 58.0296,71.6152727 C57.7208,71.6910499 57.4012,71.7616422 57.0748,71.8274487"/>
                <path fill="#3A4D57" d="M58.4048404,22.2226819 C58.4048404,22.2226819 51.9980404,28.6178725 52.1188404,23.7509869 C52.1188404,23.7509869 53.3692404,27.5107288 56.0760404,21.7412977 C56.0760404,21.7412977 46.8100404,19.1533095 46.0096404,11.0650983 C46.0096404,11.0650983 40.9328404,12.3987757 39.3392404,15.371632 C39.3392404,15.371632 38.1964404,2.22150888 54.7900404,4.64797222 C54.7900404,4.64797222 70.8972404,4.63481093 64.7856404,23.4131804 C64.7856404,23.4131804 62.6768404,34.5751511 77.4952404,29.0210866 C92.3136404,23.4670221 92.8540404,33.2458608 91.7728404,38.4673036 C91.7728404,38.4673036 90.7988404,31.555632 85.3912404,34.4136262 C79.9828404,37.2716203 71.3328404,48.3957024 66.2472404,41.5933095 C66.2472404,41.5933095 65.4348404,38.9431042 62.0816404,39.4284766 C62.0816404,39.4284766 58.3256404,39.1712332 56.3608404,34.6309869 L57.5988404,26.2288989 C57.5988404,26.2288989 60.1348404,27.5653681 61.1908404,24.8074796 C61.1908404,24.8074796 63.5060404,20.0032098 63.8128404,19.6171452 C63.8128404,19.6171452 65.1108404,16.6730045 63.0468404,18.112371 C63.0468404,18.112371 60.1360404,20.2233623 58.4048404,22.2226819" transform="rotate(-10 65.725 24.055)"/>
                <path fill="#73ADAA" d="M57.2794804,23.4295273 C57.2794804,23.4295273 55.4034804,5.62948036 43.2646804,7.76360352 C43.2646804,7.76360352 48.1110804,5.61073549 52.9230804,7.28660646 C52.9230804,7.28660646 60.4982804,11.6354158 57.6018804,23.1328 L57.2794804,23.4295273" transform="rotate(-14 50.763 15.039)"/>
                <path fill="#73ADAA" d="M62.9764078,50.7543872 C61.6292078,47.4473139 62.5484078,40.9556071 62.5484078,40.9556071 C62.5484078,40.9556071 60.4156078,40.9376599 59.1504078,40.421179 C59.1504078,40.421179 54.6860078,44.7743755 51.5028078,39.6398769 C51.5028078,39.6398769 48.9692078,39.2745514 47.5736078,38.715396 C47.5736078,38.715396 40.7676078,45.0292259 41.5140078,49.4207098 L62.9764078,50.7543872" transform="rotate(-6 52.217 44.735)"/>
                <path fill="#73ADAA" d="M57.8188714,91.4935796 C57.5788714,101.658483 51.4220714,107.598612 51.4220714,107.598612 C51.8036714,102.996946 49.0208714,99.6898729 49.0208714,99.6898729 C39.2148714,82.7221778 47.9900714,71.3635855 47.9900714,71.3635855 L61.1100714,71.3635855 C67.1928714,70.5104946 72.9620714,77.7930752 77.5768714,85.0226119 C81.4344714,91.0664359 87.3244714,87.4670224 87.3244714,87.4670224 C80.2580714,100.408559 61.8516714,84.5914799 61.8516714,84.5914799 C61.8516714,84.5914799 56.9624714,81.2840077 55.4436714,79.4147057 C55.4436714,79.4147057 57.9524714,85.8453919 57.8188714,91.4935796"/>
                <path fill="#C9D6B7" d="M74.4376,85.4689267 C74.4364,85.4673314 74.4356,85.4661349 74.4344,85.4641408 C74.4356,85.4661349 74.4364,85.4673314 74.4376,85.4689267 M74.388,85.3911554 C74.3752,85.3712141 74.3624,85.3512727 74.3496,85.3313314 C74.3624,85.3512727 74.3752,85.3712141 74.388,85.3911554 M74.328,85.2974311 C74.3272,85.2966334 74.3264,85.295437 74.326,85.2946393 C74.3264,85.295437 74.3272,85.2966334 74.328,85.2974311 M74.3164,85.2794839 C74.3148,85.2774897 74.3136,85.2754956 74.3124,85.2731026 C74.3136,85.2754956 74.3148,85.2774897 74.3164,85.2794839 M57.982,71.8274487 C58.3104,71.7815836 58.6364,71.7592493 58.9628,71.7592493 C58.6368,71.7592493 58.31,71.7815836 57.982,71.8274487 M58.9656,71.7592493 C58.9644,71.7592493 58.964,71.7592493 58.9628,71.7592493 C58.964,71.7592493 58.9644,71.7592493 58.9656,71.7592493"/>
                <path fill="#69A6A5" d="M80.4088714,89.9054506 C78.0628714,89.9054506 75.8164714,89.0499667 74.6200714,86.8197262 C71.3028714,80.6363127 63.0828714,75.3881485 63.0828714,75.3881485 C64.5268714,79.7568992 65.2964714,84.738647 65.6348714,87.4040077 C64.8936714,86.9086646 64.2372714,86.4408406 63.6876714,86.0332394 L58.9656714,78.8391984 L57.5300714,71.3635855 L61.1100714,71.3635855 C61.4380714,71.3177204 61.7648714,71.295386 62.0908714,71.295386 C62.0920714,71.295386 62.0924714,71.295386 62.0936714,71.295386 C67.7532714,71.2985767 73.0996714,78.0419432 77.4404714,84.8092394 C77.4416714,84.8116324 77.4428714,84.8136265 77.4444714,84.8156207 C77.4476714,84.8204066 77.4508714,84.8259902 77.4540714,84.8307761 C77.4544714,84.8315737 77.4552714,84.8327702 77.4560714,84.8335679 C77.4632714,84.8451338 77.4704714,84.856301 77.4776714,84.8674682 C77.4904714,84.8874095 77.5032714,84.9073509 77.5160714,84.9272922 C77.5312714,84.9516207 77.5472714,84.9763479 77.5624714,85.0002775 C77.5636714,85.0022717 77.5644714,85.0034682 77.5656714,85.0050635 C77.5692714,85.0110459 77.5732714,85.0170283 77.5768714,85.0226119 C79.3376714,87.7816969 81.5216714,88.5314916 83.3752714,88.5314916 C85.2264714,88.5310928 86.7488714,87.783691 87.1916714,87.5424007 C85.6248714,88.8956207 82.9580714,89.9054506 80.4088714,89.9054506"/>
                <path fill="#5C9796" d="M50.7208714,71.3635855 C50.7208714,71.3635855 51.2420714,103.186389 65.8516714,108.915539 C65.8516714,108.915539 71.7180714,88.9079843 59.0712714,71.3635855 L50.7208714,71.3635855"/>
                <path fill="#C9D969" d="M48.802031,71.1544637 C48.802031,71.1544637 48.293231,72.0023698 48.801231,72.5220414 C48.801231,72.5220414 54.630831,75.0218889 61.921231,72.5220414 C61.921231,72.5220414 62.882031,72.2871323 62.234031,71.1544637 C62.234031,71.1544637 53.378831,72.7186631 48.802031,71.1544637"/>
                <path fill="#EED7BA" d="M92.7436482,63.1632274 L92.7436482,63.1636263 C90.8024482,59.6483653 82.9780482,48.4676497 82.9780482,48.4676497 C76.8296482,44.6113917 69.3764482,41.4478961 65.2472482,39.8218785 L65.2472482,45.9869459 C69.4008482,47.0558022 78.0580482,49.3275207 80.4424482,50.3006585 C80.4424482,50.3006585 90.2900482,62.8110632 90.9188482,63.9608814 C91.0424482,64.1870163 91.1628482,64.3668873 91.2800482,64.5108638 C91.4184482,65.3268638 91.8628482,67.1694444 93.1336482,68.0229342 C93.1336482,68.0229342 95.0808482,70.3704298 95.8016482,69.64616 C95.8016482,69.64616 96.8112482,64.9814796 92.7436482,63.1632274"/>
                <path fill="#EEB48D" d="M9.50115958,34.5505498 C8.81715958,35.5368489 7.33595958,35.6967785 6.19275958,34.9082976 C5.05035958,34.1202155 4.67835958,32.6816465 5.36275958,31.6953474 C6.04675958,30.7094471 7.52795958,30.5491187 8.67075958,31.3375996 C9.81355958,32.1260806 10.1855596,33.5646495 9.50115958,34.5505498"/>
                <polyline fill="#0B1114" points="8.8 37.213 8.314 37.349 3.039 18.649 3.525 18.512 8.8 37.213"/>
                <polyline fill="#EFAD61" points="2.17 15.395 3.569 16.859 5.57 16.54 4.606 18.318 5.529 20.118 3.536 19.754 2.104 21.184 1.836 19.181 .028 18.266 1.856 17.392 2.17 15.395"/>
                <path fill="#E8BC9E" d="M95.1372482,69.7163535 C94.2780482,69.3996849 93.1336482,68.0229342 93.1336482,68.0229342 C91.8628482,67.1694444 91.4184482,65.3268638 91.2800482,64.5108638 C91.1628482,64.3668873 91.0424482,64.1870163 90.9188482,63.9608814 C90.2900482,62.8110632 80.4424482,50.3006585 80.4424482,50.3006585 C78.3836482,49.4607289 71.6480482,47.6516497 67.1728482,46.4854796 C66.4652482,46.3012216 65.8140482,46.1325178 65.2472482,45.9869459 L65.2472482,42.8330222 C67.9140482,43.4763301 81.5084482,49.5959312 81.5084482,49.5959312 C81.9412482,50.3162128 92.3248482,64.1906057 92.3248482,64.1906057 C92.0248482,64.9260427 93.9948482,68.0193447 95.1372482,69.7163535"/>
                <g id="stars-shine">
                    <polyline fill="#EE9F41" points="32 57.5 30.5 57.5 30.5 56 29.5 56 29.5 57.5 28 57.5 28 58.5 29.5 58.5 29.5 60 30.5 60 30.5 58.5 32 58.5 32 57.5"/>
                    <polyline fill="#EE9F41" points="36 15.125 34.875 15.125 34.875 14 34.125 14 34.125 15.125 33 15.125 33 15.875 34.125 15.875 34.125 17 34.875 17 34.875 15.875 36 15.875 36 15.125"/>
                    <polyline fill="#EE9F41" points="6 59.125 4.875 59.125 4.875 58 4.125 58 4.125 59.125 3 59.125 3 59.875 4.125 59.875 4.125 61 4.875 61 4.875 59.875 6 59.875 6 59.125"/>
                    <polyline fill="#EE9F41" points="116 24.5 114.5 24.5 114.5 23 113.5 23 113.5 24.5 112 24.5 112 25.5 113.5 25.5 113.5 27 114.5 27 114.5 25.5 116 25.5 116 24.5"/>
                    <path fill="#EE9F41" d="M36.4492494 73.7340784L36.4492494 73.7340784C36.1561064 71.4936937 34.7694905 69.7381721 33 69.3670392 34.7694905 68.9957805 36.1561064 67.2402589 36.4492494 65 36.7424918 67.2402589 38.1291077 68.9957805 39.8985982 69.3670392 38.1291077 69.7381721 36.7424918 71.4936937 36.4492494 73.7340784M81.4492494 15.7340784L81.4492494 15.7340784C81.1561064 13.4936937 79.7694905 11.7381721 78 11.3670392 79.7694905 10.9957805 81.1561064 9.2402589 81.4492494 7 81.7424918 9.2402589 83.1291077 10.9957805 84.8985982 11.3670392 83.1291077 11.7381721 81.7424918 13.4936937 81.4492494 15.7340784M14.9745927 63L14.9745927 63C14.806777 61.7174464 14.0129807 60.7124625 13 60.5 14.0129807 60.2874654 14.806777 59.2824816 14.9745927 58 15.1424652 59.2824816 15.9362616 60.2874654 16.9492422 60.5 15.9362616 60.7124625 15.1424652 61.7174464 14.9745927 63M9.97459266 56L9.97459266 56C9.80677703 54.7174464 9.01298066 53.7124625 8 53.5 9.01298066 53.2874654 9.80677703 52.2824816 9.97459266 51 10.1424652 52.2824816 10.9362616 53.2874654 11.9492422 53.5 10.9362616 53.7124625 10.1424652 54.7174464 9.97459266 56M118.369511 18L118.369511 18C118.168132 16.4609357 117.215577 15.2549551 116 15 117.215577 14.7449585 118.168132 13.5389779 118.369511 12 118.570958 13.5389779 119.523514 14.7449585 120.739091 15 119.523514 15.2549551 118.570958 16.4609357 118.369511 18"/>
                </g>
            </g>

           
          </g>
          
          
        </g>  
        </g>
        
        <!-- end of God -->
        <!-- Text box-->
        <g xmlns="http://www.w3.org/2000/svg" transform="translate(760 97)">
              <path fill="#FFF" d="M75.896026,112 L277,112 C307.927946,112 333,86.927946 333,56 L333,56 C333,25.072054 307.927946,-5.68137151e-15 277,0 L56,0 L56,-1.42108547e-14 C25.072054,-8.52948321e-15 -3.78758101e-15,25.072054 0,56 L0,56 L0,56 C3.78758101e-15,86.927946 25.072054,112 56,112 L56,112 L56.2748869,112 C55.0175725,114.783401 53.344055,117.084935 51.2543344,118.904604 C47.4344541,122.230846 43.0163426,124.345336 38,125.248072 C49.3769072,126.588294 57.6064359,126.136926 62.6885861,123.893967 C68.0984914,121.506357 73.3318449,117.66921 75.896026,112 Z"/>
              <text fill="#FFA626" font-family="MicrosoftJhengHeiBold, Microsoft JhengHei" font-size="22" font-weight="bold" letter-spacing="1.077">
                <tspan x="39.076" y="44"></tspan> <tspan x="96.769" y="78"></tspan>
              </text>
            </g>
        <!-- end of text box -->
    </g>
</svg>